<svg xmlns="http://www.w3.org/2000/svg" width="198.32" height="210.114" viewBox="0 0 198.32 210.114">
  <path id="Path_2432" data-name="Path 2432" d="M2955.784,309.489l-86.646,40.161.542-98.271,86.336-27.624Z" transform="translate(-2779.212 -139.536)" fill="#b78c58"/>
  <path id="Path_2433" data-name="Path 2433" d="M2633.191,185.8l65.007,23.681,86.1-27.624-79.68-15.749Z" transform="translate(-2607.73 -97.643)" fill="#99744b"/>
  <path id="Path_2434" data-name="Path 2434" d="M2894.636,125.385l30.713-15.311,70.714,15.311-21.516,15.749Z" transform="translate(-2797.744 -56.916)" fill="#f2d08b"/>
  <path id="Path_2435" data-name="Path 2435" d="M2894.636,166.113v41.922l17.172-6.119,62.739-20.054Z" transform="translate(-2797.744 -97.643)" fill="#d3b875"/>
  <path id="Path_2436" data-name="Path 2436" d="M2698.2,261.867l-.542,98.271L2633.191,333.5V238.186Z" transform="translate(-2607.73 -150.025)" fill="#d3b875"/>
  <path id="Path_2437" data-name="Path 2437" d="M2871.124,251.379l19.91,35.324,87.941-34.949-21.516-28Z" transform="translate(-2780.655 -139.536)" fill="#f2d08b"/>
  <path id="Path_2438" data-name="Path 2438" d="M2630.468,261.867l-20.251,32.828L2540,264.179l25.461-25.993Z" transform="translate(-2540 -150.025)" fill="#f2d08b"/>
  <path id="Path_2439" data-name="Path 2439" d="M2582.23,117.718l-19.158-31.256,73.355-14.031,17.234,25.6Z" transform="translate(-2556.768 -29.557)" fill="#d3b875"/>
  <g id="Group_206" data-name="Group 206" transform="translate(-289.529 -247.065)">
    <path id="Path_2440" data-name="Path 2440" d="M395.952,327.165h0a1.072,1.072,0,0,1-1.068-1.076l.344-77.959a1.07,1.07,0,0,1,1.071-1.065h0a1.067,1.067,0,0,1,1.065,1.076l-.343,77.956A1.07,1.07,0,0,1,395.952,327.165Z" fill="#b2b2b2"/>
  </g>
  <path id="Path_2441" data-name="Path 2441" d="M425.978,327.525l-.136-3.379a1.646,1.646,0,0,0-1.71-1.577l-42.756,1.737a.552.552,0,0,0-.532.576l.09,2.231a1.4,1.4,0,0,0-.725-.173l-18.526.76c-2.528-2.364-5.677-4.372-7.989-4.737l-12.345.461a2.834,2.834,0,0,0-2.468,2.245l.264,5.092h24.349v-.892l17.523-.719.007.2Z" transform="translate(-289.529 -247.065)" fill="#4dbfd9"/>
  <g id="Group_207" data-name="Group 207" transform="translate(-289.529 -247.065)">
    <path id="Path_2442" data-name="Path 2442" d="M396.048,268.4l-.007-5.754-1.448,3.641-2.4,6.026-20.776,52.2,16.709-1.825,8-.873Z" fill="#4dbfd9"/>
    <path id="Path_2443" data-name="Path 2443" d="M396.048,268.4l-.007-5.754-1.448,3.641-2.4,6.026L383.2,323.225l12.922-1.412Z" fill="#15a0c9"/>
  </g>
  <path id="Path_2444" data-name="Path 2444" d="M392.02,320.814l11.93-71.171,34.118,71.969Z" transform="translate(-289.529 -247.065)" fill="#95d8e9"/>
  <path id="Path_2445" data-name="Path 2445" d="M392.02,320.814l2.074-12.383,33.228-9.485,2.5,5.275Z" transform="translate(-289.529 -247.065)" fill="#fff" opacity="0.5"/>
  <path id="Path_2446" data-name="Path 2446" d="M394.373,306.772l1.75-10.434,24.886-10.711,3.464,7.306Z" transform="translate(-289.529 -247.065)" fill="#fff" opacity="0.5"/>
  <path id="Path_2447" data-name="Path 2447" d="M344.236,329.867l-3,.093-.162-4.634,3-.092Z" transform="translate(-289.529 -247.065)" fill="#34495e"/>
  <path id="Path_2448" data-name="Path 2448" d="M361.537,329.337l-9.418.289-.161-4.635,3-.091s2.055,1.05,3.3,1.832A33.475,33.475,0,0,1,361.537,329.337Z" transform="translate(-289.529 -247.065)" fill="#34495e"/>
  <path id="Path_2449" data-name="Path 2449" d="M348.274,329.744l-2.068.063-.161-4.634,2.068-.064Z" transform="translate(-289.529 -247.065)" fill="#34495e"/>
  <path id="Path_2450" data-name="Path 2450" d="M332.226,331.037l-.7,6.416c1.743,5.267,50.972,7.132,63.172,6.529,21.167-1.046,35.021-.254,38.447-4.656.746-.959,4.923-12.534,4.923-12.534Z" transform="translate(-289.529 -247.065)" fill="#1bbc9b"/>
  <path id="Path_2451" data-name="Path 2451" d="M335.51,339.679c11.32,3.645,49.834,4.766,59.191,4.3,21.167-1.046,35.021-.254,38.447-4.656Z" transform="translate(-289.529 -247.065)" fill="#f9b39a"/>
  <rect id="Rectangle_336" data-name="Rectangle 336" width="0.502" height="2.447" transform="translate(144.025 77.49) rotate(-1.894)" fill="#34495e"/>
  <rect id="Rectangle_337" data-name="Rectangle 337" width="0.502" height="2.448" transform="translate(125.927 78.193) rotate(-2.004)" fill="#34495e"/>
  <rect id="Rectangle_338" data-name="Rectangle 338" width="0.501" height="2.448" transform="matrix(0.999, -0.035, 0.035, 0.999, 135.412, 77.814)" fill="#34495e"/>
  <rect id="Rectangle_339" data-name="Rectangle 339" width="0.502" height="2.446" transform="translate(116.611 78.622) rotate(-2.122)" fill="#34495e"/>
  <rect id="Rectangle_340" data-name="Rectangle 340" width="0.502" height="2.448" transform="translate(108.056 78.945) rotate(-1.898)" fill="#34495e"/>
  <rect id="Rectangle_341" data-name="Rectangle 341" width="40.138" height="1.021" transform="translate(107.229 78.007) rotate(-2.354)" fill="#34495e"/>
  <path id="Path_2452" data-name="Path 2452" d="M436.73,330.452l-104.85,3.758.161-1.492,105.246-3.779Z" transform="translate(-289.529 -247.065)" fill="#34495e"/>
  <path id="Rectangle_342" data-name="Rectangle 342" d="M.506,0H2.3a.506.506,0,0,1,.506.506V.752A.509.509,0,0,1,2.3,1.26H.506A.506.506,0,0,1,0,.755V.506A.506.506,0,0,1,.506,0Z" transform="translate(44.437 87.801) rotate(-2.307)" fill="#34495e"/>
  <path id="Path_2453" data-name="Path 2453" d="M341.206,335.866l-1.793.07a.5.5,0,0,1-.525-.484l-.011-.248a.507.507,0,0,1,.485-.526l1.793-.072a.509.509,0,0,1,.527.487l.01.247A.51.51,0,0,1,341.206,335.866Z" transform="translate(-289.529 -247.065)" fill="#34495e"/>
  <path id="Path_2454" data-name="Path 2454" d="M346.675,335.7l-1.794.07a.505.505,0,0,1-.525-.484l-.01-.248a.508.508,0,0,1,.485-.527l1.793-.071a.508.508,0,0,1,.526.487l.011.247A.509.509,0,0,1,346.675,335.7Z" transform="translate(-289.529 -247.065)" fill="#34495e"/>
  <path id="Path_2455" data-name="Path 2455" d="M385.287,334.308l-1.792.071a.509.509,0,0,1-.527-.487l-.009-.245a.51.51,0,0,1,.486-.528l1.793-.071a.508.508,0,0,1,.526.487l.01.247A.51.51,0,0,1,385.287,334.308Z" transform="translate(-289.529 -247.065)" fill="#34495e"/>
  <path id="Path_2456" data-name="Path 2456" d="M390.178,334.141l-1.793.07a.505.505,0,0,1-.526-.484l-.01-.249a.507.507,0,0,1,.485-.526l1.793-.071a.507.507,0,0,1,.526.485l.011.247A.51.51,0,0,1,390.178,334.141Z" transform="translate(-289.529 -247.065)" fill="#34495e"/>
  <path id="Path_2457" data-name="Path 2457" d="M395.646,333.978l-1.794.072a.509.509,0,0,1-.525-.486l-.01-.248a.508.508,0,0,1,.487-.525l1.792-.073a.51.51,0,0,1,.526.487l.011.246A.509.509,0,0,1,395.646,333.978Z" transform="translate(-289.529 -247.065)" fill="#34495e"/>
  <path id="Path_2458" data-name="Path 2458" d="M401.385,333.81l-1.792.073a.508.508,0,0,1-.527-.486l-.01-.248a.508.508,0,0,1,.486-.526l1.794-.07a.505.505,0,0,1,.525.484l.009.248A.505.505,0,0,1,401.385,333.81Z" transform="translate(-289.529 -247.065)" fill="#34495e"/>
  <path id="Path_2459" data-name="Path 2459" d="M406.275,333.644l-1.794.071a.507.507,0,0,1-.525-.486l-.011-.248a.51.51,0,0,1,.487-.526l1.793-.071a.509.509,0,0,1,.526.486l.011.247A.511.511,0,0,1,406.275,333.644Z" transform="translate(-289.529 -247.065)" fill="#34495e"/>
  <path id="Rectangle_343" data-name="Rectangle 343" d="M.507,0H2.3a.509.509,0,0,1,.509.509V.755a.506.506,0,0,1-.506.506H.507A.507.507,0,0,1,0,.754V.507A.507.507,0,0,1,.507,0Z" transform="translate(119.865 85.249) rotate(-2.277)" fill="#34495e"/>
</svg>
