<svg xmlns="http://www.w3.org/2000/svg" width="109.878" height="114.824" viewBox="0 0 109.878 114.824">
  <g id="Group_3233" data-name="Group 3233" transform="translate(-305.885 -1957.879)">
    <g id="Group_241" data-name="Group 241" transform="matrix(0.966, -0.259, 0.259, 0.966, -920.415, 1057.24)">
      <path id="Path_2474" data-name="Path 2474" d="M972.178,1273.5s1.158,5.2,6.856,10.571c3.322,3.133,15.293.895,20.9,9.35,4.928,7.425,4.092,18.362,4.092,18.362l27.782-14.259s.571-10.291-6.827-17.171c-5.01-4.659-16.474-2.318-22.906-7.926a71.178,71.178,0,0,1-6.87-7.57Z" transform="translate(0)" fill="#bde377"/>
      <path id="Path_2475" data-name="Path 2475" d="M997.311,1293.435s1.449,4.309,6.6,8.585c3.025,2.509,16.554.936,21.387,8.085,4.244,6.279,4.383,16.95,4.383,16.95l23.925-11.942s-.733-9.64-7.116-15.452c-4.323-3.936-16.5-2.228-22.054-6.964-2.516-2.147-6.12-7.348-6.12-7.348Z" transform="translate(-23.337 -19.031)" fill="#6ba638"/>
      <path id="Path_2476" data-name="Path 2476" d="M1021.321,1312.516s1.042,3.062,6,6.839c4.492,3.42,16.9.617,21.415,7.828,3.967,6.333,4.74,15.386,4.74,15.386l20.663-10.212a21.322,21.322,0,0,0-6.019-13.371c-3.978-4-18.1-2.867-22.959-7.867a50.265,50.265,0,0,1-4.783-6.086Z" transform="translate(-45.63 -37.31)" fill="#bde377"/>
      <path id="Path_2477" data-name="Path 2477" d="M1246.242,1453.195c-2.027-.862-4.029-2.942-.279-5.4a20.163,20.163,0,0,1,13.7-2.924c3.967.662,6.333,3.556,1.417,6.618s-9.351,3.991-11.172,3.568A11.272,11.272,0,0,1,1246.242,1453.195Z" transform="translate(-247.948 -166.943)" fill="#6ba638"/>
      <path id="Path_2478" data-name="Path 2478" d="M1194.59,1400.022a1.7,1.7,0,1,1-2.047-.81A1.567,1.567,0,0,1,1194.59,1400.022Z" transform="translate(-201.208 -124.658)" fill="#6ba638"/>
      <path id="Path_2479" data-name="Path 2479" d="M1511.624,1626.526a1.678,1.678,0,1,1-2.146-1.1A1.705,1.705,0,0,1,1511.624,1626.526Z" transform="translate(-492.223 -334.719)" fill="#6ba638"/>
      <path id="Path_2480" data-name="Path 2480" d="M1306.028,1458.267l.73-.457-1.271-.62-.807.553a6.349,6.349,0,0,0-1.877-.224c-1.274.081-4.349.992-3.533,2.291.7,1.121,3.286,1.94,1.084,2.957-1.055.487-3.029-.283-3.083-1.135a1.341,1.341,0,0,1,.468-1.045l-.968-.792s-2.539,1.787-.381,3.636l.006.005-.845.58,1.185.609.823-.515a5.974,5.974,0,0,0,4.648-.192,1.723,1.723,0,0,0,.314-2.978c-.85-.619-1.938-1.3-1.148-1.85a3.055,3.055,0,0,1,3.077-.182,1.167,1.167,0,0,1,.275,1.545l1.466.61s1.2-1.021.666-2.038A2.047,2.047,0,0,0,1306.028,1458.267Z" transform="translate(-296.165 -178.59)" fill="#bde377"/>
    </g>
    <g id="Group_3232" data-name="Group 3232">
      <g id="Group_243" data-name="Group 243" transform="translate(144.072 899.014)">
        <g id="Group_211" data-name="Group 211" transform="translate(215.995 1058.865)">
          <path id="Path_2461" data-name="Path 2461" d="M368.71,1360.681c.5.181,2.207,3.406,8.8,5.586,2.968.98,8.764-.542,8.764-.542l9.64,13.5a21.692,21.692,0,0,1-6.657,1.406c-8.912.475-12.42-2.276-12.42-2.276l-2.26-2.047Z" transform="translate(-361.204 -1345.846)" fill="#a8c469"/>
          <path id="Path_2462" data-name="Path 2462" d="M445.915,1444.89s3.655,2.326,6.366,2.536a41.858,41.858,0,0,0,7.112-.69l8.3,11.859s-6.4,1.6-9.532,1.121c-9.789-1.508-10.129-3.586-10.129-3.586l-.449-.874a23.126,23.126,0,0,0,10.278,3.51,22.3,22.3,0,0,0,8.293-.845l-7.113-10.313a32.427,32.427,0,0,1-6.6.605c-2.449-.2-6.514-2.351-6.514-2.351Z" transform="translate(-434.614 -1425.917)" fill="#639334"/>
          <path id="Path_2463" data-name="Path 2463" d="M406.8,1451.82c1.306.719,3.809,1.872,5.194,3.507.946,1.117,2.611,4.334,2.374,5.665-.161.906-1,1.973-2.8,1.115a29.455,29.455,0,0,1-3.518-2.041Z" transform="translate(-397.426 -1432.506)" fill="#639334"/>
          <path id="Path_2464" data-name="Path 2464" d="M434.455,1497.083l-.157-.538.887.249.153.619a4.131,4.131,0,0,1,1.01.7c.584.592,1.685,2.367.726,2.645-.828.24-2.438-.48-1.808.968.3.694,1.6,1.175,1.991.784a.873.873,0,0,0,.225-.711l.814.035s.46,1.969-1.39,1.933H436.9l.16.648-.84-.217-.177-.607a3.89,3.89,0,0,1-2.176-2.107A1.122,1.122,0,0,1,435,1499.9c.681.068,1.507.206,1.36-.4a1.989,1.989,0,0,0-1.417-1.422c-.653-.089-.8.632-.8.632l-.977-.338s-.142-1.017.559-1.28A1.335,1.335,0,0,1,434.455,1497.083Z" transform="translate(-422.48 -1475.033)" fill="#a8c469"/>
          <path id="Path_2465" data-name="Path 2465" d="M217.719,1058.865l12.4,12.03s-2.052,6.174-1.81,9.529c.6,8.253,3.338,10.965,3.338,10.965s-3.146-1.756-6.68-6.633a97.243,97.243,0,0,1-8.4-13.786,15.328,15.328,0,0,1-.542-5.017A43.152,43.152,0,0,1,217.719,1058.865Z" transform="translate(-215.995 -1058.865)" fill="#bde377"/>
          <path id="Path_2466" data-name="Path 2466" d="M242.537,1123.291a17.167,17.167,0,0,1-2.877-8.253c-.3-3.028,1.671-10.53,1.671-10.53l-10.7-10.887s-.992,3.344-1.329,5.407a16.424,16.424,0,0,0,.206,5.951l.822,1.552a18.14,18.14,0,0,1-.213-6.125,27.029,27.029,0,0,1,1.146-4.717c.029.078,8.969,9.2,8.969,9.2s-1.447,7.181-1.375,9.591a14.821,14.821,0,0,0,2.43,7.771Z" transform="translate(-228.477 -1091.913)" fill="#6ba638"/>
          <path id="Path_2467" data-name="Path 2467" d="M317.754,1461.346a31.536,31.536,0,0,0-1.806-4.255c-1.144-2.386-3.21-4.492-3.783-4.6-.374-.071-.491.038-.527.122,1.194,1.94,2.635,4.14,4.3,6.443C316.562,1459.913,317.171,1460.674,317.754,1461.346Z" transform="translate(-306.936 -1433.122)" fill="#6ba638"/>
          <path id="Path_2468" data-name="Path 2468" d="M665.894,1588.847c-.478.332-1.247.052-1.718-.626a1.333,1.333,0,0,1,.013-1.828c.478-.332,1.247-.052,1.718.626A1.334,1.334,0,0,1,665.894,1588.847Z" transform="translate(-641.815 -1560.331)" fill="#639334"/>
          <path id="Path_2469" data-name="Path 2469" d="M315.508,1310.434a1.546,1.546,0,1,1-.112-1.882A1.357,1.357,0,0,1,315.508,1310.434Z" transform="translate(-308.44 -1295.706)" fill="#6ba638"/>
        </g>
        <path id="Path_2470" data-name="Path 2470" d="M818.727,1688.829c-.889.706-2.812-.172-1.753-1.327.759-.829,2.3.262,2.048,1.106Z" transform="translate(-571.146 -597.458)" fill="#639334"/>
        <path id="Path_2471" data-name="Path 2471" d="M685.921,1492.074c-1.4-.118-1.47,1.12-.148,1.4.565.118,1.056.24,1.106-.438a.981.981,0,0,0-.811-.958Z" transform="translate(-445.786 -411.909)" fill="#639334"/>
        <path id="Path_2472" data-name="Path 2472" d="M429.186,1299.847c-.581-.708-1.034.238-1.032.811a2.467,2.467,0,0,0,.645,1.784c.648.533.927-.2,1.108-.9a1.462,1.462,0,0,0-.5-1.548Z" transform="translate(-201.731 -228.897)" fill="#6ba638"/>
        <path id="Path_2473" data-name="Path 2473" d="M256.607,1111.245h-.221c-.166.957-.442,4.055,1.474,2.949C259.234,1113.4,257.354,1111.835,256.607,1111.245Z" transform="translate(-38.294 -49.805)" fill="#6ba638"/>
      </g>
      <g id="Group_242" data-name="Group 242" transform="matrix(-0.966, 0.259, -0.259, -0.966, 1614.774, 2984.554)">
        <path id="Path_2474-2" data-name="Path 2474" d="M972.178,1270.115a14.113,14.113,0,0,0,4.174,6.435c2.023,1.908,9.311.545,12.727,5.692,3,4.521,2.491,11.179,2.491,11.179l16.914-8.681s.348-6.265-4.156-10.454c-3.05-2.837-10.03-1.411-13.946-4.825a43.336,43.336,0,0,1-4.182-4.609Z" transform="translate(0)" fill="#bde377"/>
        <path id="Path_2475-2" data-name="Path 2475" d="M997.311,1290.271a13.06,13.06,0,0,0,4.021,5.226c1.842,1.528,10.078.57,13.021,4.922,2.584,3.823,2.668,10.32,2.668,10.32l14.566-7.271s-.446-5.869-4.332-9.408c-2.632-2.4-10.047-1.356-13.427-4.24a31.079,31.079,0,0,1-3.726-4.474Z" transform="translate(-24.039 -19.604)" fill="#6ba638"/>
        <path id="Path_2476-2" data-name="Path 2476" d="M1021.321,1309.59s.634,1.864,3.655,4.163c2.735,2.082,10.288.375,13.038,4.766,2.415,3.856,2.886,9.367,2.886,9.367l12.58-6.217a12.981,12.981,0,0,0-3.664-8.141c-2.422-2.436-11.017-1.745-13.978-4.789a30.6,30.6,0,0,1-2.912-3.7Z" transform="translate(-47.004 -38.434)" fill="#bde377"/>
        <path id="Path_2477-2" data-name="Path 2477" d="M1245.309,1449.851c-1.234-.525-2.453-1.791-.17-3.288a12.276,12.276,0,0,1,8.339-1.78c2.415.4,3.855,2.165.862,4.029s-5.693,2.43-6.8,2.172A6.862,6.862,0,0,1,1245.309,1449.851Z" transform="translate(-257.231 -171.97)" fill="#6ba638"/>
        <path id="Path_2478-2" data-name="Path 2478" d="M1193.323,1399.664a1.034,1.034,0,1,1-1.247-.493A.954.954,0,0,1,1193.323,1399.664Z" transform="translate(-208.235 -128.412)" fill="#6ba638"/>
        <path id="Path_2479-2" data-name="Path 2479" d="M1510.344,1626.062a1.021,1.021,0,1,1-1.306-.669A1.038,1.038,0,0,1,1510.344,1626.062Z" transform="translate(-509.417 -344.799)" fill="#6ba638"/>
        <path id="Path_2480-2" data-name="Path 2480" d="M1301.917,1457.846l.444-.278-.774-.378-.491.337a3.866,3.866,0,0,0-1.143-.136c-.776.049-2.648.6-2.151,1.395.429.683,2,1.181.66,1.8-.642.3-1.844-.172-1.877-.691a.816.816,0,0,1,.285-.636l-.59-.482s-1.546,1.088-.232,2.214l0,0-.515.353.722.371.5-.313a3.637,3.637,0,0,0,2.829-.117,1.049,1.049,0,0,0,.191-1.813c-.518-.377-1.18-.793-.7-1.127a1.86,1.86,0,0,1,1.873-.111.71.71,0,0,1,.167.94l.892.372s.732-.621.406-1.24A1.247,1.247,0,0,0,1301.917,1457.846Z" transform="translate(-306.796 -183.968)" fill="#bde377"/>
      </g>
    </g>
  </g>
</svg>
