<svg xmlns="http://www.w3.org/2000/svg" width="143.025" height="253.519" viewBox="0 0 143.025 253.519">
  <g id="Group_3233" data-name="Group 3233" transform="translate(-442.164 -474.136)">
    <g id="Group_188" data-name="Group 188" transform="translate(-1248.252 -194.636)">
      <path id="Path_2399" data-name="Path 2399" d="M1768.129,810.548s-10.038,9.787-12.616,22.106.712,39.662-3.347,48.882-9.031,17.872-9.031,17.872l47.225,22.882s9.256-21.426,10.214-31.2c1.334-13.6-4.681-31.334-1.568-40.268,3.694-10.6,15.246-29.548,15.246-29.548Z" fill="#bde377"/>
      <path id="Path_2400" data-name="Path 2400" d="M1801.673,834.3s-7.763,10.06-10.1,21.454-.213,36.5-3.689,45.074-7.682,16.635-7.682,16.635l39.686,19.646a123.291,123.291,0,0,0,8.957-25.791c2.167-10.566-3.732-31.842-1.272-40.216s12.377-26.871,12.377-26.871Z" transform="translate(-32.157 -20.609)" fill="#6ba638"/>
      <path id="Path_2401" data-name="Path 2401" d="M1849.726,891.629c2.332-9.777,10.979-24.227,10.979-24.227l-31.481-8.583s-6.238,6.807-9.333,19.186c-2.687,10.749-.479,36.031-3.546,44.238s-6.727,15.952-6.727,15.952l33.7,14.8a106.142,106.142,0,0,0,7.83-21.124C1854.323,918.805,1847.8,899.7,1849.726,891.629Z" transform="translate(-57.676 -41.877)" fill="#bde377"/>
      <path id="Path_2402" data-name="Path 2402" d="M1866.494,1103.26c-.105-7.165,4.054-10.954,14.78-8.8,12.336,2.479,19.5,10.129,19.382,15.126s-.935,15.649-15.777,12.728c-9.872-1.943-18.964-9.73-18.956-13.226A27.61,27.61,0,0,1,1866.494,1103.26Z" transform="translate(-106.523 -245.783)" fill="#6ba638"/>
      <path id="Path_2403" data-name="Path 2403" d="M1914.721,1148.728l.383-2.975-1.884-.358c.333-4.211-.9-7.177-5.09-8.069-5.631-1.2-6.9,3.131-8.278,5.2s-1.957,3.57-3.547,3.167-2.425-1.373-2.185-3.594c.416-3.862,2.916-3.01,2.916-3.01l.513-3.709s-5.852-1.437-7.2,4.688l-1.751-.343-.335,2.475,1.823.59c.09,3.635,2.105,5.822,4.435,6.558,5.38,1.7,7.159-2.089,8.2-4.17,1.242-2.488,2.358-4.077,4.018-3.756,2.186.423,2.965,2.011,2.331,4.573a3.525,3.525,0,0,1-4.521,2.653l-.534,3.476s7.211,2.674,8.791-3.9Z" transform="translate(-125.902 -281.672)" fill="#bde377"/>
      <path id="Path_2404" data-name="Path 2404" d="M2022.3,960.212a3.066,3.066,0,1,1-1.593-3.912A2.989,2.989,0,0,1,2022.3,960.212Z" transform="translate(-237.128 -126.198)" fill="#6ba638"/>
      <path id="Path_2405" data-name="Path 2405" d="M1939.527,1424.508a3.066,3.066,0,1,1-1.593-3.912A2.989,2.989,0,0,1,1939.527,1424.508Z" transform="translate(-165.321 -528.992)" fill="#6ba638"/>
    </g>
    <g id="Group_189" data-name="Group 189" transform="translate(-1473.07 362.718) rotate(-20)">
      <path id="Path_2399-2" data-name="Path 2399" d="M1760.4,810.548s-6.934,6.76-8.714,15.27.492,27.4-2.312,33.766-6.238,12.345-6.238,12.345l32.621,15.806s6.394-14.8,7.056-21.549c.921-9.4-3.233-21.644-1.083-27.815,2.552-7.323,10.531-20.411,10.531-20.411Z" fill="#bde377"/>
      <path id="Path_2400-2" data-name="Path 2400" d="M1795.033,834.3s-5.362,6.949-6.976,14.819-.147,25.216-2.549,31.135-5.307,11.491-5.307,11.491l27.413,13.571A85.156,85.156,0,0,0,1813.8,887.5c1.5-7.3-2.578-21.995-.879-27.779s8.55-18.561,8.55-18.561Z" transform="translate(-33.675 -21.582)" fill="#6ba638"/>
      <path id="Path_2401-2" data-name="Path 2401" d="M1837.323,881.483c1.611-6.753,7.584-16.735,7.584-16.735l-21.745-5.929a32.659,32.659,0,0,0-6.447,13.253c-1.856,7.425-.331,24.888-2.449,30.557s-4.647,11.019-4.647,11.019l23.277,10.222a73.317,73.317,0,0,0,5.409-14.592C1840.5,900.255,1835.992,887.06,1837.323,881.483Z" transform="translate(-60.4 -43.854)" fill="#bde377"/>
      <path id="Path_2402-2" data-name="Path 2402" d="M1866.318,1100.353c-.073-4.949,2.8-7.566,10.209-6.077,8.521,1.712,13.471,7,13.388,10.448s-.646,10.81-10.9,8.792c-6.819-1.342-13.1-6.721-13.094-9.136A19.077,19.077,0,0,1,1866.318,1100.353Z" transform="translate(-111.553 -257.388)" fill="#6ba638"/>
      <path id="Path_2403-2" data-name="Path 2403" d="M1906.539,1144.553l.265-2.055-1.3-.247c.23-2.909-.62-4.957-3.516-5.573-3.89-.828-4.763,2.163-5.718,3.589s-1.352,2.466-2.45,2.188-1.675-.948-1.51-2.483c.288-2.667,2.014-2.079,2.014-2.079l.354-2.562a4.017,4.017,0,0,0-4.974,3.238l-1.21-.237-.231,1.71,1.259.408a4.559,4.559,0,0,0,3.064,4.53c3.716,1.174,4.945-1.443,5.662-2.88.858-1.719,1.629-2.816,2.776-2.594,1.51.292,2.048,1.389,1.61,3.159a2.435,2.435,0,0,1-3.123,1.832l-.369,2.4s4.981,1.847,6.073-2.694Z" transform="translate(-131.847 -294.972)" fill="#bde377"/>
      <path id="Path_2404-2" data-name="Path 2404" d="M2020.5,958.914a2.118,2.118,0,1,1-1.1-2.7A2.065,2.065,0,0,1,2020.5,958.914Z" transform="translate(-248.325 -132.157)" fill="#6ba638"/>
      <path id="Path_2405-2" data-name="Path 2405" d="M1937.725,1423.21a2.118,2.118,0,1,1-1.1-2.7A2.064,2.064,0,0,1,1937.725,1423.21Z" transform="translate(-173.128 -553.97)" fill="#6ba638"/>
    </g>
    <g id="Group_190" data-name="Group 190" transform="translate(-1371.449 186.849) rotate(-16)">
      <path id="Path_2399-3" data-name="Path 2399" d="M1757.656,810.548s-5.832,5.686-7.33,12.843.413,23.043-1.944,28.4-5.247,10.383-5.247,10.383l27.437,13.294s5.378-12.448,5.934-18.124c.775-7.9-2.719-18.2-.911-23.395,2.146-6.159,8.857-17.167,8.857-17.167Z" transform="translate(0 0)" fill="#bde377"/>
      <path id="Path_2400-3" data-name="Path 2400" d="M1792.676,834.3s-4.51,5.845-5.867,12.464-.124,21.208-2.144,26.187-4.463,9.665-4.463,9.665l23.057,11.414a71.629,71.629,0,0,0,5.2-14.984c1.259-6.139-2.168-18.5-.739-23.365s7.191-15.611,7.191-15.611Z" transform="translate(-34.214 -21.928)" fill="#6ba638"/>
      <path id="Path_2401-3" data-name="Path 2401" d="M1832.92,877.881c1.355-5.68,6.379-14.075,6.379-14.075l-18.29-4.987a27.469,27.469,0,0,0-5.422,11.147c-1.561,6.245-.279,20.933-2.06,25.7s-3.908,9.268-3.908,9.268l19.578,8.6a61.678,61.678,0,0,0,4.549-12.273C1835.591,893.67,1831.8,882.572,1832.92,877.881Z" transform="translate(-61.366 -44.556)" fill="#bde377"/>
      <path id="Path_2402-3" data-name="Path 2402" d="M1866.255,1099.321c-.061-4.163,2.355-6.364,8.587-5.112,7.167,1.44,11.331,5.885,11.261,8.788s-.543,9.092-9.167,7.4c-5.735-1.129-11.018-5.653-11.013-7.684A16.05,16.05,0,0,1,1866.255,1099.321Z" transform="translate(-113.338 -261.508)" fill="#6ba638"/>
      <path id="Path_2403-3" data-name="Path 2403" d="M1903.634,1143.072l.222-1.729-1.095-.208c.194-2.447-.522-4.17-2.957-4.688-3.272-.7-4.006,1.819-4.81,3.018s-1.137,2.074-2.061,1.84-1.409-.8-1.27-2.088c.242-2.244,1.694-1.749,1.694-1.749l.3-2.155a3.379,3.379,0,0,0-4.184,2.724l-1.018-.2-.195,1.438,1.059.343a3.834,3.834,0,0,0,2.577,3.81c3.126.988,4.159-1.214,4.763-2.423.721-1.445,1.37-2.369,2.334-2.182,1.27.246,1.723,1.168,1.354,2.657a2.048,2.048,0,0,1-2.626,1.541l-.31,2.02s4.189,1.554,5.108-2.266Z" transform="translate(-133.957 -299.693)" fill="#bde377"/>
      <path id="Path_2404-3" data-name="Path 2404" d="M2019.856,958.453a1.781,1.781,0,1,1-.926-2.273A1.737,1.737,0,0,1,2019.856,958.453Z" transform="translate(-252.299 -134.272)" fill="#6ba638"/>
      <path id="Path_2405-3" data-name="Path 2405" d="M1937.085,1422.75a1.781,1.781,0,1,1-.925-2.273A1.736,1.736,0,0,1,1937.085,1422.75Z" transform="translate(-175.898 -562.836)" fill="#6ba638"/>
    </g>
    <g id="Group_191" data-name="Group 191" transform="translate(-1375.021 265.196) rotate(-16)">
      <path id="Path_2399-4" data-name="Path 2399" d="M1752.9,810.548s-3.923,3.825-4.931,8.64.278,15.5-1.308,19.105-3.53,6.985-3.53,6.985l18.458,8.943s3.618-8.374,3.992-12.193c.521-5.316-1.829-12.247-.613-15.739,1.444-4.143,5.959-11.549,5.959-11.549Z" transform="translate(0 0)" fill="#bde377"/>
      <path id="Path_2400-4" data-name="Path 2400" d="M1788.594,834.3a23.579,23.579,0,0,0-3.947,8.385c-.913,4.453-.083,14.268-1.442,17.617s-3,6.5-3,6.5l15.511,7.679a48.181,48.181,0,0,0,3.5-10.08c.847-4.13-1.458-12.445-.5-15.718s4.838-10.5,4.838-10.5Z" transform="translate(-35.148 -22.526)" fill="#6ba638"/>
      <path id="Path_2401-4" data-name="Path 2401" d="M1825.294,871.643c.912-3.821,4.292-9.469,4.292-9.469l-12.3-3.355a18.481,18.481,0,0,0-3.648,7.5c-1.05,4.2-.187,14.083-1.386,17.29s-2.629,6.235-2.629,6.235l13.171,5.784a41.5,41.5,0,0,0,3.06-8.256C1827.091,882.265,1824.541,874.8,1825.294,871.643Z" transform="translate(-63.041 -45.772)" fill="#bde377"/>
      <path id="Path_2402-4" data-name="Path 2402" d="M1866.146,1097.533c-.041-2.8,1.585-4.281,5.777-3.439,4.822.969,7.623,3.959,7.575,5.912s-.365,6.116-6.167,4.975c-3.858-.759-7.412-3.8-7.409-5.17A10.8,10.8,0,0,1,1866.146,1097.533Z" transform="translate(-116.431 -268.643)" fill="#6ba638"/>
      <path id="Path_2403-4" data-name="Path 2403" d="M1898.6,1140.5l.15-1.163-.736-.14c.13-1.646-.351-2.8-1.99-3.154-2.2-.468-2.7,1.224-3.236,2.031s-.765,1.4-1.386,1.238-.948-.536-.854-1.4c.163-1.509,1.14-1.177,1.14-1.177l.2-1.45a2.273,2.273,0,0,0-2.814,1.832l-.685-.134-.131.968.712.231a2.579,2.579,0,0,0,1.733,2.563c2.1.664,2.8-.817,3.2-1.63.485-.972.922-1.594,1.571-1.468.854.166,1.159.786.911,1.787a1.378,1.378,0,0,1-1.767,1.037l-.209,1.359s2.818,1.045,3.436-1.525Z" transform="translate(-137.612 -307.871)" fill="#bde377"/>
      <path id="Path_2404-4" data-name="Path 2404" d="M2018.748,957.656a1.2,1.2,0,1,1-.623-1.529A1.168,1.168,0,0,1,2018.748,957.656Z" transform="translate(-259.184 -137.936)" fill="#6ba638"/>
      <path id="Path_2405-4" data-name="Path 2405" d="M1935.977,1421.952a1.2,1.2,0,1,1-.623-1.529A1.168,1.168,0,0,1,1935.977,1421.952Z" transform="translate(-180.698 -578.194)" fill="#6ba638"/>
    </g>
  </g>
</svg>
