<svg xmlns="http://www.w3.org/2000/svg" xmlns:xlink="http://www.w3.org/1999/xlink" width="664.649" height="510.194" viewBox="0 0 664.649 510.194">
  <defs>
    <linearGradient id="linear-gradient" y1="0.5" x2="1" y2="0.5" gradientUnits="objectBoundingBox">
      <stop offset="0" stop-color="#ff44f8"/>
      <stop offset="0.414" stop-color="#fff"/>
      <stop offset="0.996" stop-color="#b756f3"/>
      <stop offset="1" stop-color="#f36f56"/>
    </linearGradient>
    <linearGradient id="linear-gradient-2" y1="0.5" x2="1" y2="0.5" gradientUnits="objectBoundingBox">
      <stop offset="0.004" stop-color="#e38ddd"/>
      <stop offset="1" stop-color="#9571f6"/>
    </linearGradient>
    <linearGradient id="linear-gradient-6" x1="14.277" y1="0.424" x2="13.183" y2="1.627" gradientUnits="objectBoundingBox">
      <stop offset="0" stop-color="#ff928e"/>
      <stop offset="1" stop-color="#feb3b1"/>
    </linearGradient>
    <linearGradient id="linear-gradient-7" x1="-54.245" y1="5.025" x2="-54.857" y2="5.646" gradientUnits="objectBoundingBox">
      <stop offset="0" stop-color="#09005d"/>
      <stop offset="1" stop-color="#1a0f91"/>
    </linearGradient>
    <linearGradient id="linear-gradient-8" x1="16.518" y1="3.101" x2="16.485" y2="5.411" gradientUnits="objectBoundingBox">
      <stop offset="0" stop-color="#fe7062"/>
      <stop offset="1" stop-color="#ff928e"/>
    </linearGradient>
    <linearGradient id="linear-gradient-9" x1="1.201" y1="-0.308" x2="-0.989" y2="2.768" xlink:href="#linear-gradient-6"/>
    <linearGradient id="linear-gradient-10" x1="-144.174" y1="14.764" x2="-145.279" y2="13.487" xlink:href="#linear-gradient-6"/>
    <linearGradient id="linear-gradient-11" x1="-169.329" y1="14.626" x2="-171.21" y2="16.531" xlink:href="#linear-gradient-7"/>
    <linearGradient id="linear-gradient-12" x1="-401.078" y1="52.332" x2="-404.163" y2="47.59" xlink:href="#linear-gradient-6"/>
    <linearGradient id="linear-gradient-13" x1="0.514" y1="0.504" x2="-1.454" y2="0.651" xlink:href="#linear-gradient-6"/>
    <linearGradient id="linear-gradient-14" x1="33.523" y1="0.544" x2="34.518" y2="0.544" xlink:href="#linear-gradient-7"/>
    <linearGradient id="linear-gradient-15" x1="3.51" y1="-0.133" x2="1.395" y2="0.334" xlink:href="#linear-gradient-6"/>
    <linearGradient id="linear-gradient-16" x1="28.052" y1="0.555" x2="29.044" y2="0.555" xlink:href="#linear-gradient-7"/>
    <linearGradient id="linear-gradient-17" x1="-0.296" y1="1.537" x2="-1.624" y2="3.167" gradientUnits="objectBoundingBox">
      <stop offset="0" stop-color="#4042e2"/>
      <stop offset="1" stop-color="#4f52ff"/>
    </linearGradient>
    <linearGradient id="linear-gradient-18" x1="17.884" y1="1.607" x2="20.854" y2="-0.569" xlink:href="#linear-gradient-6"/>
    <linearGradient id="linear-gradient-19" x1="-36.836" y1="-23.955" x2="-35.026" y2="-22.685" xlink:href="#linear-gradient-8"/>
    <linearGradient id="linear-gradient-20" x1="-109.024" y1="-18.614" x2="-103.653" y2="-17.626" xlink:href="#linear-gradient-8"/>
    <linearGradient id="linear-gradient-21" x1="-2.02" y1="-4.963" x2="-1.938" y2="-1.165" xlink:href="#linear-gradient-8"/>
    <linearGradient id="linear-gradient-22" x1="-9.466" y1="-4.017" x2="-9.223" y2="-0.85" xlink:href="#linear-gradient-8"/>
    <linearGradient id="linear-gradient-23" x1="-6.729" y1="59.532" x2="-7.072" y2="63.941" gradientUnits="objectBoundingBox">
      <stop offset="0" stop-color="#50e7b7"/>
      <stop offset="0.996" stop-color="#323992"/>
    </linearGradient>
    <linearGradient id="linear-gradient-24" y1="0.5" x2="1" y2="0.5" gradientUnits="objectBoundingBox">
      <stop offset="0" stop-color="#dae3fe"/>
      <stop offset="1" stop-color="#e9effd"/>
    </linearGradient>
    <linearGradient id="linear-gradient-25" x1="-6.509" y1="59.542" x2="-6.852" y2="63.951" xlink:href="#linear-gradient-23"/>
    <linearGradient id="linear-gradient-27" x1="1.604" y1="18.598" x2="2.275" y2="17.82" gradientUnits="objectBoundingBox">
      <stop offset="0" stop-color="#e1473d"/>
      <stop offset="1" stop-color="#e9605a"/>
    </linearGradient>
    <linearGradient id="linear-gradient-28" x1="2.728" y1="17.828" x2="0.677" y2="20.927" xlink:href="#linear-gradient-8"/>
    <linearGradient id="linear-gradient-29" x1="-9.273" y1="2.349" x2="-11.546" y2="5.33" xlink:href="#linear-gradient-8"/>
    <linearGradient id="linear-gradient-30" x1="1.098" y1="11.578" x2="1.769" y2="10.799" xlink:href="#linear-gradient-27"/>
    <linearGradient id="linear-gradient-31" x1="2.204" y1="10.566" x2="0.153" y2="13.665" xlink:href="#linear-gradient-8"/>
    <linearGradient id="linear-gradient-32" x1="-4.54" y1="1.462" x2="-6.814" y2="4.443" xlink:href="#linear-gradient-8"/>
    <linearGradient id="linear-gradient-33" x1="0.592" y1="11.571" x2="1.263" y2="10.793" xlink:href="#linear-gradient-27"/>
    <linearGradient id="linear-gradient-34" x1="1.681" y1="10.56" x2="-0.37" y2="13.659" xlink:href="#linear-gradient-8"/>
    <linearGradient id="linear-gradient-35" x1="-4.826" y1="1.691" x2="-7.1" y2="4.672" xlink:href="#linear-gradient-8"/>
    <linearGradient id="linear-gradient-36" x1="1.413" y1="15.623" x2="2.084" y2="14.844" xlink:href="#linear-gradient-27"/>
    <linearGradient id="linear-gradient-37" x1="2.531" y1="14.75" x2="0.479" y2="17.849" xlink:href="#linear-gradient-8"/>
    <linearGradient id="linear-gradient-38" x1="-6.399" y1="2.61" x2="-8.673" y2="5.591" xlink:href="#linear-gradient-8"/>
    <linearGradient id="linear-gradient-39" x1="-0.017" y1="1.03" x2="0.905" y2="0.068" xlink:href="#linear-gradient-8"/>
    <linearGradient id="linear-gradient-40" x1="0.002" y1="0.995" x2="0.861" y2="0.124" xlink:href="#linear-gradient-8"/>
    <linearGradient id="linear-gradient-41" x1="0.882" y1="0.487" x2="-0.049" y2="0.563" xlink:href="#linear-gradient-6"/>
    <linearGradient id="linear-gradient-42" x1="3.583" y1="0.326" x2="0.525" y2="0.492" xlink:href="#linear-gradient-6"/>
    <linearGradient id="linear-gradient-43" x1="-56.705" y1="-0.744" x2="-56.532" y2="1.025" xlink:href="#linear-gradient-17"/>
    <linearGradient id="linear-gradient-44" x1="17.161" y1="0.5" x2="18.161" y2="0.5" gradientUnits="objectBoundingBox">
      <stop offset="0" stop-color="#f9b776"/>
      <stop offset="1" stop-color="#f47960"/>
    </linearGradient>
    <linearGradient id="linear-gradient-45" x1="-40.973" y1="11.282" x2="-44.917" y2="12.211" xlink:href="#linear-gradient-7"/>
    <linearGradient id="linear-gradient-46" x1="-140.732" y1="-0.977" x2="-140.751" y2="1.075" xlink:href="#linear-gradient-17"/>
    <linearGradient id="linear-gradient-47" x1="11.369" y1="0.5" x2="12.369" y2="0.5" xlink:href="#linear-gradient-44"/>
    <linearGradient id="linear-gradient-48" x1="-33.69" y1="11.071" x2="-36.871" y2="11.988" xlink:href="#linear-gradient-7"/>
    <linearGradient id="linear-gradient-49" x1="0.901" y1="0.003" x2="-0.264" y2="1.683" xlink:href="#linear-gradient-8"/>
    <linearGradient id="linear-gradient-50" x1="0.241" y1="-1.082" x2="0.917" y2="3.051" xlink:href="#linear-gradient-6"/>
    <linearGradient id="linear-gradient-51" x1="-66.656" y1="-26.589" x2="-67.635" y2="-25.181" xlink:href="#linear-gradient-6"/>
    <linearGradient id="linear-gradient-52" x1="-92.091" y1="3.319" x2="-91.857" y2="4.458" xlink:href="#linear-gradient-7"/>
    <linearGradient id="linear-gradient-53" x1="-220.167" y1="-132.203" x2="-223.359" y2="-125.374" xlink:href="#linear-gradient-6"/>
    <linearGradient id="linear-gradient-54" x1="0.1" y1="1.506" x2="1.09" y2="-0.833" xlink:href="#linear-gradient-17"/>
    <linearGradient id="linear-gradient-55" x1="1.511" y1="-2.735" x2="-0.624" y2="4.2" xlink:href="#linear-gradient-17"/>
    <linearGradient id="linear-gradient-56" x1="0.747" y1="0.208" x2="-1.765" y2="3.902" xlink:href="#linear-gradient-8"/>
    <linearGradient id="linear-gradient-57" x1="0.008" y1="0.958" x2="1.429" y2="-0.146" xlink:href="#linear-gradient-6"/>
    <linearGradient id="linear-gradient-58" x1="13.923" y1="0.108" x2="14.436" y2="2.599" xlink:href="#linear-gradient-17"/>
    <linearGradient id="linear-gradient-60" x1="-114.925" y1="112.175" x2="-110.888" y2="109.347" xlink:href="#linear-gradient-6"/>
    <linearGradient id="linear-gradient-61" x1="-145.503" y1="3.156" x2="-134.843" y2="-2.249" xlink:href="#linear-gradient-27"/>
    <linearGradient id="linear-gradient-62" x1="1.751" y1="-4.122" x2="-0.071" y2="2.489" xlink:href="#linear-gradient-27"/>
  </defs>
  <g id="Group_1369" data-name="Group 1369" transform="translate(2646.791 18872.048)">
    <g id="Group_1321" data-name="Group 1321" transform="translate(-2641.971 -18871.549)">
      <path id="Path_5226" data-name="Path 5226" d="M4575.471,1948.88c30.722-8.816,55.731-28.173,61.557-64.334,7.656-47.522-12.951-81.548-38.836-116.337-17.165-23.068-21.441-45.327-17.157-73.4,6.23-40.819,15.253-78.865-12.818-113.325-18.586-22.817-47.149-34.671-75.03-33.57-40.18,1.587-65.728,31.056-100.015,48.655-32.272,16.566-72.2,28.486-107.616,18.076-43.5-12.785-73.866-55-120.907-57.724-19.691-1.14-40.633,5.628-55.406,20.286-15.57,15.449-22.4,39.339-44.234,46.98-10.089,3.53-21.007,2.134-31.516,3.565-42.743,5.819-58.784,51.871-53.058,93.2a796.491,796.491,0,0,0,44.355,172.781c6.026,15.878,12.653,31.717,22.475,45.182,23.115,31.687,54.629,30.69,88.817,31.109,42.7.524,85.347-2.089,128.006-3.544q91.823-3.134,183.594-8.031C4488.239,1956.276,4535.853,1960.249,4575.471,1948.88Z" transform="translate(-3979.316 -1547.844)" fill="url(#linear-gradient)"/>
      <path id="Subtraction_8" data-name="Subtraction 8" d="M168.157,422.244h0c-3.865,0-7.7-.023-11.392-.068-1.4-.017-2.8-.032-4.154-.046-16.411-.174-31.912-.339-46.233-4.261A68.62,68.62,0,0,1,85.948,408.7a66.858,66.858,0,0,1-9.334-7.581,78.694,78.694,0,0,1-8.668-10.049A135.251,135.251,0,0,1,55.285,369.38c-3.87-8.115-7.133-16.431-9.815-23.5a808.735,808.735,0,0,1-26.977-84.942A786.521,786.521,0,0,1,1.116,173.1a114.774,114.774,0,0,1,1.028-38.114,91.57,91.57,0,0,1,5.4-17.618,72.135,72.135,0,0,1,8.8-15.355A57.239,57.239,0,0,1,32.389,87.441a56.728,56.728,0,0,1,21.785-7.533c3.829-.521,7.775-.67,11.591-.813,6.644-.25,13.513-.508,19.925-2.752a38.976,38.976,0,0,0,9.462-4.84,48.833,48.833,0,0,0,7.728-6.742c4.705-4.992,8.729-10.96,12.619-16.732,4.358-6.465,8.862-13.147,14.424-18.666a67.235,67.235,0,0,1,11.184-8.927,71.779,71.779,0,0,1,12.62-6.378,75.872,75.872,0,0,1,27.326-5.1c1.424,0,2.863.042,4.276.123a84.782,84.782,0,0,1,19.178,3.37,110.03,110.03,0,0,1,17.664,6.984c11.386,5.595,22.3,12.931,32.855,20.025,7.983,5.366,16.236,10.913,24.673,15.7,4.542,2.576,8.769,4.731,12.924,6.586A107.4,107.4,0,0,0,306.238,66.8a100.387,100.387,0,0,0,28.308,3.9,145.512,145.512,0,0,0,40.95-6.391,222.547,222.547,0,0,0,38.358-15.587c10.976-5.634,21.158-12.554,31.005-19.245,10.8-7.336,20.991-14.264,32.186-19.687A102.477,102.477,0,0,1,494.532,3.1,84.164,84.164,0,0,1,513.868.07c1.18-.047,2.381-.07,3.568-.07a92.765,92.765,0,0,1,19.94,2.184,94.053,94.053,0,0,1,19.141,6.444,92.286,92.286,0,0,1,17.466,10.54A89.575,89.575,0,0,1,588.9,33.64a88.17,88.17,0,0,1,8.264,12.012,80.854,80.854,0,0,1,5.691,12.289,89.955,89.955,0,0,1,5.114,25.377c1.107,17.264-1.712,34.984-4.7,53.745l0,.026c-.513,3.228-1.044,6.566-1.55,9.876a123.645,123.645,0,0,0-1.54,20.067,87.886,87.886,0,0,0,2.076,18.508,82.164,82.164,0,0,0,6.1,17.57,102.744,102.744,0,0,0,10.525,17.253c12.066,16.216,24.293,33.908,32,53.394a118.223,118.223,0,0,1,7.642,29.609,114.328,114.328,0,0,1,.789,16.118,125.55,125.55,0,0,1-1.591,17.216,79.827,79.827,0,0,1-7.755,24.068,70.726,70.726,0,0,1-13.686,18.354c-10.152,9.815-23.649,17.188-40.114,21.913-28.246,8.105-60.389,8.411-91.474,8.707h-.01c-12.685.121-24.667.235-36.306.857-60.615,3.241-122.385,5.943-183.594,8.032-11.5.392-23.188.877-34.49,1.345C223.371,421.091,195.545,422.244,168.157,422.244Zm66.85-329.4A48.611,48.611,0,0,0,217.6,96.1a45.736,45.736,0,0,0-8.039,4.063,42.832,42.832,0,0,0-7.124,5.686,77.34,77.34,0,0,0-9.186,11.887,83.417,83.417,0,0,1-8.039,10.659,31.107,31.107,0,0,1-4.922,4.294,24.822,24.822,0,0,1-6.026,3.083c-4.086,1.43-8.462,1.594-12.694,1.753-2.431.091-4.943.186-7.382.518A35.434,35.434,0,0,0,130.1,152.124a45.94,45.94,0,0,0-5.608,9.78,58.313,58.313,0,0,0-3.441,11.221A73.1,73.1,0,0,0,120.4,197.4a506.69,506.69,0,0,0,28.252,110.052c1.706,4.5,3.784,9.793,6.251,14.966a86.168,86.168,0,0,0,8.065,13.813,45.4,45.4,0,0,0,11.465,11.229,43.7,43.7,0,0,0,13.01,5.842c9.121,2.5,18.993,2.6,29.445,2.714h.056l2.6.029c2.342.029,4.784.043,7.258.043h.021c17.437,0,35.148-.734,52.276-1.443h.036c7.191-.3,14.628-.606,21.942-.855,38.991-1.331,78.335-3.052,116.94-5.116,7.415-.4,15.047-.469,23.128-.546,19.8-.189,40.275-.383,58.266-5.546,10.488-3.009,19.085-7.705,25.551-13.957a45.049,45.049,0,0,0,8.718-11.691,50.845,50.845,0,0,0,4.939-15.33,79.984,79.984,0,0,0,1.013-10.966,72.816,72.816,0,0,0-.5-10.266,75.307,75.307,0,0,0-4.867-18.86c-4.907-12.413-12.695-23.681-20.38-34.009a58.1,58.1,0,0,1-10.587-22.18,55.979,55.979,0,0,1-1.322-11.789,78.764,78.764,0,0,1,.981-12.781c.322-2.111.661-4.24.988-6.3v-.008c1.9-11.95,3.7-23.237,2.992-34.233a57.3,57.3,0,0,0-3.257-16.164,52.828,52.828,0,0,0-8.888-15.479,57.063,57.063,0,0,0-9.5-9.217,58.792,58.792,0,0,0-11.125-6.713,59.912,59.912,0,0,0-12.192-4.1,59.069,59.069,0,0,0-12.7-1.392c-.755,0-1.52.015-2.275.045a53.6,53.6,0,0,0-12.316,1.93,65.251,65.251,0,0,0-11.139,4.263c-7.13,3.453-13.624,7.866-20.5,12.538a189.427,189.427,0,0,1-19.75,12.259,141.739,141.739,0,0,1-24.433,9.928,92.69,92.69,0,0,1-26.083,4.071,63.948,63.948,0,0,1-18.031-2.485,80.076,80.076,0,0,1-16.9-7.417c-5.373-3.048-10.63-6.582-15.714-10-6.724-4.52-13.676-9.192-20.928-12.756a70.08,70.08,0,0,0-11.251-4.449,54,54,0,0,0-12.216-2.147C236.828,92.874,235.912,92.847,235.007,92.847Z" transform="translate(0.003 0.001)" fill="rgba(0,0,0,0.08)" stroke="rgba(0,0,0,0)" stroke-miterlimit="10" stroke-width="1"/>
      <g id="Group_1320" data-name="Group 1320" transform="translate(8.496 32.936)" style="mix-blend-mode: soft-light;isolation: isolate">
        <path id="Path_5229" data-name="Path 5229" d="M2073.807,2761.743v-.006h.02l-.013.006Z" transform="translate(-1861.375 -2284.985)" fill="#fff"/>
        <path id="Path_5230" data-name="Path 5230" d="M1448,1032.606c-5.22,7.355-21.372,16.8-10.413,35.348,10.865,18.5-.754,21.971-8.231,20.24-7.51-1.711-30.856-2.667-26.962,7.942s10.568,14.6,2.014,18.7c-8.547,4.082-12.165,14.744-20.914,29.421-8.689,14.7-29.34,1.987-23.224,16.724s10.865,13.316,10.292,23.588c-.135,2.822,1.738,5.719,4.27,8.473-3.26-.27-6.534-.6-9.78-1-1.145-.135-2.29-.283-3.428-.444-1.01-.135-2.014-.276-3.018-.431q-1.314-.192-2.607-.4c-.2-.034-.145-.067-.34-.094-2.088-.35-3.172-.728-5.917-1.125v-.007c-1.831-1.738-.684-3.624-.408-5.658,2.728-18.967-23.441-32-27.826-45.29-4.311-13.256-.055-21.163-1.051-32.149-1.024-10.966,2.562-25.507-3.749-34.749-6.311-9.207-31.753-12.292-36.6-30.876-4.877-18.543,6.465-46.314,10.87-51.042,4.351-4.728-21.066-26.242-33.163-26.929-12.151-.741-7.29-25.2-27.833-21.48-20.584,3.61-57.563-7.874-49.925-20.227,6.3-10.177,16.886-32.627-17.66-42.636,1.1-3.57,2.473-7.1,3.389-10.595v-.007c2.745-5.826,4.586-11.545,7.111-17.155,1.017-2.243,2.142-4.473,3.213-6.682a244.667,244.667,0,0,1,20.637-34.614c.707-.99,1.442-1.974,2.162-2.957q4.334-5.88,9.009-11.484,7-8.406,14.729-16.158a244.291,244.291,0,0,1,44.585-35.362c6.844,4.8,14.658,7.753,21.407,4.109,16.55-9.261,5.639-10.683-1.137-11.026a8.735,8.735,0,0,1-4.849-1.852,240.865,240.865,0,0,1,40.023-16.509c-1.03,9.342-13.727,24.349-4.385,22.517,10.871-2.068,15.31-31.441,23.292-21.682,8.1,9.8-8.857,22.645,7.066,15.2,15.943-7.369,18.071-23.817,35.84-15.815,17.856,8.1,16.226,17.694,21.211,16.745,4.964-.936,21.022,9.854,11.309,18.732-9.8,8.9-18.786-2.438-33.476-5.86-14.7-3.381-14.34,8.641-21.1,11.39-6.877,2.654-40.05-13.377-48.193,1.111-8.231,14.373-11.733,24.4.485,24.033,12.2-.344,12.993-3.5,12.036,5.523-.977,9.032,1.246,15.795,12.306,7.3,11.026-8.48,8.554-16.752,17.175-12.71s9.645.384,18.819-6.277,21.231-7.355,24.39,7.591-2.243,18.307-18.368,19.062c-16.132.781-17.957-4.3-23.1,9.18-5.113,13.492-26.451,30.815-45.182,37.955-18.7,7.153-26.026,17.721-25.595,31.981.444,14.286-6.588,29.354-11.282,17.58-4.715-11.808-17.93-31.691-31.415-18.4-13.511,13.316-37.026,36.857-11.04,41.161,25.932,4.385,12.4-19.91,25.508-15.054,13.087,4.89-8.292,15.6.458,19.466,8.763,3.9,12.434,2.075,12.367,14.017s2.9,23.527,13.539,18.462c10.629-5.045,24.282-28.444,39.659-14.6,15.4,13.875,14.306,12.07,22.382,8.029s13.209,8.063,16.516,13.572,16.28-.115,26.794,16.28,14.63,19.317,26.612,13.417,16.866-1.516,19.991,6.762,10.494.189,14.051,11.127C1454.881,1026.941,1453.184,1025.244,1448,1032.606Z" transform="translate(-1162.397 -716.295)" fill="#fff"/>
        <g id="Group_1319" data-name="Group 1319" transform="translate(313.267 45.009)">
          <path id="Path_5231" data-name="Path 5231" d="M2560.067,982.075c-8.494-18.226,33.59-16.179,41.026-14.778,7.483,1.246,25.037-12.474,27.266-18.853,2.29-6.426,6.048-3.375,19.365-3.556,13.31-.141,1.548-3.152-13.1-7.982-14.623-4.816-2.122-5.3-15.6-15.943-5.8-4.661-3.974-8.622-.108-11.565a244.062,244.062,0,0,1,71,93.88,4.62,4.62,0,0,0-1.252-.215c-9.323-.054-11.377-20.665-16.179-24.679-4.736-4.008.134,11.322,1.293,17.62s-2.553,1-7.2,6.79c-4.668,5.792-13.094,5.9-13.855-2.789-.774-8.669-6.883-17.183-19.284-21.143s-23.13-.707-33.206,3.179C2590.209,985.86,2568.622,1000.16,2560.067,982.075Z" transform="translate(-2546.7 -909.398)" fill="#fff"/>
          <path id="Path_5232" data-name="Path 5232" d="M2625.446,1547.406c.842-6.257,2.216-12.724-.4-15.088-6.352-5.894-7.739-21.951-5.537-30.088,2.2-8.157,19.311-7.692,7.7-21.237-11.646-13.586-22.14-29.711-17.25-38.932s3.408-9.881-5.758-9.827-13.2.458-22.342-7.705c-9.147-8.271-21.729,19.519-56.155-2.769-34.419-22.51-14.818-60.452-1.919-60.546,12.979-.216,28.141-6.769,17.506-22.6-10.6-15.889,5.968-18.132,14.064-14.521,8.11,3.569,22.49-6.022,37.146-10.346,14.691-4.3,14.044,19.628,22.2,24.416,8.2,4.8,23.575.99,31.563-6.675,5.7-5.469,6.952.91,12.589,6.965a243.8,243.8,0,0,1-33.409,208.951Z" transform="translate(-2506.424 -1219.108)" fill="#fff"/>
          <path id="Path_5233" data-name="Path 5233" d="M2722.735,965.071c.008-.015,10.734-4.857,6.846-12.658-3.852-7.8-9.962-31.716-14.427-24.181-4.492,7.57,2.131,22.268.685,28.609C2714.38,963.2,2714.341,966.532,2722.735,965.071Z" transform="translate(-2665.287 -922.731)" fill="#fff"/>
          <path id="Path_5234" data-name="Path 5234" d="M2662.356,1018.9c-.151-2.514,1.432-12.724-6.6-12.4.015-.016-11.621,4.839-4.814,13.088C2657.778,1027.805,2662.531,1021.4,2662.356,1018.9Z" transform="translate(-2615.618 -983.856)" fill="#fff"/>
        </g>
      </g>
    </g>
    <g id="Group_1324" data-name="Group 1324" transform="translate(-2646.791 -18804.564)">
      <g id="Group_1322" data-name="Group 1322" transform="translate(35.613)">
        <path id="Path_5235" data-name="Path 5235" d="M4215.7,1968.156c-8.069-30.3-25.271-54.98-46.312-70.028a88.99,88.99,0,0,1-35.991-56.333q-.65-3.585-1.609-7.2c-9.7-36.441-39.9-60.037-67.441-52.7s-42.005,42.822-32.3,79.263a88.314,88.314,0,0,0,8.326,20.584c11.172,19.852,14.815,43.18,9.325,65.3-4.906,19.766-4.882,42.295,1.167,65.012,9.022,33.881,29.464,60.736,53.923,74.956a87.579,87.579,0,0,1,24.2,20.732c11.145,13.84,27.435,20.891,42.9,16.773,16.682-4.442,27.732-20.639,29.385-40.092a93.483,93.483,0,0,1,8.716-31.7C4221.051,2029.084,4223.853,1998.792,4215.7,1968.156Z" transform="translate(-4029.021 -1780.559)" fill="url(#linear-gradient-2)"/>
        <path id="Path_5236" data-name="Path 5236" d="M4197.609,1896.434c10.012,23.126,19.271,46.554,28.287,70.08,2.257,5.88,4.418,11.8,6.6,17.705l3.271,8.864,3.195,8.891c2.107,5.936,4.3,11.843,6.336,17.8l6.122,17.878c3.929,11.971,7.958,23.908,11.665,35.952,1.862,6.019,3.84,12,5.579,18.057l5.3,18.142c6.823,24.26,13.039,48.7,18.006,73.413l-1.063.225-4.42-18.346-1.094-4.588-1.209-4.559-2.436-9.115-2.418-9.117c-.8-3.041-1.714-6.051-2.565-9.078-1.742-6.043-3.438-12.1-5.221-18.13-7.286-24.08-14.892-48.062-22.99-71.886-4.141-11.881-8.181-23.8-12.4-35.648l-3.144-8.9-3.216-8.872c-2.143-5.916-4.284-11.832-6.486-17.725q-6.453-17.737-13.172-35.38-6.633-17.674-13.524-35.251Z" transform="translate(-4142.321 -1858.899)" fill="url(#linear-gradient-2)"/>
      </g>
      <g id="Group_1323" data-name="Group 1323" transform="translate(0 187.42)">
        <path id="Path_5237" data-name="Path 5237" d="M4056.884,2419.526c-12.652-13.361-28.428-21.275-43.478-23.154a52.31,52.31,0,0,1-34.324-18.979q-1.339-1.666-2.846-3.259c-15.217-16.07-37.374-19.8-49.49-8.323s-9.6,33.8,5.614,49.87a51.966,51.966,0,0,0,10.059,8.282,52.581,52.581,0,0,1,23.117,31.046,77.125,77.125,0,0,0,18.838,33.178c14.146,14.941,32.2,23.071,48.776,23.567a51.412,51.412,0,0,1,18.268,3.926c9.618,4.019,19.979,3.1,26.781-3.338,7.338-6.948,8.48-18.382,3.873-28.868a54.9,54.9,0,0,1-4.407-18.772C4076.732,2449.428,4069.676,2433.034,4056.884,2419.526Z" transform="translate(-3919.077 -2359.153)" fill="url(#linear-gradient-2)"/>
        <path id="Path_5238" data-name="Path 5238" d="M4004.988,2420.077c11.639,9.122,22.978,18.609,34.216,28.215,2.811,2.4,5.583,4.845,8.363,7.281l4.169,3.655,4.139,3.689c2.75,2.47,5.533,4.9,8.255,7.4l8.166,7.5c5.38,5.072,10.8,10.1,16.089,15.27,2.646,2.582,5.343,5.111,7.937,7.748l7.817,7.869c10.316,10.6,20.373,21.458,29.86,32.8l-.484.413-7.421-8.22-1.85-2.058-1.9-2.012-3.81-4.017-3.8-4.023c-1.265-1.343-2.58-2.64-3.867-3.962-2.593-2.627-5.164-5.274-7.773-7.885q-15.756-15.562-32-30.625c-5.464-4.966-10.885-9.979-16.383-14.906l-4.113-3.708-4.145-3.673c-2.762-2.451-5.524-4.9-8.309-7.323q-8.3-7.339-16.705-14.553-8.37-7.256-16.848-14.389Z" transform="translate(-3976.89 -2400.342)" fill="url(#linear-gradient-2)"/>
      </g>
    </g>
    <g id="Group_1325" data-name="Group 1325" transform="translate(-2504.236 -18720.957)">
      <path id="Path_5239" data-name="Path 5239" d="M4392.4,2131.76a.924.924,0,0,0-1.708.181c-.83,2.985-2.838,8.194-7.049,10.044q-.316.14-.607.282a2.14,2.14,0,0,1,.263-1.938c1.31-2-1.054-4.734-1.054-4.734a6.1,6.1,0,0,1-1.986,3.923,5.858,5.858,0,0,0-1.256,6.594c2.28,8.854,5.693,20.565-7.6,29.12s-32.021-16.146-32.021-16.146l9.293,29.463s14.345,10.586,31.031-4.3,5.625-36.545,5.625-36.545S4398.057,2142.571,4392.4,2131.76Z" transform="translate(-4279.461 -2102.321)" fill="url(#linear-gradient-6)"/>
      <path id="Path_5240" data-name="Path 5240" d="M4211.99,2055.39s3.852-17.28-15.94-12.705c0,0-9.609-1.57-10.1,7.5,0,0-6.193,4.08-1.659,11.929,0,0-18.406-7.109-26.425,9.023s-.648,25.01,7.079,27.322a7.7,7.7,0,0,0-3.3,10.241c2.964,7.1,17.972,12.1,26.838,3.47,0,0,25.226,3.333,24.721-14.485,0,0,11.732-7.577-.591-22.3S4211.99,2055.39,4211.99,2055.39Z" transform="translate(-4154.4 -2041.913)" fill="url(#linear-gradient-7)"/>
      <path id="Path_5241" data-name="Path 5241" d="M4275.486,2204.946c-3.977-1.192-15.559-3.394-26.575,6.772a6.821,6.821,0,0,0-1.964,6.8c2.958,10.893,10.764,43.073,3.919,57,0,0,12.062,13.3,25.221,2.58,0,0,5.9-25.732,13.638-37.028,5.339-7.8-8.513-29.287-12.018-34.478A4.109,4.109,0,0,0,4275.486,2204.946Z" transform="translate(-4216.809 -2151.417)" fill="url(#linear-gradient-8)"/>
      <path id="Path_5242" data-name="Path 5242" d="M4288.443,2140.357s-5.882,16.639-6.325,23.979a12.582,12.582,0,0,0,12.628-2.033s.643-16.619,1.571-19.6Z" transform="translate(-4240.747 -2108.469)" fill="url(#linear-gradient-9)"/>
      <path id="Path_5243" data-name="Path 5243" d="M4294.515,2070.065s15.386,21.531,6.188,27.785-20.149-9.048-20.149-9.048-3.57-11.784.164-15.782S4294.515,2070.065,4294.515,2070.065Z" transform="translate(-4238.649 -2060.863)" fill="url(#linear-gradient-10)"/>
      <path id="Path_5244" data-name="Path 5244" d="M4278.464,2053.837s7.068,1.675,8.058,4.873-10.023,6.164-13.108,6.309l-2.487,12.9s-7.351-12.14-4.439-19.151S4278.464,2053.837,4278.464,2053.837Z" transform="translate(-4229.718 -2049.781)" fill="url(#linear-gradient-11)"/>
      <path id="Path_5245" data-name="Path 5245" d="M4274.571,2115.044s-5.989-6.935-8.372-2.414,5.391,7.916,8.082,5.7Z" transform="translate(-4229.683 -2088.688)" fill="url(#linear-gradient-12)"/>
      <path id="Path_5246" data-name="Path 5246" d="M4285.966,2599.769c-.046,1.168,2,10.434,3.122,15.377a8.142,8.142,0,0,1-.877,5.839l-38.658,65.062a8.908,8.908,0,0,0-1.014,2.531c-.709,3.053-2.177,10.536-1.411,17.344l2,4.153-8.648-1.964-1.882-23.226,2.448-1.493a11.64,11.64,0,0,0,4.705-5.509c3.5-8.491,12.176-30.1,14.414-40.638,2.542-11.97,15.836-21.694,15.836-21.694l-2.335-5.521Z" transform="translate(-4211.324 -2419.067)" fill="url(#linear-gradient-13)"/>
      <path id="Path_5247" data-name="Path 5247" d="M4214.732,2874.065s4.671-7.4,5.22-10.287,2.08-7.972,4.96-6.44c0,0,1.357,14,.888,19.472s6.186,5.295,6.186,5.295a6.212,6.212,0,0,1,3.176,1.6,1.558,1.558,0,0,1-1.044,2.62,37.48,37.48,0,0,1-9.266-.525,2.836,2.836,0,0,1-2.286-2.615l-.958-16.115-5.891,7.439Z" transform="translate(-4195.189 -2593.014)" fill="url(#linear-gradient-14)"/>
      <path id="Path_5248" data-name="Path 5248" d="M4273.442,2628.493s-1.363,58.2-1.547,66.463,1.306,26.583,9.591,32.058l-3.606,2.669a48.2,48.2,0,0,1-8.909-11.2c-4.944-8.28-6.44-9.792-6.44-9.792l1.641-3.361a7.372,7.372,0,0,0,.6-4.739c-1.787-8.667-7.76-37.492-9.39-43.7-1.923-7.328-2.061-17.113,4.631-25.3S4273.442,2628.493,4273.442,2628.493Z" transform="translate(-4221.895 -2437.427)" fill="url(#linear-gradient-15)"/>
      <path id="Path_5249" data-name="Path 5249" d="M4279.113,2900.054a.508.508,0,0,1-.512-.436c-.276-1.94-1.423-9.718-2.364-11.733-1.075-2.306-4.59-12.015,0-12.839,0,0,11.419,16.681,13.611,18.93a4.3,4.3,0,0,0,4.958.786,8.258,8.258,0,0,1,3.746,2.689,1.512,1.512,0,0,1-1.191,2.43l-7.691.073a5.412,5.412,0,0,1-5.072-3.409c-1.354-3.381-3.679-8.34-6.39-10.541l1.41,13.485a.514.514,0,0,1-.506.566Z" transform="translate(-4235.217 -2605.176)" fill="url(#linear-gradient-16)"/>
      <path id="Path_5250" data-name="Path 5250" d="M4259.172,2405.656s-1.733,5.523.93,14.622l16.516,57.676a1.786,1.786,0,0,1-1.117,2.173c-4.94,1.773-21.18,6.784-43.35,5.256a2.517,2.517,0,0,1-2.294-1.959c-1.461-6.575-6.445-29.009-7.472-33.619-3.909-17.563-8.275-36.5,10.932-47.958C4242.168,2405.637,4250.423,2407.872,4259.172,2405.656Z" transform="translate(-4198.073 -2285.255)" fill="url(#linear-gradient-17)"/>
      <path id="Path_5251" data-name="Path 5251" d="M4198.724,2231.968s-18.793,15.617-23.457,36.957,27.46,23.608,27.46,23.608,4.361-4.87,9.539-3.134.4-8.5-5.657-8.472-3.251,4.817-11.82.936c-8.348-3.782-13.508-15.476,7.791-33.2a9.633,9.633,0,0,0,2.812-3.83C4209.53,2234.416,4206.248,2227.589,4198.724,2231.968Z" transform="translate(-4168.195 -2169.495)" fill="url(#linear-gradient-18)"/>
    </g>
    <g id="Group_1326" data-name="Group 1326" transform="translate(-2388.147 -18706.609)">
      <path id="Path_5252" data-name="Path 5252" d="M4562.241,2104.146c29.715,16.9,54.521,15.846,82.571,1.1a5.273,5.273,0,0,0,2.82-4.917l-.057-1.187a5.263,5.263,0,0,0-7.242-4.624c-24.358,9.925-42.676,15.369-73.176.318a5.262,5.262,0,0,0-7.572,4.373h0A5.274,5.274,0,0,0,4562.241,2104.146Z" transform="translate(-4551.258 -2089.462)" fill="url(#linear-gradient-19)"/>
      <path id="Path_5253" data-name="Path 5253" d="M4550.512,2108.1l-16.4-23.248a1.145,1.145,0,0,1,.8-1.8l27.17-3.325a1.329,1.329,0,0,1,1.388,1.83,58.605,58.605,0,0,0-10.963,26.321A1.143,1.143,0,0,1,4550.512,2108.1Z" transform="translate(-4533.897 -2079.719)" fill="url(#linear-gradient-20)"/>
    </g>
    <g id="Group_1327" data-name="Group 1327" transform="translate(-2380.201 -18871.875)">
      <path id="Path_5254" data-name="Path 5254" d="M4623.4,1637.639c-30.9-19.091-57.287-18.925-87.643-4.35a5.6,5.6,0,0,0-3.183,5.113l.014,1.263a5.592,5.592,0,0,0,7.513,5.19c26.248-9.6,45.912-14.68,77.721,2.476a5.592,5.592,0,0,0,8.209-4.352h0A5.6,5.6,0,0,0,4623.4,1637.639Z" transform="translate(-4532.571 -1622.328)" fill="url(#linear-gradient-21)"/>
      <path id="Path_5255" data-name="Path 5255" d="M4765.027,1621.912l16.526,25.319a1.218,1.218,0,0,1-.917,1.879l-28.981,2.485a1.412,1.412,0,0,1-1.4-2,62.269,62.269,0,0,0,12.657-27.53A1.213,1.213,0,0,1,4765.027,1621.912Z" transform="translate(-4679.652 -1621.361)" fill="url(#linear-gradient-22)"/>
    </g>
    <g id="Group_1352" data-name="Group 1352" transform="translate(-2390.037 -18833.354)">
      <g id="Group_1342" data-name="Group 1342" transform="translate(0 0)">
        <g id="Group_1331" data-name="Group 1331" transform="translate(17.601 9.379)">
          <g id="Group_1330" data-name="Group 1330" transform="translate(0 0)">
            <rect id="Rectangle_740" data-name="Rectangle 740" width="96.613" height="45.047" transform="translate(0 95.594) rotate(-81.669)" fill="#7d97f4"/>
            <path id="Path_5256" data-name="Path 5256" d="M4582.856,1747.659l25.5,3.735a4.055,4.055,0,0,0,3.6,4.385c.072.01.246.033.246.03l-11.3,77.16s-.172-.032-.245-.043a3.994,3.994,0,0,0-4.681,3.146.242.242,0,0,1-.024.067l-24.929-3.651c.514-3.519-1.773-4.189-4.046-4.522-.073-.011-.09.018-.092.022l11.3-77.16s.013.009.085.019A3.944,3.944,0,0,0,4582.856,1747.659Z" transform="translate(-4560.235 -1741.005)" fill="#fff" opacity="0.5"/>
            <g id="Group_1329" data-name="Group 1329" transform="translate(12.46 34.285)">
              <circle id="Ellipse_226" data-name="Ellipse 226" cx="14.172" cy="14.172" r="14.172" transform="matrix(0.199, -0.98, 0.98, 0.199, 0, 27.775)" fill="url(#linear-gradient-23)"/>
              <g id="Group_1328" data-name="Group 1328" transform="translate(6.31 10.62)">
                <path id="Path_5257" data-name="Path 5257" d="M4623.948,1874.64l-1.483-.217a12.2,12.2,0,0,1-1.51,4.028.868.868,0,0,1-1.083.325l-1.326-.579a.873.873,0,0,1-.394-1.256,10.132,10.132,0,0,0,1.371-3.723c.217-1.489-.125-2.673-1.158-2.825-.933-.137-1.614.64-2.472,2.628-1.239,2.834-2.837,4.765-5.436,4.384-2.347-.344-3.887-2.322-3.93-5.369l-1.483-.217a.873.873,0,0,1-.737-.991l.127-.871a.873.873,0,0,1,.991-.737l1.332.195a11.167,11.167,0,0,1,1.074-3.211.871.871,0,0,1,1.118-.385l1.226.533a.87.87,0,0,1,.415,1.222,9.106,9.106,0,0,0-1.06,3.148c-.258,1.766.4,2.378,1.055,2.474.806.118,1.518-.86,2.56-3.053,1.465-3.136,3.027-4.3,5.475-3.941,2.246.329,4.021,2.29,4.053,5.594l1.658.243a.875.875,0,0,1,.739.991l-.128.871A.873.873,0,0,1,4623.948,1874.64Z" transform="translate(-4604.296 -1865.747)" fill="#fff"/>
              </g>
            </g>
          </g>
          <path id="Path_5258" data-name="Path 5258" d="M4563.976,1967.51a.144.144,0,0,1-.033,0l-8.356-1.223a.22.22,0,0,1-.186-.25l3.456-23.605a.216.216,0,0,1,.25-.186.219.219,0,0,1,.185.249l-3.424,23.388,8.139,1.193a.22.22,0,0,1-.031.438Z" transform="translate(-4552.468 -1872.556)" fill="url(#linear-gradient-24)"/>
          <path id="Path_5259" data-name="Path 5259" d="M4695.671,1775.078a.146.146,0,0,1-.033,0,.22.22,0,0,1-.187-.249l3.383-23.095-8.726-1.277a.221.221,0,0,1-.187-.249.218.218,0,0,1,.25-.186l8.944,1.31a.215.215,0,0,1,.144.086.219.219,0,0,1,.042.164l-3.414,23.312A.22.22,0,0,1,4695.671,1775.078Z" transform="translate(-4643.415 -1742.598)" fill="#fff"/>
        </g>
        <g id="Group_1335" data-name="Group 1335" transform="translate(14.555 5.638)">
          <g id="Group_1334" data-name="Group 1334" transform="translate(0 0)">
            <rect id="Rectangle_741" data-name="Rectangle 741" width="96.613" height="45.343" transform="translate(0 95.594) rotate(-81.669)" fill="#91b3fa"/>
            <path id="Path_5260" data-name="Path 5260" d="M4573.546,1736.151l25.5,3.734a4.141,4.141,0,0,0,3.7,4.388c.072.01.056-.007.35.033l-11.3,77.16c-.293-.046-.274-.047-.346-.058a4.051,4.051,0,0,0-4.735,3.151c0,.031-.078.071-.078.071l-24.929-3.651c.516-3.519-1.814-4.208-4.087-4.54a.322.322,0,0,0-.133,0l11.3-77.16a.332.332,0,0,0,.126.037A3.974,3.974,0,0,0,4573.546,1736.151Z" transform="translate(-4550.837 -1729.484)" fill="#fff" opacity="0.5"/>
            <g id="Group_1333" data-name="Group 1333" transform="translate(9.221 30.943)">
              <circle id="Ellipse_227" data-name="Ellipse 227" cx="14.172" cy="14.172" r="14.172" transform="translate(0 20.042) rotate(-45)" fill="url(#linear-gradient-25)"/>
              <g id="Group_1332" data-name="Group 1332" transform="translate(9.641 13.951)">
                <path id="Path_5261" data-name="Path 5261" d="M4614.827,1863.057l-1.482-.217a12.264,12.264,0,0,1-1.511,4.029.869.869,0,0,1-1.084.325l-1.325-.579a.873.873,0,0,1-.394-1.256,10.151,10.151,0,0,0,1.372-3.723c.218-1.489-.125-2.673-1.159-2.825-.933-.137-1.615.64-2.473,2.628-1.239,2.834-2.837,4.765-5.436,4.385-2.347-.344-3.887-2.322-3.93-5.369l-1.483-.218a.873.873,0,0,1-.737-.99l.128-.871a.872.872,0,0,1,.99-.737l1.332.2a11.13,11.13,0,0,1,1.075-3.211.869.869,0,0,1,1.117-.385l1.226.533a.871.871,0,0,1,.417,1.223,9.068,9.068,0,0,0-1.061,3.148c-.259,1.766.4,2.378,1.055,2.474.807.118,1.518-.86,2.561-3.053,1.464-3.136,3.026-4.3,5.474-3.941,2.246.329,4.021,2.29,4.052,5.594l1.66.243a.873.873,0,0,1,.737.991l-.128.871A.871.871,0,0,1,4614.827,1863.057Z" transform="translate(-4595.175 -1854.164)" fill="#fff"/>
              </g>
            </g>
          </g>
          <path id="Path_5262" data-name="Path 5262" d="M4555,1955.711a.162.162,0,0,1-.031,0l-8.65-1.267a.22.22,0,0,1-.187-.25l3.414-23.312a.216.216,0,0,1,.249-.186.221.221,0,0,1,.187.249l-3.382,23.094,8.432,1.235a.22.22,0,0,1-.032.438Z" transform="translate(-4543.153 -1861.008)" fill="url(#linear-gradient-24)"/>
          <path id="Path_5263" data-name="Path 5263" d="M4686.877,1763.619l-.032,0a.218.218,0,0,1-.185-.249l3.381-23.094-8.432-1.235a.22.22,0,0,1-.187-.25.216.216,0,0,1,.25-.186l8.65,1.267a.22.22,0,0,1,.187.249l-3.414,23.312A.22.22,0,0,1,4686.877,1763.619Z" transform="translate(-4634.622 -1731.139)" fill="#fff"/>
        </g>
        <g id="Group_1341" data-name="Group 1341" transform="translate(0)">
          <g id="Group_1339" data-name="Group 1339" transform="translate(0)">
            <g id="Group_1338" data-name="Group 1338">
              <rect id="Rectangle_742" data-name="Rectangle 742" width="96.613" height="45.343" transform="translate(0 86.924) rotate(-64.12)" fill="#7d97f4"/>
              <path id="Path_5264" data-name="Path 5264" d="M4559.158,1725.956l23.191,11.251a4.14,4.14,0,0,0,2.176,5.31c.067.032.026.021.3.147l-34.039,70.161c-.265-.132-.227-.118-.293-.15a4.023,4.023,0,0,0-5.444,1.562c-.015.028-.077.03-.077.03l-22.668-11c1.553-3.2-.49-4.549-2.557-5.552a.325.325,0,0,0-.158-.026l34.038-70.162s.074.032.14.064A4.011,4.011,0,0,0,4559.158,1725.956Z" transform="translate(-4510.654 -1716.954)" fill="#fff" opacity="0.5"/>
              <g id="Group_1337" data-name="Group 1337" transform="translate(27.197 39.098)">
                <path id="Path_5265" data-name="Path 5265" d="M4596.336,1820.292a14.171,14.171,0,1,1-18.936,6.565A14.171,14.171,0,0,1,4596.336,1820.292Z" transform="translate(-4575.976 -1818.868)" fill="#7d97f4"/>
                <g id="Group_1336" data-name="Group 1336" transform="translate(4.484 6.487)">
                  <path id="Path_5266" data-name="Path 5266" d="M4607.486,1852.042l-1.349-.654a12.21,12.21,0,0,1-2.656,3.385.864.864,0,0,1-1.129-.016l-1.09-.951a.874.874,0,0,1,0-1.317,10.156,10.156,0,0,0,2.429-3.135c.656-1.354.688-2.586-.252-3.043-.85-.412-1.733.123-3.15,1.76-2.037,2.328-4.143,3.688-6.505,2.542-2.134-1.036-3.006-3.386-2.128-6.3l-1.349-.654a.874.874,0,0,1-.4-1.167l.385-.792a.873.873,0,0,1,1.167-.4l1.21.587a11.131,11.131,0,0,1,1.993-2.737.87.87,0,0,1,1.182-.031l1.008.878a.871.871,0,0,1,.027,1.291,9.058,9.058,0,0,0-1.96,2.682c-.78,1.606-.337,2.388.26,2.677.734.356,1.707-.363,3.362-2.139,2.342-2.549,4.182-3.187,6.409-2.107,2.042.991,3.143,3.4,2.177,6.556l1.509.732a.871.871,0,0,1,.4,1.167l-.384.793A.873.873,0,0,1,4607.486,1852.042Z" transform="translate(-4589.818 -1838.893)" fill="#fff"/>
                </g>
              </g>
            </g>
            <path id="Path_5267" data-name="Path 5267" d="M4510.635,1922.086a.232.232,0,0,1-.1-.022l-7.866-3.816a.222.222,0,0,1-.1-.294l10.413-21.464a.22.22,0,0,1,.4.192l-10.317,21.266,7.667,3.72a.22.22,0,0,1-.1.418Z" transform="translate(-4499.137 -1832.164)" fill="#bdd0fb"/>
            <path id="Path_5268" data-name="Path 5268" d="M4704.322,1776.284a.222.222,0,0,1-.1-.022.219.219,0,0,1-.1-.294l10.188-21-7.669-3.72a.22.22,0,0,1,.193-.4l7.865,3.816a.214.214,0,0,1,.112.126.218.218,0,0,1-.009.168l-10.284,21.2A.222.222,0,0,1,4704.322,1776.284Z" transform="translate(-4635.402 -1733.771)" fill="#bdd0fb"/>
          </g>
          <g id="Group_1340" data-name="Group 1340" transform="translate(25.903 19.98)">
            <path id="Path_5269" data-name="Path 5269" d="M4577.748,1932.8a4.014,4.014,0,1,1-5.363,1.86A4.013,4.013,0,0,1,4577.748,1932.8Z" transform="translate(-4571.98 -1876.502)" fill="#7d97f4"/>
            <circle id="Ellipse_228" data-name="Ellipse 228" cx="4.014" cy="4.014" r="4.014" transform="translate(24.81 6.675) rotate(-56.248)" fill="#7d97f4"/>
          </g>
        </g>
      </g>
      <g id="Group_1351" data-name="Group 1351" transform="translate(32.567 34.262)">
        <g id="Group_1344" data-name="Group 1344" transform="translate(0 39.086)">
          <circle id="Ellipse_229" data-name="Ellipse 229" cx="12.077" cy="12.077" r="12.077" transform="translate(2.247 26.253) rotate(-83.663)" fill="url(#linear-gradient-27)"/>
          <circle id="Ellipse_230" data-name="Ellipse 230" cx="11.675" cy="11.675" r="11.675" transform="translate(0 10.126) rotate(-25.701)" fill="url(#linear-gradient-28)"/>
          <path id="Path_5270" data-name="Path 5270" d="M4606.753,1951.015a.384.384,0,0,1-.175.045.39.39,0,0,1-.4-.382,11.121,11.121,0,0,1,5.934-10.1,11.369,11.369,0,0,1,1.864-.784.39.39,0,1,1,.237.744,10.537,10.537,0,0,0-1.735.73,10.345,10.345,0,0,0-5.52,9.4A.389.389,0,0,1,4606.753,1951.015Z" transform="translate(-4601.765 -1934.859)" fill="#fff" opacity="0.68"/>
          <circle id="Ellipse_231" data-name="Ellipse 231" cx="9.882" cy="9.882" r="9.882" transform="translate(3.136 10.061) rotate(-21.251)" fill="#fff" opacity="0.68"/>
          <g id="Group_1343" data-name="Group 1343" transform="translate(10.814 9.285)">
            <path id="Path_5271" data-name="Path 5271" d="M4633.638,1966.613l-.5-.95a8.755,8.755,0,0,1-2.971.836.621.621,0,0,1-.647-.488l-.229-1.013a.627.627,0,0,1,.56-.761,7.286,7.286,0,0,0,2.735-.787c.953-.506,1.493-1.207,1.142-1.869-.317-.6-1.056-.662-2.57-.315-2.165.486-3.96.382-4.844-1.283-.8-1.5-.306-3.234,1.439-4.552l-.5-.95a.626.626,0,0,1,.26-.847l.558-.3a.628.628,0,0,1,.847.26l.451.853a8,8,0,0,1,2.314-.741.626.626,0,0,1,.7.482l.21.936a.625.625,0,0,1-.53.759,6.525,6.525,0,0,0-2.271.723c-1.131.6-1.207,1.24-.983,1.661.274.517,1.141.513,2.853.185,2.434-.484,3.77-.074,4.6,1.494.763,1.438.381,3.3-1.516,4.718l.564,1.063a.626.626,0,0,1-.261.847l-.558.3A.625.625,0,0,1,4633.638,1966.613Z" transform="translate(-4625.938 -1953.265)" fill="url(#linear-gradient-29)"/>
          </g>
        </g>
        <g id="Group_1346" data-name="Group 1346" transform="translate(15.025 1.693)">
          <circle id="Ellipse_232" data-name="Ellipse 232" cx="21.023" cy="21.023" r="21.023" transform="translate(3.191 3.191)" fill="url(#linear-gradient-30)"/>
          <circle id="Ellipse_233" data-name="Ellipse 233" cx="20.324" cy="20.324" r="20.324" transform="translate(0 8.729) rotate(-12.401)" fill="url(#linear-gradient-31)"/>
          <path id="Path_5272" data-name="Path 5272" d="M4655.132,1846.5a.384.384,0,0,1-.175.045.389.389,0,0,1-.4-.382,19.071,19.071,0,0,1,10.176-17.323,19.284,19.284,0,0,1,3.2-1.344.39.39,0,0,1,.237.744,18.558,18.558,0,0,0-3.068,1.29,18.3,18.3,0,0,0-9.761,16.617A.391.391,0,0,1,4655.132,1846.5Z" transform="translate(-4649.497 -1821.546)" fill="#fff" opacity="0.68"/>
          <circle id="Ellipse_234" data-name="Ellipse 234" cx="17.202" cy="17.202" r="17.202" transform="translate(0.797 20.52) rotate(-35.826)" fill="#fff" opacity="0.68"/>
          <g id="Group_1345" data-name="Group 1345" transform="translate(15.913 13.251)">
            <path id="Path_5273" data-name="Path 5273" d="M4701.466,1873.306l-.876-1.654a15.266,15.266,0,0,1-5.175,1.455,1.083,1.083,0,0,1-1.127-.849l-.4-1.763a1.091,1.091,0,0,1,.974-1.325,12.684,12.684,0,0,0,4.763-1.37c1.659-.881,2.6-2.1,1.987-3.254-.553-1.041-1.837-1.152-4.474-.547-3.769.846-6.894.665-8.43-2.234-1.388-2.617-.535-5.629,2.5-7.925l-.877-1.654a1.09,1.09,0,0,1,.452-1.474l.972-.516a1.09,1.09,0,0,1,1.474.452l.788,1.485a13.889,13.889,0,0,1,4.027-1.29,1.085,1.085,0,0,1,1.214.839l.368,1.629a1.086,1.086,0,0,1-.923,1.322,11.351,11.351,0,0,0-3.953,1.258c-1.97,1.045-2.1,2.159-1.711,2.891.477.9,1.987.893,4.965.322,4.239-.843,6.565-.13,8.013,2.6,1.328,2.5.666,5.741-2.638,8.214l.982,1.85a1.091,1.091,0,0,1-.452,1.474l-.972.516A1.09,1.09,0,0,1,4701.466,1873.306Z" transform="translate(-4688.063 -1850.071)" fill="url(#linear-gradient-32)"/>
          </g>
        </g>
        <g id="Group_1348" data-name="Group 1348" transform="translate(50.71 37.251)">
          <circle id="Ellipse_235" data-name="Ellipse 235" cx="21.633" cy="21.633" r="21.633" transform="translate(0 3.569) rotate(-4.731)" fill="url(#linear-gradient-33)"/>
          <circle id="Ellipse_236" data-name="Ellipse 236" cx="20.913" cy="20.913" r="20.913" transform="translate(1.832 43.642) rotate(-88.339)" fill="url(#linear-gradient-34)"/>
          <path id="Path_5274" data-name="Path 5274" d="M4760.928,1952.514a.4.4,0,0,1-.175.045.39.39,0,0,1-.4-.382,19.723,19.723,0,0,1,13.755-19.2.39.39,0,1,1,.235.744,19.157,19.157,0,0,0-3.159,1.328,18.839,18.839,0,0,0-10.051,17.108A.393.393,0,0,1,4760.928,1952.514Z" transform="translate(-4756.708 -1928.419)" fill="#fff" opacity="0.68"/>
          <circle id="Ellipse_237" data-name="Ellipse 237" cx="17.701" cy="17.701" r="17.701" transform="translate(2.233 11.099) rotate(-15.219)" fill="#fff" opacity="0.68"/>
          <g id="Group_1347" data-name="Group 1347" transform="translate(14.801 12.062)">
            <path id="Path_5275" data-name="Path 5275" d="M4808.586,1980.081l-.9-1.7a15.7,15.7,0,0,1-5.322,1.5,1.116,1.116,0,0,1-1.162-.874l-.408-1.814a1.123,1.123,0,0,1,1-1.364,13.023,13.023,0,0,0,4.9-1.41c1.708-.906,2.674-2.16,2.045-3.348-.569-1.071-1.891-1.186-4.6-.563-3.878.871-7.094.684-8.676-2.3-1.429-2.692-.55-5.792,2.574-8.155l-.9-1.7a1.123,1.123,0,0,1,.466-1.517l1-.53a1.121,1.121,0,0,1,1.516.465l.812,1.528a14.285,14.285,0,0,1,4.143-1.328,1.116,1.116,0,0,1,1.248.863l.38,1.676a1.12,1.12,0,0,1-.95,1.361,11.685,11.685,0,0,0-4.069,1.294c-2.027,1.075-2.16,2.222-1.76,2.975.491.926,2.044.917,5.109.331,4.363-.868,6.755-.134,8.246,2.675,1.366,2.577.685,5.906-2.713,8.451l1.009,1.9a1.122,1.122,0,0,1-.465,1.517l-1,.531A1.123,1.123,0,0,1,4808.586,1980.081Z" transform="translate(-4794.796 -1956.172)" fill="url(#linear-gradient-35)"/>
          </g>
        </g>
        <g id="Group_1350" data-name="Group 1350" transform="translate(63.202 0)">
          <circle id="Ellipse_238" data-name="Ellipse 238" cx="15.85" cy="15.85" r="15.85" transform="translate(0.734 13.26) rotate(-23.276)" fill="url(#linear-gradient-36)"/>
          <circle id="Ellipse_239" data-name="Ellipse 239" cx="15.323" cy="15.323" r="15.323" transform="matrix(0.776, -0.631, 0.631, 0.776, 0, 19.345)" fill="url(#linear-gradient-37)"/>
          <path id="Path_5276" data-name="Path 5276" d="M4809.914,1842.161a.39.39,0,0,1-.573-.337,14.557,14.557,0,0,1,10.151-14.167.39.39,0,0,1,.237.744,13.962,13.962,0,0,0-2.3.966,13.7,13.7,0,0,0-7.308,12.441A.392.392,0,0,1,4809.914,1842.161Z" transform="translate(-4802.319 -1819.961)" fill="#fff" opacity="0.68"/>
          <circle id="Ellipse_240" data-name="Ellipse 240" cx="12.969" cy="12.969" r="12.969" transform="matrix(0.015, -1, 1, 0.015, 8.842, 34.465)" fill="#fff" opacity="0.68"/>
          <g id="Group_1349" data-name="Group 1349" transform="translate(15.298 13.291)">
            <path id="Path_5277" data-name="Path 5277" d="M4845,1862.485l-.663-1.246a11.484,11.484,0,0,1-3.9,1.1.816.816,0,0,1-.851-.64l-.3-1.329a.822.822,0,0,1,.734-1,9.547,9.547,0,0,0,3.589-1.034c1.251-.663,1.96-1.583,1.5-2.453-.417-.785-1.386-.868-3.372-.413-2.842.638-5.2.5-6.358-1.684-1.045-1.973-.4-4.244,1.887-5.975l-.662-1.247a.823.823,0,0,1,.341-1.112l.733-.389a.823.823,0,0,1,1.112.341l.593,1.119a10.517,10.517,0,0,1,3.037-.972.818.818,0,0,1,.914.633l.279,1.228a.82.82,0,0,1-.7,1,8.55,8.55,0,0,0-2.981.949c-1.485.787-1.583,1.628-1.29,2.179.36.679,1.5.673,3.743.243,3.2-.636,4.95-.1,6.042,1.96,1,1.888.5,4.328-1.988,6.193l.74,1.395a.822.822,0,0,1-.341,1.112l-.733.389A.822.822,0,0,1,4845,1862.485Z" transform="translate(-4834.897 -1844.968)" fill="url(#linear-gradient-38)"/>
          </g>
        </g>
      </g>
    </g>
    <g id="Group_1356" data-name="Group 1356" transform="translate(-2137.677 -18679.43)">
      <g id="Group_1354" data-name="Group 1354">
        <g id="Group_1353" data-name="Group 1353">
          <path id="Path_5278" data-name="Path 5278" d="M5874.95,2219.306a39.627,39.627,0,0,1-4.1-14.462c-.917-13.034,6.66-25.036,12.227-36.257,5.116-10.314,8.918-25.682-8.344-24.315-13.751,1.09-29.92,14.795-31.764,29.085-2.184,16.914,6.051,38.244-3.711,53.607-13.658,21.494-23.508,16.568-23.508,52.839,0,15.5,8.584,24.047,18.417,28.755a41.149,41.149,0,0,0,46.39-7.538c10.924-10.572,17.419-25.77,15.223-41.027C5893.561,2244.583,5881.475,2232.9,5874.95,2219.306Z" transform="translate(-5815.75 -2144.186)" fill="#bdd0fb"/>
          <path id="Path_5279" data-name="Path 5279" d="M5932.22,2348.973a.8.8,0,0,1-.77-.6c-8.56-34.171-13.221-65.15-13.85-92.076-.505-21.574,1.562-40.616,6.143-56.6,7.84-27.351,20.177-36.163,20.7-36.526a.795.795,0,0,1,.907,1.3h0a35.887,35.887,0,0,0-7.157,7.72c-3.711,5.079-8.976,14.083-12.981,28.149-4.508,15.831-6.533,34.705-6.019,56.1.645,26.763,5.288,57.562,13.8,91.539a.795.795,0,0,1-.771.988Z" transform="translate(-5884.558 -2156.926)" fill="#7d97f4"/>
        </g>
        <path id="Path_5280" data-name="Path 5280" d="M6017.03,2257.654a5.775,5.775,0,0,0-2.173-.147c-4.3.495-6.068,5.031-7.332,8.579-1.083,3.038-2.358,6.725-1.719,10.016.691,3.558,4.469,6.46,7.21,2.848,3.118-4.106,7.793-10.411,7.822-15.852A5.33,5.33,0,0,0,6017.03,2257.654Z" transform="translate(-5944.126 -2220.772)" fill="#bdd0fb"/>
      </g>
      <g id="Group_1355" data-name="Group 1355" transform="translate(63.147 36.391)">
        <path id="Path_5281" data-name="Path 5281" d="M6062.932,2340.623c1.76-11.593-2.454-24.9-4.556-37.16a58.993,58.993,0,0,1-.585-19.444c1.035-6.493,4.085-13.514,1.273-19.983-5.667-13.031-19.141-7.1-26.858,2.709-8.956,11.385-11.405,29.988-14.806,44.313-2.051,8.635-5.14,17.493-6.222,26.293-1.792,14.577,1.5,24.7,8.478,31.533a21.1,21.1,0,0,0,25.058,3.358C6052.1,2368.125,6060.094,2359.323,6062.932,2340.623Z" transform="translate(-6010.696 -2256.531)" fill="#91b3fa"/>
        <path id="Path_5282" data-name="Path 5282" d="M6068.818,2414.886a.8.8,0,0,1-.783-.663,290.364,290.364,0,0,1-3.04-42.3c-.071-22.553,2.348-55.629,14.274-85.119a.795.795,0,0,1,1.474.6c-11.826,29.242-14.229,62.085-14.161,84.488a288.578,288.578,0,0,0,3.019,42.076.794.794,0,0,1-.652.916A.817.817,0,0,1,6068.818,2414.886Z" transform="translate(-6047.406 -2276.659)" fill="#7d97f4"/>
      </g>
    </g>
    <g id="Group_1361" data-name="Group 1361" transform="translate(-2414.728 -18612.668)">
      <g id="Group_1358" data-name="Group 1358" transform="translate(0 75.783)">
        <path id="Path_5283" data-name="Path 5283" d="M4537.06,2668.6v-75.784a18.157,18.157,0,0,1,17.958-18.167c29.881-.325,91.51-.342,141.937,3.907a13.648,13.648,0,0,1,12.481,13.12l4.714,73.268a17.349,17.349,0,0,1-17.008,17.972l-142.725,2.711A17.033,17.033,0,0,1,4537.06,2668.6Z" transform="translate(-4537.06 -2574.526)" fill="url(#linear-gradient-39)"/>
        <path id="Path_5284" data-name="Path 5284" d="M4590.4,2644.4c-.126,6.448.064,16.68.221,23.29a5.837,5.837,0,0,0,6.518,5.659l24.592-2.882a5.84,5.84,0,0,0,5.095-6.665l-3.018-20.137a5.84,5.84,0,0,0-5.774-4.973h-21.794A5.832,5.832,0,0,0,4590.4,2644.4Z" transform="translate(-4573.096 -2617.91)" fill="#fff"/>
        <path id="Path_5285" data-name="Path 5285" d="M4780.27,2639.8l20.514,2.213a4.623,4.623,0,0,0,5.107-4.937l-4.484-61.021c-8.6-.273-17.081-.472-25.265-.611v59.759A4.625,4.625,0,0,0,4780.27,2639.8Z" transform="translate(-4698.697 -2575.149)" fill="#fff" opacity="0.37"/>
        <path id="Path_5286" data-name="Path 5286" d="M4808.346,2629.622a2.062,2.062,0,0,0,2.058,1.944c.041,0,.081,0,.121,0a2.06,2.06,0,0,0,1.939-2.179l-3.093-53.258c-1.386-.034-2.762-.065-4.138-.095Z" transform="translate(-4718.367 -2575.542)" fill="#fff"/>
        <g id="Group_1357" data-name="Group 1357" transform="translate(22.686 26.877)">
          <path id="Path_5287" data-name="Path 5287" d="M4621.942,2677.776a.688.688,0,0,1-.687-.645l-1.064-16.775a.688.688,0,0,1,.645-.73.673.673,0,0,1,.729.644l1.063,16.774a.688.688,0,0,1-.643.73Z" transform="translate(-4615.948 -2658.936)" fill="#91b3fa"/>
          <path id="Path_5288" data-name="Path 5288" d="M4629.759,2677.106a.69.69,0,0,1-.689-.665l-.557-17.1a.69.69,0,0,1,.665-.711.652.652,0,0,1,.711.665l.557,17.1a.688.688,0,0,1-.665.711Z" transform="translate(-4621.575 -2658.266)" fill="#91b3fa"/>
          <path id="Path_5289" data-name="Path 5289" d="M4638.314,2677.108a.686.686,0,0,1-.687-.656c-.134-2.81-.8-16.844-.8-17.128a.688.688,0,0,1,1.375-.006c.008.373.529,11.327.8,17.07a.685.685,0,0,1-.654.718A.179.179,0,0,1,4638.314,2677.108Zm-.114-17.784h0Z" transform="translate(-4627.195 -2658.268)" fill="#91b3fa"/>
          <path id="Path_5290" data-name="Path 5290" d="M4651.743,2677.03a1.375,1.375,0,0,1-1.373-1.328c-.581-16.564-.48-16.937-.412-17.184a1.375,1.375,0,0,1,2.69.544c-.043,1,.264,10.633.471,16.543a1.373,1.373,0,0,1-1.326,1.422A.37.37,0,0,1,4651.743,2677.03Z" transform="translate(-4636.038 -2657.502)" fill="#91b3fa"/>
          <path id="Path_5291" data-name="Path 5291" d="M4663.346,2677.778a.687.687,0,0,1-.688-.687v-16.775a.688.688,0,0,1,1.376,0v16.775A.687.687,0,0,1,4663.346,2677.778Z" transform="translate(-4644.661 -2658.939)" fill="#91b3fa"/>
          <path id="Path_5292" data-name="Path 5292" d="M4669.1,2677.7a.687.687,0,0,1-.687-.672c-.132-5.829-.44-15.35-.715-16.494a.688.688,0,0,1,.978-.91c.374.246.731.478,1.112,17.372a.689.689,0,0,1-.672.7Z" transform="translate(-4648.011 -2658.856)" fill="#91b3fa"/>
          <path id="Path_5293" data-name="Path 5293" d="M4609.388,2677.867a1.376,1.376,0,0,1-1.373-1.3l-.918-17.615a1.377,1.377,0,0,1,1.3-1.446,1.393,1.393,0,0,1,1.446,1.3l.917,17.614a1.376,1.376,0,0,1-1.3,1.445C4609.436,2677.867,4609.412,2677.867,4609.388,2677.867Z" transform="translate(-4607.095 -2657.5)" fill="#91b3fa"/>
        </g>
      </g>
      <g id="Group_1360" data-name="Group 1360" transform="translate(23.957 0)">
        <path id="Path_5294" data-name="Path 5294" d="M4611.019,2406.64v-53.222a12.752,12.752,0,0,1,12.611-12.758c20.985-.229,64.266-.24,99.679,2.744a9.587,9.587,0,0,1,8.766,9.214l3.309,51.454a12.182,12.182,0,0,1-11.943,12.621l-100.233,1.9A11.962,11.962,0,0,1,4611.019,2406.64Z" transform="translate(-4611.019 -2340.571)" fill="url(#linear-gradient-40)"/>
        <path id="Path_5295" data-name="Path 5295" d="M4648.479,2389.645c-.089,4.528.047,11.713.156,16.356a4.1,4.1,0,0,0,4.577,3.974l17.271-2.024a4.1,4.1,0,0,0,3.579-4.681l-2.121-14.142a4.1,4.1,0,0,0-4.056-3.493H4652.58A4.1,4.1,0,0,0,4648.479,2389.645Z" transform="translate(-4636.326 -2371.038)" fill="#fff"/>
        <path id="Path_5296" data-name="Path 5296" d="M4781.819,2386.415l14.406,1.554a3.248,3.248,0,0,0,3.587-3.467l-3.15-42.855c-6.039-.191-12-.33-17.742-.429v41.967A3.246,3.246,0,0,0,4781.819,2386.415Z" transform="translate(-4724.533 -2341.009)" fill="#fff" opacity="0.37"/>
        <path id="Path_5297" data-name="Path 5297" d="M4801.537,2379.263a1.447,1.447,0,0,0,1.444,1.365l.086,0a1.449,1.449,0,0,0,1.362-1.53l-2.172-37.4c-.974-.024-1.94-.045-2.907-.067Z" transform="translate(-4738.345 -2341.285)" fill="#fff"/>
        <g id="Group_1359" data-name="Group 1359" transform="translate(15.932 18.875)">
          <path id="Path_5298" data-name="Path 5298" d="M4670.629,2413.081a.481.481,0,0,1-.481-.452l-.749-11.781a.482.482,0,0,1,.452-.512.473.473,0,0,1,.514.452l.746,11.781a.482.482,0,0,1-.452.512Z" transform="translate(-4666.42 -2399.851)" fill="#91b3fa"/>
          <path id="Path_5299" data-name="Path 5299" d="M4676.119,2412.611a.483.483,0,0,1-.483-.467l-.391-12.006a.485.485,0,0,1,.467-.5.457.457,0,0,1,.5.467l.392,12.006a.484.484,0,0,1-.467.5Z" transform="translate(-4670.374 -2399.38)" fill="#91b3fa"/>
          <path id="Path_5300" data-name="Path 5300" d="M4682.126,2412.612a.481.481,0,0,1-.481-.46c-.1-1.974-.564-11.83-.564-12.029a.483.483,0,0,1,.966,0c.006.262.372,7.954.562,11.988a.482.482,0,0,1-.459.5Zm-.08-12.49h0Z" transform="translate(-4674.319 -2399.381)" fill="#91b3fa"/>
          <path id="Path_5301" data-name="Path 5301" d="M4691.557,2412.556a.964.964,0,0,1-.964-.932c-.409-11.632-.337-11.9-.29-12.069a.966.966,0,0,1,1.89.383c-.031.7.184,7.467.329,11.618a.964.964,0,0,1-.93,1Z" transform="translate(-4680.528 -2398.843)" fill="#91b3fa"/>
          <path id="Path_5302" data-name="Path 5302" d="M4699.706,2413.082a.483.483,0,0,1-.484-.483v-11.78a.484.484,0,0,1,.969,0v11.78A.484.484,0,0,1,4699.706,2413.082Z" transform="translate(-4686.582 -2399.852)" fill="#91b3fa"/>
          <path id="Path_5303" data-name="Path 5303" d="M4703.75,2413.025a.482.482,0,0,1-.482-.472c-.093-4.094-.308-10.78-.5-11.583a.483.483,0,0,1,.688-.639c.263.172.513.335.781,12.2a.484.484,0,0,1-.472.495Z" transform="translate(-4688.938 -2399.794)" fill="#91b3fa"/>
          <path id="Path_5304" data-name="Path 5304" d="M4661.813,2413.145a.966.966,0,0,1-.964-.916l-.645-12.37a.966.966,0,0,1,.916-1.015.978.978,0,0,1,1.016.915l.644,12.37a.967.967,0,0,1-.915,1.015Z" transform="translate(-4660.203 -2398.841)" fill="#91b3fa"/>
        </g>
      </g>
    </g>
    <g id="Group_1368" data-name="Group 1368" transform="translate(-2328.752 -18714.852)">
      <g id="Group_1367" data-name="Group 1367">
        <g id="Group_1362" data-name="Group 1362" transform="translate(0 41.179)">
          <path id="Path_5305" data-name="Path 5305" d="M4731.312,2203.464l7.829,4.214c9.391,5.719,17.8,8.74,25.358,9.875,23.613,3.543,39-11.357,50.472-20.395,15.142-11.933,26.925-6.128,26.925-6.128l-16.148,30.818c-24.115,22.737-48.838,17.688-64.426,10.32a72.286,72.286,0,0,1-16.143-10.32C4727.441,2211.271,4731.312,2203.464,4731.312,2203.464Z" transform="translate(-4703.239 -2189.619)" fill="url(#linear-gradient-41)"/>
          <path id="Path_5306" data-name="Path 5306" d="M4666.043,2225.156a5.778,5.778,0,0,1,3.376-3.7l15.893-6.391s.239-2.038-3.359-3.424-2.757-5.414-2.757-5.414,4.917,2.242,12.114,5.8a16.848,16.848,0,0,1,7.647,8.327l-4.091,5.38a72.725,72.725,0,0,1-29.7,2.338Z" transform="translate(-4665.165 -2201.437)" fill="url(#linear-gradient-42)"/>
        </g>
        <path id="Path_5307" data-name="Path 5307" d="M4979.584,2885.395s1.208,6.848,1.8,13.627a4.672,4.672,0,0,1-4.468,5.061c-9.028.376-28.34,1.107-35.269.8a1.52,1.52,0,0,1-1.337-2.082h0a3.4,3.4,0,0,1,1.739-1.833l31.9-14.661Z" transform="translate(-4847.389 -2619.779)" fill="url(#linear-gradient-43)"/>
        <path id="Path_5308" data-name="Path 5308" d="M5034.23,2871.91l-.971,8.192s-5.588,2.6-9.4-.328l2.315-9.128Z" transform="translate(-4901.045 -2610.318)" fill="url(#linear-gradient-44)"/>
        <path id="Path_5309" data-name="Path 5309" d="M5033.96,2429.622c.42,2.217-.752,116.178-11.935,164.784-.183.793-1.339,2.351-.94,3.033.971,1.66,8.117,1.194,12.145,1.334,1.249.044,1.919-1.421,2.271-2.662,3.2-11.278,18.513-67.781,20.511-121.757,2.233-60.313,0-2.054,0-2.054l.992-38.21Z" transform="translate(-4899.215 -2327.437)" fill="url(#linear-gradient-45)"/>
        <path id="Path_5310" data-name="Path 5310" d="M5129.467,2895.358s1.926,3.457,3.789,12.644a2.849,2.849,0,0,1-2.506,3.413c-2.981.293-7.571.671-11.247.645a2.841,2.841,0,0,1-2.812-3.17c.407-3.353,1.676-8.854,5.594-13.143Z" transform="translate(-4960.578 -2626.169)" fill="url(#linear-gradient-46)"/>
        <path id="Path_5311" data-name="Path 5311" d="M5141.049,2865.113l-2.27,12.388s-2.245,1.671-6.688.459l1.084-13.328Z" transform="translate(-4970.469 -2606.461)" fill="url(#linear-gradient-47)"/>
        <path id="Path_5312" data-name="Path 5312" d="M5098.985,2432.028c9.146,57.612-1.308,146.813-5.062,163.407a2.526,2.526,0,0,1-2,1.965,15.98,15.98,0,0,1-7.154-.3,2.355,2.355,0,0,1-1.633-2.184c-.5-13.416.4-95.774-8.119-128.323a7.4,7.4,0,0,0-2.732-4.079l-14.024-11.429-.259-24.644Z" transform="translate(-4922.947 -2325.398)" fill="url(#linear-gradient-48)"/>
        <path id="Path_5313" data-name="Path 5313" d="M4962.571,2184.227c24.1-.4,50.7,6.329,50.7,6.329,5.921,34.559,3.544,72.856,2.313,85.469-.253,2.586,1.129,5.324-1.436,5.738-12.611,2.037-32.436-.037-38.6-1.826-2.25-.654-1.868-3.051-2.347-5.346-4.135-19.836-15.961-63.586-15.961-63.586-5.734,7.375-13.823,17.695-25.782,20.441,6.094-7.064-5.594-21.878-4.346-27.192C4937.927,2192.106,4955.137,2184.351,4962.571,2184.227Z" transform="translate(-4838.936 -2144.129)" fill="url(#linear-gradient-49)"/>
        <path id="Path_5314" data-name="Path 5314" d="M5066.326,2129.684l7.669,22.179a.8.8,0,0,1-.364.963c-2.092,1.156-9.624,4.5-18.7-1.258a3.763,3.763,0,0,1-1.733-2.688l-2.483-19.2Z" transform="translate(-4918.273 -2099.5)" fill="url(#linear-gradient-50)"/>
        <g id="Group_1363" data-name="Group 1363" transform="translate(123.927 5.677)">
          <path id="Path_5315" data-name="Path 5315" d="M5034.406,2072.406s-8.422,15.854-7.342,22.257,11.517,5.945,20.631.744l6.37-17.118Z" transform="translate(-5026.968 -2065.448)" fill="url(#linear-gradient-51)"/>
          <path id="Path_5316" data-name="Path 5316" d="M5060.544,2074.553a.654.654,0,0,1-.285-.957,17.077,17.077,0,0,0,2.344-4.975s1.513-.969-3.854-2.254c-2.922-.7-8.1-1.278-10.381-3.38-2.548-2.351,2.149-6.794,4.125-7.987,2.607-1.574,5.78-2.5,8.722-1.712a16.252,16.252,0,0,1,3.965,1.891c2.153,1.276,4.381,2.625,5.75,4.719a15.572,15.572,0,0,1,1.775,4.5,22.529,22.529,0,0,1,1.065,6.872c-.283,6.2-7.544,11.746-13.383,12.425a.658.658,0,0,1-.69-.871l2.386-6.938a.657.657,0,0,0-.356-.814Z" transform="translate(-5040.221 -2053)" fill="url(#linear-gradient-52)"/>
          <path id="Path_5317" data-name="Path 5317" d="M5077.65,2112.207s6-4.115,6.436-.649-5.4,5.018-8.292,3.726Z" transform="translate(-5058.286 -2089.67)" fill="url(#linear-gradient-53)"/>
        </g>
        <g id="Group_1364" data-name="Group 1364" transform="translate(128.297 0)">
          <path id="Path_5318" data-name="Path 5318" d="M5039.155,2043.326c12.3-23.24,44.193-2.127,29.353,17.45C5057.472,2053.439,5045,2042.533,5039.155,2043.326Z" transform="translate(-5039.155 -2033.132)" fill="url(#linear-gradient-54)"/>
        </g>
        <path id="Path_5319" data-name="Path 5319" d="M5035.091,2070.426l-22.095-.683a1.589,1.589,0,0,1-1.344-.819,14.951,14.951,0,0,0-8.5-7.1.447.447,0,0,1,.121-.867l13.543-.921a.282.282,0,0,1,.045,0c6.75.519,12.728,4.581,18.428,9.9A.284.284,0,0,1,5035.091,2070.426Z" transform="translate(-4887.577 -2050.369)" fill="url(#linear-gradient-55)"/>
        <path id="Path_5320" data-name="Path 5320" d="M5143.334,2237.052c-13.492-15.145-12.125-26.8,3.1-35.2,0,0,25.239,17.149,29.391,38.892a59.731,59.731,0,0,0-21.942,5.881C5152.021,2236.36,5143.334,2237.052,5143.334,2237.052Z" transform="translate(-4972.888 -2155.656)" fill="url(#linear-gradient-56)"/>
        <path id="Path_5321" data-name="Path 5321" d="M5071.469,2322.208s28.337,16.015,37.9,2.34a10.746,10.746,0,0,0,1.971-8.351,59.732,59.732,0,0,1,21.941-5.881,30,30,0,0,1-3.264,20.572c-16.747,30.638-62.3-1.693-62.3-1.693Z" transform="translate(-4930.341 -2226.001)" fill="url(#linear-gradient-57)"/>
        <g id="Group_1365" data-name="Group 1365" transform="translate(74.901 55.077)">
          <path id="Path_5322" data-name="Path 5322" d="M4961.041,2295.346l-15.465-54.009a1.577,1.577,0,0,0-1.333-1.135c-2.8-.326-10.92-1.245-20.295-2.038-11.293-.955-24.406-1.729-32.244-1.071a1.581,1.581,0,0,0-1.291,2.275c4.456,9.015,22.785,45.687,31.964,57.7a1.588,1.588,0,0,0,1.276.626l35.882-.334A1.579,1.579,0,0,0,4961.041,2295.346Z" transform="translate(-4890.249 -2231.603)" fill="url(#linear-gradient-58)"/>
          <path id="Path_5323" data-name="Path 5323" d="M4958.018,2224.1l-11.214-1.868a.805.805,0,0,0-.9,1.046l1.109,3.363a.806.806,0,0,0,.659.545l10.791,1.442a.8.8,0,0,0,.888-.981l-.687-2.937A.806.806,0,0,0,4958.018,2224.1Z" transform="translate(-4925.921 -2222.218)" fill="url(#linear-gradient-24)"/>
          <path id="Path_5324" data-name="Path 5324" d="M4957.06,2239.6l-.924-4.812a1.112,1.112,0,0,0-.979-.9l-22.647-2.3a1.113,1.113,0,0,0-1.194,1.366l1.44,6a1.112,1.112,0,0,0,1.026.851l22.131,1.114A1.113,1.113,0,0,0,4957.06,2239.6Z" transform="translate(-4916.569 -2228.229)" fill="#bdd0fb"/>
          <path id="Path_5325" data-name="Path 5325" d="M5043.064,2330.655s2.154-8.859,1.286-12-2.553-7.184-8.165-6.285a82.035,82.035,0,0,0-12.233,3.262s.334,4.094,4.6,2.773l-2.646,2.047s.378,3.278,3.981,1.527l-2.461,2.715a2.867,2.867,0,0,0,4.2.965C5034.276,2323.929,5035.546,2331.721,5043.064,2330.655Z" transform="translate(-4976.009 -2279.96)" fill="url(#linear-gradient-60)"/>
        </g>
        <g id="Group_1366" data-name="Group 1366" transform="translate(149.164 74.102)">
          <path id="Path_5326" data-name="Path 5326" d="M5102.3,2269.549c1.769.143,16.73.622,16.73.622l-.6,15.062-7.751,4.372-8.375-4.372Z" transform="translate(-5100.521 -2269.549)" fill="url(#linear-gradient-61)"/>
          <path id="Path_5327" data-name="Path 5327" d="M5097.935,2269.549l17.884.622.732,5.779-9.309,2.418-9.895-4.409Z" transform="translate(-5097.348 -2269.549)" fill="url(#linear-gradient-62)"/>
        </g>
      </g>
    </g>
  </g>
</svg>
