<svg xmlns="http://www.w3.org/2000/svg" xmlns:xlink="http://www.w3.org/1999/xlink" width="619.425" height="493.427" viewBox="0 0 619.425 493.427">
  <defs>
    <clipPath id="clip-path">
      <ellipse id="Ellipse_346" data-name="Ellipse 346" cx="203.162" cy="203.162" rx="203.162" ry="203.162" fill="none"/>
    </clipPath>
    <linearGradient id="linear-gradient" x1="0.451" y1="0.556" x2="0.778" y2="0.188" gradientUnits="objectBoundingBox">
      <stop offset="0" stop-color="#ffc444"/>
      <stop offset="0.996" stop-color="#f36f56"/>
    </linearGradient>
    <linearGradient id="linear-gradient-2" x1="0" y1="0.5" x2="1" y2="0.5" xlink:href="#linear-gradient"/>
    <linearGradient id="linear-gradient-3" x1="0.025" y1="1.255" x2="0.138" y2="1.07" gradientUnits="objectBoundingBox">
      <stop offset="0" stop-color="#ff9085"/>
      <stop offset="1" stop-color="#fb6fbb"/>
    </linearGradient>
    <linearGradient id="linear-gradient-4" x1="-3.427" y1="0.623" x2="0.966" y2="0.48" gradientUnits="objectBoundingBox">
      <stop offset="0" stop-color="#311944"/>
      <stop offset="1" stop-color="#6b3976"/>
    </linearGradient>
    <linearGradient id="linear-gradient-5" x1="-0.381" y1="0.555" x2="1.09" y2="0.468" xlink:href="#linear-gradient-4"/>
    <linearGradient id="linear-gradient-6" x1="22.217" y1="-14.536" x2="24.144" y2="-14.536" xlink:href="#linear-gradient"/>
    <linearGradient id="linear-gradient-7" x1="5.258" y1="-1.737" x2="5.89" y2="-1.095" xlink:href="#linear-gradient-3"/>
    <linearGradient id="linear-gradient-8" x1="0.917" y1="0.346" x2="2.194" y2="0.885" xlink:href="#linear-gradient-3"/>
    <linearGradient id="linear-gradient-9" x1="0.48" y1="0.808" x2="0.811" y2="-2.323" xlink:href="#linear-gradient"/>
    <linearGradient id="linear-gradient-10" x1="4.976" y1="-0.144" x2="4.93" y2="2.785" xlink:href="#linear-gradient"/>
    <linearGradient id="linear-gradient-11" x1="-9.089" y1="0.931" x2="1.605" y2="0.44" xlink:href="#linear-gradient-4"/>
    <linearGradient id="linear-gradient-12" x1="-19.26" y1="-11.738" x2="-17.561" y2="-11.738" xlink:href="#linear-gradient"/>
    <linearGradient id="linear-gradient-13" x1="1.937" y1="-0.131" x2="2.558" y2="0.385" xlink:href="#linear-gradient-3"/>
    <linearGradient id="linear-gradient-14" x1="-0.811" y1="0.639" x2="1.284" y2="0.416" xlink:href="#linear-gradient-4"/>
    <linearGradient id="linear-gradient-15" y1="0.5" x2="1" y2="0.5" gradientUnits="objectBoundingBox">
      <stop offset="0" stop-color="#444b8c"/>
      <stop offset="0.996" stop-color="#26264f"/>
    </linearGradient>
    <linearGradient id="linear-gradient-17" x1="0.682" y1="0.098" x2="0.114" y2="1.264" gradientUnits="objectBoundingBox">
      <stop offset="0.004" stop-color="#e38ddd"/>
      <stop offset="1" stop-color="#9571f6"/>
    </linearGradient>
    <linearGradient id="linear-gradient-18" x1="0.824" y1="-0.185" x2="-0.182" y2="1.863" xlink:href="#linear-gradient-17"/>
    <linearGradient id="linear-gradient-19" x1="3.588" y1="0.173" x2="-5.551" y2="1.136" xlink:href="#linear-gradient-17"/>
    <linearGradient id="linear-gradient-20" x1="13.265" y1="-0.464" x2="-7.324" y2="1.089" xlink:href="#linear-gradient-17"/>
    <linearGradient id="linear-gradient-21" x1="3.635" y1="0.174" x2="-5.641" y2="1.135" xlink:href="#linear-gradient-17"/>
    <linearGradient id="linear-gradient-22" x1="11.823" y1="-0.342" x2="-9.079" y2="1.211" xlink:href="#linear-gradient-17"/>
    <linearGradient id="linear-gradient-23" x1="3.681" y1="0.174" x2="-5.731" y2="1.135" xlink:href="#linear-gradient-17"/>
    <linearGradient id="linear-gradient-24" x1="10.332" y1="-0.22" x2="-10.884" y2="1.332" xlink:href="#linear-gradient-17"/>
    <linearGradient id="linear-gradient-25" x1="3.727" y1="0.174" x2="-5.821" y2="1.134" xlink:href="#linear-gradient-17"/>
    <linearGradient id="linear-gradient-26" x1="8.792" y1="-0.098" x2="-12.738" y2="1.453" xlink:href="#linear-gradient-17"/>
    <linearGradient id="linear-gradient-27" x1="3.773" y1="0.175" x2="-5.91" y2="1.134" xlink:href="#linear-gradient-17"/>
    <linearGradient id="linear-gradient-28" x1="7.202" y1="0.024" x2="-14.641" y2="1.574" xlink:href="#linear-gradient-17"/>
    <linearGradient id="linear-gradient-29" x1="3.819" y1="0.175" x2="-6" y2="1.133" xlink:href="#linear-gradient-17"/>
    <linearGradient id="linear-gradient-30" x1="5.564" y1="0.145" x2="-16.593" y2="1.694" xlink:href="#linear-gradient-17"/>
    <linearGradient id="linear-gradient-31" x1="3.866" y1="0.175" x2="-6.09" y2="1.133" xlink:href="#linear-gradient-17"/>
    <linearGradient id="linear-gradient-32" x1="3.876" y1="0.267" x2="-18.594" y2="1.815" xlink:href="#linear-gradient-17"/>
    <linearGradient id="linear-gradient-33" x1="3.912" y1="0.175" x2="-6.18" y2="1.132" xlink:href="#linear-gradient-17"/>
    <linearGradient id="linear-gradient-34" x1="2.14" y1="0.388" x2="-20.644" y2="1.935" xlink:href="#linear-gradient-17"/>
    <linearGradient id="linear-gradient-35" x1="0.932" y1="0.034" x2="0.137" y2="0.95" xlink:href="#linear-gradient-17"/>
    <linearGradient id="linear-gradient-36" x1="0.93" y1="0.032" x2="0.135" y2="0.952" xlink:href="#linear-gradient-17"/>
    <linearGradient id="linear-gradient-37" x1="0.926" y1="0.129" x2="-0.202" y2="1.152" xlink:href="#linear-gradient-17"/>
    <linearGradient id="linear-gradient-38" x1="1.159" y1="-0.057" x2="-0.013" y2="0.959" xlink:href="#linear-gradient-17"/>
    <linearGradient id="linear-gradient-39" x1="0.467" y1="1.242" x2="0.533" y2="-0.217" xlink:href="#linear-gradient-17"/>
    <linearGradient id="linear-gradient-40" x1="0.47" y1="1.276" x2="0.53" y2="-0.262" xlink:href="#linear-gradient-17"/>
    <linearGradient id="linear-gradient-41" x1="0.468" y1="1.254" x2="0.532" y2="-0.228" xlink:href="#linear-gradient-17"/>
    <linearGradient id="linear-gradient-42" x1="0.471" y1="1.292" x2="0.53" y2="-0.278" xlink:href="#linear-gradient-17"/>
  </defs>
  <g id="Group_1923" data-name="Group 1923" transform="translate(6281 14481.239)">
    <g id="Group_1868" data-name="Group 1868" transform="translate(-6114.013 -14481.239)">
      <g id="Group_1867" data-name="Group 1867">
        <g id="Group_1866" data-name="Group 1866" clip-path="url(#clip-path)">
          <g id="Group_1865" data-name="Group 1865" transform="translate(-2.596 -2.414)">
            <path id="Path_6590" data-name="Path 6590" d="M1527.849,883.384a204.186,204.186,0,0,1-36.856,117.163c-.092.137-.418.268-.418.4v.006c-36.375,53.3-98.706,87.829-168.625,87.829a121.224,121.224,0,0,1-16.8-1.041h-.006c-.023,0-.035.341-.058.341-2.757-.228-5.49-.334-8.213-.67-.968-.114-1.937-.153-2.9-.289-.854-.114-1.7-.19-2.552-.321-.741-.108-1.476-.2-2.2-.32-.165-.028-.331-.046-.5-.069-1.794-.3-3.583-.6-5.366-.946-.011,0-.017,0-.029,0-95.062-18.159-166.89-101.731-166.89-202.085a205.478,205.478,0,0,1,9.052-60.947c.934-3.019,2.1-6,2.872-8.959v-.006c2.322-4.927,3.878-9.763,6.014-14.508.86-1.9,1.811-3.782,2.717-5.651a205.832,205.832,0,0,1,17.452-29.272c.6-.837,1.219-1.669,1.829-2.5q3.657-4.973,7.618-9.712,5.921-7.108,12.456-13.665a206.591,206.591,0,0,1,37.7-29.9q6.366-3.939,13.04-7.416a205.915,205.915,0,0,1,224.3,22.477,207.3,207.3,0,0,1,60.414,79.392c2.974,6.961,4.983,14.115,8.078,21.44v.006c0,.034-.354.057-.343.091A205.4,205.4,0,0,1,1527.849,883.384Z" transform="translate(-1116.442 -677.635)" fill="url(#linear-gradient)"/>
            <g id="Group_1864" data-name="Group 1864" transform="translate(9.058 7.62)" style="mix-blend-mode: soft-light;isolation: isolate">
              <path id="Path_6591" data-name="Path 6591" d="M2073.807,2761.743v-.006h.017l-.011.006Z" transform="translate(-1894.159 -2358.56)" fill="#fff"/>
              <path id="Path_6592" data-name="Path 6592" d="M1403.922,983.79c-4.414,6.22-18.074,14.206-8.806,29.893,9.188,15.647-.638,18.581-6.961,17.117-6.351-1.447-26.094-2.255-22.8,6.716s8.937,12.349,1.7,15.818c-7.228,3.452-10.287,12.469-17.686,24.88-7.348,12.435-24.812,1.68-19.64,14.144s9.188,11.261,8.7,19.948c-.114,2.386,1.47,4.836,3.611,7.166-2.757-.228-5.525-.507-8.271-.843-.968-.114-1.936-.239-2.9-.376-.855-.114-1.7-.233-2.552-.365q-1.111-.162-2.2-.342c-.165-.028-.123-.057-.288-.079-1.766-.3-2.682-.616-5-.951v-.006c-1.548-1.47-.578-3.065-.345-4.785,2.307-16.04-19.823-27.062-23.532-38.3-3.645-11.21-.046-17.9-.889-27.187-.866-9.273,2.167-21.571-3.17-29.386-5.337-7.786-26.853-10.4-30.948-26.111-4.124-15.681,5.468-39.166,9.193-43.165,3.68-4-17.815-22.192-28.045-22.773-10.276-.627-6.165-21.315-23.538-18.165-17.407,3.053-48.68-6.659-42.22-17.105,5.332-8.607,14.28-27.592-14.935-36.056.934-3.019,2.091-6,2.866-8.96v-.006c2.322-4.927,3.878-9.763,6.014-14.508.86-1.9,1.811-3.782,2.717-5.651a206.919,206.919,0,0,1,17.453-29.272c.6-.837,1.219-1.669,1.828-2.5q3.665-4.973,7.619-9.712,5.921-7.109,12.456-13.665a206.591,206.591,0,0,1,37.7-29.9c5.787,4.055,12.4,6.556,18.1,3.474,14-7.832,4.768-9.034-.962-9.324a7.386,7.386,0,0,1-4.1-1.566,203.7,203.7,0,0,1,33.846-13.961c-.871,7.9-11.608,20.591-3.708,19.042,9.194-1.749,12.947-26.589,19.7-18.336,6.847,8.288-7.49,19.15,5.975,12.856,13.483-6.231,15.283-20.141,30.309-13.375,15.1,6.852,13.722,14.964,17.937,14.161,4.2-.792,17.778,8.333,9.564,15.841-8.288,7.53-15.886-2.062-28.31-4.956-12.429-2.86-12.127,7.308-17.846,9.632-5.816,2.244-33.869-11.313-40.756.94-6.96,12.155-9.922,20.637.41,20.324,10.321-.291,10.988-2.962,10.179,4.671-.826,7.638,1.054,13.357,10.407,6.175,9.324-7.171,7.234-14.166,14.525-10.749s8.157.325,15.915-5.309,17.954-6.22,20.626,6.419-1.9,15.482-15.533,16.12c-13.642.661-15.186-3.64-19.532,7.764-4.323,11.41-22.368,26.06-38.209,32.1-15.813,6.049-22.01,14.986-21.645,27.045.375,12.081-5.571,24.824-9.541,14.867-3.988-9.986-15.163-26.8-26.567-15.562-11.426,11.261-31.312,31.169-9.336,34.809,21.93,3.708,10.487-16.838,21.571-12.731,11.067,4.135-7.012,13.192.387,16.462,7.411,3.3,10.515,1.754,10.458,11.853s2.455,19.9,11.449,15.613c8.988-4.266,20.534-24.055,33.539-12.349,13.021,11.734,12.1,10.207,18.928,6.79s11.17,6.818,13.967,11.477,13.767-.1,22.659,13.768,12.372,16.336,22.505,11.346,14.263-1.282,16.906,5.719,8.875.159,11.882,9.41C1409.743,979,1408.308,977.565,1403.922,983.79Z" transform="translate(-1162.397 -716.295)" fill="#fff"/>
              <g id="Group_1863" data-name="Group 1863" transform="translate(264.921 38.063)">
                <path id="Path_6593" data-name="Path 6593" d="M2559.894,970.859c-7.183-15.414,28.406-13.682,34.7-12.5,6.328,1.054,21.172-10.549,23.057-15.943,1.937-5.434,5.115-2.854,16.377-3.008,11.256-.12,1.309-2.666-11.08-6.75-12.367-4.073-1.794-4.483-13.192-13.483-4.9-3.942-3.361-7.291-.091-9.78A206.4,206.4,0,0,1,2669.7,988.79a3.906,3.906,0,0,0-1.059-.182c-7.884-.046-9.621-17.476-13.682-20.87-4-3.39.113,9.575,1.094,14.9s-2.159.849-6.089,5.742c-3.947,4.9-11.073,4.99-11.717-2.358-.655-7.331-5.821-14.531-16.308-17.88s-19.561-.6-28.082,2.688C2585.384,974.06,2567.128,986.153,2559.894,970.859Z" transform="translate(-2548.589 -909.398)" fill="#fff"/>
                <path id="Path_6594" data-name="Path 6594" d="M2607.078,1511.267c.712-5.292,1.874-10.76-.337-12.759-5.371-4.984-6.545-18.564-4.682-25.445,1.857-6.9,16.331-6.5,6.511-17.96-9.849-11.489-18.723-25.126-14.588-32.924s2.882-8.356-4.869-8.31-11.165.387-18.894-6.516c-7.736-6.995-18.376,16.507-47.489-2.341-29.108-19.036-12.531-51.122-1.624-51.2,10.977-.182,23.8-5.725,14.8-19.111-8.965-13.437,5.047-15.334,11.894-12.28,6.858,3.019,19.019-5.093,31.413-8.75,12.424-3.64,11.877,16.6,18.775,20.648,6.938,4.056,19.937.838,26.692-5.645,4.825-4.625,5.879.769,10.646,5.89a206.18,206.18,0,0,1-28.253,176.7Z" transform="translate(-2506.424 -1233.634)" fill="#fff"/>
                <path id="Path_6595" data-name="Path 6595" d="M2721.32,959.162c.007-.012,9.077-4.107,5.79-10.7-3.258-6.6-8.425-26.822-12.2-20.449-3.8,6.4,1.8,18.831.579,24.194C2714.255,957.582,2714.222,960.4,2721.32,959.162Z" transform="translate(-2672.738 -923.356)" fill="#fff"/>
                <path id="Path_6596" data-name="Path 6596" d="M2660.265,1016.982c-.128-2.126,1.21-10.76-5.583-10.49.012-.014-9.828,4.093-4.071,11.068C2656.393,1024.515,2660.413,1019.1,2660.265,1016.982Z" transform="translate(-2620.74 -987.349)" fill="#fff"/>
              </g>
            </g>
          </g>
          <path id="Path_6597" data-name="Path 6597" d="M1529.97,885.153a203.963,203.963,0,0,1-36.582,117.163.729.729,0,0,0-.145.4v.006a205.08,205.08,0,0,1-168.9,87.667,125.222,125.222,0,0,1-17.069-1.21h-.006c-.023,0-.034.509-.057.509-2.756-.228-5.49-.255-8.214-.591-.968-.114-1.937-.111-2.9-.247-.854-.114-1.7-.169-2.552-.3-.74-.108-1.475-.187-2.2-.307-.165-.028-.33-.042-.5-.065-1.795-.3-3.583-.6-5.365-.944l-.029,0a205.916,205.916,0,0,1-165.688-179.781c20.615,59.131,71.589,103.56,134.257,115.943h.023c1.538.774,3.082.618,4.631.874.142.017.291.067.433.09.627.1,1.265.207,1.9.3.729.114,1.464.206,2.2.3.832.12,1.663.191,2.5.288,2.352.291,4.71.827,7.092,1.02.023,0,.034.223.051.223h.006c4.836,0,9.655.389,14.594.389a177.379,177.379,0,0,0,145.706-76.269c0-.119.193-.279.268-.4a177.643,177.643,0,0,0,24.28-152.274c-.005-.029-.071-.063-.071-.091v-.006a121.468,121.468,0,0,0-6.6-18.512,177.948,177.948,0,0,0-107.576-99.044,204.731,204.731,0,0,1,110.153,44.8,207.027,207.027,0,0,1,60.3,79.392c2.973,6.961,4.87,14.115,7.966,21.44v.006c0,.034-.241.057-.23.091A205.433,205.433,0,0,1,1529.97,885.153Z" transform="translate(-1121.706 -682.178)" opacity="0.3" fill="url(#linear-gradient-2)" style="mix-blend-mode: multiply;isolation: isolate"/>
        </g>
      </g>
    </g>
    <g id="Group_1922" data-name="Group 1922" transform="translate(-6281 -14502.309)">
      <g id="Group_1921" data-name="Group 1921" transform="translate(47.196 0)" style="isolation: isolate">
        <path id="Path_6607" data-name="Path 6607" d="M484.984,585.528Z" transform="translate(-466.312 -461.119)" fill="#f4f7fa"/>
        <path id="Path_6608" data-name="Path 6608" d="M1009.023,1380.341a192.708,192.708,0,0,1-159.771-300.418,6.671,6.671,0,0,1,11.055,7.469,178.425,178.425,0,0,0-30.625,100.267c0,98.889,80.453,179.342,179.342,179.342a179.673,179.673,0,0,0,133.342-59.408,6.671,6.671,0,0,1,9.916,8.925,192.215,192.215,0,0,1-143.259,63.824Z" transform="translate(-759.578 -979.032)" fill="url(#linear-gradient-3)"/>
        <g id="Group_1920" data-name="Group 1920" transform="translate(0 223.824)">
          <g id="Group_1874" data-name="Group 1874" transform="translate(23.206)">
            <path id="Path_6613" data-name="Path 6613" d="M1185.921,1725.368c-1.934,1.558-.453,4.691-2.432,14.212a68.5,68.5,0,0,1-3.033,10.388c-.675,2.3-1.356,4.416-2.023,6.27-.489,1.36-.91,2.413-1.406,3.521a45.98,45.98,0,0,1-3.2,5.936.282.282,0,0,0,.065.376l.021.015a.283.283,0,0,0,.391-.086,46.571,46.571,0,0,0,3.24-6.008c.5-1.122.929-2.188,1.423-3.562.351-.977.707-2.031,1.063-3.14a30.6,30.6,0,0,1-3.4,10.445c-6.6,12.462,1.476,23.84,9.512,26.269,9.266,2.8,17.516-3,20.1-4.927,10.421-7.769,16.025-23.339,11.564-36.915C1211.963,1730.375,1190.662,1721.549,1185.921,1725.368Z" transform="translate(-1070.319 -1723.726)" fill="url(#linear-gradient-4)"/>
            <path id="Path_6614" data-name="Path 6614" d="M780.788,1741.071a21.216,21.216,0,0,0-4.857-13.315c-8.671-9.887-27-8.418-38.825-2.41-12.377,6.287-9.742,13.5-22.2,20.809-13.528,7.94-19.907,1.331-37.55,7.83-6.94,2.557-25.642,9.447-31.075,26.266-4.695,14.533,1.969,31.993,13.29,40.967,19.381,15.362,51.241,4.923,68.27-7.814,16.333-12.216,8.93-18.122,34.156-43.33C771.12,1760.959,780.948,1752.929,780.788,1741.071Z" transform="translate(-644.763 -1720.585)" fill="url(#linear-gradient-5)"/>
            <g id="Group_1872" data-name="Group 1872" transform="translate(107.158 54.137)">
              <path id="Path_6615" data-name="Path 6615" d="M1813.3,2039.054l2.327-1.491a46.366,46.366,0,0,1,6-4.826c2.469-1.481,4.622-1.477,6.551.736s-.534,4.839-2.642,7.138c-1.283,1.4-4.266,1.888-6.707,2.068a19.629,19.629,0,0,0-4.978,1.74Z" transform="translate(-1691.922 -2024.995)" fill="url(#linear-gradient-6)"/>
              <path id="Path_6616" data-name="Path 6616" d="M1208.4,2003.613c3.412-2.1,2.525-5.31,4.75-6.081,6.407-2.219,17.027,23.284,36.618,31.289,3.615,1.477,6.552,2.131,9.325,1.262,6.655-2.085,8.184-12.662,28.26-18.71a124.043,124.043,0,0,1,24.85-4.777c.583.9,1.177,1.892,1.76,2.974.4.734.954,1.821,1.7,3.518.714,1.633,1.745,4.169,2.848,7.57a85.432,85.432,0,0,1-24.353,28.734,73.874,73.874,0,0,1-29.886,14.113c-19,3.952-45.807,1.04-52.349-13.087-1.276-2.756-.46-3.085-1.5-8.77-4.114-22.486-20.231-35.643-17.408-38.732C1194.963,2000.779,1202.539,2007.217,1208.4,2003.613Z" transform="translate(-1192.681 -1997.396)" fill="url(#linear-gradient-7)"/>
            </g>
            <path id="Path_6617" data-name="Path 6617" d="M856.919,1969.067a41.278,41.278,0,0,1,5.107,24.92c-1.5,14.025-9.631,23.7-11.62,26.276-9.394,12.183-14.123,39.723,5.374,106.615-3.962,1.887-20.373,19.157-23.228,8.134-3.892-15.03-13.131-116.141-9.448,1.823.048,1.554-3.114.436-4.726.608a106.817,106.817,0,0,1-39.317-2.991,109.169,109.169,0,0,1-45.568-25.336,213.176,213.176,0,0,0,30.062-53.5c16.781-43.687,15.109-82.808,12.478-104.346,8.2-3.034,33.821-11.337,58.768-.157C841.018,1953.9,850.68,1958.393,856.919,1969.067Z" transform="translate(-716.141 -1901.475)" fill="url(#linear-gradient-8)"/>
            <path id="Path_6618" data-name="Path 6618" d="M1151.236,1883.617c1.1,5.234,1.549,11.542-1.97,14.8-2.144,1.983-5.024,2.656-7.854,3.262-6.687,1.43-9.135-.471-10.763,1.018-3.585,3.277-.126,20.164,11.448,24.513,11.517,4.327,25.542-5.84,25.153-11.75-.351-5.332-12.411-6.772-12.906-13.523-.249-3.4,2.561-6.384,4.85-8.307l1.364.479Z" transform="translate(-1034.535 -1851.732)" fill="url(#linear-gradient-9)"/>
            <path id="Path_6619" data-name="Path 6619" d="M1243.855,1849.224s-.3,6.166,5.717,7.089c7.408,1.137,11.129-18.3,9.491-19.689-1.9-1.606-4.2,1.3-8.9-.53-1.98-.77-3.36-3.667-4.82-.981-1.66,3.056-1.51,8.923-1.51,8.923s-1.546-1.713-2.075-.006C1241.066,1846.265,1242.571,1847.949,1243.855,1849.224Z" transform="translate(-1124.862 -1811.815)" fill="url(#linear-gradient-10)"/>
            <path id="Path_6620" data-name="Path 6620" d="M1259.827,1798.305c2,2.748,2.605,7.6.628,9.694-2.841,3.015-9.25-1.522-12.693,2.17-1.509,1.619-1.808,4.132-2.446,4-.529-.113-.587-1.893-.683-3.365-.529-8.115-2.358-9.288-1.427-11.451C1245.1,1794.952,1255.726,1792.663,1259.827,1798.305Z" transform="translate(-1125.958 -1780.416)" fill="url(#linear-gradient-11)"/>
            <g id="Group_1873" data-name="Group 1873" transform="translate(17.982 49.207)">
              <path id="Path_6621" data-name="Path 6621" d="M1096.677,2471.951l2.633.839a46.413,46.413,0,0,1,7.545,1.538c2.716.956,4.087,2.616,3.614,5.513s-4.066,2.677-7.181,2.522c-1.9-.1-4.176-2.079-5.872-3.844a19.645,19.645,0,0,0-4.517-2.721Z" transform="translate(-1023.238 -2374.211)" fill="url(#linear-gradient-12)"/>
              <path id="Path_6622" data-name="Path 6622" d="M801.171,1974.217c-7.863-8.474-39.926,10.726-59.62,36.787-6.25,8.271-7.36,27.768,2.138,39.236,11.089,13.389,25.178,18.828,32.229,21.55a84.581,84.581,0,0,0,29.606,5.754,35.61,35.61,0,0,0,4.444-4.982,36.137,36.137,0,0,0,3.23-5.289,78.39,78.39,0,0,0-15.337-23.883c-5.2-5.513-8.7-7.556-16.928-14.031-16.905-13.306-16.473-3.8-14.119-9.294,7.755-18.113,30.386-14.132,35.342-32.289C802.507,1986.5,804.7,1978.023,801.171,1974.217Z" transform="translate(-736.709 -1972.189)" fill="url(#linear-gradient-13)"/>
            </g>
            <path id="Path_6623" data-name="Path 6623" d="M868.637,1836.4c1.375,2.036-3.1,7.44-12.116,18.164-5.547,6.6-8.32,9.9-9.99,11.258-8.99,7.308-23.008,11.886-36.1,9.2-8.985-1.846-9.8-5.524-17.4-5.385-11.479.209-19.282,8.756-19.716,8.181-.479-.635,8.558-11.716,24.586-19.7,13.115-6.531,15.976-3.551,36.358-12.268,1.479-.633,7.742-3.333,16.387-6.135C860.8,1836.415,867.269,1834.371,868.637,1836.4Z" transform="translate(-748.154 -1813.098)" fill="url(#linear-gradient-14)"/>
          </g>
          <g id="Group_1897" data-name="Group 1897" transform="translate(0 154.918)">
            <g id="Group_1896" data-name="Group 1896">
              <g id="Group_1884" data-name="Group 1884" transform="translate(106.373)">
                <path id="Path_6624" data-name="Path 6624" d="M1280.085,2640.715l-210.075,7.745V2512.706l210.075,9.957Z" transform="translate(-1070.01 -2512.706)" fill="#d8dee8"/>
                <path id="Path_6625" data-name="Path 6625" d="M1313.394,2667.195l-192.516,5.874V2556.409l192.516,8.153Z" transform="translate(-1110.93 -2547.862)" fill="#d8dee8" opacity="0.6" style="mix-blend-mode: multiply;isolation: isolate"/>
                <g id="Group_1883" data-name="Group 1883" transform="translate(23.82 9.135)">
                  <g id="Group_1875" data-name="Group 1875">
                    <path id="Path_6626" data-name="Path 6626" d="M1201.677,2674.761l-9.87.3V2559.413l9.87.418Z" transform="translate(-1191.807 -2559.413)" fill="#d8dee8" opacity="0.6" style="mix-blend-mode: multiply;isolation: isolate"/>
                    <path id="Path_6627" data-name="Path 6627" d="M1217.247,2675.392l-6.564.2v-115.38l6.564.278Z" transform="translate(-1206.991 -2560.056)" fill="#d8dee8"/>
                  </g>
                  <g id="Group_1876" data-name="Group 1876" transform="translate(24.921 1.055)">
                    <path id="Path_6628" data-name="Path 6628" d="M1328.795,2678.351l-9.564.292V2564.81l9.564.406Z" transform="translate(-1319.23 -2564.81)" fill="#d8dee8" opacity="0.6" style="mix-blend-mode: multiply;isolation: isolate"/>
                    <path id="Path_6629" data-name="Path 6629" d="M1343.88,2678.962l-6.36.194V2565.584l6.36.269Z" transform="translate(-1333.943 -2565.433)" fill="#d8dee8"/>
                  </g>
                  <g id="Group_1877" data-name="Group 1877" transform="translate(49.071 2.078)">
                    <path id="Path_6630" data-name="Path 6630" d="M1451.987,2681.83l-9.272.283V2570.04l9.272.393Z" transform="translate(-1442.715 -2570.04)" fill="#d8dee8" opacity="0.6" style="mix-blend-mode: multiply;isolation: isolate"/>
                    <path id="Path_6631" data-name="Path 6631" d="M1466.609,2682.422l-6.166.188V2570.79l6.166.261Z" transform="translate(-1456.976 -2570.643)" fill="#d8dee8"/>
                  </g>
                  <g id="Group_1878" data-name="Group 1878" transform="translate(72.486 3.07)">
                    <path id="Path_6632" data-name="Path 6632" d="M1571.432,2685.2l-8.992.275V2575.11l8.992.381Z" transform="translate(-1562.439 -2575.11)" fill="#d8dee8" opacity="0.6" style="mix-blend-mode: multiply;isolation: isolate"/>
                    <path id="Path_6633" data-name="Path 6633" d="M1585.613,2685.778l-5.98.182V2575.838l5.98.253Z" transform="translate(-1576.271 -2575.696)" fill="#d8dee8"/>
                  </g>
                  <g id="Group_1879" data-name="Group 1879" transform="translate(95.199 4.032)">
                    <path id="Path_6634" data-name="Path 6634" d="M1687.3,2688.475l-8.725.266V2580.028l8.725.37Z" transform="translate(-1678.573 -2580.028)" fill="#d8dee8" opacity="0.6" style="mix-blend-mode: multiply;isolation: isolate"/>
                    <path id="Path_6635" data-name="Path 6635" d="M1701.059,2689.032l-5.8.177V2580.735l5.8.245Z" transform="translate(-1691.993 -2580.596)" fill="#d8dee8"/>
                  </g>
                  <g id="Group_1880" data-name="Group 1880" transform="translate(117.24 4.965)">
                    <path id="Path_6636" data-name="Path 6636" d="M1799.747,2691.649l-8.47.259V2584.8l8.47.358Z" transform="translate(-1791.276 -2584.802)" fill="#d8dee8" opacity="0.6" style="mix-blend-mode: multiply;isolation: isolate"/>
                    <path id="Path_6637" data-name="Path 6637" d="M1813.1,2692.191l-5.633.172V2585.487l5.633.239Z" transform="translate(-1804.303 -2585.353)" fill="#d8dee8"/>
                  </g>
                  <g id="Group_1881" data-name="Group 1881" transform="translate(138.64 5.872)">
                    <path id="Path_6638" data-name="Path 6638" d="M1908.924,2694.731l-8.226.25V2589.435l8.226.348Z" transform="translate(-1900.698 -2589.435)" fill="#d8dee8" opacity="0.6" style="mix-blend-mode: multiply;isolation: isolate"/>
                    <path id="Path_6639" data-name="Path 6639" d="M1921.9,2695.257l-5.471.167V2590.1l5.471.231Z" transform="translate(-1913.349 -2589.972)" fill="#d8dee8"/>
                  </g>
                  <g id="Group_1882" data-name="Group 1882" transform="translate(159.426 6.752)">
                    <path id="Path_6640" data-name="Path 6640" d="M2014.972,2697.725l-7.992.244V2593.937l7.992.338Z" transform="translate(-2006.979 -2593.937)" fill="#d8dee8" opacity="0.6" style="mix-blend-mode: multiply;isolation: isolate"/>
                    <path id="Path_6641" data-name="Path 6641" d="M2027.574,2698.237l-5.316.162V2594.584l5.316.225Z" transform="translate(-2019.27 -2594.458)" fill="#d8dee8"/>
                  </g>
                </g>
              </g>
              <g id="Group_1895" data-name="Group 1895">
                <path id="Path_6642" data-name="Path 6642" d="M632.481,2648.46l-106.373-4.2v-123l106.373-8.547Z" transform="translate(-526.109 -2512.706)" fill="#97a6b7"/>
                <path id="Path_6643" data-name="Path 6643" d="M541.217,2659.178v-115.6l99.84-7.646v126.815Z" transform="translate(-538.262 -2531.39)" fill="#d8dee8" opacity="0.6" style="mix-blend-mode: multiply;isolation: isolate"/>
                <g id="Group_1889" data-name="Group 1889" transform="translate(4.244 7.218)">
                  <g id="Group_1887" data-name="Group 1887">
                    <g id="Group_1885" data-name="Group 1885">
                      <path id="Path_6644" data-name="Path 6644" d="M838.3,2671.141l-49.962-1.673V2553.327l49.962-3.713Z" transform="translate(-741.298 -2549.614)" fill="#97a6b7"/>
                      <path id="Path_6645" data-name="Path 6645" d="M593.41,2685.133l-45.6-1.527v-111.07l45.6-3.389Z" transform="translate(-547.808 -2565.326)" fill="#97a6b7"/>
                    </g>
                    <g id="Group_1886" data-name="Group 1886" transform="translate(0 36.872)" opacity="0.6" style="mix-blend-mode: multiply;isolation: isolate">
                      <path id="Path_6646" data-name="Path 6646" d="M593.41,2748.285l-45.6,1.558v-9.709l45.6-1.988Z" transform="translate(-547.808 -2738.146)" fill="#d8dee8" opacity="0.3" style="mix-blend-mode: multiply;isolation: isolate"/>
                      <path id="Path_6647" data-name="Path 6647" d="M593.41,2951.5l-45.6-.126v-9.709l45.6-.3Z" transform="translate(-547.808 -2901.618)" fill="#d8dee8" opacity="0.3" style="mix-blend-mode: multiply;isolation: isolate"/>
                    </g>
                  </g>
                  <g id="Group_1888" data-name="Group 1888" transform="translate(47.042 34.631)" opacity="0.6" style="mix-blend-mode: multiply;isolation: isolate">
                    <path id="Path_6648" data-name="Path 6648" d="M838.3,2737.312l-49.962,1.707v-10.152l49.962-2.178Z" transform="translate(-788.34 -2726.689)" fill="#d8dee8" opacity="0.3" style="mix-blend-mode: multiply;isolation: isolate"/>
                    <path id="Path_6649" data-name="Path 6649" d="M838.3,2950.235l-49.962-.138v-10.152l49.962-.333Z" transform="translate(-788.34 -2897.97)" fill="#d8dee8" opacity="0.3" style="mix-blend-mode: multiply;isolation: isolate"/>
                  </g>
                </g>
                <g id="Group_1894" data-name="Group 1894" transform="translate(23.206 2.936)">
                  <g id="Group_1890" data-name="Group 1890" transform="translate(0 4.141)">
                    <path id="Path_6650" data-name="Path 6650" d="M651.77,2681.015l-2.391-.084V2562.969l2.391-.184Z" transform="translate(-648.476 -2560.068)" fill="#d8dee8"/>
                    <path id="Path_6651" data-name="Path 6651" d="M649.379,2681.311V2563.349l1.194-.092Z" transform="translate(-648.476 -2560.447)" fill="#97a6b7"/>
                    <path id="Path_6652" data-name="Path 6652" d="M648.965,2555.112l-4.2.311v-6.2l4.2-.334Z" transform="translate(-644.763 -2548.891)" fill="#d8dee8"/>
                    <path id="Path_6653" data-name="Path 6653" d="M648.965,3157.239l-4.2-.16v-6.2l4.2.135Z" transform="translate(-644.763 -3033.149)" fill="#d8dee8"/>
                  </g>
                  <g id="Group_1891" data-name="Group 1891" transform="translate(33.818 1.425)">
                    <path id="Path_6654" data-name="Path 6654" d="M825.149,2671.413l-2.548-.089V2549.556l2.548-.2Z" transform="translate(-821.639 -2546.552)" fill="#d8dee8"/>
                    <path id="Path_6655" data-name="Path 6655" d="M822.6,2671.728V2549.961l1.272-.1Z" transform="translate(-821.639 -2546.957)" fill="#97a6b7"/>
                    <path id="Path_6656" data-name="Path 6656" d="M822.16,2541.426l-4.478.331v-6.4l4.478-.356Z" transform="translate(-817.683 -2535.004)" fill="#d8dee8"/>
                    <path id="Path_6657" data-name="Path 6657" d="M822.16,3163.021l-4.478-.171v-6.4l4.478.144Z" transform="translate(-817.683 -3034.916)" fill="#d8dee8"/>
                  </g>
                  <g id="Group_1892" data-name="Group 1892" transform="translate(51.559)">
                    <path id="Path_6658" data-name="Path 6658" d="M916.1,2666.375l-2.632-.093V2542.52l2.632-.2Z" transform="translate(-912.477 -2539.461)" fill="#d8dee8"/>
                    <path id="Path_6659" data-name="Path 6659" d="M913.471,2666.7V2542.937l1.314-.1Z" transform="translate(-912.477 -2539.879)" fill="#97a6b7"/>
                    <path id="Path_6660" data-name="Path 6660" d="M913.016,2534.246l-4.626.341v-6.5l4.626-.369Z" transform="translate(-908.39 -2527.718)" fill="#d8dee8"/>
                    <path id="Path_6661" data-name="Path 6661" d="M913.016,3166.055l-4.626-.176v-6.5l4.626.149Z" transform="translate(-908.39 -3035.843)" fill="#d8dee8"/>
                  </g>
                  <g id="Group_1893" data-name="Group 1893" transform="translate(16.641 2.805)">
                    <path id="Path_6662" data-name="Path 6662" d="M737.082,2676.29l-2.467-.087V2556.369l2.467-.19Z" transform="translate(-733.683 -2553.418)" fill="#d8dee8"/>
                    <path id="Path_6663" data-name="Path 6663" d="M734.615,2676.6V2556.761l1.232-.1Z" transform="translate(-733.683 -2553.809)" fill="#97a6b7"/>
                    <path id="Path_6664" data-name="Path 6664" d="M734.188,2548.378l-4.336.32V2542.4l4.336-.345Z" transform="translate(-729.852 -2542.058)" fill="#d8dee8"/>
                    <path id="Path_6665" data-name="Path 6665" d="M734.188,3160.084l-4.336-.166v-6.294l4.336.14Z" transform="translate(-729.852 -3034.018)" fill="#d8dee8"/>
                  </g>
                </g>
              </g>
            </g>
          </g>
          <path id="Path_6666" data-name="Path 6666" d="M983.812,2104.443a1.337,1.337,0,0,1-.341-2.63l171.154-45.3a1.337,1.337,0,0,1,.994,2.46l-69.934,39.035a1.337,1.337,0,1,1-1.3-2.335l60.657-33.857L984.155,2104.4A1.331,1.331,0,0,1,983.812,2104.443Z" transform="translate(-893.223 -1990.782)" fill="url(#linear-gradient-15)"/>
          <path id="Path_6667" data-name="Path 6667" d="M1961.191,2111.888a1.328,1.328,0,0,1-.741-.225l-79.08-52.745a1.337,1.337,0,0,1,1.214-2.363l134.456,50.68a1.337,1.337,0,0,1-.943,2.5l-123.518-46.558,69.354,46.259a1.337,1.337,0,0,1-.743,2.45Z" transform="translate(-1615.839 -1990.778)" fill="url(#linear-gradient-15)"/>
          <g id="Group_1919" data-name="Group 1919" transform="translate(88.051 104.541)">
            <g id="Group_1907" data-name="Group 1907" transform="translate(106.373)">
              <path id="Path_6668" data-name="Path 6668" d="M1730.307,2383.132l-210.075,7.745V2255.123l210.075,9.957Z" transform="translate(-1520.232 -2255.123)" fill="url(#linear-gradient-17)"/>
              <path id="Path_6669" data-name="Path 6669" d="M1763.616,2409.612l-192.516,5.874V2298.827l192.516,8.153Z" transform="translate(-1561.151 -2290.28)" opacity="0.3" fill="url(#linear-gradient-18)" style="mix-blend-mode: multiply;isolation: isolate"/>
              <g id="Group_1906" data-name="Group 1906" transform="translate(23.82 9.135)">
                <g id="Group_1898" data-name="Group 1898">
                  <path id="Path_6670" data-name="Path 6670" d="M1651.9,2417.178l-9.871.3V2301.831l9.871.418Z" transform="translate(-1642.029 -2301.831)" opacity="0.6" fill="url(#linear-gradient-19)" style="mix-blend-mode: multiply;isolation: isolate"/>
                  <path id="Path_6671" data-name="Path 6671" d="M1667.469,2417.809l-6.563.2V2302.63l6.563.279Z" transform="translate(-1657.214 -2302.474)" fill="url(#linear-gradient-20)"/>
                </g>
                <g id="Group_1899" data-name="Group 1899" transform="translate(24.921 1.055)">
                  <path id="Path_6672" data-name="Path 6672" d="M1779.016,2420.769l-9.564.292V2307.228l9.564.4Z" transform="translate(-1769.452 -2307.228)" opacity="0.6" fill="url(#linear-gradient-21)" style="mix-blend-mode: multiply;isolation: isolate"/>
                  <path id="Path_6673" data-name="Path 6673" d="M1794.1,2421.38l-6.36.194V2308l6.36.269Z" transform="translate(-1784.165 -2307.85)" fill="url(#linear-gradient-22)"/>
                </g>
                <g id="Group_1900" data-name="Group 1900" transform="translate(49.071 2.078)">
                  <path id="Path_6674" data-name="Path 6674" d="M1902.208,2424.247l-9.272.283V2312.457l9.272.392Z" transform="translate(-1892.937 -2312.457)" opacity="0.6" fill="url(#linear-gradient-23)" style="mix-blend-mode: multiply;isolation: isolate"/>
                  <path id="Path_6675" data-name="Path 6675" d="M1916.831,2424.84l-6.166.188v-111.82l6.166.261Z" transform="translate(-1907.198 -2313.061)" fill="url(#linear-gradient-24)"/>
                </g>
                <g id="Group_1901" data-name="Group 1901" transform="translate(72.486 3.07)">
                  <path id="Path_6676" data-name="Path 6676" d="M2021.653,2427.62l-8.992.274V2317.527l8.992.381Z" transform="translate(-2012.661 -2317.527)" opacity="0.6" fill="url(#linear-gradient-25)" style="mix-blend-mode: multiply;isolation: isolate"/>
                  <path id="Path_6677" data-name="Path 6677" d="M2035.835,2428.195l-5.98.182V2318.256l5.98.253Z" transform="translate(-2026.492 -2318.113)" fill="url(#linear-gradient-26)"/>
                </g>
                <g id="Group_1902" data-name="Group 1902" transform="translate(95.199 4.032)">
                  <path id="Path_6678" data-name="Path 6678" d="M2137.521,2430.892l-8.726.266V2322.446l8.726.369Z" transform="translate(-2128.795 -2322.446)" opacity="0.6" fill="url(#linear-gradient-27)" style="mix-blend-mode: multiply;isolation: isolate"/>
                  <path id="Path_6679" data-name="Path 6679" d="M2151.28,2431.45l-5.8.177V2323.152l5.8.246Z" transform="translate(-2142.215 -2323.014)" fill="url(#linear-gradient-28)"/>
                </g>
                <g id="Group_1903" data-name="Group 1903" transform="translate(117.24 4.965)">
                  <path id="Path_6680" data-name="Path 6680" d="M2249.969,2434.067l-8.471.258V2327.219l8.471.359Z" transform="translate(-2241.499 -2327.219)" opacity="0.6" fill="url(#linear-gradient-29)" style="mix-blend-mode: multiply;isolation: isolate"/>
                  <path id="Path_6681" data-name="Path 6681" d="M2263.326,2434.608l-5.633.172V2327.9l5.633.238Z" transform="translate(-2254.525 -2327.771)" fill="url(#linear-gradient-30)"/>
                </g>
                <g id="Group_1904" data-name="Group 1904" transform="translate(138.64 5.872)">
                  <path id="Path_6682" data-name="Path 6682" d="M2359.146,2437.149l-8.226.251V2331.853l8.226.348Z" transform="translate(-2350.92 -2331.853)" opacity="0.6" fill="url(#linear-gradient-31)" style="mix-blend-mode: multiply;isolation: isolate"/>
                  <path id="Path_6683" data-name="Path 6683" d="M2372.118,2437.675l-5.471.167V2332.519l5.471.232Z" transform="translate(-2363.571 -2332.389)" fill="url(#linear-gradient-32)"/>
                </g>
                <g id="Group_1905" data-name="Group 1905" transform="translate(159.426 6.752)">
                  <path id="Path_6684" data-name="Path 6684" d="M2465.194,2440.143l-7.992.244V2336.354l7.992.339Z" transform="translate(-2457.201 -2336.354)" opacity="0.6" fill="url(#linear-gradient-33)" style="mix-blend-mode: multiply;isolation: isolate"/>
                  <path id="Path_6685" data-name="Path 6685" d="M2477.8,2440.654l-5.316.162V2337l5.316.225Z" transform="translate(-2469.492 -2336.875)" fill="url(#linear-gradient-34)"/>
                </g>
              </g>
            </g>
            <g id="Group_1918" data-name="Group 1918">
              <path id="Path_6686" data-name="Path 6686" d="M1082.7,2390.878l-106.373-4.2v-123l106.373-8.547Z" transform="translate(-976.331 -2255.123)" fill="url(#linear-gradient-35)"/>
              <path id="Path_6687" data-name="Path 6687" d="M991.439,2401.6V2286l99.84-7.646v126.816Z" transform="translate(-988.484 -2273.808)" opacity="0.3" fill="url(#linear-gradient-36)" style="mix-blend-mode: multiply;isolation: isolate"/>
              <g id="Group_1912" data-name="Group 1912" transform="translate(4.244 7.218)">
                <g id="Group_1910" data-name="Group 1910">
                  <g id="Group_1908" data-name="Group 1908">
                    <path id="Path_6688" data-name="Path 6688" d="M1288.524,2413.559l-49.962-1.673V2295.745l49.962-3.713Z" transform="translate(-1191.52 -2292.032)" fill="url(#linear-gradient-37)"/>
                    <path id="Path_6689" data-name="Path 6689" d="M1043.632,2427.55l-45.6-1.527v-111.07l45.6-3.389Z" transform="translate(-998.03 -2307.743)" fill="url(#linear-gradient-38)"/>
                  </g>
                  <g id="Group_1909" data-name="Group 1909" transform="translate(0 36.872)">
                    <path id="Path_6690" data-name="Path 6690" d="M1043.632,2490.7l-45.6,1.558v-9.709l45.6-1.988Z" transform="translate(-998.03 -2480.564)" opacity="0.3" fill="url(#linear-gradient-39)" style="mix-blend-mode: multiply;isolation: isolate"/>
                    <path id="Path_6691" data-name="Path 6691" d="M1043.632,2693.917l-45.6-.126v-9.709l45.6-.3Z" transform="translate(-998.03 -2644.035)" opacity="0.3" fill="url(#linear-gradient-40)" style="mix-blend-mode: multiply;isolation: isolate"/>
                  </g>
                </g>
                <g id="Group_1911" data-name="Group 1911" transform="translate(47.042 34.631)">
                  <path id="Path_6692" data-name="Path 6692" d="M1288.524,2479.729l-49.962,1.708v-10.152l49.962-2.178Z" transform="translate(-1238.562 -2469.106)" opacity="0.3" fill="url(#linear-gradient-41)" style="mix-blend-mode: multiply;isolation: isolate"/>
                  <path id="Path_6693" data-name="Path 6693" d="M1288.524,2692.653l-49.962-.138v-10.152l49.962-.333Z" transform="translate(-1238.562 -2640.388)" opacity="0.3" fill="url(#linear-gradient-42)" style="mix-blend-mode: multiply;isolation: isolate"/>
                </g>
              </g>
              <g id="Group_1917" data-name="Group 1917" transform="translate(23.206 2.936)">
                <g id="Group_1913" data-name="Group 1913" transform="translate(0 4.141)">
                  <path id="Path_6694" data-name="Path 6694" d="M1101.991,2423.432l-2.391-.084V2305.387l2.391-.184Z" transform="translate(-1098.698 -2302.485)" fill="#d8dee8"/>
                  <path id="Path_6695" data-name="Path 6695" d="M1099.6,2423.728V2305.766l1.194-.092Z" transform="translate(-1098.698 -2302.865)" fill="#97a6b7"/>
                  <path id="Path_6696" data-name="Path 6696" d="M1099.187,2297.529l-4.2.31v-6.2l4.2-.334Z" transform="translate(-1094.985 -2291.308)" fill="#d8dee8"/>
                  <path id="Path_6697" data-name="Path 6697" d="M1099.187,2899.656l-4.2-.16v-6.2l4.2.136Z" transform="translate(-1094.985 -2775.566)" fill="#d8dee8"/>
                </g>
                <g id="Group_1914" data-name="Group 1914" transform="translate(33.818 1.425)">
                  <path id="Path_6698" data-name="Path 6698" d="M1275.37,2413.831l-2.548-.09V2291.974l2.548-.2Z" transform="translate(-1271.861 -2288.97)" fill="#d8dee8"/>
                  <path id="Path_6699" data-name="Path 6699" d="M1272.823,2414.145V2292.379l1.272-.1Z" transform="translate(-1271.861 -2289.375)" fill="#97a6b7"/>
                  <path id="Path_6700" data-name="Path 6700" d="M1272.382,2283.844l-4.478.33v-6.4l4.478-.356Z" transform="translate(-1267.904 -2277.422)" fill="#d8dee8"/>
                  <path id="Path_6701" data-name="Path 6701" d="M1272.382,2905.439l-4.478-.171v-6.4l4.478.145Z" transform="translate(-1267.904 -2777.333)" fill="#d8dee8"/>
                </g>
                <g id="Group_1915" data-name="Group 1915" transform="translate(51.559)">
                  <path id="Path_6702" data-name="Path 6702" d="M1366.325,2408.792l-2.632-.093V2284.937l2.632-.2Z" transform="translate(-1362.7 -2281.879)" fill="#d8dee8"/>
                  <path id="Path_6703" data-name="Path 6703" d="M1363.693,2409.118V2285.355l1.314-.1Z" transform="translate(-1362.7 -2282.297)" fill="#97a6b7"/>
                  <path id="Path_6704" data-name="Path 6704" d="M1363.239,2276.664l-4.626.341v-6.5l4.626-.369Z" transform="translate(-1358.613 -2270.135)" fill="#d8dee8"/>
                  <path id="Path_6705" data-name="Path 6705" d="M1363.239,2908.472l-4.626-.176v-6.5l4.626.149Z" transform="translate(-1358.613 -2778.26)" fill="#d8dee8"/>
                </g>
                <g id="Group_1916" data-name="Group 1916" transform="translate(16.641 2.805)">
                  <path id="Path_6706" data-name="Path 6706" d="M1187.3,2418.708l-2.467-.087V2298.787l2.467-.19Z" transform="translate(-1183.905 -2295.835)" fill="#d8dee8"/>
                  <path id="Path_6707" data-name="Path 6707" d="M1184.837,2419.013V2299.179l1.232-.1Z" transform="translate(-1183.905 -2296.227)" fill="#97a6b7"/>
                  <path id="Path_6708" data-name="Path 6708" d="M1184.409,2290.8l-4.336.32v-6.295l4.336-.345Z" transform="translate(-1180.073 -2284.476)" fill="#d8dee8"/>
                  <path id="Path_6709" data-name="Path 6709" d="M1184.409,2902.5l-4.336-.166v-6.294l4.336.139Z" transform="translate(-1180.073 -2776.436)" fill="#d8dee8"/>
                </g>
              </g>
            </g>
          </g>
        </g>
      </g>
      <line id="Line_64" data-name="Line 64" x2="619.425" transform="translate(0 511.834)" fill="none" stroke="red" stroke-width="2"/>
    </g>
  </g>
</svg>
