<svg id="Group_1868" data-name="Group 1868" xmlns="http://www.w3.org/2000/svg" xmlns:xlink="http://www.w3.org/1999/xlink" width="406.324" height="406.323" viewBox="0 0 406.324 406.323">
  <defs>
    <clipPath id="clip-path">
      <ellipse id="Ellipse_346" data-name="Ellipse 346" cx="203.162" cy="203.162" rx="203.162" ry="203.162" fill="none"/>
    </clipPath>
    <linearGradient id="linear-gradient" x1="0.451" y1="0.556" x2="0.778" y2="0.188" gradientUnits="objectBoundingBox">
      <stop offset="0" stop-color="#ffc444"/>
      <stop offset="0.996" stop-color="#f36f56"/>
    </linearGradient>
    <linearGradient id="linear-gradient-2" x1="0" y1="0.5" x2="1" y2="0.5" xlink:href="#linear-gradient"/>
  </defs>
  <g id="Group_1867" data-name="Group 1867">
    <g id="Group_1866" data-name="Group 1866" clip-path="url(#clip-path)">
      <g id="Group_1865" data-name="Group 1865" transform="translate(-2.596 -2.414)">
        <path id="Path_6590" data-name="Path 6590" d="M1527.849,883.384a204.186,204.186,0,0,1-36.856,117.163c-.092.137-.418.268-.418.4v.006c-36.375,53.3-98.706,87.829-168.625,87.829a121.224,121.224,0,0,1-16.8-1.041h-.006c-.023,0-.035.341-.058.341-2.757-.228-5.49-.334-8.213-.67-.968-.114-1.937-.153-2.9-.289-.854-.114-1.7-.19-2.552-.321-.741-.108-1.476-.2-2.2-.32-.165-.028-.331-.046-.5-.069-1.794-.3-3.583-.6-5.366-.946-.011,0-.017,0-.029,0-95.062-18.159-166.89-101.731-166.89-202.085a205.478,205.478,0,0,1,9.052-60.947c.934-3.019,2.1-6,2.872-8.959v-.006c2.322-4.927,3.878-9.763,6.014-14.508.86-1.9,1.811-3.782,2.717-5.651a205.832,205.832,0,0,1,17.452-29.272c.6-.837,1.219-1.669,1.829-2.5q3.657-4.973,7.618-9.712,5.921-7.108,12.456-13.665a206.591,206.591,0,0,1,37.7-29.9q6.366-3.939,13.04-7.416a205.915,205.915,0,0,1,224.3,22.477,207.3,207.3,0,0,1,60.414,79.392c2.974,6.961,4.983,14.115,8.078,21.44v.006c0,.034-.354.057-.343.091A205.4,205.4,0,0,1,1527.849,883.384Z" transform="translate(-1116.442 -677.635)" fill="url(#linear-gradient)"/>
        <g id="Group_1864" data-name="Group 1864" transform="translate(9.058 7.62)" style="mix-blend-mode: soft-light;isolation: isolate">
          <path id="Path_6591" data-name="Path 6591" d="M2073.807,2761.743v-.006h.017l-.011.006Z" transform="translate(-1894.159 -2358.56)" fill="#fff"/>
          <path id="Path_6592" data-name="Path 6592" d="M1403.922,983.79c-4.414,6.22-18.074,14.206-8.806,29.893,9.188,15.647-.638,18.581-6.961,17.117-6.351-1.447-26.094-2.255-22.8,6.716s8.937,12.349,1.7,15.818c-7.228,3.452-10.287,12.469-17.686,24.88-7.348,12.435-24.812,1.68-19.64,14.144s9.188,11.261,8.7,19.948c-.114,2.386,1.47,4.836,3.611,7.166-2.757-.228-5.525-.507-8.271-.843-.968-.114-1.936-.239-2.9-.376-.855-.114-1.7-.233-2.552-.365q-1.111-.162-2.2-.342c-.165-.028-.123-.057-.288-.079-1.766-.3-2.682-.616-5-.951v-.006c-1.548-1.47-.578-3.065-.345-4.785,2.307-16.04-19.823-27.062-23.532-38.3-3.645-11.21-.046-17.9-.889-27.187-.866-9.273,2.167-21.571-3.17-29.386-5.337-7.786-26.853-10.4-30.948-26.111-4.124-15.681,5.468-39.166,9.193-43.165,3.68-4-17.815-22.192-28.045-22.773-10.276-.627-6.165-21.315-23.538-18.165-17.407,3.053-48.68-6.659-42.22-17.105,5.332-8.607,14.28-27.592-14.935-36.056.934-3.019,2.091-6,2.866-8.96v-.006c2.322-4.927,3.878-9.763,6.014-14.508.86-1.9,1.811-3.782,2.717-5.651a206.919,206.919,0,0,1,17.453-29.272c.6-.837,1.219-1.669,1.828-2.5q3.665-4.973,7.619-9.712,5.921-7.109,12.456-13.665a206.591,206.591,0,0,1,37.7-29.9c5.787,4.055,12.4,6.556,18.1,3.474,14-7.832,4.768-9.034-.962-9.324a7.386,7.386,0,0,1-4.1-1.566,203.7,203.7,0,0,1,33.846-13.961c-.871,7.9-11.608,20.591-3.708,19.042,9.194-1.749,12.947-26.589,19.7-18.336,6.847,8.288-7.49,19.15,5.975,12.856,13.483-6.231,15.283-20.141,30.309-13.375,15.1,6.852,13.722,14.964,17.937,14.161,4.2-.792,17.778,8.333,9.564,15.841-8.288,7.53-15.886-2.062-28.31-4.956-12.429-2.86-12.127,7.308-17.846,9.632-5.816,2.244-33.869-11.313-40.756.94-6.96,12.155-9.922,20.637.41,20.324,10.321-.291,10.988-2.962,10.179,4.671-.826,7.638,1.054,13.357,10.407,6.175,9.324-7.171,7.234-14.166,14.525-10.749s8.157.325,15.915-5.309,17.954-6.22,20.626,6.419-1.9,15.482-15.533,16.12c-13.642.661-15.186-3.64-19.532,7.764-4.323,11.41-22.368,26.06-38.209,32.1-15.813,6.049-22.01,14.986-21.645,27.045.375,12.081-5.571,24.824-9.541,14.867-3.988-9.986-15.163-26.8-26.567-15.562-11.426,11.261-31.312,31.169-9.336,34.809,21.93,3.708,10.487-16.838,21.571-12.731,11.067,4.135-7.012,13.192.387,16.462,7.411,3.3,10.515,1.754,10.458,11.853s2.455,19.9,11.449,15.613c8.988-4.266,20.534-24.055,33.539-12.349,13.021,11.734,12.1,10.207,18.928,6.79s11.17,6.818,13.967,11.477,13.767-.1,22.659,13.768,12.372,16.336,22.505,11.346,14.263-1.282,16.906,5.719,8.875.159,11.882,9.41C1409.743,979,1408.308,977.565,1403.922,983.79Z" transform="translate(-1162.397 -716.295)" fill="#fff"/>
          <g id="Group_1863" data-name="Group 1863" transform="translate(264.921 38.063)">
            <path id="Path_6593" data-name="Path 6593" d="M2559.894,970.859c-7.183-15.414,28.406-13.682,34.7-12.5,6.328,1.054,21.172-10.549,23.057-15.943,1.937-5.434,5.115-2.854,16.377-3.008,11.256-.12,1.309-2.666-11.08-6.75-12.367-4.073-1.794-4.483-13.192-13.483-4.9-3.942-3.361-7.291-.091-9.78A206.4,206.4,0,0,1,2669.7,988.79a3.906,3.906,0,0,0-1.059-.182c-7.884-.046-9.621-17.476-13.682-20.87-4-3.39.113,9.575,1.094,14.9s-2.159.849-6.089,5.742c-3.947,4.9-11.073,4.99-11.717-2.358-.655-7.331-5.821-14.531-16.308-17.88s-19.561-.6-28.082,2.688C2585.384,974.06,2567.128,986.153,2559.894,970.859Z" transform="translate(-2548.589 -909.398)" fill="#fff"/>
            <path id="Path_6594" data-name="Path 6594" d="M2607.078,1511.267c.712-5.292,1.874-10.76-.337-12.759-5.371-4.984-6.545-18.564-4.682-25.445,1.857-6.9,16.331-6.5,6.511-17.96-9.849-11.489-18.723-25.126-14.588-32.924s2.882-8.356-4.869-8.31-11.165.387-18.894-6.516c-7.736-6.995-18.376,16.507-47.489-2.341-29.108-19.036-12.531-51.122-1.624-51.2,10.977-.182,23.8-5.725,14.8-19.111-8.965-13.437,5.047-15.334,11.894-12.28,6.858,3.019,19.019-5.093,31.413-8.75,12.424-3.64,11.877,16.6,18.775,20.648,6.938,4.056,19.937.838,26.692-5.645,4.825-4.625,5.879.769,10.646,5.89a206.18,206.18,0,0,1-28.253,176.7Z" transform="translate(-2506.424 -1233.634)" fill="#fff"/>
            <path id="Path_6595" data-name="Path 6595" d="M2721.32,959.162c.007-.012,9.077-4.107,5.79-10.7-3.258-6.6-8.425-26.822-12.2-20.449-3.8,6.4,1.8,18.831.579,24.194C2714.255,957.582,2714.222,960.4,2721.32,959.162Z" transform="translate(-2672.738 -923.356)" fill="#fff"/>
            <path id="Path_6596" data-name="Path 6596" d="M2660.265,1016.982c-.128-2.126,1.21-10.76-5.583-10.49.012-.014-9.828,4.093-4.071,11.068C2656.393,1024.515,2660.413,1019.1,2660.265,1016.982Z" transform="translate(-2620.74 -987.349)" fill="#fff"/>
          </g>
        </g>
      </g>
      <path id="Path_6597" data-name="Path 6597" d="M1529.97,885.153a203.963,203.963,0,0,1-36.582,117.163.729.729,0,0,0-.145.4v.006a205.08,205.08,0,0,1-168.9,87.667,125.222,125.222,0,0,1-17.069-1.21h-.006c-.023,0-.034.509-.057.509-2.756-.228-5.49-.255-8.214-.591-.968-.114-1.937-.111-2.9-.247-.854-.114-1.7-.169-2.552-.3-.74-.108-1.475-.187-2.2-.307-.165-.028-.33-.042-.5-.065-1.795-.3-3.583-.6-5.365-.944l-.029,0a205.916,205.916,0,0,1-165.688-179.781c20.615,59.131,71.589,103.56,134.257,115.943h.023c1.538.774,3.082.618,4.631.874.142.017.291.067.433.09.627.1,1.265.207,1.9.3.729.114,1.464.206,2.2.3.832.12,1.663.191,2.5.288,2.352.291,4.71.827,7.092,1.02.023,0,.034.223.051.223h.006c4.836,0,9.655.389,14.594.389a177.379,177.379,0,0,0,145.706-76.269c0-.119.193-.279.268-.4a177.643,177.643,0,0,0,24.28-152.274c-.005-.029-.071-.063-.071-.091v-.006a121.468,121.468,0,0,0-6.6-18.512,177.948,177.948,0,0,0-107.576-99.044,204.731,204.731,0,0,1,110.153,44.8,207.027,207.027,0,0,1,60.3,79.392c2.973,6.961,4.87,14.115,7.966,21.44v.006c0,.034-.241.057-.23.091A205.433,205.433,0,0,1,1529.97,885.153Z" transform="translate(-1121.706 -682.178)" opacity="0.3" fill="url(#linear-gradient-2)" style="mix-blend-mode: multiply;isolation: isolate"/>
    </g>
  </g>
</svg>
