<svg xmlns="http://www.w3.org/2000/svg" xmlns:xlink="http://www.w3.org/1999/xlink" width="3268.791" height="3268.79" viewBox="0 0 3268.791 3268.79">
  <defs>
    <linearGradient id="linear-gradient" x1="0.451" y1="0.556" x2="0.778" y2="0.188" gradientUnits="objectBoundingBox">
      <stop offset="0" stop-color="#ffc444"/>
      <stop offset="0.996" stop-color="#f36f56"/>
    </linearGradient>
  </defs>
  <path id="Subtraction_5" data-name="Subtraction 5" d="M9207.9,15698.787c-27.949,0-56.238-.715-84.082-2.126-27.609-1.4-55.525-3.522-82.977-6.31-27.234-2.766-54.744-6.262-81.768-10.391-26.842-4.1-53.912-8.936-80.461-14.369-26.381-5.4-52.977-11.535-79.053-18.244-25.906-6.665-51.992-14.072-77.533-22.018-25.4-7.9-50.943-16.543-75.916-25.687-24.863-9.1-49.826-18.946-74.2-29.255-24.275-10.266-48.625-21.274-72.377-32.72-23.645-11.393-47.348-23.532-70.451-36.082-23-12.492-46.018-25.729-68.422-39.343-22.32-13.562-44.625-27.86-66.293-42.5-21.6-14.593-43.152-29.919-64.061-45.554-20.865-15.6-41.63-31.924-61.722-48.5s-40.025-33.849-59.285-51.354-38.352-35.707-56.745-54.1-36.595-37.483-54.1-56.742-34.8-39.22-51.354-59.287c-16.583-20.092-32.9-40.858-48.506-61.722-15.621-20.888-30.947-42.44-45.554-64.06-14.635-21.662-28.933-43.966-42.5-66.292-13.607-22.4-26.844-45.417-39.342-68.424-12.545-23.094-24.687-46.8-36.083-70.449-11.444-23.75-22.453-48.1-32.721-72.375-10.3-24.365-20.147-49.329-29.254-74.2-9.153-25-17.8-50.542-25.687-75.918-7.942-25.533-15.351-51.619-22.019-77.534-6.708-26.074-12.847-52.671-18.244-79.05-5.434-26.547-10.267-53.618-14.369-80.461-4.128-27.023-7.624-54.534-10.391-81.77-2.787-27.456-4.91-55.373-6.309-82.977-1.411-27.83-2.126-56.118-2.126-84.08s.715-56.251,2.126-84.08c1.4-27.6,3.521-55.521,6.309-82.976,2.767-27.237,6.263-54.749,10.391-81.77,4.1-26.843,8.936-53.914,14.369-80.461,5.4-26.382,11.537-52.979,18.244-79.049,6.667-25.908,14.074-52,22.019-77.535,7.893-25.378,16.535-50.921,25.688-75.918,9.106-24.87,18.949-49.833,29.254-74.2,10.27-24.278,21.277-48.629,32.721-72.375,11.4-23.662,23.542-47.365,36.083-70.451,12.506-23.021,25.742-46.041,39.342-68.421,13.566-22.327,27.864-44.631,42.5-66.292,14.591-21.6,29.918-43.152,45.554-64.06,15.6-20.864,31.923-41.631,48.506-61.723,16.562-20.069,33.84-40.017,51.354-59.286,17.493-19.248,35.7-38.339,54.1-56.743s37.485-36.595,56.745-54.1,39.2-34.779,59.285-51.354,40.845-32.891,61.722-48.5c20.9-15.626,42.449-30.953,64.061-45.554,21.664-14.635,43.969-28.935,66.293-42.5,22.4-13.611,45.424-26.848,68.422-39.342,23.1-12.55,46.807-24.689,70.451-36.082,23.752-11.445,48.1-22.454,72.377-32.72,24.377-10.312,49.342-20.154,74.2-29.255,24.979-9.146,50.521-17.789,75.916-25.687,25.549-7.947,51.635-15.354,77.533-22.018,26.076-6.709,52.672-12.848,79.053-18.244,26.555-5.435,53.627-10.27,80.461-14.369,27.025-4.13,54.537-7.625,81.768-10.391,27.441-2.786,55.359-4.909,82.977-6.31,27.84-1.411,56.131-2.126,84.082-2.126s56.238.715,84.08,2.126c27.615,1.4,55.533,3.523,82.975,6.31,27.236,2.766,54.746,6.262,81.77,10.391,26.842,4.1,53.912,8.936,80.461,14.369,26.381,5.4,52.977,11.535,79.051,18.244,25.895,6.662,51.982,14.069,77.533,22.018,25.387,7.9,50.93,16.538,75.916,25.688,24.848,9.1,49.813,18.939,74.2,29.255,24.275,10.268,48.627,21.275,72.373,32.72,23.637,11.388,47.34,23.527,70.453,36.082,22.99,12.489,46.012,25.727,68.422,39.342,22.344,13.578,44.648,27.877,66.291,42.5,21.611,14.6,43.164,29.928,64.061,45.554,20.877,15.614,41.645,31.934,61.723,48.5s40.027,33.852,59.287,51.354,38.348,35.706,56.742,54.1,36.6,37.49,54.1,56.743,34.779,39.2,51.354,59.286,32.9,40.851,48.506,61.723c15.645,20.921,30.971,42.474,45.553,64.06,14.643,21.673,28.941,43.977,42.5,66.292,13.609,22.4,26.846,45.419,39.342,68.421,12.545,23.1,24.686,46.8,36.08,70.451,11.449,23.757,22.457,48.107,32.721,72.375,10.3,24.359,20.146,49.323,29.256,74.2,9.139,24.961,17.783,50.5,25.688,75.918,7.945,25.548,15.354,51.634,22.018,77.535,6.7,26.052,12.842,52.647,18.246,79.049,5.434,26.555,10.268,53.626,14.367,80.461,4.125,27,7.621,54.509,10.391,81.77,2.785,27.428,4.908,55.345,6.309,82.976,1.412,27.849,2.127,56.138,2.127,84.08s-.715,56.23-2.127,84.08c-1.4,27.631-3.523,55.548-6.309,82.977-2.77,27.259-6.266,54.77-10.391,81.77-4.1,26.835-8.934,53.906-14.367,80.461-5.4,26.4-11.543,52.994-18.246,79.05-6.666,25.907-14.074,51.993-22.018,77.534-7.9,25.413-16.547,50.955-25.687,75.918-9.107,24.873-18.951,49.837-29.256,74.2-10.262,24.264-21.271,48.614-32.721,72.375-11.391,23.643-23.529,47.346-36.08,70.449-12.488,22.988-25.725,46.009-39.342,68.424-13.559,22.314-27.857,44.618-42.5,66.292-14.6,21.605-29.922,43.158-45.553,64.06-15.609,20.871-31.93,41.637-48.506,61.722s-33.848,40.026-51.354,59.287-35.713,38.355-54.1,56.742-37.486,36.6-56.742,54.1-39.211,34.785-59.287,51.354c-20.092,16.581-40.857,32.9-61.723,48.5-20.906,15.635-42.461,30.961-64.061,45.554-21.646,14.625-43.951,28.924-66.291,42.5-22.412,13.617-45.434,26.854-68.422,39.343-23.113,12.555-46.816,24.694-70.453,36.082-23.746,11.444-48.1,22.452-72.373,32.72-24.381,10.313-49.346,20.155-74.2,29.255-24.979,9.146-50.521,17.79-75.916,25.688-25.543,7.945-51.629,15.354-77.533,22.018-26.074,6.709-52.67,12.848-79.051,18.244-26.541,5.433-53.611,10.267-80.461,14.369-27.02,4.129-54.531,7.624-81.77,10.391-27.449,2.787-55.365,4.91-82.975,6.31C9264.135,15698.072,9235.846,15698.787,9207.9,15698.787Zm-.205-1654.031a20.833,20.833,0,1,0,8.135,1.642A20.776,20.776,0,0,0,9207.693,14044.756Z" transform="translate(-7573.5 -12430.5)" stroke="rgba(0,0,0,0)" stroke-miterlimit="10" stroke-width="1" fill="url(#linear-gradient)"/>
</svg>
