<svg xmlns="http://www.w3.org/2000/svg" xmlns:xlink="http://www.w3.org/1999/xlink" width="2268.791" height="2268.791" viewBox="0 0 2268.791 2268.791">
  <defs>
    <linearGradient id="linear-gradient" x1="0.451" y1="0.556" x2="0.778" y2="0.188" gradientUnits="objectBoundingBox">
      <stop offset="0" stop-color="#ffc444"/>
      <stop offset="0.996" stop-color="#f36f56"/>
    </linearGradient>
  </defs>
  <path id="Subtraction_5" data-name="Subtraction 5" d="M8707.9,14698.789c-19.417,0-39.049-.5-58.351-1.476-19.182-.973-38.556-2.445-57.584-4.379-18.911-1.921-38-4.347-56.746-7.211-18.631-2.847-37.418-6.2-55.839-9.972-18.314-3.748-36.771-8.008-54.858-12.661-17.979-4.626-36.082-9.767-53.808-15.279-17.636-5.485-35.361-11.483-52.686-17.827-17.246-6.314-34.571-13.146-51.492-20.3-16.849-7.126-33.747-14.767-50.228-22.707-16.4-7.9-32.853-16.329-48.891-25.041-15.959-8.669-31.935-17.855-47.484-27.3-15.478-9.4-30.957-19.327-46.006-29.493-14.993-10.13-29.95-20.766-44.456-31.613-14.482-10.831-28.894-22.157-42.835-33.662s-27.773-23.488-41.143-35.639-26.613-24.778-39.379-37.545-25.4-26.017-37.544-39.38-24.147-27.217-35.639-41.143c-11.514-13.952-22.84-28.364-33.661-42.836-10.846-14.5-21.482-29.458-31.613-44.455-10.154-15.029-20.077-30.508-29.494-46.006-9.439-15.533-18.625-31.509-27.3-47.483-8.7-16.019-17.127-32.468-25.041-48.892-7.94-16.479-15.581-33.378-22.707-50.228-7.161-16.929-13.991-34.253-20.3-51.492-6.347-17.332-12.344-35.059-17.827-52.686-5.508-17.7-10.648-35.807-15.28-53.807-4.656-18.1-8.916-36.557-12.661-54.859-3.771-18.43-7.126-37.216-9.972-55.838-2.865-18.752-5.291-37.845-7.21-56.746-1.933-19.028-3.406-38.4-4.379-57.584-.979-19.312-1.476-38.944-1.476-58.35s.5-39.037,1.476-58.35c.973-19.182,2.446-38.556,4.379-57.585,1.919-18.9,4.345-37.994,7.21-56.746,2.845-18.619,6.2-37.406,9.972-55.839,3.745-18.3,8-36.76,12.661-54.858,4.629-17.992,9.771-36.1,15.28-53.808,5.482-17.627,11.48-35.354,17.827-52.686,6.312-17.239,13.142-34.563,20.3-51.492,7.123-16.841,14.762-33.74,22.707-50.229,7.91-16.415,16.335-32.865,25.041-48.892,8.68-15.978,17.866-31.953,27.3-47.483,9.416-15.5,19.338-30.975,29.494-46.006,10.133-15,20.769-29.956,31.613-44.456,10.821-14.471,22.147-28.883,33.661-42.835,11.49-13.923,23.481-27.766,35.639-41.143s24.783-26.618,37.544-39.38,26.025-25.407,39.379-37.545,27.2-24.136,41.143-35.64,28.357-22.834,42.835-33.661c14.509-10.851,29.466-21.487,44.456-31.613,15.048-10.165,30.526-20.089,46.006-29.494,15.551-9.448,31.526-18.635,47.484-27.3,16.018-8.7,32.467-17.126,48.891-25.041,16.486-7.943,33.385-15.583,50.228-22.707,16.921-7.157,34.246-13.987,51.492-20.3,17.317-6.342,35.043-12.339,52.686-17.827,17.726-5.513,35.829-10.653,53.808-15.279,18.087-4.653,36.544-8.913,54.858-12.661,18.426-3.771,37.213-7.126,55.839-9.972,18.743-2.864,37.835-5.29,56.746-7.211,19.034-1.934,38.408-3.407,57.584-4.379,19.308-.979,38.939-1.476,58.351-1.476s39.043.5,58.35,1.476c19.177.972,38.551,2.445,57.584,4.379,18.911,1.921,38,4.347,56.747,7.211,18.623,2.845,37.409,6.2,55.838,9.972,18.313,3.747,36.771,8.007,54.859,12.661,17.983,4.627,36.087,9.768,53.808,15.279,17.647,5.49,35.373,11.487,52.686,17.827,17.24,6.313,34.564,13.144,51.491,20.3,16.841,7.123,33.74,14.763,50.229,22.707,16.419,7.912,32.868,16.338,48.892,25.041,15.95,8.665,31.927,17.851,47.484,27.3,15.484,9.409,30.963,19.332,46.006,29.494,14.987,10.125,29.944,20.762,44.455,31.613,14.479,10.829,28.893,22.154,42.836,33.661s27.775,23.49,41.143,35.64,26.6,24.77,39.379,37.545,25.4,26.017,37.545,39.38,24.135,27.2,35.64,41.143,22.832,28.354,33.661,42.835c10.85,14.508,21.486,29.465,31.613,44.456,10.161,15.041,20.085,30.52,29.494,46.006,9.443,15.543,18.63,31.519,27.3,47.483,8.7,16.025,17.13,32.475,25.041,48.892,7.941,16.482,15.581,33.381,22.707,50.229,7.16,16.929,13.991,34.253,20.3,51.492,6.345,17.325,12.342,35.052,17.827,52.686,5.513,17.726,10.654,35.829,15.279,53.808,4.654,18.088,8.913,36.545,12.661,54.858,3.771,18.422,7.126,37.209,9.972,55.839,2.864,18.743,5.29,37.835,7.211,56.746,1.934,19.029,3.406,38.4,4.379,57.585.979,19.3,1.476,38.933,1.476,58.35s-.5,39.048-1.476,58.35c-.973,19.182-2.445,38.556-4.379,57.584-1.921,18.911-4.347,38-7.211,56.746-2.847,18.633-6.2,37.419-9.972,55.838-3.747,18.313-8.007,36.771-12.661,54.859-4.628,17.985-9.769,36.089-15.279,53.807-5.485,17.634-11.482,35.36-17.827,52.686-6.314,17.246-13.146,34.571-20.3,51.492-7.13,16.855-14.77,33.755-22.707,50.228-7.915,16.425-16.341,32.875-25.041,48.892-8.671,15.962-17.857,31.938-27.3,47.483-9.411,15.488-19.335,30.967-29.494,46.006-10.126,14.989-20.763,29.946-31.613,44.455-10.829,14.481-22.154,28.893-33.661,42.836s-23.5,27.784-35.64,41.143-24.771,26.606-37.545,39.38-26.016,25.4-39.379,37.545-27.217,24.146-41.143,35.639-28.351,22.828-42.836,33.662c-14.507,10.848-29.464,21.484-44.455,31.613-15.045,10.162-30.523,20.085-46.006,29.493-15.557,9.451-31.532,18.638-47.484,27.3-16.043,8.715-32.493,17.14-48.892,25.041-16.482,7.941-33.381,15.581-50.229,22.707-16.927,7.159-34.251,13.99-51.491,20.3-17.318,6.342-35.045,12.34-52.686,17.827-17.721,5.512-35.824,10.652-53.808,15.279-18.088,4.654-36.546,8.914-54.859,12.661-18.423,3.771-37.21,7.126-55.838,9.972-18.744,2.864-37.836,5.291-56.747,7.211-19.027,1.934-38.4,3.406-57.584,4.379C8746.944,14698.292,8727.313,14698.789,8707.9,14698.789Zm-.141-1147.871a14.5,14.5,0,1,0,10.254,4.248A14.4,14.4,0,0,0,8707.755,13550.918Z" transform="translate(-7573.501 -12430.498)" stroke="rgba(0,0,0,0)" stroke-miterlimit="10" stroke-width="1" fill="url(#linear-gradient)"/>
</svg>
