<svg id="Group_831" data-name="Group 831" xmlns="http://www.w3.org/2000/svg" xmlns:xlink="http://www.w3.org/1999/xlink" width="3267.793" height="3267.787" viewBox="0 0 3267.793 3267.787">
  <defs>
    <linearGradient id="linear-gradient" x1="0.451" y1="0.556" x2="0.778" y2="0.188" gradientUnits="objectBoundingBox">
      <stop offset="0" stop-color="#ffc444"/>
      <stop offset="0.996" stop-color="#f36f56"/>
    </linearGradient>
    <clipPath id="clip-path">
      <ellipse id="Ellipse_168" data-name="Ellipse 168" cx="1633.896" cy="1633.894" rx="1633.896" ry="1633.894" stroke="rgba(0,0,0,0)" stroke-miterlimit="10" stroke-width="1" fill="url(#linear-gradient)"/>
    </clipPath>
  </defs>
  <g id="Group_830" data-name="Group 830" clip-path="url(#clip-path)">
    <g id="Group_829" data-name="Group 829" transform="translate(-20.876 -19.415)">
      <path id="Path_3810" data-name="Path 3810" d="M4425.12,2332.336c0,350.124-109.962,674.916-296.408,942.263-.735,1.1-3.364,2.154-3.364,3.253v.046C3832.8,3706.541,3331.523,3984.251,2769.2,3984.251c-45.99,0-90.043-2.149-135.075-8.373h-.045c-.186,0-.277,2.739-.461,2.739-22.171-1.833-44.156-2.685-66.057-5.388-7.787-.916-15.574-1.229-23.317-2.328-6.871-.916-13.7-1.53-20.522-2.585-5.956-.871-11.865-1.61-17.729-2.574-1.33-.227-2.659-.372-3.985-.553-14.432-2.383-28.817-4.858-43.154-7.608-.093,0-.138-.024-.23-.024C1694.106,3811.516,1116.442,3139.4,1116.442,2332.324c0-170.642,24.789-335.278,72.8-490.159,7.514-24.28,16.871-48.278,23.1-72.053v-.047c18.673-39.625,31.188-78.518,48.366-116.676,6.917-15.257,14.565-30.419,21.85-45.444a1655.537,1655.537,0,0,1,140.357-235.419c4.812-6.732,9.806-13.422,14.707-20.111q29.408-39.991,61.27-78.107,47.62-57.167,100.175-109.9A1661.4,1661.4,0,0,1,1902.3,923.91q51.2-31.679,104.867-59.645a1646.426,1646.426,0,0,1,764.072-186.63c393.921,0,755.683,137.613,1039.8,367.4,208.985,169.039,378.95,387.871,485.872,638.5,23.914,55.981,40.072,113.517,64.97,172.427v.049c0,.274-2.848.458-2.759.732C4404.284,2007.36,4425.12,2167.008,4425.12,2332.336Z" transform="translate(-1116.442 -677.635)" stroke="rgba(0,0,0,0)" stroke-miterlimit="10" stroke-width="1" fill="url(#linear-gradient)"/>
    </g>
  </g>
</svg>
