<!-- <svg xmlns="http://www.w3.org/2000/svg" xmlns:xlink="http://www.w3.org/1999/xlink" width="5268.797" height="5268.787" viewBox="0 0 5268.797 5268.787">
  <defs>
    <radialGradient id="radial-gradient" cx="0.5" cy="0.5" r="0.5" gradientUnits="objectBoundingBox">
      <stop offset="0" stop-color="#ffbe46"/>
      <stop offset="1" stop-color="#fdb647"/>
    </radialGradient>
  </defs>
  <path id="Subtraction_12" data-name="Subtraction 12" d="M10207.894,17698.791c-45.075,0-90.677-1.154-135.54-3.428-44.484-2.252-89.488-5.674-133.761-10.17-43.89-4.457-88.238-10.094-131.815-16.75-43.224-6.6-86.862-14.4-129.705-23.164-42.537-8.705-85.411-18.6-127.43-29.41-41.779-10.748-83.831-22.691-124.988-35.494-40.905-12.721-82.081-26.652-122.383-41.406-40.058-14.668-80.3-30.535-119.609-47.162-39.141-16.555-78.395-34.3-116.671-52.746-38.152-18.385-76.362-37.953-113.569-58.166-37.07-20.137-74.18-41.475-110.3-63.422-35.99-21.867-71.944-44.916-106.866-68.51-34.853-23.547-69.6-48.254-103.265-73.434-33.609-25.133-67.086-51.439-99.5-78.191-32.339-26.687-64.493-54.539-95.571-82.783-31.038-28.211-61.813-57.553-91.473-87.213s-59-60.432-87.212-91.475c-28.236-31.066-56.09-63.221-82.785-95.57-26.735-32.395-53.042-65.871-78.192-99.5-25.185-33.674-49.892-68.418-73.434-103.264-23.6-34.93-46.647-70.885-68.51-106.865-21.932-36.094-43.27-73.2-63.421-110.3-20.224-37.228-39.793-75.438-58.166-113.569-18.447-38.282-36.194-77.536-52.747-116.671-16.628-39.313-32.5-79.557-47.161-119.609-14.749-40.281-28.681-81.456-41.41-122.383-12.809-41.18-24.75-83.231-35.493-124.987-10.812-42.021-20.707-84.895-29.411-127.43-8.761-42.812-16.555-86.451-23.163-129.705-6.655-43.549-12.29-87.9-16.75-131.815-4.492-44.233-7.914-89.237-10.171-133.761-2.274-44.858-3.427-90.461-3.427-135.539s1.153-90.682,3.427-135.54c2.257-44.522,5.679-89.526,10.171-133.761,4.46-43.918,10.1-88.268,16.75-131.816,6.608-43.248,14.4-86.888,23.163-129.705,8.7-42.532,18.6-85.405,29.411-127.43,10.745-41.763,22.686-83.814,35.493-124.988,12.729-40.928,26.661-82.1,41.41-122.383,14.665-40.053,30.532-80.295,47.161-119.609,16.552-39.133,34.3-78.387,52.747-116.672,18.375-38.134,37.944-76.344,58.166-113.568,20.146-37.086,41.484-74.2,63.421-110.3,21.856-35.972,44.906-71.927,68.51-106.867,23.535-34.835,48.241-69.578,73.434-103.266,25.147-33.626,51.455-67.1,78.192-99.5,26.7-32.357,54.557-64.513,82.785-95.569,28.2-31.028,57.544-61.8,87.212-91.473s60.439-59.008,91.473-87.212c31.067-28.236,63.222-56.089,95.571-82.786,32.4-26.736,65.874-53.044,99.5-78.19,33.678-25.187,68.421-49.894,103.265-73.435,34.941-23.6,70.9-46.654,106.866-68.509,36.078-21.924,73.188-43.262,110.3-63.423,37.239-20.229,75.449-39.8,113.569-58.166,38.276-18.443,77.53-36.19,116.671-52.745,39.3-16.623,79.545-32.49,119.609-47.16,40.282-14.749,81.456-28.681,122.383-41.409,41.161-12.8,83.213-24.746,124.988-35.494,42.019-10.811,84.893-20.706,127.43-29.409,42.825-8.764,86.464-16.558,129.705-23.164,43.563-6.655,87.913-12.291,131.815-16.75,44.242-4.492,89.246-7.915,133.761-10.172,44.854-2.273,90.456-3.426,135.54-3.426s90.686,1.152,135.54,3.426c44.515,2.257,89.519,5.68,133.761,10.172,43.9,4.459,88.253,10.095,131.815,16.75,43.238,6.606,86.878,14.4,129.706,23.164,42.544,8.705,85.417,18.6,127.43,29.409,41.777,10.749,83.83,22.691,124.988,35.494,40.935,12.73,82.11,26.663,122.383,41.409,40.07,14.672,80.313,30.538,119.609,47.16,39.129,16.55,78.383,34.3,116.672,52.745,38.123,18.37,76.333,37.939,113.568,58.166,37.1,20.155,74.211,41.493,110.3,63.423,35.984,21.863,71.939,44.913,106.865,68.509,34.851,23.546,69.594,48.252,103.266,73.435,33.627,25.147,67.1,51.455,99.5,78.19,32.355,26.7,64.511,54.556,95.57,82.786,31.042,28.213,61.818,57.556,91.473,87.212,29.672,29.671,59.014,60.446,87.211,91.473,28.221,31.047,56.073,63.2,82.786,95.569,26.74,32.4,53.048,65.881,78.192,99.5,25.19,33.685,49.9,68.428,73.433,103.266,23.6,34.927,46.646,70.882,68.511,106.867,21.934,36.1,43.271,73.206,63.421,110.3,20.227,37.235,39.8,75.445,58.166,113.568,18.449,38.289,36.2,77.543,52.746,116.672,16.628,39.314,32.5,79.557,47.16,119.609,14.738,40.252,28.672,81.428,41.41,122.383,12.8,41.166,24.744,83.218,35.492,124.988,10.809,42.008,20.7,84.881,29.411,127.43,8.761,42.813,16.554,86.452,23.162,129.705,6.653,43.536,12.288,87.886,16.75,131.816,4.493,44.243,7.915,89.247,10.172,133.761,2.274,44.872,3.428,90.474,3.428,135.54s-1.153,90.667-3.428,135.539c-2.257,44.515-5.68,89.519-10.172,133.761-4.462,43.931-10.1,88.28-16.75,131.815-6.609,43.259-14.4,86.9-23.162,129.705-8.709,42.553-18.6,85.426-29.411,127.43-10.748,41.771-22.688,83.824-35.492,124.987-12.738,40.955-26.672,82.131-41.41,122.383-14.665,40.053-30.532,80.3-47.16,119.609-16.552,39.131-34.3,78.385-52.746,116.671-18.367,38.12-37.937,76.33-58.166,113.569-20.155,37.1-41.493,74.213-63.421,110.3-21.871,35.994-44.921,71.949-68.511,106.865-23.544,34.85-48.251,69.592-73.433,103.264-25.146,33.623-51.453,67.1-78.192,99.5-26.705,32.359-54.558,64.514-82.786,95.57-28.211,31.041-57.553,61.816-87.211,91.475s-60.425,58.994-91.473,87.213c-31.07,28.238-63.226,56.09-95.57,82.783-32.422,26.756-65.9,53.064-99.5,78.191-33.662,25.176-68.405,49.883-103.266,73.434-34.906,23.582-70.861,46.633-106.865,68.51-36.13,21.953-73.24,43.291-110.3,63.422-37.2,20.209-75.412,39.779-113.568,58.166-38.289,18.449-77.543,36.2-116.672,52.746-39.3,16.625-79.547,32.492-119.609,47.162-40.293,14.752-81.469,28.682-122.383,41.406-41.154,12.8-83.207,24.744-124.988,35.494-42.013,10.809-84.886,20.705-127.43,29.41-42.846,8.768-86.485,16.561-129.706,23.164-43.576,6.656-87.925,12.293-131.815,16.75-44.272,4.5-89.276,7.918-133.761,10.17C10298.57,17697.637,10252.969,17698.791,10207.894,17698.791Zm-24-2666.355a10,10,0,1,0,10,10A10.011,10.011,0,0,0,10183.89,15032.436Z" transform="translate(-7573.496 -12430.504)" stroke="rgba(0,0,0,0)" stroke-miterlimit="10" stroke-width="1" fill="url(#radial-gradient)"/>
</svg>
 -->


<svg xmlns="http://www.w3.org/2000/svg" xmlns:xlink="http://www.w3.org/1999/xlink" width="5268.797" height="5268.787" viewBox="0 0 5268.797 5268.787">
  <defs>
    <radialGradient id="radial-gradient" cx="0.5" cy="0.5" r="0.5" gradientUnits="objectBoundingBox">
      <stop offset="0" stop-color="#ffbe46"/>
      <stop offset="1" stop-color="#fdb647"/>
    </radialGradient>
  </defs>
  <path id="Subtraction_12" data-name="Subtraction 12" d="M10207.894,17698.791c-45.075,0-90.677-1.154-135.54-3.428-44.484-2.252-89.488-5.674-133.761-10.17-43.89-4.457-88.238-10.094-131.815-16.75-43.224-6.6-86.862-14.4-129.705-23.164-42.537-8.705-85.411-18.6-127.43-29.41-41.779-10.748-83.831-22.691-124.988-35.494-40.905-12.721-82.081-26.652-122.383-41.406-40.058-14.668-80.3-30.535-119.609-47.162-39.141-16.555-78.395-34.3-116.671-52.746-38.152-18.385-76.362-37.953-113.569-58.166-37.07-20.137-74.18-41.475-110.3-63.422-35.99-21.867-71.944-44.916-106.866-68.51-34.853-23.547-69.6-48.254-103.265-73.434-33.609-25.133-67.086-51.439-99.5-78.191-32.339-26.687-64.493-54.539-95.571-82.783-31.038-28.211-61.813-57.553-91.473-87.213s-59-60.432-87.212-91.475c-28.236-31.066-56.09-63.221-82.785-95.57-26.735-32.395-53.042-65.871-78.192-99.5-25.185-33.674-49.892-68.418-73.434-103.264-23.6-34.93-46.647-70.885-68.51-106.865-21.932-36.094-43.27-73.2-63.421-110.3-20.224-37.228-39.793-75.438-58.166-113.569-18.447-38.282-36.194-77.536-52.747-116.671-16.628-39.313-32.5-79.557-47.161-119.609-14.749-40.281-28.681-81.456-41.41-122.383-12.809-41.18-24.75-83.231-35.493-124.987-10.812-42.021-20.707-84.895-29.411-127.43-8.761-42.812-16.555-86.451-23.163-129.705-6.655-43.549-12.29-87.9-16.75-131.815-4.492-44.233-7.914-89.237-10.171-133.761-2.274-44.858-3.427-90.461-3.427-135.539s1.153-90.682,3.427-135.54c2.257-44.522,5.679-89.526,10.171-133.761,4.46-43.918,10.1-88.268,16.75-131.816,6.608-43.248,14.4-86.888,23.163-129.705,8.7-42.532,18.6-85.405,29.411-127.43,10.745-41.763,22.686-83.814,35.493-124.988,12.729-40.928,26.661-82.1,41.41-122.383,14.665-40.053,30.532-80.295,47.161-119.609,16.552-39.133,34.3-78.387,52.747-116.672,18.375-38.134,37.944-76.344,58.166-113.568,20.146-37.086,41.484-74.2,63.421-110.3,21.856-35.972,44.906-71.927,68.51-106.867,23.535-34.835,48.241-69.578,73.434-103.266,25.147-33.626,51.455-67.1,78.192-99.5,26.7-32.357,54.557-64.513,82.785-95.569,28.2-31.028,57.544-61.8,87.212-91.473s60.439-59.008,91.473-87.212c31.067-28.236,63.222-56.089,95.571-82.786,32.4-26.736,65.874-53.044,99.5-78.19,33.678-25.187,68.421-49.894,103.265-73.435,34.941-23.6,70.9-46.654,106.866-68.509,36.078-21.924,73.188-43.262,110.3-63.423,37.239-20.229,75.449-39.8,113.569-58.166,38.276-18.443,77.53-36.19,116.671-52.745,39.3-16.623,79.545-32.49,119.609-47.16,40.282-14.749,81.456-28.681,122.383-41.409,41.161-12.8,83.213-24.746,124.988-35.494,42.019-10.811,84.893-20.706,127.43-29.409,42.825-8.764,86.464-16.558,129.705-23.164,43.563-6.655,87.913-12.291,131.815-16.75,44.242-4.492,89.246-7.915,133.761-10.172,44.854-2.273,90.456-3.426,135.54-3.426s90.686,1.152,135.54,3.426c44.515,2.257,89.519,5.68,133.761,10.172,43.9,4.459,88.253,10.095,131.815,16.75,43.238,6.606,86.878,14.4,129.706,23.164,42.544,8.705,85.417,18.6,127.43,29.409,41.777,10.749,83.83,22.691,124.988,35.494,40.935,12.73,82.11,26.663,122.383,41.409,40.07,14.672,80.313,30.538,119.609,47.16,39.129,16.55,78.383,34.3,116.672,52.745,38.123,18.37,76.333,37.939,113.568,58.166,37.1,20.155,74.211,41.493,110.3,63.423,35.984,21.863,71.939,44.913,106.865,68.509,34.851,23.546,69.594,48.252,103.266,73.435,33.627,25.147,67.1,51.455,99.5,78.19,32.355,26.7,64.511,54.556,95.57,82.786,31.042,28.213,61.818,57.556,91.473,87.212,29.672,29.671,59.014,60.446,87.211,91.473,28.221,31.047,56.073,63.2,82.786,95.569,26.74,32.4,53.048,65.881,78.192,99.5,25.19,33.685,49.9,68.428,73.433,103.266,23.6,34.927,46.646,70.882,68.511,106.867,21.934,36.1,43.271,73.206,63.421,110.3,20.227,37.235,39.8,75.445,58.166,113.568,18.449,38.289,36.2,77.543,52.746,116.672,16.628,39.314,32.5,79.557,47.16,119.609,14.738,40.252,28.672,81.428,41.41,122.383,12.8,41.166,24.744,83.218,35.492,124.988,10.809,42.008,20.7,84.881,29.411,127.43,8.761,42.813,16.554,86.452,23.162,129.705,6.653,43.536,12.288,87.886,16.75,131.816,4.493,44.243,7.915,89.247,10.172,133.761,2.274,44.872,3.428,90.474,3.428,135.54s-1.153,90.667-3.428,135.539c-2.257,44.515-5.68,89.519-10.172,133.761-4.462,43.931-10.1,88.28-16.75,131.815-6.609,43.259-14.4,86.9-23.162,129.705-8.709,42.553-18.6,85.426-29.411,127.43-10.748,41.771-22.688,83.824-35.492,124.987-12.738,40.955-26.672,82.131-41.41,122.383-14.665,40.053-30.532,80.3-47.16,119.609-16.552,39.131-34.3,78.385-52.746,116.671-18.367,38.12-37.937,76.33-58.166,113.569-20.155,37.1-41.493,74.213-63.421,110.3-21.871,35.994-44.921,71.949-68.511,106.865-23.544,34.85-48.251,69.592-73.433,103.264-25.146,33.623-51.453,67.1-78.192,99.5-26.705,32.359-54.558,64.514-82.786,95.57-28.211,31.041-57.553,61.816-87.211,91.475s-60.425,58.994-91.473,87.213c-31.07,28.238-63.226,56.09-95.57,82.783-32.422,26.756-65.9,53.064-99.5,78.191-33.662,25.176-68.405,49.883-103.266,73.434-34.906,23.582-70.861,46.633-106.865,68.51-36.13,21.953-73.24,43.291-110.3,63.422-37.2,20.209-75.412,39.779-113.568,58.166-38.289,18.449-77.543,36.2-116.672,52.746-39.3,16.625-79.547,32.492-119.609,47.162-40.293,14.752-81.469,28.682-122.383,41.406-41.154,12.8-83.207,24.744-124.988,35.494-42.013,10.809-84.886,20.705-127.43,29.41-42.846,8.768-86.485,16.561-129.706,23.164-43.576,6.656-87.925,12.293-131.815,16.75-44.272,4.5-89.276,7.918-133.761,10.17C10298.57,17697.637,10252.969,17698.791,10207.894,17698.791Zm-4.007-2666.355a29.9,29.9,0,1,0,11.677,2.356A29.8,29.8,0,0,0,10203.887,15032.436Z" transform="translate(-7573.496 -12430.504)" stroke="rgba(0,0,0,0)" stroke-miterlimit="10" stroke-width="1" fill="url(#radial-gradient)"/>
</svg>
