<svg xmlns="http://www.w3.org/2000/svg" width="8.761" height="9.345" viewBox="0 0 8.761 9.345">
  <path id="Icon_awesome-star-of-life" data-name="Icon awesome-star-of-life" d="M8.615,6.1,6.134,4.672,8.615,3.241a.292.292,0,0,0,.107-.4L8.137,1.83a.292.292,0,0,0-.4-.107L5.257,3.155V.292A.292.292,0,0,0,4.965,0H3.8A.292.292,0,0,0,3.5.292V3.155L1.023,1.723a.292.292,0,0,0-.4.107L.039,2.842a.292.292,0,0,0,.107.4L2.627,4.672.146,6.1a.292.292,0,0,0-.107.4L.624,7.514a.292.292,0,0,0,.4.107L3.5,6.19V9.053a.292.292,0,0,0,.292.292H4.965a.292.292,0,0,0,.292-.292V6.19L7.738,7.621a.292.292,0,0,0,.4-.107L8.722,6.5A.292.292,0,0,0,8.615,6.1Z" transform="translate(0)" fill="#ff2929"/>
</svg>
