<svg xmlns="http://www.w3.org/2000/svg" xmlns:xlink="http://www.w3.org/1999/xlink" width="581.12" height="581.727" viewBox="0 0 581.12 581.727">
  <defs>
    <clipPath id="clip-path">
      <circle id="Ellipse_252" data-name="Ellipse 252" cx="182.744" cy="182.744" r="182.744" transform="translate(0 258.439) rotate(-45)" fill="none"/>
    </clipPath>
    <linearGradient id="linear-gradient" x1="0.485" y1="0.335" x2="0.535" y2="0.882" gradientUnits="objectBoundingBox">
      <stop offset="0.004" stop-color="#e38ddd"/>
      <stop offset="1" stop-color="#9571f6"/>
    </linearGradient>
    <linearGradient id="linear-gradient-2" y1="0.5" x2="1" y2="0.5" gradientUnits="objectBoundingBox">
      <stop offset="0" stop-color="#ffc444"/>
      <stop offset="0.996" stop-color="#f36f56"/>
    </linearGradient>
    <linearGradient id="linear-gradient-3" x1="-7.129" y1="-2.845" x2="18.99" y2="8.607" gradientUnits="objectBoundingBox">
      <stop offset="0" stop-color="#444b8c"/>
      <stop offset="0.996" stop-color="#26264f"/>
    </linearGradient>
    <linearGradient id="linear-gradient-4" x1="-10.505" y1="-4.325" x2="15.613" y2="7.127" xlink:href="#linear-gradient-3"/>
    <linearGradient id="linear-gradient-5" x1="-12.573" y1="-5.232" x2="13.545" y2="6.22" xlink:href="#linear-gradient-3"/>
    <linearGradient id="linear-gradient-6" x1="-0.691" y1="-0.022" x2="25.427" y2="11.43" xlink:href="#linear-gradient-3"/>
    <linearGradient id="linear-gradient-7" x1="0.424" y1="-0.1" x2="0.532" y2="0.81" gradientUnits="objectBoundingBox">
      <stop offset="0" stop-color="#ffc444"/>
      <stop offset="0.314" stop-color="#fba94a"/>
      <stop offset="0.996" stop-color="#f36f56"/>
    </linearGradient>
    <linearGradient id="linear-gradient-8" x1="0.422" y1="0.211" x2="0.952" y2="2.526" xlink:href="#linear-gradient-7"/>
    <linearGradient id="linear-gradient-9" x1="1.276" y1="1.548" x2="0.589" y2="0.613" xlink:href="#linear-gradient-7"/>
    <linearGradient id="linear-gradient-10" x1="0.601" y1="-0.017" x2="0.296" y2="1.54" gradientUnits="objectBoundingBox">
      <stop offset="0" stop-color="#311944"/>
      <stop offset="1" stop-color="#6b3976"/>
    </linearGradient>
    <linearGradient id="linear-gradient-11" x1="0.349" y1="1.786" x2="0.444" y2="1.128" gradientUnits="objectBoundingBox">
      <stop offset="0" stop-color="#ff9085"/>
      <stop offset="1" stop-color="#fb6fbb"/>
    </linearGradient>
    <linearGradient id="linear-gradient-12" x1="0.478" y1="1.967" x2="0.509" y2="-0.575" gradientUnits="objectBoundingBox">
      <stop offset="0" stop-color="#311944"/>
      <stop offset="0.555" stop-color="#6f2b60"/>
      <stop offset="1" stop-color="#a03976"/>
    </linearGradient>
    <linearGradient id="linear-gradient-13" x1="-13.466" y1="0.902" x2="-14.269" y2="-1.226" xlink:href="#linear-gradient-10"/>
    <linearGradient id="linear-gradient-14" x1="0.671" y1="-0.317" x2="0.337" y2="1.602" xlink:href="#linear-gradient-12"/>
    <linearGradient id="linear-gradient-15" x1="0.654" y1="-0.161" x2="0.242" y2="2" xlink:href="#linear-gradient-11"/>
    <linearGradient id="linear-gradient-16" x1="0.327" y1="0.101" x2="1.074" y2="1.924" xlink:href="#linear-gradient-7"/>
    <linearGradient id="linear-gradient-17" x1="-0.681" y1="0.793" x2="1.149" y2="0.389" xlink:href="#linear-gradient-7"/>
  </defs>
  <g id="Group_1404" data-name="Group 1404" transform="translate(-2850.183 -179.065)">
    <path id="Path_5359" data-name="Path 5359" d="M3250.712,493.217c18.085,25.318-2.37,66.888,24.268,85.791,25.93,18.4,57.221-12.537,81.643,3.28,36.228,23.465,30.806,132.636-21.082,200.977-15.6,20.552-28.738,28.623-34.35,51.741-12.05,49.639,32.438,78.623,24.289,103.2-18.35,55.33-308.986,104.655-427.541-59.8-55.37-76.809-64.708-188.464-16.857-273.846C2967.549,450.27,3210.133,436.408,3250.712,493.217Z" transform="translate(0 -229.977)" fill="#f4f7fa"/>
    <g id="Group_1385" data-name="Group 1385" transform="translate(2900.401 353.096)">
      <path id="Path_5360" data-name="Path 5360" d="M3206.974,1359.575c7.336.171,19.686.458,31.247-7.188,21.018-13.9,25.786-45,21.6-67.17-3.6-19.041-16.627-34.941-42.692-66.741-24.547-29.949-34.4-35.714-33.079-48.619,1.883-18.4,23.813-25.295,22.792-47.086-.123-2.615-.543-11.6-6.837-17-10.773-9.255-31.2-1.539-41.915,5.588-10.339,6.874-23.782,21.267-22.433,36.938.978,11.354,8.891,13.734,7.529,23.431-1.37,9.756-9.792,10.289-18.241,24.3-3.375,5.6-10.149,16.83-8.251,29.05,2.455,15.8,17.188,18.946,16.064,31.04-.812,8.738-8.769,9.953-11.725,19.4-3.891,12.442,5.158,25.5,12.834,36.262C3142.906,1324.455,3167.292,1358.651,3206.974,1359.575Z" transform="translate(-3116.365 -1101.52)" fill="#fff"/>
      <path id="Path_5361" data-name="Path 5361" d="M3231.039,1132.333c5.01,7.1-21.927,20.827-26.42,50.23-4.834,31.636,19.262,62.124,30.4,76.213,19,24.038,30.594,24.623,40.164,47.405,3.787,9.017,11.678,27.8,3.133,46.783-.794,1.763-9.938,21.291-28.977,25.184-21.594,4.416-39.5-14.64-54.926-31.06-9.322-9.922-27.944-29.742-21.69-41.809,3.823-7.377,16.063-10.157,24.89-9.039,12.6,1.6,19.973,11.353,21.76,9.712,1.609-1.478-2.825-10.816-10.471-19.32-15.293-17.009-27.8-13.29-38.465-27.82-1.293-1.761-11.335-15.865-6.478-30.04,2.8-8.175,10.63-16.587,17.793-15.858,8.1.824,11.853,12.985,14.155,12.019,2.2-.924.108-12.6-3.646-23.845-5.516-16.517-10.024-18.324-10.842-27.81-1.249-14.472,7.9-25.788,9.241-27.4C3203.2,1130.815,3226.756,1126.261,3231.039,1132.333Z" transform="translate(-3153.909 -1124.406)" fill="#fff" opacity="0.16" style="mix-blend-mode: screen;isolation: isolate"/>
    </g>
    <g id="Group_1386" data-name="Group 1386" transform="translate(2850.183 423.087)">
      <path id="Path_5362" data-name="Path 5362" d="M2966.022,1673.258c5.875-1.852,15.766-4.971,22.88-14.179,12.933-16.742,8.293-42.745-1.04-59.225-8.017-14.155-22.681-23.257-52.008-41.461-27.621-17.145-37.012-19.055-39.459-29.667-3.489-15.128,12.066-26.551,5.349-43.59-.806-2.045-3.574-9.067-10.04-11.657-11.069-4.434-25.2,7.232-31.79,15.8-6.352,8.264-13.134,23.343-7.814,35.429,3.854,8.757,10.786,8.5,12.332,16.577,1.556,8.123-4.992,10.829-7.909,24.25-1.165,5.362-3.5,16.124,1.316,25.319,6.233,11.889,18.792,10.4,21.176,20.31,1.723,7.163-4.271,10.284-4.058,18.6.28,10.941,11.009,18.862,20.025,25.334C2905.6,1662.716,2934.241,1683.278,2966.022,1673.258Z" transform="translate(-2850.183 -1472.506)" fill="#d8dee8"/>
      <path id="Path_5363" data-name="Path 5363" d="M2916.156,1499.247c5.906,4.286-11.778,22.491-7.38,47.071,4.732,26.447,32.14,44.142,44.807,52.319,21.611,13.952,30.982,11.274,44.76,26.783,5.453,6.138,16.813,18.926,15.167,36.323-.153,1.616-2.127,19.611-16.2,27.864-15.961,9.361-35.352-.929-52.06-9.795-10.1-5.357-30.264-16.059-28.564-27.343,1.039-6.9,10.01-12.424,17.327-13.927,10.443-2.146,18.947,3.608,19.921,1.82.878-1.611-5.176-7.828-13.556-12.513-16.761-9.37-25.689-3.026-38.1-11.681-1.5-1.049-13.305-9.534-13.288-22.113.01-7.255,3.951-16.061,9.84-17.423,6.66-1.54,12.937,7.105,14.5,5.714,1.5-1.331-3.33-10.044-9.359-17.958-8.859-11.629-12.93-11.844-16.151-19.159-4.915-11.16-.71-22.632-.082-24.273C2893.626,1505.584,2911.106,1495.582,2916.156,1499.247Z" transform="translate(-2878.811 -1493.587)" fill="#fff" opacity="0.16" style="mix-blend-mode: screen;isolation: isolate"/>
    </g>
    <g id="Group_1399" data-name="Group 1399" transform="translate(2914.425 179.065)">
      <g id="Group_1396" data-name="Group 1396" transform="translate(0 0)">
        <g id="Group_1391" data-name="Group 1391">
          <g id="Group_1390" data-name="Group 1390" clip-path="url(#clip-path)">
            <g id="Group_1389" data-name="Group 1389" transform="translate(73.36 73.523)">
              <path id="Path_5364" data-name="Path 5364" d="M3949.608,753.849a183.666,183.666,0,0,1-33.152,105.388c-.082.123-.376.241-.376.364v.005c-32.72,47.942-88.786,79-151.679,79a109.016,109.016,0,0,1-15.108-.936h0c-.021,0-.031.306-.051.306-2.48-.2-4.939-.3-7.389-.6-.871-.1-1.742-.137-2.608-.26-.769-.1-1.532-.171-2.3-.289-.666-.1-1.327-.18-1.983-.288-.149-.026-.3-.042-.446-.062-1.614-.266-3.223-.543-4.826-.851-.011,0-.016,0-.026,0a185.65,185.65,0,0,1-141.975-236.6c.84-2.716,1.887-5.4,2.583-8.059v-.005c2.089-4.432,3.489-8.782,5.41-13.05.774-1.706,1.629-3.4,2.444-5.083a185.1,185.1,0,0,1,15.7-26.33c.538-.753,1.1-1.5,1.644-2.249q3.29-4.473,6.853-8.736,5.326-6.394,11.2-12.291a185.815,185.815,0,0,1,33.915-26.9q5.726-3.543,11.729-6.671a185.22,185.22,0,0,1,201.755,20.218,186.465,186.465,0,0,1,54.343,71.414c2.675,6.261,4.482,12.7,7.267,19.285v.005c0,.031-.319.051-.309.082A184.754,184.754,0,0,1,3949.608,753.849Z" transform="translate(-3579.547 -568.778)" fill="url(#linear-gradient)"/>
              <g id="Group_1388" data-name="Group 1388" transform="translate(8.148 6.854)" style="mix-blend-mode: soft-light;isolation: isolate">
                <path id="Path_5365" data-name="Path 5365" d="M4479.265,2527.392v-.005h.015l-.01.005Z" transform="translate(-4317.671 -2164.729)" fill="#fff"/>
                <path id="Path_5366" data-name="Path 5366" d="M3839.988,845.723c-3.971,5.595-16.257,12.778-7.921,26.889,8.265,14.075-.573,16.714-6.261,15.4-5.713-1.3-23.471-2.029-20.51,6.041s8.039,11.108,1.532,14.228c-6.5,3.1-9.253,11.216-15.909,22.38-6.609,11.185-22.318,1.512-17.666,12.722s8.264,10.129,7.829,17.943c-.1,2.147,1.322,4.35,3.248,6.446-2.48-.205-4.97-.456-7.44-.759q-1.307-.154-2.608-.338c-.769-.1-1.532-.21-2.3-.328q-1-.146-1.983-.307c-.149-.026-.11-.051-.259-.072-1.588-.266-2.413-.553-4.5-.856V965.1c-1.392-1.322-.52-2.756-.31-4.3,2.075-14.428-17.832-24.343-21.167-34.451-3.279-10.083-.042-16.1-.8-24.455-.779-8.341,1.949-19.4-2.852-26.433-4.8-7-24.154-9.351-27.838-23.487-3.709-14.105,4.918-35.23,8.269-38.827,3.31-3.6-16.025-19.962-25.227-20.484-9.243-.563-5.545-19.173-21.173-16.339-15.657,2.746-43.787-5.99-37.977-15.386,4.8-7.742,12.845-24.819-13.434-32.433.84-2.715,1.881-5.4,2.577-8.059v-.005c2.089-4.432,3.488-8.782,5.41-13.05.773-1.706,1.629-3.4,2.444-5.083a186.1,186.1,0,0,1,15.7-26.33c.538-.753,1.1-1.5,1.644-2.249q3.3-4.473,6.853-8.736,5.326-6.394,11.2-12.291a185.828,185.828,0,0,1,33.916-26.9c5.206,3.648,11.15,5.9,16.284,3.125,12.589-7.045,4.289-8.126-.865-8.387a6.645,6.645,0,0,1-3.689-1.409,183.22,183.22,0,0,1,30.445-12.558c-.784,7.106-10.442,18.522-3.335,17.128,8.27-1.573,11.646-23.917,17.718-16.493,6.159,7.455-6.738,17.226,5.375,11.564,12.127-5.605,13.747-18.117,27.263-12.03,13.583,6.164,12.343,13.46,16.135,12.737,3.776-.712,15.991,7.5,8.6,14.249-7.455,6.773-14.29-1.855-25.465-4.458-11.18-2.572-10.908,6.574-16.052,8.664-5.231,2.018-30.466-10.176-36.66.845-6.261,10.934-8.926,18.563.369,18.281,9.284-.261,9.884-2.664,9.156,4.2-.743,6.871.948,12.015,9.361,5.554,8.388-6.451,6.507-12.742,13.065-9.668s7.337.292,14.315-4.775,16.15-5.595,18.553,5.774-1.706,13.926-13.972,14.5c-12.271.594-13.66-3.274-17.569,6.983-3.889,10.263-20.12,23.441-34.369,28.872-14.223,5.441-19.8,13.48-19.47,24.327.338,10.867-5.011,22.329-8.582,13.373-3.587-8.982-13.639-24.107-23.9-14-10.278,10.13-28.165,28.036-8.4,31.311,19.726,3.335,9.433-15.146,19.4-11.451,9.955,3.72-6.308,11.866.348,14.807,6.666,2.966,9.458,1.578,9.407,10.662s2.208,17.9,10.3,14.044c8.085-3.837,18.471-21.637,30.168-11.108,11.712,10.555,10.883,9.182,17.026,6.107s10.048,6.133,12.563,10.324,12.384-.087,20.382,12.384,11.129,14.695,20.244,10.206,12.83-1.153,15.207,5.144,7.983.144,10.688,8.464C3845.224,841.413,3843.933,840.122,3839.988,845.723Z" transform="translate(-3622.736 -605.11)" fill="#fff"/>
                <g id="Group_1387" data-name="Group 1387" transform="translate(238.297 34.237)">
                  <path id="Path_5367" data-name="Path 5367" d="M4936.044,841.869c-6.461-13.865,25.551-12.307,31.208-11.241,5.692.948,19.044-9.489,20.741-14.341,1.742-4.888,4.6-2.567,14.73-2.705,10.125-.108,1.178-2.4-9.966-6.071-11.124-3.663-1.614-4.032-11.866-12.128-4.411-3.546-3.023-6.558-.082-8.8A185.647,185.647,0,0,1,5034.818,858a3.511,3.511,0,0,0-.953-.164c-7.091-.041-8.654-15.719-12.307-18.773-3.6-3.049.1,8.613.984,13.4s-1.942.763-5.477,5.165c-3.551,4.406-9.961,4.488-10.54-2.121-.589-6.594-5.236-13.07-14.669-16.083s-17.595-.538-25.26,2.418C4958.973,844.749,4942.551,855.626,4936.044,841.869Z" transform="translate(-4925.876 -786.585)" fill="#fff"/>
                  <path id="Path_5368" data-name="Path 5368" d="M4976.37,1344.235c.641-4.76,1.686-9.678-.3-11.477-4.832-4.483-5.888-16.7-4.212-22.887s14.689-5.851,5.856-16.155c-8.859-10.334-16.842-22.6-13.122-29.615s2.593-7.516-4.381-7.475-10.042.348-16.994-5.861c-6.959-6.292-16.53,14.848-42.717-2.106-26.182-17.123-11.271-45.984-1.46-46.056,9.873-.164,21.406-5.149,13.316-17.19-8.064-12.087,4.539-13.793,10.7-11.047,6.169,2.715,17.107-4.581,28.257-7.87,11.175-3.274,10.683,14.93,16.887,18.573,6.241,3.648,17.934.753,24.01-5.077,4.34-4.161,5.288.692,9.577,5.3a185.461,185.461,0,0,1-25.414,158.946Z" transform="translate(-4885.833 -1094.504)" fill="#fff"/>
                  <path id="Path_5369" data-name="Path 5369" d="M5087.477,832.049c.006-.011,8.165-3.694,5.208-9.628-2.931-5.935-7.578-24.126-10.974-18.394-3.417,5.758,1.621,16.939.521,21.763S5081.092,833.161,5087.477,832.049Z" transform="translate(-5043.777 -799.841)" fill="#fff"/>
                  <path id="Path_5370" data-name="Path 5370" d="M5029.948,887.268c-.116-1.912,1.088-9.679-5.023-9.435.012-.012-8.839,3.681-3.662,9.956C5026.465,894.045,5030.081,889.175,5029.948,887.268Z" transform="translate(-4994.395 -860.613)" fill="#fff"/>
                </g>
              </g>
            </g>
            <path id="Path_5371" data-name="Path 5371" d="M3951.65,755.548a183.466,183.466,0,0,1-32.906,105.388.655.655,0,0,0-.13.364v.005a184.47,184.47,0,0,1-151.925,78.856,112.636,112.636,0,0,1-15.353-1.088h-.005c-.021,0-.031.458-.052.458-2.48-.205-4.939-.23-7.388-.532-.871-.1-1.742-.1-2.608-.222-.769-.1-1.532-.152-2.3-.27-.666-.1-1.327-.168-1.983-.276-.149-.026-.3-.038-.446-.059-1.614-.266-3.223-.542-4.826-.849l-.026,0a185.222,185.222,0,0,1-149.037-161.713c18.543,53.189,64.394,93.153,120.765,104.291h.02c1.383.7,2.772.556,4.165.786.128.015.261.06.39.081.563.092,1.137.186,1.711.268.656.1,1.317.185,1.983.272.748.108,1.5.172,2.25.259,2.116.261,4.237.743,6.379.917.021,0,.031.2.046.2h.005c4.35,0,8.685.349,13.127.349a159.553,159.553,0,0,0,131.063-68.6c0-.108.174-.252.24-.359a159.8,159.8,0,0,0,21.84-136.971c-.005-.026-.064-.056-.064-.082v-.005a109.241,109.241,0,0,0-5.941-16.652,160.061,160.061,0,0,0-96.765-89.09,184.155,184.155,0,0,1,99.082,40.3,186.221,186.221,0,0,1,54.241,71.413c2.674,6.261,4.38,12.7,7.165,19.285v.005c0,.031-.216.051-.207.082A184.785,184.785,0,0,1,3951.65,755.548Z" transform="translate(-3508.722 -497.277)" opacity="0.3" fill="url(#linear-gradient-2)" style="mix-blend-mode: multiply;isolation: isolate"/>
          </g>
        </g>
        <g id="Group_1395" data-name="Group 1395" transform="translate(110.329 185.471)">
          <g id="Group_1392" data-name="Group 1392" transform="translate(8.208 8.373)">
            <path id="Path_5372" data-name="Path 5372" d="M3909.406,1311.844h-.035a1.057,1.057,0,0,1-.958-1.11c1.067-31.058-6.907-55.868-23.7-73.657-25.925-27.461-64.35-28.683-64.735-28.692a.923.923,0,1,1,.023-1.842h.024c.393,0,39.646,1.153,66.133,29.211,17.172,18.19,25.329,43.481,24.242,75.089A1.029,1.029,0,0,1,3909.406,1311.844Z" transform="translate(-3819.006 -1206.544)" fill="#fff"/>
          </g>
          <g id="Group_1393" data-name="Group 1393" transform="translate(95.13 111.323)">
            <path id="Path_5373" data-name="Path 5373" d="M4338.186,1790.179a.993.993,0,0,1-.974-.806c-2.525-13.153-8.461-22.776-17.643-28.6-16.567-10.514-38.369-5.115-38.587-5.059a.993.993,0,1,1-.493-1.925c.923-.237,22.829-5.673,40.132,5.3,9.669,6.131,15.907,16.2,18.541,29.914a.993.993,0,0,1-.788,1.163A1.022,1.022,0,0,1,4338.186,1790.179Z" transform="translate(-4279.742 -1752.231)" fill="#fff"/>
          </g>
          <g id="Group_1394" data-name="Group 1394" transform="translate(154.47 46.619)">
            <path id="Path_5374" data-name="Path 5374" d="M4595.328,1514.027a.994.994,0,0,1-.991-.932,124.849,124.849,0,0,1,8.594-48.53c5.848-14.437,14.393-26.318,25.4-35.312,13.746-11.237,31.367-17.959,52.375-19.98a.993.993,0,0,1,.19,1.978c-37.437,3.6-63.046,21.79-76.118,54.061a122.575,122.575,0,0,0-8.453,47.662.993.993,0,0,1-.931,1.052Z" transform="translate(-4594.271 -1409.268)" fill="#fff"/>
          </g>
          <circle id="Ellipse_253" data-name="Ellipse 253" cx="8.775" cy="8.775" r="8.775" transform="translate(87.142 107.766) rotate(-22.5)" fill="url(#linear-gradient-3)"/>
          <circle id="Ellipse_254" data-name="Ellipse 254" cx="8.775" cy="8.775" r="8.775" transform="translate(141.166 148.278) rotate(-45)" fill="url(#linear-gradient-4)"/>
          <circle id="Ellipse_255" data-name="Ellipse 255" cx="8.775" cy="8.775" r="8.775" transform="translate(229.81 52.989) rotate(-70.67)" fill="url(#linear-gradient-5)"/>
          <circle id="Ellipse_256" data-name="Ellipse 256" cx="8.775" cy="8.775" r="8.775" transform="translate(0 0.874) rotate(-2.855)" fill="url(#linear-gradient-6)"/>
        </g>
      </g>
      <g id="Group_1398" data-name="Group 1398" transform="translate(44.905 64.957)">
        <path id="Path_5375" data-name="Path 5375" d="M3712.559,534.538a35.154,35.154,0,0,0-25.7-11.167H3681.2a4.706,4.706,0,0,0-4.229,6.77l27.369,56.08h56.451Z" transform="translate(-3629.748 -523.371)" fill="url(#linear-gradient-7)"/>
        <path id="Path_5376" data-name="Path 5376" d="M3620.1,668.952h0a41.9,41.9,0,0,0-37.461-23.137H3476.817a19.118,19.118,0,0,1-16.862-10.108L3448.6,614.464a8.314,8.314,0,0,0-7.332-4.4h-11.2a1.349,1.349,0,0,0-1.21,1.946l26.226,53.192a21.878,21.878,0,0,0,19.623,12.2h140.163A5.842,5.842,0,0,0,3620.1,668.952Z" transform="translate(-3428.723 -593.712)" fill="url(#linear-gradient-8)"/>
        <path id="Path_5377" data-name="Path 5377" d="M3754.254,875.2H3712.94a5.174,5.174,0,0,0-4.65,2.9l-24.49,50.182a6.787,6.787,0,0,0,6.1,9.763h2.325a35.152,35.152,0,0,0,25.7-11.168l40.113-42.978A5.174,5.174,0,0,0,3754.254,875.2Z" transform="translate(-3635.113 -808.824)" fill="url(#linear-gradient-9)"/>
        <g id="Group_1397" data-name="Group 1397" transform="translate(146.984 52.104)">
          <path id="Path_5378" data-name="Path 5378" d="M4223.527,817.023h25.256a41.894,41.894,0,0,0-34.035-17.475h-6.932l7.01,12.4A10,10,0,0,0,4223.527,817.023Z" transform="translate(-4207.817 -799.548)" fill="url(#linear-gradient-10)"/>
        </g>
      </g>
      <path id="Path_5379" data-name="Path 5379" d="M3573.537,1269.08a174.7,174.7,0,0,1-144.844-272.35,6.047,6.047,0,0,1,10.022,6.771,161.758,161.758,0,0,0-27.764,90.9c0,89.65,72.936,162.586,162.586,162.586a162.885,162.885,0,0,0,120.884-53.858,6.048,6.048,0,0,1,8.99,8.091,174.259,174.259,0,0,1-129.874,57.861Z" transform="translate(-3359.585 -840.308)" fill="#d8dee8"/>
    </g>
    <g id="Group_1403" data-name="Group 1403" transform="translate(2880.633 354.812)">
      <g id="Group_1401" data-name="Group 1401">
        <path id="Path_5380" data-name="Path 5380" d="M3241.4,2110.4c-127.029.979-223.523-.1-229.586-54.219-3.5-31.219,33.111-111.36,55.266-136.9,35.025-40.378,91.25-42.361,168.173-44.5,72.336-2.016,116.913-3.258,152.111,27.918,32.905,29.145,68.532,142.432,48.04,170.433C3416.392,2099.106,3362.685,2109.463,3241.4,2110.4Z" transform="translate(-3011.583 -1729.888)" fill="url(#linear-gradient-11)"/>
        <path id="Path_5381" data-name="Path 5381" d="M3890.364,1852.7l-14.87,3.808a5.517,5.517,0,0,0-3.277,8.324c10.126,15.787,36.945,55.429,53.739,60.092,17.362,4.821,49.8-45.411,60.589-63.089a5.517,5.517,0,0,0-3.039-8.131l-10.908-3.473a71.99,71.99,0,0,0-27.652-3.157l-40.66,3.295A83.2,83.2,0,0,0,3890.364,1852.7Z" transform="translate(-3709.137 -1707.939)" fill="url(#linear-gradient-12)"/>
        <path id="Path_5382" data-name="Path 5382" d="M4017.234,1571.792s8.174,58.8-3.129,64.418l32.174,35.058,32.591-41.53s-12.32-9.279-9.075-57.946Z" transform="translate(-3824.969 -1484.786)" fill="#fff"/>
        <g id="Group_1400" data-name="Group 1400" transform="translate(178.916 43.003)">
          <path id="Path_5383" data-name="Path 5383" d="M3977.457,1394.619s14.149,26.269,45.131,25.909c27.739-.323,35.1-62.1,18.145-76.2-5.657-4.7-17.356-7.156-27.092-4.981-5.75,1.286-7.795,3.538-17.232,5.453-8.706,1.77-19.013-.907-21.721,1.134-3.387,2.557,1.815,10.713,6.261,29.125-4.99-5.62-11.21-8.009-15.81-6.131a9.479,9.479,0,0,0-3.873,3.391C3957.023,1379.2,3963.008,1388.586,3977.457,1394.619Z" transform="translate(-3959.929 -1338.55)" fill="#fff"/>
          <path id="Path_5384" data-name="Path 5384" d="M3991.473,1365.413c1.28,1.065-3.06,5.82-3.74,12.844-1.322,13.633,11.634,30.774,25.67,32.919,8.3,1.266,10.859-3.638,24.727-4.359a63.275,63.275,0,0,1,20.055,2.236c3.533,15.217-1.342,29.941-11.729,36.339-11.183,6.888-24.718,1.625-30.377-.577-3.785-1.473-15.916-6.164-21.765-17.832-6.093-12.158.885-18.918-6.4-27.31-3.676-4.233-8.692-6.249-13.252-14.308a38.49,38.49,0,0,1-2.523-5.4C3979.672,1372.789,3989.619,1363.87,3991.473,1365.413Z" transform="translate(-3969.833 -1360.202)" fill="url(#linear-gradient-13)"/>
          <path id="Path_5385" data-name="Path 5385" d="M4297.912,1623.788s-6.137,2.8-16.422,1.67c-.5-.056-1.062.062-1.139.318-.289.966,6.1,5.708,12.285,4.321,4.4-.988,7.982-4.907,7.456-5.981C4299.868,1623.663,4298.885,1623.669,4297.912,1623.788Z" transform="translate(-4219.892 -1569.919)" fill="#fff"/>
        </g>
        <path id="Path_5386" data-name="Path 5386" d="M3941.044,1166.57s1.3,12.133,7.353,8.837c22.309-12.143,66.307-24.184,79.3-11.215,0,0,7.01-57.318-48.018-53.385-22.785,1.629-33.934,13.066-39.307,25.145C3933.813,1150.687,3941.044,1166.57,3941.044,1166.57Z" transform="translate(-3762.913 -1110.614)" fill="url(#linear-gradient-14)"/>
        <path id="Path_5387" data-name="Path 5387" d="M4056.423,1312.583c-1.393.387,19.611-16.123,19.611-16.123s20.322-14.527,57.438-7.412c18.521,3.55-9.689,18.323-9.689,18.323S4118.628,1295.31,4056.423,1312.583Z" transform="translate(-3859.249 -1253.792)" fill="url(#linear-gradient-15)"/>
      </g>
      <g id="Group_1402" data-name="Group 1402" transform="translate(75.887 186.482)">
        <path id="Path_5388" data-name="Path 5388" d="M4030.114,2302.744l-212.459,10.274V2099.066l212.459,10.274Z" transform="translate(-3741.468 -2099.066)" fill="url(#linear-gradient-16)"/>
        <path id="Path_5389" data-name="Path 5389" d="M3490.013,2313.018l-76.187-14.641V2112.724l76.187-13.658Z" transform="translate(-3413.826 -2099.066)" fill="url(#linear-gradient-17)"/>
        <path id="Path_5390" data-name="Path 5390" d="M4178.645,2118.345v33.45l56.874,2.485v-32.493Z" transform="translate(-4034.354 -2114.708)" fill="#fff" style="mix-blend-mode: soft-light;isolation: isolate"/>
        <path id="Path_5391" data-name="Path 5391" d="M3500.233,2131.369l31.912-5.721v32.944l-31.912,3.463Z" transform="translate(-3483.932 -2120.633)" fill="#fff" style="mix-blend-mode: soft-light;isolation: isolate"/>
      </g>
      <path id="Path_5392" data-name="Path 5392" d="M3389.126,2493.934s-.244-34.855,10.294-44.582,23.127-8.106,26.154-8.917-9.5,12.564-11.563,29.586S3399.907,2490.692,3389.126,2493.934Z" transform="translate(-3317.898 -2189.522)" fill="#fff"/>
      <path id="Path_5393" data-name="Path 5393" d="M4803.822,2684.994s-11.013-22.034-27.957-27.325-10.167.424,0,13.663,10.166,32.724,19.485,35.266S4808.471,2698.549,4803.822,2684.994Z" transform="translate(-4434.641 -2364.211)" fill="#fff"/>
    </g>
  </g>
</svg>
