<svg xmlns="http://www.w3.org/2000/svg" width="437.227" height="165.731" viewBox="0 0 437.227 165.731">
  <g id="Group_3234" data-name="Group 3234" transform="translate(-22.87 -217.756)">
    <rect id="Rectangle_220" data-name="Rectangle 220" width="53.488" height="23.555" transform="translate(101.601 316.201)" fill="#bcbcbc"/>
    <rect id="Rectangle_221" data-name="Rectangle 221" width="53.488" height="23.555" transform="translate(101.601 282.048)" fill="#bcbcbc"/>
    <rect id="Rectangle_222" data-name="Rectangle 222" width="53.488" height="10.599" transform="translate(101.601 305.603)" fill="#424242"/>
    <rect id="Rectangle_223" data-name="Rectangle 223" width="34.774" height="20.535" transform="translate(101.601 261.514)" fill="#424242"/>
    <rect id="Rectangle_224" data-name="Rectangle 224" width="24.191" height="14.114" transform="translate(101.601 247.4)" fill="#bcbcbc"/>
    <path id="Path_2355" data-name="Path 2355" d="M59.205,217.756H55.811V247.4H64.2Z" transform="translate(45.789 0)" fill="#bcbcbc"/>
    <rect id="Rectangle_225" data-name="Rectangle 225" width="4.626" height="8.493" transform="translate(116.096 238.907)" fill="#bcbcbc"/>
    <path id="Path_2356" data-name="Path 2356" d="M74.645,228.3a7.462,7.462,0,1,1-7.462-7.462A7.46,7.46,0,0,1,74.645,228.3Z" transform="translate(51.225 4.281)" fill="#bcbcbc"/>
    <path id="Path_2357" data-name="Path 2357" d="M413.625,258.946a33.342,33.342,0,0,0-27.574,14.6l-6.1,8.96H87.73L72.7,258.946H22.87l3.776,19.3c0,14.443,7.141,27.418,17.923,36.233a51.508,51.508,0,0,0,32.385,11.756H395.939a14.49,14.49,0,0,0,11.486-5.655l4.7-6.1L443.1,274.237a32.149,32.149,0,0,1,4.8-5.021l12.194-10.27Z" transform="translate(0 57.255)" fill="#556270"/>
    <path id="Path_2358" data-name="Path 2358" d="M155.743,317.339h55.5a14.49,14.49,0,0,0,11.486-5.655l4.7-6.1L258.4,265.344s-20.243,23.2-44.251,35.85S155.743,317.339,155.743,317.339Z" transform="translate(184.695 66.148)" fill="#40484f"/>
    <path id="Path_2359" data-name="Path 2359" d="M64.334,293.936H383.319a14.49,14.49,0,0,0,11.486-5.655l4.7-6.1H31.949A51.508,51.508,0,0,0,64.334,293.936Z" transform="translate(12.62 89.55)" fill="#fecea8"/>
    <path id="Path_2360" data-name="Path 2360" d="M66.5,265.087H61.876l6.161-10.559h4.626Z" transform="translate(54.22 51.114)" fill="#fff"/>
    <path id="Path_2361" data-name="Path 2361" d="M70.149,265.087H67l6.16-10.559h3.147Z" transform="translate(61.343 51.114)" fill="#fff"/>
    <g id="Group_169" data-name="Group 169" transform="translate(157.864 311.188)">
      <rect id="Rectangle_226" data-name="Rectangle 226" width="23.557" height="28.568" fill="#ff847c"/>
      <rect id="Rectangle_227" data-name="Rectangle 227" width="3.809" height="25.616" transform="translate(2.069 1.477)" fill="#c44d58"/>
      <rect id="Rectangle_228" data-name="Rectangle 228" width="3.811" height="25.616" transform="translate(9.873 1.477)" fill="#c44d58"/>
      <rect id="Rectangle_229" data-name="Rectangle 229" width="3.812" height="25.616" transform="translate(17.678 1.477)" fill="#c44d58"/>
    </g>
    <rect id="Rectangle_230" data-name="Rectangle 230" width="23.555" height="28.568" transform="translate(181.421 311.188)" fill="#036564"/>
    <g id="Group_170" data-name="Group 170" transform="translate(183.489 312.665)">
      <rect id="Rectangle_231" data-name="Rectangle 231" width="3.809" height="25.616" fill="#024240"/>
      <rect id="Rectangle_232" data-name="Rectangle 232" width="3.809" height="25.616" transform="translate(7.805)" fill="#024240"/>
      <rect id="Rectangle_233" data-name="Rectangle 233" width="3.809" height="25.616" transform="translate(15.61)" fill="#024240"/>
    </g>
    <rect id="Rectangle_234" data-name="Rectangle 234" width="23.557" height="28.568" transform="translate(157.864 282.62)" fill="#4ecdc4"/>
    <g id="Group_171" data-name="Group 171" transform="translate(159.933 284.095)">
      <rect id="Rectangle_235" data-name="Rectangle 235" width="3.809" height="25.616" fill="#31a398"/>
      <rect id="Rectangle_236" data-name="Rectangle 236" width="3.811" height="25.616" transform="translate(7.804)" fill="#31a398"/>
      <rect id="Rectangle_237" data-name="Rectangle 237" width="3.812" height="25.616" transform="translate(15.608)" fill="#31a398"/>
    </g>
    <rect id="Rectangle_238" data-name="Rectangle 238" width="23.555" height="28.568" transform="translate(181.421 282.62)" fill="#565656"/>
    <g id="Group_172" data-name="Group 172" transform="translate(183.489 284.095)">
      <rect id="Rectangle_239" data-name="Rectangle 239" width="3.809" height="25.616" fill="#424242"/>
      <rect id="Rectangle_240" data-name="Rectangle 240" width="3.809" height="25.616" transform="translate(7.805)" fill="#424242"/>
      <rect id="Rectangle_241" data-name="Rectangle 241" width="3.809" height="25.616" transform="translate(15.61)" fill="#424242"/>
    </g>
    <rect id="Rectangle_242" data-name="Rectangle 242" width="23.559" height="28.568" transform="translate(204.976 311.188)" fill="#ff847c"/>
    <g id="Group_173" data-name="Group 173" transform="translate(207.046 312.665)">
      <rect id="Rectangle_243" data-name="Rectangle 243" width="3.809" height="25.616" fill="#c44d58"/>
      <rect id="Rectangle_244" data-name="Rectangle 244" width="3.809" height="25.616" transform="translate(7.805)" fill="#c44d58"/>
      <rect id="Rectangle_245" data-name="Rectangle 245" width="3.809" height="25.616" transform="translate(15.61)" fill="#c44d58"/>
    </g>
    <rect id="Rectangle_246" data-name="Rectangle 246" width="23.559" height="28.568" transform="translate(204.976 282.62)" fill="#f8ca00"/>
    <g id="Group_174" data-name="Group 174" transform="translate(207.046 284.095)">
      <rect id="Rectangle_247" data-name="Rectangle 247" width="3.809" height="25.616" fill="#e97f02"/>
      <rect id="Rectangle_248" data-name="Rectangle 248" width="3.809" height="25.616" transform="translate(7.805)" fill="#e97f02"/>
      <rect id="Rectangle_249" data-name="Rectangle 249" width="3.809" height="25.616" transform="translate(15.61)" fill="#e97f02"/>
    </g>
    <rect id="Rectangle_250" data-name="Rectangle 250" width="23.555" height="28.568" transform="translate(228.535 311.188)" fill="#67809f"/>
    <g id="Group_175" data-name="Group 175" transform="translate(230.603 312.665)">
      <rect id="Rectangle_251" data-name="Rectangle 251" width="3.809" height="25.616" fill="#34495e"/>
      <rect id="Rectangle_252" data-name="Rectangle 252" width="3.809" height="25.616" transform="translate(7.805)" fill="#34495e"/>
      <rect id="Rectangle_253" data-name="Rectangle 253" width="3.809" height="25.616" transform="translate(15.61)" fill="#34495e"/>
    </g>
    <rect id="Rectangle_254" data-name="Rectangle 254" width="23.555" height="28.568" transform="translate(228.535 282.62)" fill="#89695e"/>
    <g id="Group_176" data-name="Group 176" transform="translate(230.603 284.095)">
      <rect id="Rectangle_255" data-name="Rectangle 255" width="3.809" height="25.616" fill="#795547"/>
      <rect id="Rectangle_256" data-name="Rectangle 256" width="3.809" height="25.616" transform="translate(7.805)" fill="#795547"/>
      <rect id="Rectangle_257" data-name="Rectangle 257" width="3.809" height="25.616" transform="translate(15.61)" fill="#795547"/>
    </g>
    <rect id="Rectangle_258" data-name="Rectangle 258" width="23.557" height="28.568" transform="translate(252.09 311.188)" fill="#f8ca00"/>
    <g id="Group_177" data-name="Group 177" transform="translate(254.158 312.665)">
      <rect id="Rectangle_259" data-name="Rectangle 259" width="3.811" height="25.616" fill="#e97f02"/>
      <rect id="Rectangle_260" data-name="Rectangle 260" width="3.809" height="25.616" transform="translate(7.805)" fill="#e97f02"/>
      <rect id="Rectangle_261" data-name="Rectangle 261" width="3.809" height="25.616" transform="translate(15.61)" fill="#e97f02"/>
    </g>
    <rect id="Rectangle_262" data-name="Rectangle 262" width="23.557" height="28.568" transform="translate(252.09 282.62)" fill="#036564"/>
    <g id="Group_178" data-name="Group 178" transform="translate(254.158 284.095)">
      <rect id="Rectangle_263" data-name="Rectangle 263" width="3.811" height="25.616" fill="#024240"/>
      <rect id="Rectangle_264" data-name="Rectangle 264" width="3.809" height="25.616" transform="translate(7.805)" fill="#024240"/>
      <rect id="Rectangle_265" data-name="Rectangle 265" width="3.809" height="25.616" transform="translate(15.61)" fill="#024240"/>
    </g>
    <rect id="Rectangle_266" data-name="Rectangle 266" width="23.557" height="28.568" transform="translate(275.647 311.188)" fill="#ff847c"/>
    <g id="Group_179" data-name="Group 179" transform="translate(277.717 312.665)">
      <rect id="Rectangle_267" data-name="Rectangle 267" width="3.809" height="25.616" fill="#c44d58"/>
      <rect id="Rectangle_268" data-name="Rectangle 268" width="3.809" height="25.616" transform="translate(7.805)" fill="#c44d58"/>
      <rect id="Rectangle_269" data-name="Rectangle 269" width="3.809" height="25.616" transform="translate(15.61)" fill="#c44d58"/>
    </g>
    <rect id="Rectangle_270" data-name="Rectangle 270" width="23.557" height="28.568" transform="translate(275.647 282.62)" fill="#4ecdc4"/>
    <g id="Group_180" data-name="Group 180" transform="translate(277.717 284.095)">
      <rect id="Rectangle_271" data-name="Rectangle 271" width="3.809" height="25.616" fill="#31a398"/>
      <rect id="Rectangle_272" data-name="Rectangle 272" width="3.809" height="25.616" transform="translate(7.805)" fill="#31a398"/>
      <rect id="Rectangle_273" data-name="Rectangle 273" width="3.809" height="25.616" transform="translate(15.61)" fill="#31a398"/>
    </g>
    <rect id="Rectangle_274" data-name="Rectangle 274" width="23.555" height="28.568" transform="translate(299.204 311.188)" fill="#565656"/>
    <g id="Group_181" data-name="Group 181" transform="translate(301.272 312.665)">
      <rect id="Rectangle_275" data-name="Rectangle 275" width="3.809" height="25.616" fill="#424242"/>
      <rect id="Rectangle_276" data-name="Rectangle 276" width="3.809" height="25.616" transform="translate(7.805)" fill="#424242"/>
      <rect id="Rectangle_277" data-name="Rectangle 277" width="3.809" height="25.616" transform="translate(15.61)" fill="#424242"/>
    </g>
    <rect id="Rectangle_278" data-name="Rectangle 278" width="23.555" height="28.568" transform="translate(299.204 282.62)" fill="#4ecdc4"/>
    <g id="Group_182" data-name="Group 182" transform="translate(301.272 284.095)">
      <rect id="Rectangle_279" data-name="Rectangle 279" width="3.809" height="25.616" fill="#31a398"/>
      <rect id="Rectangle_280" data-name="Rectangle 280" width="3.809" height="25.616" transform="translate(7.805)" fill="#31a398"/>
      <rect id="Rectangle_281" data-name="Rectangle 281" width="3.809" height="25.616" transform="translate(15.61)" fill="#31a398"/>
    </g>
    <rect id="Rectangle_282" data-name="Rectangle 282" width="23.559" height="28.568" transform="translate(322.758 311.188)" fill="#67809f"/>
    <g id="Group_183" data-name="Group 183" transform="translate(324.829 312.665)">
      <rect id="Rectangle_283" data-name="Rectangle 283" width="3.811" height="25.616" fill="#34495e"/>
      <rect id="Rectangle_284" data-name="Rectangle 284" width="3.812" height="25.616" transform="translate(7.805)" fill="#34495e"/>
      <rect id="Rectangle_285" data-name="Rectangle 285" width="3.809" height="25.616" transform="translate(15.61)" fill="#34495e"/>
    </g>
    <rect id="Rectangle_286" data-name="Rectangle 286" width="23.559" height="28.568" transform="translate(322.758 282.62)" fill="#89695e"/>
    <g id="Group_184" data-name="Group 184" transform="translate(324.829 284.095)">
      <rect id="Rectangle_287" data-name="Rectangle 287" width="3.811" height="25.616" fill="#795547"/>
      <rect id="Rectangle_288" data-name="Rectangle 288" width="3.812" height="25.616" transform="translate(7.805)" fill="#795547"/>
      <rect id="Rectangle_289" data-name="Rectangle 289" width="3.809" height="25.616" transform="translate(15.61)" fill="#795547"/>
    </g>
    <rect id="Rectangle_290" data-name="Rectangle 290" width="23.555" height="28.568" transform="translate(346.318 311.188)" fill="#4ecdc4"/>
    <g id="Group_185" data-name="Group 185" transform="translate(348.386 312.665)">
      <rect id="Rectangle_291" data-name="Rectangle 291" width="3.809" height="25.616" fill="#31a398"/>
      <rect id="Rectangle_292" data-name="Rectangle 292" width="3.809" height="25.616" transform="translate(7.805)" fill="#31a398"/>
      <rect id="Rectangle_293" data-name="Rectangle 293" width="3.809" height="25.616" transform="translate(15.61)" fill="#31a398"/>
    </g>
    <rect id="Rectangle_294" data-name="Rectangle 294" width="23.555" height="28.568" transform="translate(346.318 282.62)" fill="#f9bf3b"/>
    <g id="Group_186" data-name="Group 186" transform="translate(348.386 284.095)">
      <rect id="Rectangle_295" data-name="Rectangle 295" width="3.809" height="25.616" fill="#f27935"/>
      <rect id="Rectangle_296" data-name="Rectangle 296" width="3.809" height="25.616" transform="translate(7.805)" fill="#f27935"/>
      <rect id="Rectangle_297" data-name="Rectangle 297" width="3.809" height="25.616" transform="translate(15.61)" fill="#f27935"/>
    </g>
    <path id="Path_2362" data-name="Path 2362" d="M379.806,282.5H87.747L72.711,259.042v-.1H22.87l.579,2.957H71.033L86.028,285.3v.161h.1l.117.18.283-.18H379.806Z" transform="translate(0 57.255)" fill="#647584"/>
    <path id="Path_2363" data-name="Path 2363" d="M191.824,274.777a5.017,5.017,0,1,1-5.014-5.014A5.016,5.016,0,0,1,191.824,274.777Z" transform="translate(220.902 72.291)" fill="#647584"/>
    <rect id="Rectangle_298" data-name="Rectangle 298" width="5.18" height="2.675" transform="translate(103.521 284.095)" fill="#424242"/>
    <rect id="Rectangle_299" data-name="Rectangle 299" width="5.179" height="2.675" transform="translate(111.695 284.095)" fill="#424242"/>
    <rect id="Rectangle_300" data-name="Rectangle 300" width="5.18" height="2.675" transform="translate(119.866 284.095)" fill="#424242"/>
    <rect id="Rectangle_301" data-name="Rectangle 301" width="5.18" height="2.675" transform="translate(103.521 289.409)" fill="#424242"/>
    <rect id="Rectangle_302" data-name="Rectangle 302" width="5.179" height="2.675" transform="translate(111.695 289.409)" fill="#424242"/>
    <rect id="Rectangle_303" data-name="Rectangle 303" width="5.18" height="2.675" transform="translate(119.866 289.409)" fill="#424242"/>
    <rect id="Rectangle_304" data-name="Rectangle 304" width="5.18" height="2.675" transform="translate(103.521 294.724)" fill="#424242"/>
    <rect id="Rectangle_305" data-name="Rectangle 305" width="5.179" height="2.675" transform="translate(111.695 294.724)" fill="#424242"/>
    <rect id="Rectangle_306" data-name="Rectangle 306" width="5.18" height="2.675" transform="translate(119.866 294.724)" fill="#424242"/>
    <rect id="Rectangle_307" data-name="Rectangle 307" width="5.18" height="2.672" transform="translate(103.521 300.041)" fill="#424242"/>
    <rect id="Rectangle_308" data-name="Rectangle 308" width="5.179" height="2.672" transform="translate(111.695 300.041)" fill="#424242"/>
    <rect id="Rectangle_309" data-name="Rectangle 309" width="5.18" height="2.672" transform="translate(119.866 300.041)" fill="#424242"/>
    <rect id="Rectangle_310" data-name="Rectangle 310" width="5.179" height="2.675" transform="translate(128.04 284.095)" fill="#424242"/>
    <rect id="Rectangle_311" data-name="Rectangle 311" width="5.179" height="2.675" transform="translate(136.213 284.095)" fill="#424242"/>
    <rect id="Rectangle_312" data-name="Rectangle 312" width="5.18" height="2.675" transform="translate(144.385 284.095)" fill="#424242"/>
    <path id="Path_2364" data-name="Path 2364" d="M63.518,263.415a3.33,3.33,0,1,1-3.329-3.334A3.33,3.33,0,0,1,63.518,263.415Z" transform="translate(47.242 58.832)" fill="#424242"/>
    <path id="Path_2365" data-name="Path 2365" d="M67.78,263.415a3.33,3.33,0,1,1-3.332-3.334A3.331,3.331,0,0,1,67.78,263.415Z" transform="translate(53.167 58.832)" fill="#424242"/>
    <path id="Path_2366" data-name="Path 2366" d="M72.041,263.415a3.33,3.33,0,1,1-3.329-3.334A3.33,3.33,0,0,1,72.041,263.415Z" transform="translate(59.089 58.832)" fill="#424242"/>
    <path id="Path_2367" data-name="Path 2367" d="M76.3,263.415a3.33,3.33,0,1,1-3.329-3.334A3.33,3.33,0,0,1,76.3,263.415Z" transform="translate(65.014 58.832)" fill="#424242"/>
    <path id="Path_2368" data-name="Path 2368" d="M80.564,263.415a3.33,3.33,0,1,1-3.329-3.334A3.329,3.329,0,0,1,80.564,263.415Z" transform="translate(70.936 58.832)" fill="#424242"/>
    <path id="Path_2369" data-name="Path 2369" d="M407.126,279.946l-377.622-.1s1.551,1.714,2.937,3.023,2.906,2.562,2.906,2.562H402.9Z" transform="translate(9.221 86.302)" fill="#424242"/>
    <rect id="Rectangle_313" data-name="Rectangle 313" width="293.778" height="3.989" transform="translate(85.617 342.053)" fill="#ff847c"/>
    <path id="Path_2370" data-name="Path 2370" d="M55.785,275.9a3.33,3.33,0,1,1-3.332-3.329A3.331,3.331,0,0,1,55.785,275.9Z" transform="translate(36.493 76.189)" fill="#424242"/>
    <path id="Path_2371" data-name="Path 2371" d="M60.109,275.9a3.329,3.329,0,1,1-3.329-3.329A3.33,3.33,0,0,1,60.109,275.9Z" transform="translate(42.507 76.189)" fill="#424242"/>
    <path id="Path_2372" data-name="Path 2372" d="M64.434,275.9a3.329,3.329,0,1,1-3.329-3.329A3.329,3.329,0,0,1,64.434,275.9Z" transform="translate(48.518 76.189)" fill="#424242"/>
    <path id="Path_2373" data-name="Path 2373" d="M68.76,275.9a3.329,3.329,0,1,1-3.329-3.329A3.329,3.329,0,0,1,68.76,275.9Z" transform="translate(54.532 76.189)" fill="#424242"/>
    <path id="Path_2374" data-name="Path 2374" d="M73.086,275.9a3.329,3.329,0,1,1-3.329-3.329A3.33,3.33,0,0,1,73.086,275.9Z" transform="translate(60.545 76.189)" fill="#424242"/>
    <path id="Path_2375" data-name="Path 2375" d="M77.413,275.9a3.33,3.33,0,1,1-3.332-3.329A3.331,3.331,0,0,1,77.413,275.9Z" transform="translate(66.557 76.189)" fill="#424242"/>
    <path id="Path_2376" data-name="Path 2376" d="M81.737,275.9a3.329,3.329,0,1,1-3.329-3.329A3.329,3.329,0,0,1,81.737,275.9Z" transform="translate(72.57 76.189)" fill="#424242"/>
    <path id="Path_2377" data-name="Path 2377" d="M86.063,275.9a3.329,3.329,0,1,1-3.329-3.329A3.33,3.33,0,0,1,86.063,275.9Z" transform="translate(78.583 76.189)" fill="#424242"/>
    <path id="Path_2378" data-name="Path 2378" d="M90.39,275.9a3.33,3.33,0,1,1-3.329-3.329A3.33,3.33,0,0,1,90.39,275.9Z" transform="translate(84.595 76.189)" fill="#424242"/>
    <path id="Path_2379" data-name="Path 2379" d="M94.716,275.9a3.33,3.33,0,1,1-3.332-3.329A3.332,3.332,0,0,1,94.716,275.9Z" transform="translate(90.608 76.189)" fill="#424242"/>
    <path id="Path_2380" data-name="Path 2380" d="M99.04,275.9a3.329,3.329,0,1,1-3.332-3.329A3.331,3.331,0,0,1,99.04,275.9Z" transform="translate(96.621 76.189)" fill="#424242"/>
    <path id="Path_2381" data-name="Path 2381" d="M103.365,275.9a3.329,3.329,0,1,1-3.327-3.329A3.328,3.328,0,0,1,103.365,275.9Z" transform="translate(102.633 76.189)" fill="#424242"/>
    <path id="Path_2382" data-name="Path 2382" d="M107.692,275.9a3.33,3.33,0,1,1-3.329-3.329A3.33,3.33,0,0,1,107.692,275.9Z" transform="translate(108.645 76.189)" fill="#424242"/>
    <path id="Path_2383" data-name="Path 2383" d="M112.018,275.9a3.33,3.33,0,1,1-3.332-3.329A3.332,3.332,0,0,1,112.018,275.9Z" transform="translate(114.658 76.189)" fill="#424242"/>
    <path id="Path_2384" data-name="Path 2384" d="M116.34,275.9a3.328,3.328,0,1,1-3.329-3.329A3.329,3.329,0,0,1,116.34,275.9Z" transform="translate(120.673 76.189)" fill="#424242"/>
    <path id="Path_2385" data-name="Path 2385" d="M120.668,275.9a3.329,3.329,0,1,1-3.329-3.329A3.329,3.329,0,0,1,120.668,275.9Z" transform="translate(126.684 76.189)" fill="#424242"/>
    <path id="Path_2386" data-name="Path 2386" d="M124.995,275.9a3.33,3.33,0,1,1-3.332-3.329A3.331,3.331,0,0,1,124.995,275.9Z" transform="translate(132.696 76.189)" fill="#424242"/>
    <path id="Path_2387" data-name="Path 2387" d="M129.319,275.9a3.329,3.329,0,1,1-3.329-3.329A3.33,3.33,0,0,1,129.319,275.9Z" transform="translate(138.709 76.189)" fill="#424242"/>
    <path id="Path_2388" data-name="Path 2388" d="M133.642,275.9a3.328,3.328,0,1,1-3.327-3.329A3.328,3.328,0,0,1,133.642,275.9Z" transform="translate(144.723 76.189)" fill="#424242"/>
    <path id="Path_2389" data-name="Path 2389" d="M137.973,275.9a3.332,3.332,0,1,1-3.329-3.329A3.33,3.33,0,0,1,137.973,275.9Z" transform="translate(150.733 76.189)" fill="#424242"/>
    <path id="Path_2390" data-name="Path 2390" d="M142.3,275.9a3.33,3.33,0,1,1-3.332-3.329A3.332,3.332,0,0,1,142.3,275.9Z" transform="translate(156.747 76.189)" fill="#424242"/>
    <path id="Path_2391" data-name="Path 2391" d="M146.622,275.9a3.329,3.329,0,1,1-3.332-3.329A3.331,3.331,0,0,1,146.622,275.9Z" transform="translate(162.761 76.189)" fill="#424242"/>
    <path id="Path_2392" data-name="Path 2392" d="M150.947,275.9a3.329,3.329,0,1,1-3.327-3.329A3.328,3.328,0,0,1,150.947,275.9Z" transform="translate(168.772 76.189)" fill="#424242"/>
    <path id="Path_2393" data-name="Path 2393" d="M155.274,275.9a3.33,3.33,0,1,1-3.329-3.329A3.33,3.33,0,0,1,155.274,275.9Z" transform="translate(174.784 76.189)" fill="#424242"/>
    <path id="Path_2394" data-name="Path 2394" d="M159.6,275.9a3.332,3.332,0,1,1-3.334-3.329A3.333,3.333,0,0,1,159.6,275.9Z" transform="translate(180.798 76.189)" fill="#424242"/>
    <path id="Path_2395" data-name="Path 2395" d="M163.922,275.9a3.328,3.328,0,1,1-3.329-3.329A3.329,3.329,0,0,1,163.922,275.9Z" transform="translate(186.812 76.189)" fill="#424242"/>
    <path id="Path_2396" data-name="Path 2396" d="M168.25,275.9a3.329,3.329,0,1,1-3.329-3.329A3.329,3.329,0,0,1,168.25,275.9Z" transform="translate(192.824 76.189)" fill="#424242"/>
    <path id="Path_2397" data-name="Path 2397" d="M172.577,275.9a3.33,3.33,0,1,1-3.329-3.329A3.33,3.33,0,0,1,172.577,275.9Z" transform="translate(198.836 76.189)" fill="#424242"/>
    <path id="Path_2398" data-name="Path 2398" d="M176.9,275.9a3.329,3.329,0,1,1-3.329-3.329A3.33,3.33,0,0,1,176.9,275.9Z" transform="translate(204.849 76.189)" fill="#424242"/>
  </g>
</svg>
