<svg xmlns="http://www.w3.org/2000/svg" xmlns:xlink="http://www.w3.org/1999/xlink" width="470.342" height="200.485" viewBox="0 0 470.342 200.485">
  <defs>
    <filter id="Path_2460" x="0" y="0" width="470.342" height="200.485" filterUnits="userSpaceOnUse">
      <feOffset input="SourceAlpha"/>
      <feGaussianBlur stdDeviation="5" result="blur"/>
      <feFlood flood-opacity="0.161"/>
      <feComposite operator="in" in2="blur"/>
      <feComposite in="SourceGraphic"/>
    </filter>
  </defs>
  <g id="Group_3232" data-name="Group 3232" transform="translate(-7319.658 12757.892)">
    <g transform="matrix(1, 0, 0, 1, 7319.66, -12757.89)" filter="url(#Path_2460)">
      <path id="Path_2460-2" data-name="Path 2460" d="M19134-14507.158s-170.971-14.264-282.439,26.8c-108.9,40.121-158.4,135.567-155.312,138.275,6.258,5.478,248.225,2.082,352.883.632,23.234-.321,43.268-13.95,56.092-27.026C19148.91-14413.014,19134-14507.158,19134-14507.158Z" transform="translate(19151.45 -14324.07) rotate(180)" fill="#fff"/>
    </g>
    <g id="Group_212" data-name="Group 212" transform="translate(7239.629 -13802.115)">
      <g id="Group_211" data-name="Group 211" transform="translate(215.995 1058.865)">
        <path id="Path_2461" data-name="Path 2461" d="M368.71,1360.681c.988.358,4.376,6.755,17.459,11.078,5.885,1.945,17.381-1.076,17.381-1.076l19.119,26.777a43.02,43.02,0,0,1-13.2,2.788c-17.675.943-24.633-4.514-24.633-4.514l-4.482-4.06Z" transform="translate(-353.823 -1331.26)" fill="#a8c469"/>
        <path id="Path_2462" data-name="Path 2462" d="M445.915,1444.89s7.249,4.613,12.625,5.029c4.406.341,14.1-1.369,14.1-1.369l16.455,23.52s-12.693,3.179-18.9,2.223c-19.414-2.99-20.088-7.113-20.088-7.113l-.891-1.733a45.866,45.866,0,0,0,20.384,6.961,44.23,44.23,0,0,0,16.448-1.677l-14.107-20.453s-8.227,1.588-13.084,1.2-12.92-4.662-12.92-4.662Z" transform="translate(-423.503 -1407.261)" fill="#639334"/>
        <path id="Path_2463" data-name="Path 2463" d="M406.8,1451.82c2.589,1.426,7.555,3.714,10.3,6.956,1.877,2.215,5.177,8.6,4.708,11.235-.32,1.8-1.982,3.912-5.553,2.213a58.376,58.376,0,0,1-6.978-4.048Z" transform="translate(-388.204 -1413.515)" fill="#639334"/>
        <path id="Path_2464" data-name="Path 2464" d="M435.735,1497.612l-.311-1.067,1.759.494.3,1.227a8.2,8.2,0,0,1,2,1.4c1.159,1.173,3.341,4.694,1.439,5.245-1.642.476-4.835-.953-3.586,1.92.6,1.376,3.163,2.33,3.948,1.555a1.731,1.731,0,0,0,.447-1.41l1.614.068s.912,3.9-2.757,3.834h-.011l.317,1.285-1.666-.431-.351-1.2a7.715,7.715,0,0,1-4.316-4.179,2.225,2.225,0,0,1,2.256-3.142c1.352.134,2.988.409,2.7-.8a3.945,3.945,0,0,0-2.811-2.82c-1.295-.177-1.592,1.254-1.592,1.254l-1.938-.671s-.282-2.017,1.108-2.538A2.645,2.645,0,0,1,435.735,1497.612Z" transform="translate(-411.985 -1453.88)" fill="#a8c469"/>
        <path id="Path_2465" data-name="Path 2465" d="M219.415,1058.865l24.6,23.858s-4.071,12.245-3.591,18.9c1.18,16.367,6.621,21.746,6.621,21.746s-6.239-3.482-13.248-13.154a192.857,192.857,0,0,1-16.652-27.342,30.4,30.4,0,0,1-1.074-9.95C216.485,1067.89,219.415,1058.865,219.415,1058.865Z" transform="translate(-215.995 -1058.865)" fill="#bde377"/>
        <path id="Path_2466" data-name="Path 2466" d="M255.728,1152.464s-4.7-6.081-5.706-16.367c-.589-6.006,3.314-20.884,3.314-20.884l-21.216-21.592s-1.968,6.632-2.635,10.723a32.573,32.573,0,0,0,.409,11.8l1.63,3.077s-1.183-4.067-.422-12.148a53.613,53.613,0,0,1,2.272-9.356c.058.154,17.789,18.255,17.789,18.255s-2.87,14.242-2.728,19.022a29.4,29.4,0,0,0,4.819,15.413Z" transform="translate(-227.843 -1090.233)" fill="#6ba638"/>
        <path id="Path_2467" data-name="Path 2467" d="M323.768,1470.075a62.54,62.54,0,0,0-3.582-8.438c-2.269-4.732-6.367-8.908-7.5-9.124-.742-.141-.974.075-1.046.242,2.368,3.847,5.226,8.21,8.536,12.777C321.4,1467.234,322.613,1468.742,323.768,1470.075Z" transform="translate(-302.314 -1414.099)" fill="#6ba638"/>
        <path id="Path_2468" data-name="Path 2468" d="M667.927,1591.4c-.948.658-2.473.1-3.407-1.242s-.922-2.968.026-3.626,2.473-.1,3.407,1.242S668.874,1590.739,667.927,1591.4Z" transform="translate(-620.172 -1534.843)" fill="#639334"/>
        <path id="Path_2469" data-name="Path 2469" d="M317.759,1312.878c-.951.826-2.592.494-3.665-.742s-1.173-2.907-.222-3.733,2.592-.494,3.665.742S318.71,1312.052,317.759,1312.878Z" transform="translate(-303.741 -1283.668)" fill="#6ba638"/>
      </g>
      <path id="Path_2470" data-name="Path 2470" d="M820.755,1690.424c-1.763,1.4-5.576-.342-3.476-2.632,1.506-1.643,4.565.52,4.061,2.193Z" transform="translate(-542.117 -567.091)" fill="#639334"/>
      <path id="Path_2471" data-name="Path 2471" d="M687,1492.082c-2.78-.233-2.915,2.22-.292,2.77,1.12.235,2.094.477,2.193-.869a1.945,1.945,0,0,0-1.608-1.9Z" transform="translate(-423.129 -390.973)" fill="#639334"/>
      <path id="Path_2472" data-name="Path 2472" d="M430.2,1300.095c-1.153-1.4-2.051.472-2.047,1.608a4.892,4.892,0,0,0,1.28,3.538c1.285,1.057,1.838-.4,2.2-1.783a2.9,2.9,0,0,0-.991-3.071Z" transform="translate(-191.478 -217.263)" fill="#6ba638"/>
      <path id="Path_2473" data-name="Path 2473" d="M256.94,1111.245H256.5c-.329,1.9-.877,8.042,2.924,5.848C262.15,1115.52,258.421,1112.414,256.94,1111.245Z" transform="translate(-36.348 -47.274)" fill="#6ba638"/>
    </g>
    <g id="Group_213" data-name="Group 213" transform="matrix(0.966, -0.259, 0.259, 0.966, 6224.107, -13608.393)">
      <path id="Path_2474" data-name="Path 2474" d="M972.178,1275.6s1.439,6.46,8.523,13.14c4.13,3.895,19.01,1.112,25.986,11.622,6.126,9.23,5.086,22.824,5.086,22.824l34.535-17.725s.71-12.792-8.486-21.344c-6.228-5.792-20.478-2.882-28.474-9.852a88.469,88.469,0,0,1-8.539-9.41Z" transform="translate(0)" fill="#bde377"/>
      <path id="Path_2475" data-name="Path 2475" d="M997.311,1295.4s1.8,5.356,8.209,10.671c3.76,3.119,20.578,1.163,26.585,10.051,5.276,7.805,5.448,21.07,5.448,21.07l29.74-14.845s-.911-11.983-8.845-19.208c-5.373-4.893-20.514-2.769-27.414-8.657-3.127-2.669-7.608-9.134-7.608-9.134Z" transform="translate(-22.9 -18.675)" fill="#6ba638"/>
      <path id="Path_2476" data-name="Path 2476" d="M1021.321,1314.335s1.295,3.806,7.462,8.5c5.583,4.251,21.006.766,26.62,9.731,4.931,7.872,5.893,19.126,5.893,19.126L1086.981,1339a26.5,26.5,0,0,0-7.482-16.621c-4.944-4.975-22.494-3.564-28.54-9.779a62.488,62.488,0,0,1-5.945-7.565Z" transform="translate(-44.776 -36.612)" fill="#bde377"/>
      <path id="Path_2477" data-name="Path 2477" d="M1246.822,1455.272c-2.52-1.071-5.008-3.658-.347-6.714a25.064,25.064,0,0,1,17.026-3.634c4.931.823,7.872,4.42,1.761,8.226s-11.624,4.961-13.888,4.435A14.01,14.01,0,0,1,1246.822,1455.272Z" transform="translate(-242.181 -163.819)" fill="#6ba638"/>
      <path id="Path_2478" data-name="Path 2478" d="M1195.378,1400.244a2.112,2.112,0,1,1-2.545-1.007A1.948,1.948,0,0,1,1195.378,1400.244Z" transform="translate(-196.842 -122.326)" fill="#6ba638"/>
      <path id="Path_2479" data-name="Path 2479" d="M1512.419,1626.814a2.086,2.086,0,1,1-2.667-1.366A2.12,2.12,0,0,1,1512.419,1626.814Z" transform="translate(-481.541 -328.456)" fill="#6ba638"/>
      <path id="Path_2480" data-name="Path 2480" d="M1308.582,1458.529l.907-.568-1.58-.771-1,.688a7.889,7.889,0,0,0-2.333-.278c-1.584.1-5.406,1.234-4.392,2.848.875,1.394,4.084,2.411,1.348,3.675-1.311.605-3.765-.352-3.832-1.41a1.667,1.667,0,0,1,.582-1.3l-1.2-.984s-3.156,2.222-.474,4.52l.008.007-1.051.721,1.473.757,1.023-.64a7.426,7.426,0,0,0,5.777-.239,2.142,2.142,0,0,0,.39-3.7c-1.057-.769-2.409-1.62-1.427-2.3a3.8,3.8,0,0,1,3.825-.227,1.45,1.45,0,0,1,.341,1.92l1.822.759s1.494-1.269.828-2.533A2.543,2.543,0,0,0,1308.582,1458.529Z" transform="translate(-289.559 -175.248)" fill="#bde377"/>
    </g>
  </g>
</svg>
