<svg xmlns="http://www.w3.org/2000/svg" width="58" height="55" viewBox="0 0 58 55">
  <g id="Path_2407" data-name="Path 2407" fill="none">
    <path d="M10,0H48A10,10,0,0,1,58,10V45A10,10,0,0,1,48,55H10A10,10,0,0,1,0,45V10A10,10,0,0,1,10,0Z" stroke="none"/>
    <path d="M 10 2 C 5.588790893554688 2 2 5.588790893554688 2 10 L 2 45 C 2 49.41120910644531 5.588790893554688 53 10 53 L 48 53 C 52.41120910644531 53 56 49.41120910644531 56 45 L 56 10 C 56 5.588790893554688 52.41120910644531 2 48 2 L 10 2 M 10 0 L 48 0 C 53.5228385925293 0 58 4.477149963378906 58 10 L 58 45 C 58 50.5228385925293 53.5228385925293 55 48 55 L 10 55 C 4.477149963378906 55 0 50.5228385925293 0 45 L 0 10 C 0 4.477149963378906 4.477149963378906 0 10 0 Z" stroke="none" fill="#0239ff"/>
  </g>
</svg>
