<svg xmlns="http://www.w3.org/2000/svg" width="383.633" height="132.858" viewBox="0 0 383.633 132.858">
  <g id="Group_240" data-name="Group 240" transform="translate(-21.996 -16.429)">
    <path id="Path_2510" data-name="Path 2510" d="M289.061,43.53H303.9l1.772-10.183H281.153l-2.865-3.688H59.867L36.058,90.284H325.377Z" transform="translate(13.038 16.111)" fill="#95d8e9"/>
    <path id="Path_2511" data-name="Path 2511" d="M289.061,43.53H303.9l1.772-10.183H281.153l-2.865-3.688h-95.6L36.058,90.284H325.377Z" transform="translate(13.038 16.111)" fill="#fff" opacity="0.5"/>
    <path id="Path_2512" data-name="Path 2512" d="M167.169,39.329a1.969,1.969,0,1,1-1.948-2.244A2.114,2.114,0,0,1,167.169,39.329Z" transform="translate(130.987 25.154)" fill="#336e7b"/>
    <path id="Path_2513" data-name="Path 2513" d="M164.458,39.339a1.968,1.968,0,1,1-1.948-2.242A2.111,2.111,0,0,1,164.458,39.339Z" transform="translate(128.475 25.169)" fill="#336e7b"/>
    <path id="Path_2514" data-name="Path 2514" d="M162.584,38.985V32.134l25.493-.079-1.205,6.917Z" transform="translate(130.35 19.029)" fill="#336e7b"/>
    <rect id="Rectangle_393" data-name="Rectangle 393" width="12.103" height="4.373" transform="translate(76.151 50.389)" fill="#336e7b"/>
    <rect id="Rectangle_394" data-name="Rectangle 394" width="12.103" height="4.373" transform="translate(93.772 50.389)" fill="#336e7b"/>
    <rect id="Rectangle_395" data-name="Rectangle 395" width="12.103" height="4.373" transform="translate(111.394 50.389)" fill="#336e7b"/>
    <rect id="Rectangle_396" data-name="Rectangle 396" width="12.103" height="4.373" transform="translate(129.015 50.389)" fill="#336e7b"/>
    <rect id="Rectangle_397" data-name="Rectangle 397" width="12.103" height="4.373" transform="translate(146.636 50.389)" fill="#336e7b"/>
    <rect id="Rectangle_398" data-name="Rectangle 398" width="12.103" height="4.373" transform="translate(164.258 50.389)" fill="#336e7b"/>
    <rect id="Rectangle_399" data-name="Rectangle 399" width="12.103" height="4.373" transform="translate(181.879 50.389)" fill="#336e7b"/>
    <rect id="Rectangle_400" data-name="Rectangle 400" width="12.103" height="4.373" transform="translate(199.5 50.389)" fill="#336e7b"/>
    <rect id="Rectangle_401" data-name="Rectangle 401" width="12.103" height="4.373" transform="translate(217.122 50.389)" fill="#336e7b"/>
    <rect id="Rectangle_402" data-name="Rectangle 402" width="12.103" height="4.373" transform="translate(234.743 50.389)" fill="#336e7b"/>
    <rect id="Rectangle_403" data-name="Rectangle 403" width="12.103" height="4.373" transform="translate(252.364 50.389)" fill="#336e7b"/>
    <rect id="Rectangle_404" data-name="Rectangle 404" width="12.103" height="4.373" transform="translate(269.986 50.389)" fill="#336e7b"/>
    <rect id="Rectangle_405" data-name="Rectangle 405" width="12.103" height="4.373" transform="translate(76.151 57.454)" fill="#336e7b"/>
    <rect id="Rectangle_406" data-name="Rectangle 406" width="12.103" height="4.373" transform="translate(93.772 57.454)" fill="#336e7b"/>
    <rect id="Rectangle_407" data-name="Rectangle 407" width="12.103" height="4.373" transform="translate(111.394 57.454)" fill="#336e7b"/>
    <rect id="Rectangle_408" data-name="Rectangle 408" width="12.103" height="4.373" transform="translate(129.015 57.454)" fill="#336e7b"/>
    <rect id="Rectangle_409" data-name="Rectangle 409" width="12.103" height="4.373" transform="translate(146.636 57.454)" fill="#336e7b"/>
    <rect id="Rectangle_410" data-name="Rectangle 410" width="12.103" height="4.373" transform="translate(164.258 57.454)" fill="#336e7b"/>
    <rect id="Rectangle_411" data-name="Rectangle 411" width="12.103" height="4.373" transform="translate(181.879 57.454)" fill="#336e7b"/>
    <rect id="Rectangle_412" data-name="Rectangle 412" width="12.103" height="4.373" transform="translate(199.5 57.454)" fill="#336e7b"/>
    <rect id="Rectangle_413" data-name="Rectangle 413" width="12.103" height="4.373" transform="translate(217.122 57.454)" fill="#336e7b"/>
    <rect id="Rectangle_414" data-name="Rectangle 414" width="12.103" height="4.373" transform="translate(234.743 57.454)" fill="#336e7b"/>
    <rect id="Rectangle_415" data-name="Rectangle 415" width="12.103" height="4.373" transform="translate(252.364 57.454)" fill="#336e7b"/>
    <rect id="Rectangle_416" data-name="Rectangle 416" width="12.103" height="4.373" transform="translate(269.986 57.454)" fill="#336e7b"/>
    <rect id="Rectangle_417" data-name="Rectangle 417" width="12.103" height="4.373" transform="translate(76.151 64.52)" fill="#336e7b"/>
    <rect id="Rectangle_418" data-name="Rectangle 418" width="12.103" height="4.373" transform="translate(93.772 64.52)" fill="#336e7b"/>
    <rect id="Rectangle_419" data-name="Rectangle 419" width="12.103" height="4.373" transform="translate(111.394 64.52)" fill="#336e7b"/>
    <rect id="Rectangle_420" data-name="Rectangle 420" width="12.103" height="4.373" transform="translate(129.015 64.52)" fill="#336e7b"/>
    <rect id="Rectangle_421" data-name="Rectangle 421" width="12.103" height="4.373" transform="translate(146.636 64.52)" fill="#336e7b"/>
    <rect id="Rectangle_422" data-name="Rectangle 422" width="12.103" height="4.373" transform="translate(164.258 64.52)" fill="#336e7b"/>
    <rect id="Rectangle_423" data-name="Rectangle 423" width="12.103" height="4.373" transform="translate(181.879 64.52)" fill="#336e7b"/>
    <rect id="Rectangle_424" data-name="Rectangle 424" width="12.103" height="4.373" transform="translate(199.5 64.52)" fill="#336e7b"/>
    <rect id="Rectangle_425" data-name="Rectangle 425" width="12.103" height="4.373" transform="translate(217.122 64.52)" fill="#336e7b"/>
    <rect id="Rectangle_426" data-name="Rectangle 426" width="12.103" height="4.373" transform="translate(234.743 64.52)" fill="#336e7b"/>
    <rect id="Rectangle_427" data-name="Rectangle 427" width="12.103" height="4.373" transform="translate(252.364 64.52)" fill="#336e7b"/>
    <rect id="Rectangle_428" data-name="Rectangle 428" width="12.103" height="4.373" transform="translate(269.986 64.52)" fill="#336e7b"/>
    <rect id="Rectangle_429" data-name="Rectangle 429" width="12.103" height="4.373" transform="translate(76.151 71.585)" fill="#336e7b"/>
    <rect id="Rectangle_430" data-name="Rectangle 430" width="12.103" height="4.373" transform="translate(93.772 71.585)" fill="#336e7b"/>
    <rect id="Rectangle_431" data-name="Rectangle 431" width="12.103" height="4.373" transform="translate(111.394 71.585)" fill="#336e7b"/>
    <rect id="Rectangle_432" data-name="Rectangle 432" width="12.103" height="4.373" transform="translate(129.015 71.585)" fill="#336e7b"/>
    <rect id="Rectangle_433" data-name="Rectangle 433" width="12.103" height="4.373" transform="translate(146.636 71.585)" fill="#336e7b"/>
    <rect id="Rectangle_434" data-name="Rectangle 434" width="12.103" height="4.373" transform="translate(164.258 71.585)" fill="#336e7b"/>
    <rect id="Rectangle_435" data-name="Rectangle 435" width="12.103" height="4.373" transform="translate(181.879 71.585)" fill="#336e7b"/>
    <rect id="Rectangle_436" data-name="Rectangle 436" width="12.103" height="4.373" transform="translate(199.5 71.585)" fill="#336e7b"/>
    <rect id="Rectangle_437" data-name="Rectangle 437" width="12.103" height="4.373" transform="translate(217.122 71.585)" fill="#336e7b"/>
    <rect id="Rectangle_438" data-name="Rectangle 438" width="12.103" height="4.373" transform="translate(234.743 71.585)" fill="#336e7b"/>
    <rect id="Rectangle_439" data-name="Rectangle 439" width="12.103" height="4.373" transform="translate(252.364 71.585)" fill="#336e7b"/>
    <rect id="Rectangle_440" data-name="Rectangle 440" width="12.103" height="4.373" transform="translate(269.986 71.585)" fill="#336e7b"/>
    <rect id="Rectangle_441" data-name="Rectangle 441" width="12.103" height="4.373" transform="translate(76.151 78.651)" fill="#336e7b"/>
    <rect id="Rectangle_442" data-name="Rectangle 442" width="12.103" height="4.373" transform="translate(93.772 78.651)" fill="#336e7b"/>
    <rect id="Rectangle_443" data-name="Rectangle 443" width="12.103" height="4.373" transform="translate(111.394 78.651)" fill="#336e7b"/>
    <rect id="Rectangle_444" data-name="Rectangle 444" width="12.103" height="4.373" transform="translate(129.015 78.651)" fill="#336e7b"/>
    <rect id="Rectangle_445" data-name="Rectangle 445" width="12.103" height="4.373" transform="translate(146.636 78.651)" fill="#336e7b"/>
    <rect id="Rectangle_446" data-name="Rectangle 446" width="12.103" height="4.373" transform="translate(164.258 78.651)" fill="#336e7b"/>
    <rect id="Rectangle_447" data-name="Rectangle 447" width="12.103" height="4.373" transform="translate(181.879 78.651)" fill="#336e7b"/>
    <rect id="Rectangle_448" data-name="Rectangle 448" width="12.103" height="4.373" transform="translate(199.5 78.651)" fill="#336e7b"/>
    <rect id="Rectangle_449" data-name="Rectangle 449" width="12.103" height="4.373" transform="translate(217.122 78.651)" fill="#336e7b"/>
    <rect id="Rectangle_450" data-name="Rectangle 450" width="12.103" height="4.373" transform="translate(234.743 78.651)" fill="#336e7b"/>
    <rect id="Rectangle_451" data-name="Rectangle 451" width="12.103" height="4.373" transform="translate(252.364 78.651)" fill="#336e7b"/>
    <rect id="Rectangle_452" data-name="Rectangle 452" width="12.103" height="4.373" transform="translate(269.986 78.651)" fill="#336e7b"/>
    <rect id="Rectangle_453" data-name="Rectangle 453" width="12.103" height="4.373" transform="translate(76.151 85.715)" fill="#336e7b"/>
    <rect id="Rectangle_454" data-name="Rectangle 454" width="12.103" height="4.373" transform="translate(93.772 85.715)" fill="#336e7b"/>
    <rect id="Rectangle_455" data-name="Rectangle 455" width="12.103" height="4.373" transform="translate(111.394 85.715)" fill="#336e7b"/>
    <rect id="Rectangle_456" data-name="Rectangle 456" width="12.103" height="4.373" transform="translate(129.015 85.715)" fill="#336e7b"/>
    <rect id="Rectangle_457" data-name="Rectangle 457" width="12.103" height="4.373" transform="translate(146.636 85.715)" fill="#336e7b"/>
    <rect id="Rectangle_458" data-name="Rectangle 458" width="12.103" height="4.373" transform="translate(164.258 85.715)" fill="#336e7b"/>
    <rect id="Rectangle_459" data-name="Rectangle 459" width="12.103" height="4.373" transform="translate(181.879 85.715)" fill="#336e7b"/>
    <rect id="Rectangle_460" data-name="Rectangle 460" width="12.103" height="4.373" transform="translate(199.5 85.715)" fill="#336e7b"/>
    <rect id="Rectangle_461" data-name="Rectangle 461" width="12.103" height="4.373" transform="translate(217.122 85.715)" fill="#336e7b"/>
    <rect id="Rectangle_462" data-name="Rectangle 462" width="12.103" height="4.373" transform="translate(234.743 85.715)" fill="#336e7b"/>
    <rect id="Rectangle_463" data-name="Rectangle 463" width="12.103" height="4.373" transform="translate(252.364 85.715)" fill="#336e7b"/>
    <rect id="Rectangle_464" data-name="Rectangle 464" width="12.103" height="4.373" transform="translate(269.986 85.715)" fill="#336e7b"/>
    <rect id="Rectangle_465" data-name="Rectangle 465" width="12.103" height="4.373" transform="translate(76.151 92.781)" fill="#336e7b"/>
    <rect id="Rectangle_466" data-name="Rectangle 466" width="12.103" height="4.373" transform="translate(93.772 92.781)" fill="#336e7b"/>
    <rect id="Rectangle_467" data-name="Rectangle 467" width="12.103" height="4.373" transform="translate(111.394 92.781)" fill="#336e7b"/>
    <rect id="Rectangle_468" data-name="Rectangle 468" width="12.103" height="4.373" transform="translate(129.015 92.781)" fill="#336e7b"/>
    <rect id="Rectangle_469" data-name="Rectangle 469" width="12.103" height="4.373" transform="translate(146.636 92.781)" fill="#336e7b"/>
    <rect id="Rectangle_470" data-name="Rectangle 470" width="12.103" height="4.373" transform="translate(164.258 92.781)" fill="#336e7b"/>
    <rect id="Rectangle_471" data-name="Rectangle 471" width="12.103" height="4.373" transform="translate(181.879 92.781)" fill="#336e7b"/>
    <rect id="Rectangle_472" data-name="Rectangle 472" width="12.103" height="4.373" transform="translate(199.5 92.781)" fill="#336e7b"/>
    <rect id="Rectangle_473" data-name="Rectangle 473" width="12.103" height="4.373" transform="translate(217.122 92.781)" fill="#336e7b"/>
    <rect id="Rectangle_474" data-name="Rectangle 474" width="12.103" height="4.373" transform="translate(234.743 92.781)" fill="#336e7b"/>
    <rect id="Rectangle_475" data-name="Rectangle 475" width="12.103" height="4.373" transform="translate(252.364 92.781)" fill="#336e7b"/>
    <rect id="Rectangle_476" data-name="Rectangle 476" width="12.103" height="4.373" transform="translate(269.986 92.781)" fill="#336e7b"/>
    <g id="Group_239" data-name="Group 239" transform="translate(294.257 70.245)">
      <path id="Path_2515" data-name="Path 2515" d="M183.134,45.568H163.27V40.695h16.08Z" transform="translate(-163.27 -40.695)" fill="#336e7b"/>
      <g id="Group_238" data-name="Group 238" transform="translate(0 6.944)">
        <path id="Path_2516" data-name="Path 2516" d="M188.527,48.7l-3.785-4.871H163.27V48.7h25.257Z" transform="translate(-163.27 -43.826)" fill="#336e7b"/>
        <path id="Path_2517" data-name="Path 2517" d="M193.918,51.827l-3.783-4.871H163.27v4.871h30.648Z" transform="translate(-163.27 -40.014)" fill="#336e7b"/>
        <path id="Path_2518" data-name="Path 2518" d="M195.526,50.086H163.27v4.871h36.041Z" transform="translate(-163.27 -36.202)" fill="#336e7b"/>
      </g>
    </g>
    <path id="Path_2519" data-name="Path 2519" d="M29.843,62.927v8.738a1.125,1.125,0,0,1-.231.69C24.956,78.337,22,87.31,22,97.345a49.574,49.574,0,0,0,.534,7.292.9.9,0,0,0,.85.814H351.161l.094-.215a21.794,21.794,0,0,1,6.1-8.188l47.881-42.557c.765-.681.331-2.091-.636-2.065L292.933,62.692,30.354,62.326A.566.566,0,0,0,29.843,62.927Z" transform="translate(0 43.836)" fill="#15a0c9"/>
    <path id="Path_2520" data-name="Path 2520" d="M22,72.843a49.574,49.574,0,0,0,.534,7.292.9.9,0,0,0,.85.814H351.161l.094-.215a21.794,21.794,0,0,1,6.1-8.188Z" transform="translate(0 68.338)" fill="#ed9c98"/>
    <path id="Path_2521" data-name="Path 2521" d="M154.834,105.451H228l.094-.215a21.794,21.794,0,0,1,6.1-8.188l47.881-42.557c.765-.681.331-2.091-.636-2.065l-11.923,1.085Z" transform="translate(123.165 43.836)" fill="#fff" opacity="0.5"/>
    <path id="Path_2522" data-name="Path 2522" d="M131.358,39.62H51.528c0-4.8,7.609-18.141,26.965-18.141C100.536,21.479,131.358,36.065,131.358,39.62Z" transform="translate(27.382 6.15)" fill="#336e7b"/>
    <path id="Path_2523" data-name="Path 2523" d="M110.747,16.429H98.93l9.594,29.34h11.818Z" transform="translate(71.332 0)" fill="#336e7b"/>
    <path id="Path_2524" data-name="Path 2524" d="M106.132,16.429l-2.224,29.34h11.818Z" transform="translate(75.948 0)" fill="#fff" opacity="0.5"/>
    <path id="Path_2525" data-name="Path 2525" d="M118.981,16.429H107.164l9.6,29.34h11.817Z" transform="translate(78.967 0)" fill="#336e7b"/>
    <path id="Path_2526" data-name="Path 2526" d="M127.216,16.429H115.4l9.6,29.34h11.817Z" transform="translate(86.602 0)" fill="#336e7b"/>
    <rect id="Rectangle_477" data-name="Rectangle 477" width="52.864" height="6.105" transform="translate(229.225 39.664)" fill="#336e7b"/>
    <rect id="Rectangle_478" data-name="Rectangle 478" width="32.412" height="5.888" transform="translate(229.225 33.776)" fill="#4dbfd9"/>
    <path id="Path_2527" data-name="Path 2527" d="M114.365,16.429l-2.222,29.34H123.96Z" transform="translate(83.583 0)" fill="#fff" opacity="0.5"/>
    <path id="Path_2528" data-name="Path 2528" d="M122.6,16.429l-2.223,29.34H132.2Z" transform="translate(91.222 0)" fill="#fff" opacity="0.5"/>
    <rect id="Rectangle_479" data-name="Rectangle 479" width="14.523" height="6.439" rx="0.773" transform="translate(76.151 99.956)" fill="#f90"/>
    <rect id="Rectangle_480" data-name="Rectangle 480" width="14.524" height="6.44" rx="0.773" transform="translate(93.772 99.956)" fill="#f90"/>
    <rect id="Rectangle_481" data-name="Rectangle 481" width="14.523" height="6.44" rx="0.773" transform="translate(111.394 99.956)" fill="#f90"/>
    <rect id="Rectangle_482" data-name="Rectangle 482" width="14.524" height="6.44" rx="0.773" transform="translate(129.015 99.956)" fill="#f90"/>
    <rect id="Rectangle_483" data-name="Rectangle 483" width="14.523" height="6.44" rx="0.773" transform="translate(146.636 99.956)" fill="#f90"/>
    <rect id="Rectangle_484" data-name="Rectangle 484" width="14.523" height="6.44" rx="0.773" transform="translate(164.258 99.956)" fill="#f90"/>
    <rect id="Rectangle_485" data-name="Rectangle 485" width="14.523" height="6.44" rx="0.773" transform="translate(181.879 99.956)" fill="#f90"/>
    <rect id="Rectangle_486" data-name="Rectangle 486" width="14.523" height="6.44" rx="0.773" transform="translate(199.5 99.956)" fill="#f90"/>
    <rect id="Rectangle_487" data-name="Rectangle 487" width="14.524" height="6.44" rx="0.773" transform="translate(217.122 99.956)" fill="#f90"/>
    <rect id="Rectangle_488" data-name="Rectangle 488" width="14.523" height="6.44" rx="0.773" transform="translate(234.743 99.956)" fill="#f90"/>
    <rect id="Rectangle_489" data-name="Rectangle 489" width="14.524" height="6.44" rx="0.773" transform="translate(252.364 99.956)" fill="#f90"/>
    <rect id="Rectangle_490" data-name="Rectangle 490" width="14.523" height="6.44" rx="0.773" transform="translate(269.986 99.956)" fill="#f90"/>
    <path id="Path_2529" data-name="Path 2529" d="M60.893,66.113c0,3.431-2.419,6.212-5.4,6.212s-5.4-2.781-5.4-6.212S52.514,59.9,55.5,59.9,60.893,62.68,60.893,66.113Z" transform="translate(26.055 52.937)" fill="#95d8e9"/>
    <path id="Path_2530" data-name="Path 2530" d="M70.038,66.113c0,3.431-2.419,6.212-5.4,6.212s-5.4-2.781-5.4-6.212,2.417-6.214,5.4-6.214S70.038,62.68,70.038,66.113Z" transform="translate(34.532 52.937)" fill="#95d8e9"/>
    <path id="Path_2531" data-name="Path 2531" d="M79.18,66.113c0,3.431-2.417,6.212-5.4,6.212s-5.4-2.781-5.4-6.212S70.8,59.9,73.782,59.9,79.18,62.68,79.18,66.113Z" transform="translate(43.01 52.937)" fill="#95d8e9"/>
    <path id="Path_2532" data-name="Path 2532" d="M88.323,66.113c0,3.431-2.415,6.212-5.4,6.212s-5.4-2.781-5.4-6.212,2.417-6.214,5.4-6.214S88.323,62.68,88.323,66.113Z" transform="translate(51.487 52.937)" fill="#95d8e9"/>
    <path id="Path_2533" data-name="Path 2533" d="M97.467,66.113c0,3.431-2.417,6.212-5.4,6.212s-5.4-2.781-5.4-6.212,2.417-6.214,5.4-6.214S97.467,62.68,97.467,66.113Z" transform="translate(59.966 52.937)" fill="#95d8e9"/>
    <path id="Path_2534" data-name="Path 2534" d="M106.609,66.113c0,3.431-2.415,6.212-5.4,6.212s-5.4-2.781-5.4-6.212,2.415-6.214,5.4-6.214S106.609,62.68,106.609,66.113Z" transform="translate(68.444 52.937)" fill="#95d8e9"/>
    <path id="Path_2535" data-name="Path 2535" d="M115.754,66.113c0,3.431-2.417,6.212-5.4,6.212s-5.4-2.781-5.4-6.212,2.417-6.214,5.4-6.214S115.754,62.68,115.754,66.113Z" transform="translate(76.921 52.937)" fill="#95d8e9"/>
    <path id="Path_2536" data-name="Path 2536" d="M124.9,66.113c0,3.431-2.417,6.212-5.4,6.212s-5.4-2.781-5.4-6.212,2.415-6.214,5.4-6.214S124.9,62.68,124.9,66.113Z" transform="translate(85.399 52.937)" fill="#95d8e9"/>
    <path id="Path_2537" data-name="Path 2537" d="M134.041,66.113c0,3.431-2.417,6.212-5.4,6.212s-5.4-2.781-5.4-6.212,2.417-6.214,5.4-6.214S134.041,62.68,134.041,66.113Z" transform="translate(93.876 52.937)" fill="#95d8e9"/>
    <path id="Path_2538" data-name="Path 2538" d="M143.185,66.113c0,3.431-2.417,6.212-5.4,6.212s-5.4-2.781-5.4-6.212,2.417-6.214,5.4-6.214S143.185,62.68,143.185,66.113Z" transform="translate(102.355 52.937)" fill="#95d8e9"/>
    <path id="Path_2539" data-name="Path 2539" d="M152.33,66.113c0,3.431-2.419,6.212-5.4,6.212s-5.4-2.781-5.4-6.212,2.419-6.214,5.4-6.214S152.33,62.68,152.33,66.113Z" transform="translate(110.832 52.937)" fill="#95d8e9"/>
    <path id="Path_2540" data-name="Path 2540" d="M161.472,66.113c0,3.431-2.417,6.212-5.4,6.212s-5.4-2.781-5.4-6.212,2.417-6.214,5.4-6.214S161.472,62.68,161.472,66.113Z" transform="translate(119.31 52.937)" fill="#95d8e9"/>
    <path id="Path_2541" data-name="Path 2541" d="M170.615,66.113c0,3.431-2.417,6.212-5.4,6.212s-5.4-2.781-5.4-6.212,2.419-6.214,5.4-6.214S170.615,62.68,170.615,66.113Z" transform="translate(127.787 52.937)" fill="#95d8e9"/>
    <rect id="Rectangle_491" data-name="Rectangle 491" width="261.142" height="3.287" transform="translate(29.843 105.875)" fill="#89695e"/>
  </g>
</svg>
