<svg xmlns="http://www.w3.org/2000/svg" xmlns:xlink="http://www.w3.org/1999/xlink" width="1520.453" height="528.126" viewBox="0 0 1520.453 528.126">
  <defs>
    <linearGradient id="linear-gradient" y1="0.5" x2="1" y2="0.5" gradientUnits="objectBoundingBox">
      <stop offset="0" stop-color="#ffbd2b"/>
      <stop offset="1" stop-color="#ffd406"/>
    </linearGradient>
    <linearGradient id="linear-gradient-2" x1="0.5" y1="1" x2="0.5" gradientUnits="objectBoundingBox">
      <stop offset="0" stop-color="#f1bfbd"/>
      <stop offset="1" stop-color="#f6d8bf"/>
    </linearGradient>
    <linearGradient id="linear-gradient-3" x1="0.5" y1="1" x2="0.5" gradientUnits="objectBoundingBox">
      <stop offset="0" stop-color="#dd8897"/>
      <stop offset="1" stop-color="#eb937a"/>
    </linearGradient>
    <linearGradient id="linear-gradient-4" x1="0.5" y1="1" x2="0.5" gradientUnits="objectBoundingBox">
      <stop offset="0" stop-color="#e52c31"/>
      <stop offset="1" stop-color="#f64b6f"/>
    </linearGradient>
    <linearGradient id="linear-gradient-8" x1="0.5" y1="1" x2="0.5" gradientUnits="objectBoundingBox">
      <stop offset="0" stop-color="#9d1331"/>
      <stop offset="1" stop-color="#c71f48"/>
    </linearGradient>
    <linearGradient id="linear-gradient-9" y1="0.5" x2="1" y2="0.5" gradientUnits="objectBoundingBox">
      <stop offset="0.004" stop-color="#450f2b"/>
      <stop offset="0.231" stop-color="#4f102e"/>
      <stop offset="0.622" stop-color="#6a1537"/>
      <stop offset="0.992" stop-color="#8b1b42"/>
    </linearGradient>
    <linearGradient id="linear-gradient-10" x1="0.5" y1="1" x2="0.5" gradientUnits="objectBoundingBox">
      <stop offset="0" stop-color="#000725"/>
      <stop offset="1" stop-color="#283445"/>
    </linearGradient>
    <linearGradient id="linear-gradient-11" y1="0.5" x2="1" y2="0.5" gradientUnits="objectBoundingBox">
      <stop offset="0" stop-color="#dde5db"/>
      <stop offset="1" stop-color="#8196a5"/>
    </linearGradient>
    <linearGradient id="linear-gradient-12" y1="0.5" x2="1" y2="0.5" gradientUnits="objectBoundingBox">
      <stop offset="0" stop-color="#bfccc9"/>
      <stop offset="1" stop-color="#8196a5"/>
    </linearGradient>
    <linearGradient id="linear-gradient-16" x1="0.5" y1="1" x2="0.5" gradientUnits="objectBoundingBox">
      <stop offset="0" stop-color="#000e18"/>
      <stop offset="1" stop-color="#39546a"/>
    </linearGradient>
    <linearGradient id="linear-gradient-17" x1="0.5" y1="1" x2="0.5" gradientUnits="objectBoundingBox">
      <stop offset="0" stop-color="#ff772b"/>
      <stop offset="1" stop-color="#ff9d06"/>
    </linearGradient>
    <linearGradient id="linear-gradient-19" y1="0.5" x2="1" y2="0.5" gradientUnits="objectBoundingBox">
      <stop offset="0" stop-color="#004d75"/>
      <stop offset="1" stop-color="#007ca1"/>
    </linearGradient>
    <linearGradient id="linear-gradient-20" y1="0.5" x2="1" y2="0.5" gradientUnits="objectBoundingBox">
      <stop offset="0" stop-color="#334d75"/>
      <stop offset="1" stop-color="#43486a"/>
    </linearGradient>
    <linearGradient id="linear-gradient-24" y1="0.5" x2="1" y2="0.5" gradientUnits="objectBoundingBox">
      <stop offset="0.004" stop-color="#450f2b"/>
      <stop offset="0.172" stop-color="#491934"/>
      <stop offset="0.461" stop-color="#56354c"/>
      <stop offset="0.834" stop-color="#6a6173"/>
      <stop offset="0.992" stop-color="#747786"/>
    </linearGradient>
    <linearGradient id="linear-gradient-25" x1="0.5" y1="1" x2="0.5" gradientUnits="objectBoundingBox">
      <stop offset="0" stop-color="#d3c79c"/>
      <stop offset="1"/>
    </linearGradient>
    <linearGradient id="linear-gradient-27" x1="0" y1="0.5" x2="1" y2="0.5" xlink:href="#linear-gradient-19"/>
    <linearGradient id="linear-gradient-28" x1="0" y1="0.5" x2="1" y2="0.5" xlink:href="#linear-gradient-19"/>
    <linearGradient id="linear-gradient-29" x1="0" y1="0.5" x2="1" y2="0.5" xlink:href="#linear-gradient-19"/>
    <linearGradient id="linear-gradient-35" x1="0.5" y1="1" x2="0.5" gradientUnits="objectBoundingBox">
      <stop offset="0"/>
      <stop offset="1" stop-color="#c7a929"/>
    </linearGradient>
    <linearGradient id="linear-gradient-40" x1="0.5" x2="0.5" y2="1" gradientUnits="objectBoundingBox">
      <stop offset="0" stop-color="#b2b2b2"/>
      <stop offset="0.36" stop-color="#fff" stop-opacity="0.118"/>
      <stop offset="1" stop-color="#fff" stop-opacity="0"/>
    </linearGradient>
  </defs>
  <g id="Group_44" data-name="Group 44" transform="translate(-706.121 -818.119)">
    <g id="Group_42" data-name="Group 42" transform="translate(706.562 818.119)">
      <g id="Group_34" data-name="Group 34">
        <path id="Path_1936" data-name="Path 1936" d="M743.249,142.127,636.614,108.441l-1.129,107.151,112.892,2.555Z" transform="translate(348.535 -106.906)" fill="url(#linear-gradient)"/>
        <path id="Path_1937" data-name="Path 1937" d="M323.1,183.887,335.319,142.2,575.9,157.741l10.824,34.109Z" transform="translate(-188.344 -33.737)" fill="url(#linear-gradient-2)"/>
        <path id="Path_1938" data-name="Path 1938" d="M351.023,142.2l-23.681,5-13.374,36.64,24.841.045Z" transform="translate(-204.048 -33.737)" fill="url(#linear-gradient-3)"/>
        <path id="Path_1939" data-name="Path 1939" d="M526.971,143.249l123.111,14.512-2.117,52.122h-127.3Z" transform="translate(151.198 -31.463)" fill="url(#linear-gradient-4)"/>
        <path id="Path_1940" data-name="Path 1940" d="M1036.192,282.209l-1.669-95.347-94.731-25.355-5.557-.855-102.789-20-1.125-8.387L699.849,114.4l2.315,53.38,167.7,103.613,62.7,10.189Z" transform="translate(459.156 -93.99)" fill="url(#linear-gradient-4)"/>
        <path id="Path_1941" data-name="Path 1941" d="M312.125,154.789,296.77,158.4,292,192.141h91.782L375.674,377.8l26.739-6.908L415.42,178.818Z" transform="translate(-241.796 -6.452)" fill="url(#linear-gradient-3)"/>
        <path id="Path_1942" data-name="Path 1942" d="M392.312,370.9,396.185,192.9l-98.3-1.435,4.143-36.681,366.382,9.178,5.4,26.141-68.131,4.414,5.424,142.2Z" transform="translate(-231.694 -6.452)" fill="url(#linear-gradient-2)"/>
        <path id="Path_1943" data-name="Path 1943" d="M319.123,468.209l4.59-74.386,120.875-14.909,5.005-26.166,119.86-16.72v49.256l82.456-10.853v22.145l102.6-15.043-.5-147.9,119.34-27.853.378,47.21L977.5,235.219l210.275-33.925V150.876L1354.191,114.4l2,32.685,112.238-7.066v23.039l105.149-2.1-4.847,119.41L980.029,446.076Z" transform="translate(-195.187 -93.99)" fill="url(#linear-gradient-8)"/>
        <path id="Path_1944" data-name="Path 1944" d="M1690.021,225.891l-120.657-2.517-98.326,14.287L1467.92,134.2l-2.709,101.114-108.428,4.412-.506-112.017L1345.12,243.557l-158.812,13.351-1.835-84.017-7.964,87.392-128.62,19.768-8.991-82.468,2.4,86.991L876.563,316.732l-1.328,33.373-112.586,6.047L754,300.659v52.019L651.4,367.721V345.577l-6.721,33.841-70.6,15.985L568.94,356.43l.4,28.044-117.511,8.232-2.752-68.812-6.838,78.43L323.121,418.71l.079-53.74-3.778,64.611L1689.186,267.146Z" transform="translate(-194.673 -65.137)" opacity="0.3" fill="url(#linear-gradient-9)" style="mix-blend-mode: multiply;isolation: isolate"/>
        <path id="Path_1945" data-name="Path 1945" d="M346.467,511.454s-61.029-66.68-72.931-143.5c0,0,359.427-55.112,786.794-106.991,18.145-2.2,62.222-49.139,62.222-49.139,179.293-32.33,480.878-54.862,633.741-43.292,0,0-83.392,228.635-163.816,335.813Z" transform="translate(-273.536 16.672)" fill="url(#linear-gradient-10)"/>
        <path id="Path_1947" data-name="Path 1947" d="M320.906,166.543l52.381,73.8L372.154,268.6,306.368,166.543Z" transform="translate(-217.109 19.023)" fill="url(#linear-gradient-11)"/>
        <path id="Path_1948" data-name="Path 1948" d="M301.369,166.831l72.879,100.838,6.5.927L314.959,166.543Z" transform="translate(-225.7 19.023)" fill="url(#linear-gradient-12)"/>
        <path id="Path_1949" data-name="Path 1949" d="M453.319,167.394l-41.063,85.511.7,18.3,55.527-105.22Z" transform="translate(-35.123 17.811)" fill="url(#linear-gradient-11)"/>
        <path id="Path_1950" data-name="Path 1950" d="M448.23,166.79l-36.259,64.868.773,20.282,41.063-85.511Z" transform="translate(-35.612 18.776)" fill="url(#linear-gradient-12)"/>
        <path id="Path_1951" data-name="Path 1951" d="M411.2,184.372,537.985,199.25v15.013l49.6.459,1.643,17.005-95.569,13.193V222.775L411.2,233.628Z" transform="translate(-36.935 57.665)" fill="url(#linear-gradient-4)"/>
        <path id="Path_1952" data-name="Path 1952" d="M764.75,481.137s47.933-83.587,53.743-315.855c0,0,90.668,2.141,130.82,6.645C949.312,171.927,834.8,386.771,764.75,481.137Z" transform="translate(570.699 16.29)" fill="url(#linear-gradient-16)"/>
        <path id="Path_1953" data-name="Path 1953" d="M592.042,234.375l1.663-93.357,117.573-32.577-1.129,107.151Z" transform="translate(273.871 -106.906)" fill="url(#linear-gradient-17)"/>
        <path id="Path_1954" data-name="Path 1954" d="M441.531,282.214l6.556-98.65,95.711-16.4.34,101.48Z" transform="translate(15.192 20.37)" fill="url(#linear-gradient-17)"/>
        <path id="Path_1955" data-name="Path 1955" d="M743.582,122.488,740.874,256.5V122.488Z" transform="translate(529.664 -76.46)" fill="#8b141a"/>
        <path id="Path_1956" data-name="Path 1956" d="M701.888,124.759,699.829,263.8l4.119-.726L702.8,124.7Z" transform="translate(459.121 -71.664)" fill="#8b141a"/>
        <path id="Path_1957" data-name="Path 1957" d="M640.4,141.834l1.436,99.638-2.041.723-2.182-99.912Z" transform="translate(352.189 -34.531)" fill="#8b141a"/>
        <path id="Path_1958" data-name="Path 1958" d="M793.037,150.033l-146.712,22.1,146.712-19.947Z" transform="translate(367.166 -16.76)" fill="#8b141a"/>
        <path id="Path_1959" data-name="Path 1959" d="M584.064,150.725l2.349,97.394,2.443-1.342-3.63-97.445Z" transform="translate(260.16 -18.28)" fill="#8b141a"/>
        <path id="Path_1960" data-name="Path 1960" d="M523.124,158.394v132.02h4.03l-2.016-132.37Z" transform="translate(155.423 0.602)" fill="#8b141a"/>
        <path id="Path_1961" data-name="Path 1961" d="M479.271,197.269l121.237-21.853L479.271,193.973Z" transform="translate(80.054 38.253)" fill="#8b141a"/>
        <path id="Path_1962" data-name="Path 1962" d="M411.2,199.923V239.7l.8-.212V199.923Z" transform="translate(-36.935 91.37)" fill="#8b141a"/>
        <path id="Path_1963" data-name="Path 1963" d="M366.684,215.817,364.451,279.5l1.117-.157,6.122-89.69Z" transform="translate(-117.283 69.106)" fill="#8b141a"/>
        <path id="Path_1964" data-name="Path 1964" d="M638.561,158.369l21.407-1.357-21.581,4.272Z" transform="translate(353.523 -1.635)" fill="#8b141a"/>
        <path id="Path_1965" data-name="Path 1965" d="M524.353,200.526l140.875-21.833L524.353,206.239Z" transform="translate(157.537 45.357)" fill="#8b141a"/>
        <path id="Path_1966" data-name="Path 1966" d="M523.865,175.972l1.328,87.237,164.731-26.445-2.4-86.991Z" transform="translate(156.697 -17.326)" fill="#f46859" style="mix-blend-mode: soft-light;isolation: isolate"/>
        <path id="Path_1967" data-name="Path 1967" d="M700.586,129.555l1.72,97.361,107.809-6.763V122.488Z" transform="translate(460.423 -76.46)" fill="#f46859" style="mix-blend-mode: soft-light;isolation: isolate"/>
        <path id="Path_1968" data-name="Path 1968" d="M490.843,184.372l-119.86,16.72-6.122,89.69L490.843,273.4Z" transform="translate(-116.577 57.665)" fill="#f46859" style="mix-blend-mode: soft-light;isolation: isolate"/>
        <g id="Group_33" data-name="Group 33" transform="translate(1144.916 215.314)">
          <path id="Path_1969" data-name="Path 1969" d="M711.86,183.215l-.353-5.774-16.84,1.444.353,5.746,2.781-.238a35.446,35.446,0,0,1,1.392-5.274l4.78,2.771s-.734,3.592-1.291,3.592a14.059,14.059,0,0,0-1.846.827l.734,11.488,5.386,1.473-5.234.972,1.164,18.529,5.459-.472-2.172-34.613Z" transform="translate(-694.667 -172.671)" fill="#d6dbff"/>
          <path id="Path_1970" data-name="Path 1970" d="M712.439,177.023l-3.668.323a16.332,16.332,0,0,1-.582,2.033,5.443,5.443,0,0,1-.935,1.679,4.659,4.659,0,0,1-1.593,1.238,7.218,7.218,0,0,1-2.577.646l.3,4.479,4.2-.355,1.922,30.812,5.462-.472Z" transform="translate(-680.201 -173.577)" fill="#d6dbff"/>
          <path id="Path_1971" data-name="Path 1971" d="M726.513,210.949l-10.317.884a5.832,5.832,0,0,1-.1-.884,6.734,6.734,0,0,1,.606-3.269,23.421,23.421,0,0,1,1.8-3.3c.731-1.147,1.542-2.357,2.4-3.624a23.9,23.9,0,0,0,1.517-2.5c-2.248-.06-4.247-.149-5.84-.177-.381.589-.783,1.15-1.188,1.71a43.727,43.727,0,0,0-2.376,3.741,19.976,19.976,0,0,0-1.745,4.3,15.853,15.853,0,0,0-.457,5.271l.3,4.951,15.752-1.356Zm-13.528.972c-.53,0-.177-2.208-.959-3.563-.759-1.356,4.575-3.624,4.575-3.624l-2.324,3.595S713.542,211.921,712.984,211.921Zm12.441-25.95c-.2-3.272-1.036-5.717-2.529-7.336a7,7,0,0,0-6.22-2.122l4.755,1.533v1.5l-5.69-.852.935-2.182a7.477,7.477,0,0,0-5.891,3.155q-1.9,2.779-1.593,7.687l.253,3.947,5.133-.44-.253-4.333a4.89,4.89,0,0,1,.557-3.152,2.607,2.607,0,0,1,2-1.058,2.434,2.434,0,0,1,2.126.763c.555.589.883,1.8,1.011,3.595a16.2,16.2,0,0,1-.481,5.214,19.076,19.076,0,0,1-1.745,4.184c-.378.678-.758,1.324-1.188,1.945,1.618-.032,3.717-.06,6.019-.12.253-.412.454-.823.683-1.267A23.159,23.159,0,0,0,725,191.773,18.633,18.633,0,0,0,725.425,185.971Z" transform="translate(-669.774 -174.777)" fill="#d6dbff"/>
          <path id="Path_1972" data-name="Path 1972" d="M735.095,208.749l-.353-5.774-2.58.238-.177-2.917c-1.441-.06-3.311-.149-5.41-.234l.226,3.592-5.486.472,1.215-4.213c-1.568-.06-3.186-.146-4.8-.206l-1.417,4.862.378,5.742,10.494-.884.454,7.336,5.337-.472-.457-7.3Zm-3.793-19h-3.844l3.339-1.264.43-.266-.783-12.283-5.943.5-1.694,5.831,2.781,1.384H722.4l-4.423,15.232c1.642-.06,3.311-.089,4.9-.149l2.982-10.25.634,10.161c2.071-.057,3.917-.117,5.359-.146Z" transform="translate(-657.471 -175.935)" fill="#d6dbff"/>
        </g>
        <path id="Path_1973" data-name="Path 1973" d="M1731.044,199.975l-3.54,6.886s-376.147,7.317-1448.241,147.325l1.1-2.154S1559.547,167.779,1731.044,199.975Z" transform="translate(-263.693 83.298)" fill="url(#linear-gradient-19)" style="mix-blend-mode: multiply;isolation: isolate"/>
        <path id="Path_1974" data-name="Path 1974" d="M1733.33,196.775s-181.985-26.08-1452.966,156.792l-1.1,2.154S1429.38,187.092,1731.044,201.51Z" transform="translate(-263.693 81.764)" fill="url(#linear-gradient-20)"/>
        <path id="Path_1975" data-name="Path 1975" d="M1659.246,236.266l-4.66,7.77s-318.571-26.121-1367.8,74.193l-2.012,1.039S1339.248,198.976,1659.246,236.266Z" transform="translate(-254.213 154.598)" fill="url(#linear-gradient-19)" style="mix-blend-mode: multiply;isolation: isolate"/>
        <path id="Path_1976" data-name="Path 1976" d="M1663.455,231.977s-279.041-33.625-1376.664,89.133l-2.012,1.039s956.075-116.75,1374.468-83Z" transform="translate(-254.213 151.715)" fill="url(#linear-gradient-20)"/>
        <path id="Path_1977" data-name="Path 1977" d="M1793.547,174.347l-4.573,8.517s-283.758-36.507-663.725,37.065c0,0-47.987,39.532-58.734,43.453S273.536,370.756,273.536,370.756s789.605-105.582,799.229-112.316,49.787-43.814,49.787-43.814S1590.906,136.946,1793.547,174.347Z" transform="translate(-273.536 13.871)" fill="url(#linear-gradient-20)"/>
        <path id="Path_1978" data-name="Path 1978" d="M273.536,297.584s93.479,112.509,200,112.8c282.212.77,521.411-178.479,666.42-204.113,290.786-51.4,505.094,151.439,505.094,151.439l-36.063,52.674L337.107,429.918S282.391,369.243,273.536,297.584Z" transform="translate(-273.536 87.043)" opacity="0.49" fill="url(#linear-gradient-24)" style="mix-blend-mode: multiply;isolation: isolate"/>
        <path id="Path_1979" data-name="Path 1979" d="M782.411,179.429c-73.913-10.319-155.734,15.33-155.734,15.33,8.963,101.657,53.417,248.852,53.417,248.852h109.53C774.385,368.37,782.411,179.429,782.411,179.429Z" transform="translate(333.397 41.647)" opacity="0.3" fill="url(#linear-gradient-25)" style="mix-blend-mode: color-dodge;isolation: isolate"/>
        <path id="Path_1980" data-name="Path 1980" d="M740.664,423.162S701.211,334.1,667.986,186.286c0,0-42.5-2.749-84.882,10.975,0,0,38.466,130.376,117.449,226.671Z" transform="translate(258.51 61.326)" opacity="0.3" fill="url(#linear-gradient-25)" style="mix-blend-mode: color-dodge;isolation: isolate"/>
        <path id="Path_1982" data-name="Path 1982" d="M603.732,191.864c0,4.225-1.936,7.649-4.32,7.649s-4.32-3.424-4.32-7.649,1.936-7.652,4.32-7.652S603.732,187.636,603.732,191.864Z" transform="translate(279.113 57.319)" fill="url(#linear-gradient-27)" style="mix-blend-mode: multiply;isolation: isolate"/>
        <path id="Path_1983" data-name="Path 1983" d="M515.971,214.013c0,4.225-1.933,7.652-4.32,7.652s-4.317-3.427-4.317-7.652,1.933-7.652,4.317-7.652S515.971,209.788,515.971,214.013Z" transform="translate(128.286 105.324)" fill="url(#linear-gradient-28)" style="mix-blend-mode: multiply;isolation: isolate"/>
        <path id="Path_1984" data-name="Path 1984" d="M421.828,224.822c0,4.225-1.933,7.649-4.317,7.649s-4.32-3.424-4.32-7.649,1.933-7.652,4.32-7.652S421.828,220.6,421.828,224.822Z" transform="translate(-33.515 128.752)" fill="url(#linear-gradient-29)" style="mix-blend-mode: multiply;isolation: isolate"/>
        <path id="Path_1985" data-name="Path 1985" d="M642.657,186.617c0,4.225-1.933,7.652-4.32,7.652s-4.317-3.427-4.317-7.652,1.933-7.652,4.317-7.652S642.657,182.392,642.657,186.617Z" transform="translate(346.017 45.947)" fill="url(#linear-gradient-29)" style="mix-blend-mode: multiply;isolation: isolate"/>
        <path id="Path_1986" data-name="Path 1986" d="M466.172,219.025c0,4.229-1.933,7.652-4.317,7.652s-4.32-3.424-4.32-7.652,1.933-7.649,4.32-7.649S466.172,214.8,466.172,219.025Z" transform="translate(42.698 116.194)" fill="url(#linear-gradient-29)" style="mix-blend-mode: multiply;isolation: isolate"/>
        <path id="Path_1987" data-name="Path 1987" d="M689.064,181.971c0,4.225-1.933,7.652-4.32,7.652s-4.317-3.427-4.317-7.652,1.933-7.649,4.317-7.649S689.064,177.746,689.064,181.971Z" transform="translate(425.776 35.883)" fill="url(#linear-gradient-19)" style="mix-blend-mode: multiply;isolation: isolate"/>
        <path id="Path_1988" data-name="Path 1988" d="M341.339,170.732l-.533,28.4,17.019.08V171.456Z" transform="translate(-157.92 28.103)" fill="url(#linear-gradient-3)"/>
        <path id="Path_1989" data-name="Path 1989" d="M394.443,170.732l-.533,28.4,17.019.08V171.456Z" transform="translate(-66.653 28.103)" fill="url(#linear-gradient-3)"/>
        <path id="Path_1993" data-name="Path 1993" d="M668.167,136.859,757.005,114.4l-7.8,110.642-82.607,14.714Z" transform="translate(402 -93.99)" opacity="0.3" fill="url(#linear-gradient-35)" style="mix-blend-mode: color-dodge;isolation: isolate"/>
        <path id="Path_1994" data-name="Path 1994" d="M755.755,131.779l-3.048,78.083,71.984,10.51,3.7-91.275Z" transform="translate(550.001 -62.135)" opacity="0.3" fill="url(#linear-gradient-35)" style="mix-blend-mode: color-dodge;isolation: isolate"/>
        <path id="Path_1995" data-name="Path 1995" d="M782.889,129.1l-3.7,91.275,120.657,2.517-1.669-67.882Z" transform="translate(595.507 -62.135)" opacity="0.3" fill="url(#linear-gradient-35)" style="mix-blend-mode: color-dodge;isolation: isolate"/>
        <path id="Path_1996" data-name="Path 1996" d="M531.319,148.194l-10.385,98.171-41.35,9.9-.5-95.883Z" transform="translate(79.741 -20.746)" opacity="0.3" fill="url(#linear-gradient-35)" style="mix-blend-mode: color-dodge;isolation: isolate"/>
        <path id="Path_1997" data-name="Path 1997" d="M399.31,191.8l-12.157,74.551,65.78-4.674-.4-77.3Z" transform="translate(-78.265 57.665)" opacity="0.3" fill="url(#linear-gradient-35)" style="mix-blend-mode: color-dodge;isolation: isolate"/>
        <path id="Path_1998" data-name="Path 1998" d="M443.942,311.89l95.651-16.869-.345.472-.334-47.894a.66.66,0,0,1,.465-.665L658.671,218.8a.808.808,0,0,1,.245-.016L782.044,233.1a1.12,1.12,0,0,1,.9,1.159l.014,10.912-1.145-1.172,64.617-9.851-.965,1.254,1.547-93.359a1.4,1.4,0,0,1,.941-1.359L965.508,108a1.105,1.105,0,0,1,.65.013l106.594,33.866-.516-.022,67.238-14.7a.848.848,0,0,1,.321-.013l130.447,18.086a.944.944,0,0,1,.753.846l1.115,8.387-.7-.827,102.075,20.04c16.85,4.311,33.652,8.9,50.475,13.354l50.453,13.449a.35.35,0,0,1,.239.342l1.025,84.566-1.639-84.553.24.342-101.061-25.893L1271.125,155.6a.941.941,0,0,1-.7-.83l-1.137-8.384.753.846-130.493-17.646.318-.013-67.2,14.925a1.062,1.062,0,0,1-.52-.022l-106.678-33.5.65.01L848.524,143.458l.941-1.359-1.778,93.352a1.242,1.242,0,0,1-.968,1.257l-64.645,9.629a1.055,1.055,0,0,1-1.136-1.017l-.008-.155.014-10.912.9,1.162L658.75,220.695l.245-.013L539.607,248.258l.467-.665-.013,47.9a.461.461,0,0,1-.348.472Z" transform="translate(19.336 -107.957)" fill="#fffff8"/>
      </g>
    </g>
    <g id="Group_43" data-name="Group 43" transform="translate(706.121 1215.538)">
      <path id="Path_2106" data-name="Path 2106" d="M-425.314-930.933l-1.922.109v0l-85.1,4.855h0l-3.579.385,7.068,92.885,2.488.7v0l6.829-2.185-1.927-80.561,24.964-.649,14.073-5.75,35.439-4.615,3.312,64.788,1.207.656h0l.008,0v-.008l1.586-.742-3.188-63.094,40.869,1.04,5.61-3.424,43.668-3.238,36.522-4.073,5.256-4.685-133.187,7.6Z" transform="translate(515.912 938.531)" opacity="0.3" fill="url(#linear-gradient-40)" style="isolation: isolate"/>
    </g>
  </g>
</svg>
