<svg xmlns="http://www.w3.org/2000/svg" xmlns:xlink="http://www.w3.org/1999/xlink" width="70.879" height="70.877" viewBox="0 0 70.879 70.877">
  <defs>
    <linearGradient id="linear-gradient" x1="0.153" y1="0.242" x2="1" y2="1" gradientUnits="objectBoundingBox">
      <stop offset="0" stop-color="#f7d100"/>
      <stop offset="1" stop-color="#e21010"/>
    </linearGradient>
  </defs>
  <path id="Icon_map-playground" data-name="Icon map-playground" d="M9.462,46.342a8.263,8.263,0,0,0,0-16.519,8.263,8.263,0,0,0,0,16.519ZM54.5,60.542a.817.817,0,0,1,1.142.18l1.487,2.114a.891.891,0,0,1-.179,1.18L46.041,72.163a.826.826,0,0,1-1.145-.182l-1.482-2.114a.886.886,0,0,1,.179-1.177L54.5,60.542Zm-12.331-10.5-4.327-7.8-2.271,1.706L39.9,51.786ZM32.075,31.815,15.249,1.44l-3.219.022,17.754,32.08ZM47.917,47.886a9.774,9.774,0,0,1,4.371-1.761H67.7c3.042,0,4.623,3.06,4.623,6.17,0,3.128-1.581,4.616-4.623,4.616H53.829l-16.7,13.1c-5.868,4.344-9.424-.428-9.424-.428L14.637,56.132c-2.193-2.7-1.718-7.841.911-10.117L33.636,32.768a4.2,4.2,0,0,1,5.986.529,4.46,4.46,0,0,1-.533,6.157L27.51,48.171l8.319,8.45Z" transform="translate(-1.44 -1.44)" fill="url(#linear-gradient)"/>
</svg>
