<svg xmlns="http://www.w3.org/2000/svg" xmlns:xlink="http://www.w3.org/1999/xlink" width="565.213" height="644.125" viewBox="0 0 565.213 644.125">
  <defs>
    <linearGradient id="linear-gradient" x1="0.378" y1="1.727" x2="0.378" y2="0.767" gradientUnits="objectBoundingBox">
      <stop offset="0" stop-color="#ff5c1b"/>
      <stop offset="0.998" stop-color="#e03347"/>
    </linearGradient>
    <linearGradient id="linear-gradient-2" x1="0.456" y1="1.807" x2="0.456" y2="0.809" xlink:href="#linear-gradient"/>
    <radialGradient id="radial-gradient" cx="0.487" cy="0.499" r="0.166" gradientTransform="matrix(6.21, -0.143, 1.937, 2.132, 12.588, -1.396)" gradientUnits="objectBoundingBox">
      <stop offset="0" stop-color="#5178fe"/>
      <stop offset="0.994" stop-color="#713592"/>
    </radialGradient>
    <radialGradient id="radial-gradient-2" cx="0.468" cy="0.268" r="0.931" gradientTransform="matrix(0.448, -0.143, 0.04, 0.605, -2.327, 25.728)" gradientUnits="objectBoundingBox">
      <stop offset="0" stop-color="#ffb934"/>
      <stop offset="1" stop-color="#ff8625"/>
    </radialGradient>
    <linearGradient id="linear-gradient-3" x1="0.435" y1="1.669" x2="0.435" y2="0.824" gradientUnits="objectBoundingBox">
      <stop offset="0.017" stop-color="#fff"/>
      <stop offset="1" stop-color="#d13392"/>
    </linearGradient>
    <linearGradient id="linear-gradient-4" x1="0.455" y1="2.439" x2="0.455" y2="1.211" xlink:href="#linear-gradient-3"/>
    <radialGradient id="radial-gradient-3" cx="0.5" cy="0.5" r="0.435" gradientTransform="translate(-0.199) scale(1.397 1)" xlink:href="#radial-gradient"/>
    <linearGradient id="linear-gradient-5" y1="0.5" x2="1" y2="0.5" gradientUnits="objectBoundingBox">
      <stop offset="0" stop-color="#60309d"/>
      <stop offset="0.994" stop-color="#530e68"/>
    </linearGradient>
    <linearGradient id="linear-gradient-6" x1="0.801" y1="1.019" x2="0.279" gradientUnits="objectBoundingBox">
      <stop offset="0.017" stop-color="#e2dceb"/>
      <stop offset="1" stop-color="#fff"/>
    </linearGradient>
    <linearGradient id="linear-gradient-7" y1="0.5" x2="1" y2="0.5" gradientUnits="objectBoundingBox">
      <stop offset="0" stop-color="#d9d4ff"/>
      <stop offset="0.994" stop-color="#530e68"/>
    </linearGradient>
    <linearGradient id="linear-gradient-8" y1="0.5" x2="1" y2="0.5" gradientUnits="objectBoundingBox">
      <stop offset="0" stop-color="#b2c9ff"/>
      <stop offset="0.212" stop-color="#8e7bbb"/>
      <stop offset="1" stop-color="#f6ecf2"/>
    </linearGradient>
    <radialGradient id="radial-gradient-4" cx="0.5" cy="0.5" r="4.416" gradientTransform="translate(0.46) scale(0.08 1)" gradientUnits="objectBoundingBox">
      <stop offset="0" stop-color="#fff"/>
      <stop offset="1"/>
    </radialGradient>
    <linearGradient id="linear-gradient-10" x1="0.5" y1="1" x2="0.5" gradientUnits="objectBoundingBox">
      <stop offset="0.006" stop-color="#530e68"/>
      <stop offset="1" stop-color="#60309d"/>
    </linearGradient>
    <radialGradient id="radial-gradient-5" cx="0.5" cy="0.5" r="0.369" gradientTransform="translate(-1.19) scale(3.38 1)" xlink:href="#radial-gradient"/>
    <radialGradient id="radial-gradient-6" cx="0.5" cy="0.5" r="1.806" gradientTransform="translate(0.4) scale(0.2 1)" xlink:href="#radial-gradient-4"/>
    <radialGradient id="radial-gradient-7" cx="1.227" cy="0.005" r="0.356" gradientTransform="translate(-3.569) scale(8.137 1)" gradientUnits="objectBoundingBox">
      <stop offset="0" stop-color="#9281a4"/>
      <stop offset="1"/>
    </radialGradient>
    <linearGradient id="linear-gradient-12" x1="0.5" y1="1" x2="0.5" gradientUnits="objectBoundingBox">
      <stop offset="0.017" stop-color="#ab9ce3"/>
      <stop offset="1" stop-color="#aeb3f3"/>
    </linearGradient>
    <linearGradient id="linear-gradient-14" y1="0.5" x2="1" y2="0.5" gradientUnits="objectBoundingBox">
      <stop offset="0" stop-color="#ff6e27"/>
      <stop offset="0.998" stop-color="#e03347"/>
    </linearGradient>
    <radialGradient id="radial-gradient-8" cx="0.318" cy="0.726" r="0.355" gradientTransform="translate(-7.941) scale(16.882 1)" xlink:href="#radial-gradient-7"/>
    <radialGradient id="radial-gradient-9" cx="0.5" cy="0.5" r="0.398" gradientTransform="translate(-0.466) scale(1.931 1)" gradientUnits="objectBoundingBox">
      <stop offset="0" stop-color="#b3819d"/>
      <stop offset="1" stop-color="#785ca6"/>
    </radialGradient>
    <linearGradient id="linear-gradient-17" x1="0.711" y1="0.953" x2="0.395" y2="-0.015" xlink:href="#linear-gradient-8"/>
    <radialGradient id="radial-gradient-10" cx="0.364" cy="0.463" r="0.642" gradientTransform="translate(-0.145) scale(1.289 1)" gradientUnits="objectBoundingBox">
      <stop offset="0" stop-color="#2994fe"/>
      <stop offset="0.994" stop-color="#713592"/>
    </radialGradient>
    <linearGradient id="linear-gradient-18" x1="0.5" y1="1" x2="0.5" gradientUnits="objectBoundingBox">
      <stop offset="0.017" stop-color="#eeebf4"/>
      <stop offset="1" stop-color="#fff"/>
    </linearGradient>
    <linearGradient id="linear-gradient-19" x1="0.5" y1="1" x2="0.5" y2="0" xlink:href="#linear-gradient-6"/>
    <linearGradient id="linear-gradient-20" y1="0.5" x2="1" y2="0.5" gradientUnits="objectBoundingBox">
      <stop offset="0.017" stop-color="#ab9ce3"/>
      <stop offset="1" stop-color="#fff"/>
    </linearGradient>
    <linearGradient id="linear-gradient-22" x1="0" y1="0.5" x2="1" y2="0.5" xlink:href="#linear-gradient-6"/>
  </defs>
  <g id="Group_6223" data-name="Group 6223" transform="translate(-989.787 -1873.724)">
    <g id="Group_5648" data-name="Group 5648" transform="translate(101.576 1840.308)">
      <g id="Group_5636" data-name="Group 5636" transform="translate(1024.868 33.416)">
        <path id="Path_16077" data-name="Path 16077" d="M1118.62,48.718l24.234,158.866s-28.249-11.246-73,3.1l-2.638,1.369s-15.991-6.93-41.624-2.4l-.012,0a116.8,116.8,0,0,0-21.89,6.2s-17.44-22.188-49.179-11.032c0,0,6.658-38.428,33.816-77.419C1012.418,92.82,1052.63,57.785,1118.62,48.718Z" transform="translate(-954.51 -18.786)" fill-rule="evenodd" fill="url(#linear-gradient)"/>
        <path id="Path_16078" data-name="Path 16078" d="M1238.148,155.236c-14.3-.155-24.341,4.032-31.155,8.943h-.015c-9.38,6.76-12.681,14.87-12.681,14.87-34.2-4.879-62.067,13.454-62.067,13.454l-2.939-.6c-39.674-3.253-70.929,16.672-70.929,16.672L1034.128,49.708c82.313-11.308,138.24,26.932,170.422,60.485C1227.256,133.883,1238.148,155.236,1238.148,155.236Z" transform="translate(-870.018 -19.776)" fill-rule="evenodd" fill="url(#linear-gradient-2)"/>
        <path id="Path_16079" data-name="Path 16079" d="M1322.64,124.682c-14.3-.155-24.341,4.032-31.155,8.943h-.015c-1.115-.176-37.592-5.894-119.627,2.766-11.978,1.262-23.537,3.075-34.54,5.235-64.355,12.644-109.987,37.51-111.712,38.461l-.012,0a116.8,116.8,0,0,0-21.89,6.2s-17.44-22.188-49.179-11.032c0,0,6.658-38.428,33.816-77.419l22.733-12.646,117.275-2.349,160.707-3.2C1311.748,103.329,1322.64,124.682,1322.64,124.682Z" transform="translate(-954.51 10.778)" fill="#c76da5" fill-rule="evenodd" opacity="0.5" style="mix-blend-mode: multiply;isolation: isolate"/>
        <path id="Path_16080" data-name="Path 16080" d="M1082.776,368.1l-49.49-332.623s1.513-4.182,4.646-.638l51.559,332.337Z" transform="translate(-870.911 -33.416)" fill-rule="evenodd" fill="url(#radial-gradient)"/>
        <path id="Path_16081" data-name="Path 16081" d="M1322.64,155.295s-.241-.219-.736-.614c-4.4-3.5-28.362-20.33-63.743-3.84,0,0-33.748-23.51-71.813,4.462,0,0-18.7-12.8-52.829-7.869-30.578,4.413-46.6,20.973-46.6,20.973-53.26-15.187-71.906,15.839-71.906,15.839-40.52-7.6-57.834,17.337-60.212,21.147-.1.158-.188.317-.289.477C981.976,63.85,1112.315,50.341,1118.4,49.784c.152-.008.221-.018.221-.018s.8-.149,2.286-.379l.029,0c17.609-2.686,131.658-15.2,197.42,98.222,1.342,2.293,2.651,4.656,3.955,7.071C1322.424,154.874,1322.524,155.085,1322.64,155.295Z" transform="translate(-954.51 -19.834)" fill-rule="evenodd" fill="url(#radial-gradient-2)"/>
        <path id="Path_16082" data-name="Path 16082" d="M1120.772,48.523c-43.475,29.479-34,119.021-34,119.021-53.26-15.187-71.906,15.839-71.906,15.839-40.52-7.6-57.834,17.337-60.212,21.147,18.885-31.47,45.452-25.77,45.452-25.77C1027.2,59.935,1113.317,49.427,1118.251,48.922c.152-.008.221-.018.221-.018-93.94,18.685-100.553,127.714-100.779,129.334,11.234-20.962,55.719-22.767,55.719-22.767,4.994-83.565,45.541-105.984,47.346-106.946Z" transform="translate(-954.362 -18.973)" fill-rule="evenodd" opacity="0.5" fill="url(#linear-gradient-3)" style="mix-blend-mode: multiply;isolation: isolate"/>
        <path id="Path_16083" data-name="Path 16083" d="M1235.453,154.412l-.406,0c-4.4-3.5-28.362-20.33-63.743-3.84,0,0-33.748-23.51-71.813,4.462,0,0-14.121-89.455-63.1-106.158,1.356.3,45.071,10.723,75.037,90.053,0,0,43.2-10.238,60.223,6.841-.7-1.493-42.327-103.449-135.29-96.9,0,0,89-17.153,152.328,92.669,0,0,19.06-10.115,42.814,5.8C1232.84,149.633,1234.149,152,1235.453,154.412Z" transform="translate(-867.654 -19.57)" fill-rule="evenodd" opacity="0.5" fill="url(#linear-gradient-4)" style="mix-blend-mode: multiply;isolation: isolate"/>
      </g>
      <g id="Group_5646" data-name="Group 5646" transform="translate(1074.154 197.294)">
        <path id="Path_16084" data-name="Path 16084" d="M1348.9,124.711s-40.321,261.7-41.583,472.714H996.664s0-.092-.018-.276c-.078-.865-.311-3.721-.678-8.343-2.251-28.837-9.218-126.179-9.257-233.188-.039-54.233,1.706-110.951,6.752-162.477,1.843-19.023,4.133-37.346,6.967-54.564,0,0,167.365-23.074,334.126-21.269Z" transform="translate(-969.625 -117.179)" fill-rule="evenodd" fill="url(#radial-gradient-3)"/>
        <path id="Path_16085" data-name="Path 16085" d="M1174.8,117.255s-32.1,204.77-37.56,480.127h10.329s6.334-252.6,41.573-472.723Z" transform="translate(-809.876 -117.135)" fill-rule="evenodd" fill="url(#linear-gradient-5)"/>
        <path id="Path_16086" data-name="Path 16086" d="M1303.774,122.255l-28.983,462.531H991.228l9.153-437.534Z" transform="translate(-964.831 -112.354)" fill="#7e6da5" fill-rule="evenodd" opacity="0.5" style="mix-blend-mode: multiply;isolation: isolate"/>
        <path id="Path_16087" data-name="Path 16087" d="M1317.292,124.6c-2,9.319-51.869,244.369-34.074,454.982l-230.04,2.007-48.414.423-2.368.02s-17.6-45.118-22.645-131.981a863.423,863.423,0,0,1,.309-101.08c2.814-47.346,9.49-101.614,22.2-162.623q4.134-20.055,9.218-41.084s117.8-18.36,305.893-20.938C1317.37,124.32,1317.35,124.412,1317.292,124.6Z" transform="translate(-978.421 -110.38)" fill-rule="evenodd" fill="url(#linear-gradient-6)"/>
        <path id="Path_16088" data-name="Path 16088" d="M1026.418,137.173s-9.082,20.042-6.359,24.53,5.553,6.154,10.067,6.426,168.731-7.572,173.5-8.533a8.323,8.323,0,0,0,6.736-6.052c.967-4.556,2.8-28.5,2.8-28.5h-3.428s-2.636,23.5-9.022,27.174S1035,163.2,1031.881,161.771s1.48-25.07,1.48-25.07Z" transform="translate(-934.775 -109.691)" fill-rule="evenodd" opacity="0.5" fill="url(#linear-gradient-7)" style="mix-blend-mode: multiply;isolation: isolate"/>
        <g id="Group_5637" data-name="Group 5637" transform="translate(84.64 3.994)">
          <path id="Path_16089" data-name="Path 16089" d="M1031.808,168.891a24.782,24.782,0,0,1-2.634-.094c-4.669-.593-9.69-2.879-9.69-6.506,0-.258,4.225-27.462,8.445-29.177,2.15-.876,14.3-1.944,19.419-2.363l.443,4.877c-6.99.573-14.862,1.381-17.3,1.864-1.742,3.644-5.444,21.3-5.827,24.555a9.757,9.757,0,0,0,5.188,1.9c2.241.288,18.2-.413,40.661-1.774a4.828,4.828,0,0,0,2.552-.9,59.538,59.538,0,0,1,32.775-10.678c16.552-.307,30.772,5.988,34.724,7.914a4.925,4.925,0,0,0,2.379.5c1.847-.078,4.753-.188,8.282-.321,13.456-.507,41.459-1.561,44.481-2.277,3.834-.91,6.126-3.083,7-6.641,1.032-4.194,3.731-20.22,4.374-25.617a78.074,78.074,0,0,0-9.075.589l-.622-4.861c13.165-1.514,14.486-.147,14.93,1.948.484,2.3-3.914,26.343-4.58,29.052-1.319,5.366-5.042,8.922-10.772,10.279-3.265.775-24.283,1.62-45.528,2.42-3.518.133-6.417.241-8.257.319a10.277,10.277,0,0,1-4.97-1.035c-3.677-1.794-16.867-7.625-32.269-7.373a54.02,54.02,0,0,0-29.735,9.673,10.137,10.137,0,0,1-5.357,1.894C1058.8,167.785,1039.334,168.891,1031.808,168.891Z" transform="translate(-1019.484 -119.235)" fill="url(#linear-gradient-8)"/>
        </g>
        <path id="Path_16090" data-name="Path 16090" d="M1033.442,129.109l-1.771,2.59a3.789,3.789,0,0,0-3.564,3.2c-.348,2.473,2.018,3.981,2.018,3.981l-.037,3.719s102.372-6.629,159.4-9.894l2.172-4.376s-4.625-4.808-1.519-7.455l1.519-2.831S1103.1,121.836,1033.442,129.109Z" transform="translate(-925.73 -116.385)" fill-rule="evenodd" fill="url(#linear-gradient-8)"/>
        <path id="Path_16091" data-name="Path 16091" d="M1028.426,131.784s125.124-8.355,159.781-9.714c0,0,.138-1.972,1.563-2.584,0,0-110.591,5.749-158.475,10.829C1031.3,130.315,1029.016,130.571,1028.426,131.784Z" transform="translate(-925.355 -115.002)" fill-rule="evenodd" fill="url(#radial-gradient-4)" style="mix-blend-mode: screen;isolation: isolate"/>
        <path id="Path_16092" data-name="Path 16092" d="M1095.981,148.016s-4.059,4.612.894,8.466c0,0,19.221.614,24.384-.305s7.066-3.361,8.026-8.552,2.591-19.041,2.591-19.041-3.547-2.852-8.593-.051c0,0-1.977,12.644-2.422,14.538a4.96,4.96,0,0,1-4.514,4.12C1114.332,147.372,1095.981,148.016,1095.981,148.016Z" transform="translate(-855.325 -107.53)" fill-rule="evenodd" fill="url(#linear-gradient-10)"/>
        <path id="Path_16093" data-name="Path 16093" d="M1051.968,157.163s-3.139-2.647-.13-8.358c0,0-14.931,1.021-19.338.714s-4.656-2.686-4.763-4.828,1.933-10.982,1.933-10.982a7.139,7.139,0,0,0-8.131,0s-2.721,13.493-2.113,17.169c.573,3.468,3.8,6.563,9.17,6.868S1051.968,157.163,1051.968,157.163Z" transform="translate(-935 -102.606)" fill-rule="evenodd" fill="url(#linear-gradient-10)"/>
        <path id="Path_16094" data-name="Path 16094" d="M1035.862,140.811,1037,142.5l-1.006.082a8.431,8.431,0,0,0,0,4.916l1.006-.088s.029.636-1.006,1.764c0,0-1.6-1.066-1.6-4.049A5.9,5.9,0,0,1,1035.862,140.811Z" transform="translate(-919.024 -94.613)" fill-rule="evenodd" fill="url(#radial-gradient-5)"/>
        <path id="Path_16095" data-name="Path 16095" d="M1049.239,142.8s12.79-7.155,37.772-5.506C1087.011,137.29,1063.426,131.068,1049.239,142.8Z" transform="translate(-903.268 -99.556)" fill-rule="evenodd" fill="url(#radial-gradient-6)" style="mix-blend-mode: screen;isolation: isolate"/>
        <path id="Path_16096" data-name="Path 16096" d="M1135.374,117.355s26.656-.16,32.246,4.323c5.436,4.36-22.729,209.985-22.11,315.3,0,0,16.8-246.922,31.277-319.666C1176.786,117.314,1155.153,117.018,1135.374,117.355Z" transform="translate(-811.859 -117.194)" fill-rule="evenodd" opacity="0.5" fill="url(#radial-gradient-7)" style="mix-blend-mode: screen;isolation: isolate"/>
        <path id="Path_16097" data-name="Path 16097" d="M1000.574,208.637,1226.843,196.8s4.621-28.821,10.438-48.242l-226.74,14.364A186.551,186.551,0,0,0,1000.574,208.637Z" transform="translate(-954.912 -87.205)" fill="#9edcff" fill-rule="evenodd"/>
        <g id="Group_5638" data-name="Group 5638" transform="translate(77.442 72.991)">
          <path id="Path_16098" data-name="Path 16098" d="M1020.512,184.163a.61.61,0,0,1-.262.336,1.159,1.159,0,0,0-.334.278.361.361,0,0,1-.175-.035.427.427,0,0,0-.2-.035.314.314,0,0,0-.2.012,1.173,1.173,0,0,1-.258.045.464.464,0,0,1-.165-.022.407.407,0,0,0-.161-.023c-.149.01-.3.023-.451.043s-.32.033-.507.043a2.228,2.228,0,0,0-.268.029.324.324,0,0,1-.253-.063c-.157.051-.32.106-.487.166a1.865,1.865,0,0,1-.528.106.432.432,0,0,1-.134-.3.337.337,0,0,0-.14-.266,4.378,4.378,0,0,1,.08-.614,3.579,3.579,0,0,0,.064-.675,1.876,1.876,0,0,0,.017-.2,1.489,1.489,0,0,1,.017-.2c-.006-.08-.015-.155-.021-.225a.812.812,0,0,1,.008-.231.8.8,0,0,1,.058-.2.967.967,0,0,0,.06-.2,1.271,1.271,0,0,0,.006-.321,1.507,1.507,0,0,1,.008-.321,2.652,2.652,0,0,1,.085-.37,1.765,1.765,0,0,0,.078-.311c.035-.223.062-.454.078-.689s.043-.464.078-.69a2.207,2.207,0,0,1,.078-.325,2.151,2.151,0,0,0,.078-.325.585.585,0,0,0,0-.2c-.012-.051-.019-.108-.029-.166a.985.985,0,0,1,.051-.43,1.18,1.18,0,0,0,.1-.219,1.282,1.282,0,0,0,.008-.229,1.17,1.17,0,0,1,.054-.354c.033-.205.078-.475.14-.816s.113-.64.154-.9a1.842,1.842,0,0,1,.105-.4.347.347,0,0,0-.07-.36c.138-.415.233-.737.286-.964a4.481,4.481,0,0,0,.091-.949.3.3,0,0,0,.132-.223.8.8,0,0,1,.054-.246,8.8,8.8,0,0,0,.148-.955,5.288,5.288,0,0,1,.107-.522,2.3,2.3,0,0,0,.076-.495.672.672,0,0,0,.01-.243.148.148,0,0,1,.019-.123,5.584,5.584,0,0,1,.142-1.013c.07-.268.122-.516.159-.741a1.28,1.28,0,0,0,.012-.274.57.57,0,0,1,.037-.246c.023-.145.045-.268.072-.37a1.952,1.952,0,0,0,.047-.4c.037-.246.08-.512.126-.8a.8.8,0,0,0-.1-.63.474.474,0,0,0,.113-.374.861.861,0,0,1,.031-.366c.008-.063.031-.174.066-.34s.072-.307.107-.432a.678.678,0,0,1,.058-.188.534.534,0,0,0,.051-.156.812.812,0,0,0-.029-.344.549.549,0,0,1,.126-.454,1.122,1.122,0,0,0-.138-.29.289.289,0,0,1-.027-.272.657.657,0,0,1,.3-.421,2.227,2.227,0,0,1,.528-.223.326.326,0,0,0,.223-.08.155.155,0,0,1,.107-.07.419.419,0,0,1,.206.029c.062.023.12.045.173.063a1.689,1.689,0,0,0,.365-.018c.136-.02.214.008.241.088.155-.035.305-.074.451-.115a2.351,2.351,0,0,1,.449-.082.175.175,0,0,1,.134.035.23.23,0,0,0,.163.029.163.163,0,0,0,.161-.043.118.118,0,0,1,.156-.014.86.86,0,0,0,.256.164c.089.031.175.065.264.1a.753.753,0,0,1,.047.344c-.014.135-.021.272-.025.415-.023.143-.041.282-.049.415s-.029.26-.05.387c-.043.164-.093.323-.14.468a2.77,2.77,0,0,0-.117.466,1.282,1.282,0,0,0-.035.507.592.592,0,0,1-.142.454,2.064,2.064,0,0,0,.058.272c.019.057-.019.143-.111.252a.647.647,0,0,1,.041.452,4.815,4.815,0,0,0-.111.528c-.023.166-.052.346-.082.542s-.072.4-.124.6a2.294,2.294,0,0,1-.093.421.7.7,0,0,0-.053.172,2.95,2.95,0,0,1-.021.657.993.993,0,0,0,.035.5,1.305,1.305,0,0,0-.095.419.568.568,0,0,1,0,.168,1.533,1.533,0,0,1-.074.3.833.833,0,0,0-.046.293.345.345,0,0,1,0,.231.774.774,0,0,0-.025.26,1.092,1.092,0,0,0-.085.45.6.6,0,0,1,.006.229,1.319,1.319,0,0,1-.107.329,1.268,1.268,0,0,0-.107.329.774.774,0,0,1-.049.307l-.084.19a.7.7,0,0,1,.031.256.759.759,0,0,0,.027.26.325.325,0,0,1-.025.245.715.715,0,0,0-.078.25.8.8,0,0,0,.006.307,1.868,1.868,0,0,1,.041.272,2.107,2.107,0,0,1-.076.309,1.792,1.792,0,0,0-.076.313,2.685,2.685,0,0,0-.066.78,1.964,1.964,0,0,1-.087.726,1.121,1.121,0,0,1-.089.3,1.15,1.15,0,0,0-.087.3.551.551,0,0,0,.006.227,1.274,1.274,0,0,1,.027.26,3.126,3.126,0,0,1-.068.706q-.08.437-.148.868c-.076.372-.157.759-.237,1.162a5.037,5.037,0,0,0-.116,1.1,4.658,4.658,0,0,1-.08,1.045,5.05,5.05,0,0,0-.118.741c.01.063.023.129.039.2s.027.147.035.229a2.754,2.754,0,0,0,.037.29A.406.406,0,0,1,1020.512,184.163Z" transform="translate(-1015.992 -148.065)" fill="#fff"/>
          <path id="Path_16099" data-name="Path 16099" d="M1043.267,160.4c-.039.235-.095.546-.169.941a2.719,2.719,0,0,1-.3.886,4.1,4.1,0,0,1-.307,1.246,9.976,9.976,0,0,0-.419,1.256,5.335,5.335,0,0,0-.113.606,3.2,3.2,0,0,1-.138.606,3.577,3.577,0,0,0-.169.593c-.052.225-.1.452-.159.689a4.321,4.321,0,0,1-.163.481,4.05,4.05,0,0,0-.163.481c-.052.194-.091.374-.12.544a4.4,4.4,0,0,1-.111.511c-.109.426-.192.824-.253,1.2s-.13.737-.206,1.1c-.062.258-.121.514-.171.769s-.105.5-.161.73c-.064.28-.128.54-.186.784s-.12.483-.175.718c-.037.108-.07.231-.1.37s-.057.278-.082.424a.961.961,0,0,0-.013.239.683.683,0,0,1-.043.268,1.519,1.519,0,0,1-.076.288c-.035.086-.076.184-.132.291a8.042,8.042,0,0,0-.2.8,5.091,5.091,0,0,1-.235.833.228.228,0,0,1-.049.221,1.338,1.338,0,0,0-.142.26c-.085.4-.174.814-.272,1.228s-.179.792-.253,1.131c-.039.231-.077.485-.111.761a5.513,5.513,0,0,1-.181.829,1.769,1.769,0,0,1-.124.258,3.2,3.2,0,0,0-.159.291,1.8,1.8,0,0,0-.124.493c-.02.18-.051.387-.089.618a1.91,1.91,0,0,1-.006.377,1.261,1.261,0,0,1-.173.372c-.072.1-.144.2-.217.309a1.618,1.618,0,0,1-.478.027.961.961,0,0,0-.425.057,1.732,1.732,0,0,0-.289-.19.607.607,0,0,1-.249-.25.772.772,0,0,0-.163-.288.327.327,0,0,1-.1-.137,2.891,2.891,0,0,1-.247-.362.374.374,0,0,1-.041-.246.266.266,0,0,1-.149-.039.481.481,0,0,1-.107-.1.178.178,0,0,0-.109-.166.671.671,0,0,1-.181-.1.314.314,0,0,1-.035-.2c.006-.094-.072-.1-.231-.033a.189.189,0,0,0-.027-.17c-.035-.029-.033-.1.006-.205a.767.767,0,0,0-.21-.078.839.839,0,0,1-.21-.084.4.4,0,0,1-.122-.18l-.111-.274a.969.969,0,0,1-.15-.162c-.056-.07-.1-.125-.125-.164-.095-.1-.14-.166-.136-.2a.133.133,0,0,0-.039-.108c-.08-.078-.148-.149-.2-.205a.857.857,0,0,0-.186-.147,1.059,1.059,0,0,0-.095-.274.386.386,0,0,0-.194-.176.711.711,0,0,1-.033-.231.241.241,0,0,0-.043-.168.413.413,0,0,1-.095-.182.656.656,0,0,0-.02-.125,1.713,1.713,0,0,1-.2-.378c-.033-.09-.062-.176-.084-.258-.074-.119-.126-.2-.155-.239s-.056-.07-.07-.088a.912.912,0,0,1-.058-.34,1.254,1.254,0,0,0-.049-.37.5.5,0,0,0-.146-.227.664.664,0,0,1-.167-.252c-.027-.061-.058-.129-.091-.213a.355.355,0,0,0-.153-.174c-.093-.119-.159-.182-.206-.19a.175.175,0,0,1-.114-.07,2.12,2.12,0,0,1-.118-.319c-.021-.092-.045-.178-.068-.258a.794.794,0,0,1-.15-.27,1.828,1.828,0,0,0-.078-.213,1.647,1.647,0,0,0-.346-.44.651.651,0,0,1-.2-.514,2.1,2.1,0,0,1-.245-.293c-.068-.1-.138-.207-.21-.327-.064-.182-.136-.28-.219-.3a.248.248,0,0,1-.167-.082.285.285,0,0,0-.167-.266.268.268,0,0,1-.171-.237.131.131,0,0,1-.152-.02.919.919,0,0,1-.105-.117,1.461,1.461,0,0,1-.257-.135.413.413,0,0,1-.07-.166,1.323,1.323,0,0,0-.066-.2.852.852,0,0,0-.146-.145.383.383,0,0,1-.115-.147c-.064-.18-.109-.321-.14-.423a.293.293,0,0,0-.206-.2,1.006,1.006,0,0,0-.041-.352c-.031-.09-.068-.186-.107-.286-.087-.158-.15-.268-.186-.329a1.512,1.512,0,0,0-.1-.145c-.076-.1-.107-.172-.091-.225s.02-.088,0-.11c-.087-.156-.142-.266-.171-.327s-.053-.119-.082-.178a1.378,1.378,0,0,0-.171-.327c-.045-.059-.084-.108-.115-.147a24.853,24.853,0,0,0-.858,3.177q-.334,1.661-.68,3.5a4.508,4.508,0,0,0-.054.593,3.3,3.3,0,0,1-.089.651.835.835,0,0,1-.06.19.339.339,0,0,0-.029.188,3.531,3.531,0,0,0-.045.45,3.914,3.914,0,0,1-.058.544c-.027.168-.064.4-.109.687s-.085.581-.111.872a3.72,3.72,0,0,0-.049.667c0,.215,0,.438,0,.663,0,.207.016.417.037.632a1.83,1.83,0,0,1-.045.636,1.19,1.19,0,0,1-.171.46.75.75,0,0,0-.113.454,2.757,2.757,0,0,0-.291.342.683.683,0,0,1-.3.248.525.525,0,0,1-.255-.045.991.991,0,0,0-.252-.08c-.119.049-.2.055-.253.014a.225.225,0,0,1-.074-.055,1.452,1.452,0,0,0-.414.084.342.342,0,0,1-.387-.1,1.294,1.294,0,0,0-.179.072.423.423,0,0,1-.173.043,1.158,1.158,0,0,1-.276-.016.481.481,0,0,0-.285.047l-.266.016a1.192,1.192,0,0,1-.369-.043.892.892,0,0,1-.148-.3c-.035-.245-.062-.426-.08-.548a2.944,2.944,0,0,1-.029-.338.692.692,0,0,1,.052-.155.682.682,0,0,0,.057-.19,1.25,1.25,0,0,0,.021-.215,1.381,1.381,0,0,1,.015-.186,1.128,1.128,0,0,1,.07-.25,1.694,1.694,0,0,0,.07-.282,5.028,5.028,0,0,0,.055-.526c.01-.184.023-.389.044-.618a1.053,1.053,0,0,0,.012-.168.821.821,0,0,1,.012-.17,6.485,6.485,0,0,1,.272-.925,3.714,3.714,0,0,0,.2-1.041,1.2,1.2,0,0,0,.008-.311,1.03,1.03,0,0,1,.008-.307,3.378,3.378,0,0,1,.124-.532c.053-.166.105-.333.148-.5a.257.257,0,0,0,.057-.186.242.242,0,0,1,.025-.156.421.421,0,0,1,.086-.19,1.305,1.305,0,0,0,.113-.188,2.832,2.832,0,0,1,.13-.655c.076-.25.152-.554.227-.906a2.447,2.447,0,0,1,.171-.736,2.247,2.247,0,0,0,.173-.55,2.227,2.227,0,0,1,.115-.468c.047-.127.089-.243.124-.346l.06-.376a1.14,1.14,0,0,0,.086-.466.757.757,0,0,1,0-.245.892.892,0,0,0,.095-.331c.008-.113.01-.219.008-.323a.478.478,0,0,0,.078-.221,1.145,1.145,0,0,0-.033-.243,7.936,7.936,0,0,1,.247-1.125,2.777,2.777,0,0,0,.144-.808.826.826,0,0,0,.008-.229c-.01-.053-.023-.108-.031-.17a1.616,1.616,0,0,1,.093-.5,1.153,1.153,0,0,0,.087-.282.452.452,0,0,0,.025-.248c-.014-.08-.027-.16-.033-.243a1.009,1.009,0,0,1,.1-.252.165.165,0,0,0-.043-.243,1.152,1.152,0,0,0,.122-.423.709.709,0,0,1,0-.2.7.7,0,0,0,.076-.3.2.2,0,0,1-.012-.108.4.4,0,0,0,.066-.237.306.306,0,0,1-.006-.135l.1-.252c.031-.084.066-.182.1-.286a.913.913,0,0,0,.006-.215.923.923,0,0,1,.006-.215c.041-.145.083-.284.122-.409s.074-.241.109-.346a.747.747,0,0,0,.052-.235.556.556,0,0,1,.045-.2,3.07,3.07,0,0,0,.136-.687,1.379,1.379,0,0,1,.1-.467.83.83,0,0,1,.47-.393.471.471,0,0,1,.559.094,2.406,2.406,0,0,1,.482.049c.136.029.188.158.148.387a.177.177,0,0,1,.2.106.309.309,0,0,0,.154.17,1.1,1.1,0,0,1,.4.276c.126.153.216.258.272.315a.573.573,0,0,1,.128.174,1.094,1.094,0,0,1,.111.27.1.1,0,0,0,.056.086,1.337,1.337,0,0,1,.124.19c.051.086.1.172.142.252a2.636,2.636,0,0,0,.254.331,1.683,1.683,0,0,1,.251.366.774.774,0,0,1,.109.192.456.456,0,0,0,.136.19c.105.156.214.327.326.513s.223.379.34.575c.041.1.083.2.124.284a.474.474,0,0,0,.216.215.541.541,0,0,0,.256.5,1.19,1.19,0,0,0,.173.481,1.734,1.734,0,0,1,.21.448,2,2,0,0,1,.276.366c.072.127.152.262.243.4a.479.479,0,0,1,.074.151.557.557,0,0,0,.095.178.4.4,0,0,1,.113.254.25.25,0,0,0,.043.166,1.485,1.485,0,0,0,.089.227,1.449,1.449,0,0,1,.091.227,3.8,3.8,0,0,1,.321.782,5.069,5.069,0,0,0,.2.636,3.753,3.753,0,0,1,.188.389c.039.1.072.19.1.272a3.573,3.573,0,0,1,.27.385c.076.117.144.233.21.342s.136.223.21.342a1,1,0,0,1,.109.274.5.5,0,0,1-.006.123c.115.1.169.16.165.192a.069.069,0,0,0,.045.072,3.715,3.715,0,0,0,.437.732c.183.25.369.479.557.7.092.117.187.225.28.323a1.151,1.151,0,0,1,.245.385,1.134,1.134,0,0,0,.107.291.339.339,0,0,1,.049.106,2.715,2.715,0,0,0,.318.526,1.794,1.794,0,0,0,.474.421,3.74,3.74,0,0,0,.1-.43c.023-.135.041-.256.058-.362s.033-.2.047-.284a.373.373,0,0,1,.149-.229,4.411,4.411,0,0,1-.033-.479.913.913,0,0,1,.175-.559,1,1,0,0,1,.012-.423.542.542,0,0,0,.039-.237.573.573,0,0,0,0-.205.617.617,0,0,1,.006-.2,1.653,1.653,0,0,1,.116-.522c.064-.18.125-.379.179-.591.056-.358.12-.732.181-1.121a6.3,6.3,0,0,1,.254-1.033.73.73,0,0,1,.087-.2c.054-.088.091-.151.115-.194a.981.981,0,0,1,.074-.366.948.948,0,0,0,.089-.272,3.2,3.2,0,0,0,.041-.44,3.624,3.624,0,0,1,.1-.6,1.857,1.857,0,0,1,.117-.554,3.721,3.721,0,0,0,.163-.466.675.675,0,0,1,.023-.329,2.112,2.112,0,0,0,.084-.334,1.549,1.549,0,0,0,.019-.205,2.068,2.068,0,0,1,.024-.237,1.419,1.419,0,0,1,.122-.4,2.577,2.577,0,0,0,.145-.372c.024-.145.045-.289.055-.424a1.376,1.376,0,0,1,.147-.464,1.278,1.278,0,0,1-.048-.217c-.012-.059-.025-.141-.043-.245a2.822,2.822,0,0,0,.249-.939,5.685,5.685,0,0,1,.183-1.029.649.649,0,0,1,.08-.319.4.4,0,0,0,.048-.129.5.5,0,0,0-.013-.262.332.332,0,0,1,.01-.235,2.768,2.768,0,0,1,.266-.35.812.812,0,0,1,.34-.262.364.364,0,0,1,.276.025.5.5,0,0,0,.27.055,1.893,1.893,0,0,0,.68-.137c.249-.094.482-.17.7-.233a1.8,1.8,0,0,1,.67-.055,2.378,2.378,0,0,0,.779-.068,5.854,5.854,0,0,1,.656.1,1.413,1.413,0,0,0,.268.074A.193.193,0,0,1,1043.267,160.4Z" transform="translate(-1011.973 -149.171)" fill="#fff"/>
          <path id="Path_16100" data-name="Path 16100" d="M1046.567,162.365a.621.621,0,0,1-.173.46,1.447,1.447,0,0,0-.3.536.83.83,0,0,1-.161.123.556.556,0,0,0-.173.188c-.1.182-.206.286-.3.313a1.98,1.98,0,0,1-.284.436,3.243,3.243,0,0,0-.309.407c-.019.11-.062.17-.128.188a.332.332,0,0,0-.169.09,1.863,1.863,0,0,1-.67.978,1.956,1.956,0,0,1-.6-.111.3.3,0,0,1-.027-.252.559.559,0,0,0,.008-.29,2.147,2.147,0,0,0-.076-.217,1.943,1.943,0,0,1-.074-.215.745.745,0,0,0-.111-.182c-.043-.061-.082-.11-.113-.151a.376.376,0,0,0-.126-.229.259.259,0,0,1-.1-.07l-.08-.184c-.029-.063-.054-.125-.081-.186a1.12,1.12,0,0,1-.1-.151c-.037-.059-.07-.111-.1-.151a.685.685,0,0,0-.181-.1.088.088,0,0,1-.07-.074,1.413,1.413,0,0,0-.678-.135,3.86,3.86,0,0,1-.532.01.532.532,0,0,1-.167-.016.453.453,0,0,0-.34.027c-.062.024-.12.051-.182.076a.331.331,0,0,1-.173.031.209.209,0,0,0-.144.027.856.856,0,0,0-.227.192.359.359,0,0,1-.247.131,1.923,1.923,0,0,1-.375.487,1.161,1.161,0,0,0-.266.323c-.029.067-.08.207-.152.425-.07.172-.15.381-.245.618a2.131,2.131,0,0,0-.165.649,1.561,1.561,0,0,0,0,.646,2.434,2.434,0,0,1,.07.581.251.251,0,0,1,.128.149c.021.063.039.135.064.219.043.059.085.119.122.18a.244.244,0,0,0,.192.11.3.3,0,0,0,.017.221.24.24,0,0,1,.025.19,1.558,1.558,0,0,1,.427.442.428.428,0,0,0,.167.258c.06.027.066.086.012.174a.454.454,0,0,1,.256.139c.045.061.082.112.115.151a1.045,1.045,0,0,1,.384.37.721.721,0,0,0,.311.309.379.379,0,0,0,.07.25.434.434,0,0,1,.068.248c.095-.025.159-.012.186.051s.1.078.214.051a.309.309,0,0,0,.118.213c.06.039.121.076.192.113.175.178.317.317.431.415a2.08,2.08,0,0,1,.307.329.354.354,0,0,0,.089.135.986.986,0,0,1,.093.106,6.437,6.437,0,0,1,.5.683,3.115,3.115,0,0,0,.359.5,2.166,2.166,0,0,0,.239.872.828.828,0,0,0,.155.565,1.115,1.115,0,0,0-.033.528c.031.139.066.27.1.4a2.187,2.187,0,0,1,.031.381,1.081,1.081,0,0,1-.052.385.486.486,0,0,1-.043.245.347.347,0,0,0-.029.178,1.188,1.188,0,0,0-.01.321c.006.106.01.223.006.352a1.32,1.32,0,0,0-.1.436.844.844,0,0,1-.01.209,3.168,3.168,0,0,1-.148.393.714.714,0,0,0-.068.389.458.458,0,0,0-.155.424.637.637,0,0,1-.124.233,1.125,1.125,0,0,0-.14.17,1.3,1.3,0,0,1-.144.52,2.454,2.454,0,0,1-.208.331.523.523,0,0,1-.274.209c-.006.151-.039.243-.089.276a.387.387,0,0,0-.118.121,1.461,1.461,0,0,1-.342.452,3.479,3.479,0,0,0-.352.356,3.89,3.89,0,0,1-.309.338c-.109.113-.222.225-.334.34-.068.066-.14.145-.22.235s-.142.156-.188.205a.5.5,0,0,1-.2.106,1.711,1.711,0,0,0-.283.112,5.675,5.675,0,0,1-.53.254,2.811,2.811,0,0,1-.424.121,1.08,1.08,0,0,0-.363.1.347.347,0,0,1-.136.057.525.525,0,0,1-.229-.035.835.835,0,0,0-.2-.068.8.8,0,0,1-.464.121c-.144-.014-.317-.033-.517-.065a2.172,2.172,0,0,0-.369-.027.658.658,0,0,1-.361-.09c-.118.047-.249.108-.392.18a2.26,2.26,0,0,0-.536-.1,2.977,2.977,0,0,1-.569-.094.789.789,0,0,1-.208-.086c-.068-.037-.136-.074-.2-.113a.471.471,0,0,0-.27-.031.372.372,0,0,1-.245-.033,1.487,1.487,0,0,1-.144-.133,1.312,1.312,0,0,0-.144-.135,1.413,1.413,0,0,0-.286-.205.273.273,0,0,1-.142-.215c-.2.057-.319.02-.371-.106a.286.286,0,0,0-.307-.17.191.191,0,0,1-.012-.172.208.208,0,0,0-.01-.176c-.091-.035-.148-.031-.183.012a.139.139,0,0,1-.159.041,1.211,1.211,0,0,0-.068-.184,1.288,1.288,0,0,1-.066-.188.429.429,0,0,0-.178-.115.476.476,0,0,1-.214-.207.585.585,0,0,0-.1-.2.737.737,0,0,1-.074-.074,2.782,2.782,0,0,1-.171-.542,1.1,1.1,0,0,0-.167-.419l.068-.415a4.313,4.313,0,0,0-.268-.644,1.39,1.39,0,0,1-.068-.847.591.591,0,0,0,.15-.153,1.35,1.35,0,0,1,.122-.149.5.5,0,0,1,.2-.092.508.508,0,0,0,.2-.092,1.948,1.948,0,0,1,.336-.18.508.508,0,0,0,.272-.3.6.6,0,0,0,.264-.078,2.924,2.924,0,0,1,.276-.145,1.284,1.284,0,0,1,.282-.192.738.738,0,0,0,.122-.055c.064-.068.128-.135.183-.2a1.3,1.3,0,0,1,.181-.17c.107.035.177.035.212,0s.115-.014.251.059a1.08,1.08,0,0,1,.307.835,1.124,1.124,0,0,0,.074.469c.045.1.091.207.128.309a2.544,2.544,0,0,0,.285.458,2.008,2.008,0,0,0,.4.417,2.021,2.021,0,0,1,.266.237,2.571,2.571,0,0,0,.214.211.649.649,0,0,0,.206.018,1.066,1.066,0,0,1,.26.016,1.906,1.906,0,0,1,.19.053.454.454,0,0,0,.163.02,4.106,4.106,0,0,0,.777,0,3.222,3.222,0,0,0,.728-.192c.159-.051.313-.108.458-.17a1.814,1.814,0,0,0,.418-.233,3.4,3.4,0,0,0,.411-.378,3.1,3.1,0,0,0,.352-.5.98.98,0,0,1,.142-.28.2.2,0,0,0,.06-.115.838.838,0,0,0,.068-.229,1.943,1.943,0,0,1,.079-.289c.031-.086.068-.18.1-.278a1.22,1.22,0,0,1,.093-.213,1.65,1.65,0,0,0,.023-.464,2.623,2.623,0,0,1,0-.462,3.07,3.07,0,0,0-.2-.305.722.722,0,0,1-.126-.4c-.126-.141-.256-.28-.39-.421a.859.859,0,0,1-.181-.651.3.3,0,0,0-.185-.067.32.32,0,0,1-.181-.068.681.681,0,0,0-.072-.5c-.076-.121-.165-.243-.256-.364a.508.508,0,0,0-.07-.168.568.568,0,0,0-.107-.1c-.05-.145-.111-.227-.183-.243-.095-.1-.2-.2-.311-.3a3.013,3.013,0,0,1-.542-.675,2.893,2.893,0,0,0-.593-.7.729.729,0,0,0-.074-.407,1.266,1.266,0,0,0-.2-.27,1.9,1.9,0,0,0-.344-1.113.343.343,0,0,0,.014-.252,1.058,1.058,0,0,1-.068-.248,1.27,1.27,0,0,0-.091-.293.771.771,0,0,0-.068-.1,3.771,3.771,0,0,1,.017-.524,1.269,1.269,0,0,0-.037-.516,1.5,1.5,0,0,1,.109-.231.7.7,0,0,0,.084-.26,2.085,2.085,0,0,1,0-.471c.014-.086-.008-.125-.066-.121a.673.673,0,0,0,.045-.428,1.446,1.446,0,0,1-.042-.424,4.441,4.441,0,0,1,.105-.466c.045-.16.089-.3.126-.4a1.347,1.347,0,0,1,.142-.516c.082-.172.152-.305.2-.4a3.513,3.513,0,0,1,.323-.591c.124-.178.241-.356.357-.534a1.976,1.976,0,0,0,.237-.493.871.871,0,0,0,.3-.311,1.429,1.429,0,0,1,.251-.334c.264-.231.429-.372.493-.423a4.288,4.288,0,0,1,.4-.315l.363-.254a1.159,1.159,0,0,0,.369-.19.225.225,0,0,1,.126-.07,1.248,1.248,0,0,0,.293-.09.233.233,0,0,1,.091-.037,1.494,1.494,0,0,1,.41-.1,3.316,3.316,0,0,0,.433-.068c.093-.008.2-.022.311-.041a1.084,1.084,0,0,1,.393.014.638.638,0,0,1,.183.065.649.649,0,0,0,.188.063,3.276,3.276,0,0,0,.909-.076l.161.127a1.541,1.541,0,0,0,.161.131.788.788,0,0,1,.6.266,1.307,1.307,0,0,1,.635.219c.132.106.254.205.369.3a.575.575,0,0,1,.13.051.215.215,0,0,0,.169-.016.642.642,0,0,0,.163.291,2.691,2.691,0,0,1,.2.221,3.184,3.184,0,0,0,.511.182.9.9,0,0,1,.352.16.285.285,0,0,0,.155.067.191.191,0,0,1,.126.07A.377.377,0,0,1,1046.567,162.365Z" transform="translate(-1000.567 -149.347)" fill="#fff"/>
          <path id="Path_16101" data-name="Path 16101" d="M1056.524,162.485a1.182,1.182,0,0,1-.06.2,1.105,1.105,0,0,0-.07.231.775.775,0,0,0-.008.2.534.534,0,0,1,0,.164c-.029.068-.064.147-.1.237s-.066.166-.1.235a5.709,5.709,0,0,0-.171.569.9.9,0,0,1-.231.442.522.522,0,0,1-.027.3,2.41,2.41,0,0,0-.08.3,2.025,2.025,0,0,0-.031.411,1.053,1.053,0,0,1-.053.381,1.962,1.962,0,0,1-.083.315c-.037.1-.076.207-.115.317-.074.223-.148.446-.214.667s-.134.458-.194.7a1.855,1.855,0,0,0-.12.581.38.38,0,0,1-.153.321,2.73,2.73,0,0,1-.037.833,3.719,3.719,0,0,0-.066.837.366.366,0,0,1-.091.2.329.329,0,0,0-.07.235.979.979,0,0,1,0,.327,2,2,0,0,0-.031.329,1.019,1.019,0,0,1-.039.379c-.035.078-.041.127-.027.147a1.856,1.856,0,0,0,.025.26.721.721,0,0,1,.006.2,3.583,3.583,0,0,1-.117.825,1.588,1.588,0,0,0-.078.509.841.841,0,0,1,0,.243,3.557,3.557,0,0,0-.15.536,1.327,1.327,0,0,0-.068.378,1.209,1.209,0,0,1-.1.417c-.1.333-.194.649-.3.951s-.192.585-.276.851a1.007,1.007,0,0,0-.126.319,1.012,1.012,0,0,1-.01.149c-.035.09-.072.178-.105.268s-.068.178-.1.268c-.068.178-.124.35-.173.518a1.952,1.952,0,0,1-.194.452.846.846,0,0,0-.194.307.47.47,0,0,1-.056.166,5.886,5.886,0,0,0-.523.6c-.146.194-.28.37-.4.53-.249.252-.472.5-.674.743s-.4.5-.593.769a.4.4,0,0,0-.091.284.269.269,0,0,1-.054.215c-.155.141-.309.274-.472.4a1.489,1.489,0,0,1-.592.28c-.052.092-.1.186-.148.288a2.531,2.531,0,0,1-.146.286.587.587,0,0,0-.361.151,2.359,2.359,0,0,1-.348.246,1.092,1.092,0,0,1-.167.076c-.07.025-.15.053-.25.08-.1.047-.192.086-.27.113a3.084,3.084,0,0,0-.3.113,1.182,1.182,0,0,1-.334.166,1.057,1.057,0,0,0-.206.061c-.214.076-.4.139-.548.192a2.291,2.291,0,0,1-.612.1,4.525,4.525,0,0,0-.526.145c-.1.035-.2.068-.295.1a2.515,2.515,0,0,0-.577-.033,1.273,1.273,0,0,1-.437-.039c-.125-.125-.229-.221-.309-.291a1.192,1.192,0,0,1-.165-.17.4.4,0,0,0-.274-.016.3.3,0,0,1-.245-.018.37.37,0,0,1-.149-.106.781.781,0,0,0-.171-.137.305.305,0,0,0-.214-.037.629.629,0,0,1-.249,0,1.134,1.134,0,0,0-.256-.311.513.513,0,0,0-.367-.108.523.523,0,0,0-.32-.334.56.56,0,0,1-.315-.336.764.764,0,0,0-.221-.068.51.51,0,0,1-.2-.068.65.65,0,0,1-.126-.25.274.274,0,0,0-.055-.158,1.623,1.623,0,0,0-.24-.374.188.188,0,0,1-.049-.192,1.5,1.5,0,0,1-.295-.626.671.671,0,0,0-.243-.436,2.6,2.6,0,0,1-.033-.708,2.353,2.353,0,0,0,0-.577.7.7,0,0,0-.052-.19.593.593,0,0,1-.043-.223.51.51,0,0,1,.021-.211.674.674,0,0,0,.029-.243,3.161,3.161,0,0,1,.029-.563,3.037,3.037,0,0,1,.152-.638,1.608,1.608,0,0,1-.066-.914,3.184,3.184,0,0,0,.031-.98,1.134,1.134,0,0,1,.072-.262c.031-.067.058-.133.091-.2a1.365,1.365,0,0,1,.12-1,.983.983,0,0,1-.021-.381c.019-.11.043-.25.072-.424a1.269,1.269,0,0,0,.016-.256q0-.161.012-.387a1.535,1.535,0,0,1,.054-.229,1.713,1.713,0,0,0,.05-.2,2.115,2.115,0,0,1,0-.225.344.344,0,0,1,.076-.2.473.473,0,0,1-.033-.223.2.2,0,0,0-.066-.186.775.775,0,0,0,.117-.442.705.705,0,0,1,.149-.444,3.145,3.145,0,0,1-.07-.315.492.492,0,0,1,.109-.4,1.091,1.091,0,0,0-.041-.237.778.778,0,0,1-.041-.27,1.3,1.3,0,0,0,.062-.18.784.784,0,0,1,.06-.18.856.856,0,0,1,.031-.356.333.333,0,0,0,.01-.225.83.83,0,0,1,.072-.423.587.587,0,0,0,.023-.45,1.3,1.3,0,0,0,.126-.554.423.423,0,0,1,.082-.329c.035-.3.066-.546.1-.728s.066-.374.1-.567a.916.916,0,0,0,.122-.379.776.776,0,0,1,0-.174,2.356,2.356,0,0,0,.089-.665.555.555,0,0,1,.089-.376.917.917,0,0,1-.015-.559c.056-.207.105-.4.157-.573a1.12,1.12,0,0,1,.072-.26.137.137,0,0,0-.053-.19.987.987,0,0,0,.187-.575.62.62,0,0,1,.165-.477c-.013-.151-.025-.291-.037-.43a1.027,1.027,0,0,1,.08-.471c0-.127-.052-.2-.163-.209a.264.264,0,0,1-.227-.141.743.743,0,0,1,.085-.485,1.953,1.953,0,0,0,.181-.559,3.578,3.578,0,0,0,.53-.557.525.525,0,0,1,.664-.188,2.1,2.1,0,0,1,.579.129.918.918,0,0,0,.449.07.706.706,0,0,0,.2-.045.222.222,0,0,1,.171-.016.706.706,0,0,1,.317.035,1.278,1.278,0,0,0,.281.07.542.542,0,0,0,.272-.023.488.488,0,0,1,.239-.02c.068.039.155.09.254.156s.192.127.278.186a1.447,1.447,0,0,1,.309.149,2.053,2.053,0,0,1,.2.16.966.966,0,0,1-.113.491c-.084.158-.156.315-.22.469a1.923,1.923,0,0,0-.083.378.925.925,0,0,1-.1.346,1.122,1.122,0,0,1-.132.266,2.328,2.328,0,0,0-.159.272,4.5,4.5,0,0,0-.176.608,4.641,4.641,0,0,1-.177.608c-.07.2-.142.393-.212.581a3.1,3.1,0,0,0-.151.542,2.182,2.182,0,0,0-.021.516.565.565,0,0,1-.175.466,2.479,2.479,0,0,1,.019.528c-.015.184-.029.372-.043.567.006.172.006.342,0,.514s-.035.346-.066.52a2.138,2.138,0,0,0-.151.477,1.341,1.341,0,0,1-.019.178c-.037.111-.07.223-.1.331a3.1,3.1,0,0,0-.072.329.4.4,0,0,0,.01.192.667.667,0,0,1,0,.256c-.053.2-.1.4-.138.624s-.07.411-.1.585c0,.11,0,.217,0,.325a1.56,1.56,0,0,1-.027.323,2.425,2.425,0,0,1-.091.522c-.047.174-.089.35-.119.524q-.037.387-.062.763a1.761,1.761,0,0,1-.227.739,5.365,5.365,0,0,1-.043.665c-.033.227-.06.469-.087.728-.025.346-.039.7-.046,1.068s-.024.722-.049,1.068a2.9,2.9,0,0,1-.021.358c-.012.129-.019.246-.019.354a2.406,2.406,0,0,0,.017.305c.01.1.025.2.043.305.008.172.008.333,0,.485a.7.7,0,0,0,.072.381c.076.106.107.176.1.219s-.012.078-.016.1a1.952,1.952,0,0,1,.318.579.613.613,0,0,0,.192.327.306.306,0,0,0,.179.1q.13.044.26.1a1.086,1.086,0,0,1,.184.133.5.5,0,0,0,.163.1,1.486,1.486,0,0,0,.39.09,1.629,1.629,0,0,0,.515-.016.762.762,0,0,0,.34-.117.417.417,0,0,1,.357-.055.5.5,0,0,1,.253-.178.739.739,0,0,0,.243-.113,2.907,2.907,0,0,0,.346-.3,1.584,1.584,0,0,1,.336-.264,4.434,4.434,0,0,1,.247-.374,3.277,3.277,0,0,1,.3-.342,2.107,2.107,0,0,1,.26-.376c.047-.067.091-.123.128-.168a1.081,1.081,0,0,0,.1-.168.821.821,0,0,0,.1-.252.519.519,0,0,1,.095-.217c.056-.11.113-.229.173-.352s.123-.272.192-.45a.816.816,0,0,0,.132-.286.564.564,0,0,1,.062-.184c.2-.272.344-.481.443-.63a2.556,2.556,0,0,0,.249-.454.727.727,0,0,1,.1-.315.2.2,0,0,0,.062-.119.475.475,0,0,0,.048-.2,1.973,1.973,0,0,1,.029-.229,1.5,1.5,0,0,0,.148-.448c.008-.1.021-.192.035-.28a5.075,5.075,0,0,0,.118-.511,2.676,2.676,0,0,1,.148-.511c.078-.246.13-.411.157-.5a2.73,2.73,0,0,1,.089-.266,2.175,2.175,0,0,1,.113-.559c.052-.135.1-.268.138-.4a1.3,1.3,0,0,0,.074-.333,1.033,1.033,0,0,1,.066-.3c.037-.111.072-.2.1-.27a1.532,1.532,0,0,1,.12-.2,1.687,1.687,0,0,1-.043-.223,2.249,2.249,0,0,1-.016-.229,2.149,2.149,0,0,1,.083-.313,1.975,1.975,0,0,0,.091-.348.783.783,0,0,0,.051-.3,1.138,1.138,0,0,1,.021-.26c.05-.2.095-.391.128-.577s.068-.379.1-.577c.052-.284.111-.554.183-.808s.132-.514.181-.777c.012-.2.033-.381.053-.556s.039-.35.052-.524a2.8,2.8,0,0,0,.047-.522,2.092,2.092,0,0,1,.08-.528,1.107,1.107,0,0,1,.074-.246.663.663,0,0,0,.043-.246.89.89,0,0,0,.008-.213,1.176,1.176,0,0,1,.021-.278,1.327,1.327,0,0,1,.091-.426.98.98,0,0,0,.06-.426c.023-.432.058-.849.107-1.242a6.561,6.561,0,0,1,.26-1.154.591.591,0,0,1,.186-.1.2.2,0,0,0,.134-.127.475.475,0,0,1,.365-.012.443.443,0,0,0,.307.022.876.876,0,0,0,.2-.1c.054-.039.12-.08.2-.133a1.075,1.075,0,0,0,.354.053.862.862,0,0,0,.412-.117.521.521,0,0,1,.3-.074,1.5,1.5,0,0,0,.388-.049.987.987,0,0,1,.369-.113,1.171,1.171,0,0,0,.185,0q.2-.018.371-.047a.543.543,0,0,1,.3.022.564.564,0,0,1,.109.235c.017.076.035.157.058.241a1.068,1.068,0,0,1-.046.718c-.1.358-.175.689-.231,1-.035.2-.068.4-.095.595a3.5,3.5,0,0,0-.027.555Z" transform="translate(-991.764 -150.355)" fill="#fff"/>
          <path id="Path_16102" data-name="Path 16102" d="M1062.206,182.771a1.474,1.474,0,0,1-.441.424,1.805,1.805,0,0,0-.334.239.278.278,0,0,1-.142.092c-.215.057-.359.031-.431-.076a1.87,1.87,0,0,1-.736.145,1.618,1.618,0,0,0-.641.1.667.667,0,0,0-.247.131,1.46,1.46,0,0,1-.225.162.717.717,0,0,1-.3.07,2.02,2.02,0,0,0-.291,0,.532.532,0,0,1-.136-.241,2.4,2.4,0,0,1-.066-.313,1.084,1.084,0,0,1-.262-.383.459.459,0,0,1-.068-.178.452.452,0,0,0-.062-.18,2.407,2.407,0,0,1-.2-.569,3.254,3.254,0,0,1-.078-.479c-.043-.084-.087-.17-.136-.256a1.478,1.478,0,0,1-.125-.291c-.041-.086-.091-.176-.149-.272a1.061,1.061,0,0,1-.114-.276.632.632,0,0,1-.012-.246.536.536,0,0,0-.01-.248,1.227,1.227,0,0,0-.142-.356.727.727,0,0,1-.074-.426,1.64,1.64,0,0,1-.159-.274.4.4,0,0,0-.258-.2.706.706,0,0,0-.111-.372.982.982,0,0,1-.136-.407,2.65,2.65,0,0,1-.087-.424.481.481,0,0,1-.033-.213.45.45,0,0,0-.031-.213.469.469,0,0,0-.19-.252.406.406,0,0,1-.144-.352c-.15.01-.239-.035-.268-.133a.247.247,0,0,0-.235-.166,1.9,1.9,0,0,0-.243-.579,2.293,2.293,0,0,1-.266-.608,1.908,1.908,0,0,1-.594-.554,2.139,2.139,0,0,0-.62-.579c-.037-.2-.186-.309-.439-.334a1.08,1.08,0,0,0-.214.557,2.4,2.4,0,0,1-.14.618,6.612,6.612,0,0,1-.227.724c-.091.237-.177.444-.266.626-.06.115-.062.188-.014.215s.058.1.021.213c-.033.068-.068.149-.113.241a.532.532,0,0,0-.062.266.66.66,0,0,0,.014.313.859.859,0,0,1,0,.379,2.257,2.257,0,0,1-.15.6c-.091.245-.161.46-.21.638a1.621,1.621,0,0,1-.048.333.546.546,0,0,0-.037.135c-.033.178-.06.333-.084.466a4.446,4.446,0,0,1-.107.434,1.791,1.791,0,0,1-.128.554,2.736,2.736,0,0,0-.148.356.527.527,0,0,1-.019.264.186.186,0,0,0-.047.1.829.829,0,0,0-.008.2.26.26,0,0,1-.031.166,2.81,2.81,0,0,1-.2.571,1.31,1.31,0,0,0-.116.567c.006.155.017.256.025.313a.214.214,0,0,1-.027.151.873.873,0,0,1-.268.411.686.686,0,0,0-.235.378,1.467,1.467,0,0,0-.612.1.523.523,0,0,1-.511-.033c-.138.051-.3.1-.5.16a1.59,1.59,0,0,1-.54.063.74.74,0,0,0-.4-.043c-.068.025-.117.018-.146-.025a10.387,10.387,0,0,0,.055-1.088,1.145,1.145,0,0,1,.278-.773.706.706,0,0,0,.006-.2.478.478,0,0,1,.041-.233,1.843,1.843,0,0,0,.082-.532,1.248,1.248,0,0,1,.013-.3,1.847,1.847,0,0,1,.111-.239.59.59,0,0,0,.078-.2.744.744,0,0,0,.033-.348,1.321,1.321,0,0,1,.012-.379,2.5,2.5,0,0,1,.1-.368,2.848,2.848,0,0,0,.091-.368.968.968,0,0,0,0-.36.511.511,0,0,1,.115-.4,1.177,1.177,0,0,0,.114-.4c.023-.176.049-.354.082-.53a2.615,2.615,0,0,1,.066-.3c.023-.086.057-.188.095-.3.025-.133.041-.26.058-.381s.027-.239.047-.348a1.415,1.415,0,0,1,.058-.184.3.3,0,0,0,.035-.186,1.825,1.825,0,0,1,.041-.46c.029-.111.052-.2.064-.266a1.817,1.817,0,0,0,.076-.35,2.442,2.442,0,0,1,.087-.419,1.276,1.276,0,0,0,.021-.262.838.838,0,0,1,.054-.3,1.57,1.57,0,0,0,.072-.4c-.008-.065-.017-.131-.021-.2a.851.851,0,0,1,.062-.2.922.922,0,0,0,.072-.233,3.684,3.684,0,0,0,.05-.595,3.459,3.459,0,0,1,.054-.6c.113-.444.138-.685.072-.726a3.1,3.1,0,0,0,.138-.3c.037-.09.072-.194.109-.3a3.972,3.972,0,0,0,.056-.464,2.467,2.467,0,0,1,.138-.6c.025-.045.06-.1.1-.168a.669.669,0,0,0,.076-.2,1.274,1.274,0,0,0,.019-.264.91.91,0,0,1,.054-.3c.037-.2.082-.409.142-.632s.126-.448.2-.673a1.355,1.355,0,0,0,.107-.434,1.007,1.007,0,0,1,.012-.229,1.924,1.924,0,0,1,.136-.438,1.04,1.04,0,0,0,.082-.466,1.421,1.421,0,0,0,.017-.18,2.723,2.723,0,0,1,.037-.28,1.991,1.991,0,0,0,.087-.481,1.538,1.538,0,0,1,.023-.282.788.788,0,0,0,.084-.3.112.112,0,0,1-.012-.1c.051-.092.072-.151.062-.184a.354.354,0,0,1,0-.18c.051-.18.093-.331.121-.452a3.791,3.791,0,0,0,.08-.514c-.01-.153,0-.241.033-.264a.09.09,0,0,0,.031-.1.517.517,0,0,0-.014-.227c-.025-.086-.045-.17-.068-.256a1.372,1.372,0,0,0,.113-.469,2.865,2.865,0,0,1,.095-.53.9.9,0,0,1,.062-.186,1.164,1.164,0,0,0,.062-.184,2.461,2.461,0,0,1-.033-.374.582.582,0,0,0-.008-.178,1.626,1.626,0,0,0-.035-.26.5.5,0,0,1-.018-.229,1.035,1.035,0,0,1,.15-.37c.078-.117.154-.233.233-.348a.883.883,0,0,1,.146-.125.231.231,0,0,1,.188-.035c.048-.047.1-.1.157-.158a1.428,1.428,0,0,1,.183-.164c.161-.059.274-.051.346.022a.824.824,0,0,0,.24.158,1.448,1.448,0,0,1,.49-.092,2.25,2.25,0,0,0,.579-.1,1.243,1.243,0,0,1,.379-.082,1.068,1.068,0,0,0,.167.006,2.64,2.64,0,0,1,.614-.155,2.211,2.211,0,0,1,.394,0,.612.612,0,0,1,.266.012.143.143,0,0,0,.093.025.328.328,0,0,1,.26-.041,1.393,1.393,0,0,0,.212.065,3.119,3.119,0,0,0,.448-.006,2.9,2.9,0,0,1,.451-.006c.146.008.3.018.458.025a1.526,1.526,0,0,1,.443.094.527.527,0,0,1,.155.086.53.53,0,0,0,.151.086.7.7,0,0,0,.268-.008.485.485,0,0,1,.291.023,2.052,2.052,0,0,1,.571.166,18.641,18.641,0,0,1,.864.256.56.56,0,0,1,.278.156,2.66,2.66,0,0,1,.7.023,1.665,1.665,0,0,1,.5.172,2.931,2.931,0,0,0,.3.108.487.487,0,0,1,.26.176l.21.215a1.442,1.442,0,0,1,.188.213.863.863,0,0,1,.165.237.662.662,0,0,0,.072.141.6.6,0,0,1,.163.254.2.2,0,0,0,.076.125.749.749,0,0,1,.179.168.273.273,0,0,0,.136.1.523.523,0,0,0,.136.387,1.881,1.881,0,0,1,.243.276,1.737,1.737,0,0,1,.083.46.237.237,0,0,0,.1.225,5.618,5.618,0,0,1-.013,1,.819.819,0,0,0,.13.657,1.108,1.108,0,0,0-.048.485c.019.141.043.29.072.444a.694.694,0,0,0-.089.321,1.774,1.774,0,0,1-.033.319,1.12,1.12,0,0,1-.13.344.26.26,0,0,0-.016.3c-.123.276-.245.556-.365.841a4.1,4.1,0,0,1-.443.816.684.684,0,0,0-.114.16.2.2,0,0,1-.181.1.4.4,0,0,1-.111.291.439.439,0,0,0-.132.258,2.69,2.69,0,0,0-.759.79,1.8,1.8,0,0,1-.192.211c-.058.049-.138.11-.243.186q-.257.185-.383.258a2.569,2.569,0,0,0-.223.151.991.991,0,0,0-.272.186.43.43,0,0,1-.117.108,1.609,1.609,0,0,1-.2.131,1.393,1.393,0,0,0-.206.133,1.809,1.809,0,0,1-.276.217.5.5,0,0,0-.111.074c-.188.1-.385.2-.6.293a3,3,0,0,0-.643.4.286.286,0,0,0-.289.051,1.731,1.731,0,0,1-.34.19,1.055,1.055,0,0,1-.392.078c-.1,0-.185.086-.258.268-.066.158-.045.268.066.327a1.027,1.027,0,0,1,.3.243,1.117,1.117,0,0,0,.1.309.414.414,0,0,0,.229.2.868.868,0,0,1,.186.448c0,.133.076.205.223.217a1.725,1.725,0,0,0,.146.421.638.638,0,0,1,.161.252.972.972,0,0,0,.019.133.733.733,0,0,0,.142.289.085.085,0,0,1,.039.1c.052.129.1.272.157.423a1.551,1.551,0,0,1,.093.489c.041.065.084.127.13.192a1.208,1.208,0,0,0,.159.192.38.38,0,0,0,0,.2.337.337,0,0,1,.008.2c.081.149.176.3.276.446a1.1,1.1,0,0,1,.173.587.5.5,0,0,1,.113.145.2.2,0,0,0,.146.1,1.336,1.336,0,0,0,.157.575,3.619,3.619,0,0,1,.251.532.936.936,0,0,0,.192.323,1.793,1.793,0,0,1,.13.342,2.356,2.356,0,0,0,.13.342,2.9,2.9,0,0,1,.128.442.3.3,0,0,0,.167.239.409.409,0,0,0,.05.246c.037.055.033.149-.01.286a1.994,1.994,0,0,1,.2.137.884.884,0,0,0,.225.137c0,.18.006.327.012.45A.877.877,0,0,1,1062.206,182.771Zm-.635-17.587a1.736,1.736,0,0,1-.07-.46.843.843,0,0,0,0-.2.251.251,0,0,0-.07-.158.54.54,0,0,1-.095-.158.961.961,0,0,0-.175-.419.349.349,0,0,1-.109-.17.18.18,0,0,0-.115-.139.988.988,0,0,1-.235-.313c-.031-.086-.095-.115-.2-.084a.233.233,0,0,0-.194-.231.236.236,0,0,1-.2-.235.613.613,0,0,1-.342-.1c-.085-.057-.175-.127-.272-.207a.718.718,0,0,0-.173.111.255.255,0,0,1-.221.053.525.525,0,0,1-.22-.08.624.624,0,0,0-.225-.084,1.1,1.1,0,0,1-.451.023.607.607,0,0,0-.219-.031.929.929,0,0,0-.429-.1,1.564,1.564,0,0,0-.486.055c-.177.047-.353.09-.528.125a6.106,6.106,0,0,1-.923.012,3.21,3.21,0,0,0-.907.074c-.056.092-.064.162-.027.217a.319.319,0,0,1,.027.241,2.192,2.192,0,0,0-.095.518,1.575,1.575,0,0,1-.021.282.806.806,0,0,0-.089.335.3.3,0,0,1,.008.1l-.1.565a5.485,5.485,0,0,0-.2.853,8.451,8.451,0,0,1-.171.853c-.058.333-.117.63-.171.882s-.118.52-.183.786a1.591,1.591,0,0,1-.1.485,1,1,0,0,0-.089.254,2.589,2.589,0,0,0-.074.73,1.83,1.83,0,0,0,.591.053c.2-.012.342-.025.437-.031a.691.691,0,0,0,.237,0,.42.42,0,0,1,.161-.031c.181.01.35.023.507.045a1.248,1.248,0,0,0,.526-.055,1.751,1.751,0,0,0,.272-.039,2.608,2.608,0,0,0,.276-.068,1.287,1.287,0,0,1,.344-.125c.066,0,.118-.008.154-.012a2.84,2.84,0,0,1,.454-.182.613.613,0,0,0,.179-.065c.408-.205.7-.35.884-.428.286-.133.5-.223.653-.28s.282-.1.4-.131a.676.676,0,0,1,.406-.4.637.637,0,0,0,.392-.46.381.381,0,0,1,.2-.08c.066,0,.118-.053.153-.147.093-.2.192-.423.286-.649a2.973,2.973,0,0,1,.332-.589.609.609,0,0,1,.107-.358A1.152,1.152,0,0,0,1061.571,165.183Z" transform="translate(-982.637 -151.039)" fill="#fff"/>
          <path id="Path_16103" data-name="Path 16103" d="M1075.595,181.782a.42.42,0,0,1-.3.256.434.434,0,0,0-.3.26c-.177-.035-.284-.1-.325-.186a.725.725,0,0,1-.26.2.5.5,0,0,0-.151.063,1.09,1.09,0,0,0-.392.3.4.4,0,0,1-.144-.094.48.48,0,0,0-.179-.09,4.092,4.092,0,0,0-.464.1,1.214,1.214,0,0,1-.258.049,1.308,1.308,0,0,1-.385-.027.668.668,0,0,0-.4.043.34.34,0,0,1-.258.047c-.093-.016-.183.035-.282.153-.1.029-.148.023-.161-.022s-.064-.051-.161-.025a1.3,1.3,0,0,1-.353.174c-.13.043-.264.09-.4.143a.3.3,0,0,1-.191-.243.64.64,0,0,0-.147-.313,1.712,1.712,0,0,0,.078-.346.411.411,0,0,1,.089-.243.286.286,0,0,1-.043-.219,1.76,1.76,0,0,0,.029-.288,2,2,0,0,1-.057-.438,2.407,2.407,0,0,0-.033-.542.553.553,0,0,1,.041-.378.6.6,0,0,1-.093-.383,4.366,4.366,0,0,0-.006-.559.431.431,0,0,1-.021-.252.253.253,0,0,0,.014-.153,1.613,1.613,0,0,1-.041-.509,1.375,1.375,0,0,0,.023-.272,3.368,3.368,0,0,1-.057-.5,3.359,3.359,0,0,0-.025-.372c-.029-.067-.054-.125-.078-.18a.931.931,0,0,1-.072-.217.721.721,0,0,1,0-.288.737.737,0,0,0,0-.288c-.022-.09-.039-.164-.053-.233a1.8,1.8,0,0,1-.031-.2,1.843,1.843,0,0,1,.013-.423.672.672,0,0,0-.056-.385.448.448,0,0,0-.338.023,2.564,2.564,0,0,1-.328.123,1.119,1.119,0,0,1-.179,0,.383.383,0,0,0-.186.029,3.425,3.425,0,0,0-.369.11.446.446,0,0,1-.322.008.42.42,0,0,0-.187.047.69.69,0,0,1-.221.047.4.4,0,0,0-.286-.031c-.144.023-.272.037-.381.045l-.41.1a.4.4,0,0,1-.3-.016,2.126,2.126,0,0,1-.412-.037.675.675,0,0,0-.19-.022,1.378,1.378,0,0,0-.422.029.858.858,0,0,1-.417,0,.881.881,0,0,1-.216.117.385.385,0,0,0-.2.147,1.037,1.037,0,0,0-.522.037,1.359,1.359,0,0,1-.526.068.841.841,0,0,0-.315.493,2.929,2.929,0,0,1-.159.546,2.494,2.494,0,0,1-.26.507c-.1.155-.206.311-.311.475-.06.115-.118.233-.175.346s-.13.233-.206.352c-.06.115-.1.2-.13.243s-.054.092-.082.139-.052.072-.068.072a1.231,1.231,0,0,1-.151.364.383.383,0,0,0-.087.155.92.92,0,0,0-.1.309,1.189,1.189,0,0,1-.072.309,1.9,1.9,0,0,1-.229.417,1.087,1.087,0,0,0-.183.448,1.738,1.738,0,0,0-.441.583,2.154,2.154,0,0,1-.449.616,3.184,3.184,0,0,1-.219.585c-.089.184-.183.364-.282.538a4.159,4.159,0,0,0-.256.552,4.413,4.413,0,0,0-.179.667,3.733,3.733,0,0,1-.313.2c-.148.086-.26.1-.34.035a1.738,1.738,0,0,0-.392-.211.939.939,0,0,1-.291-.151.828.828,0,0,0-.3-.031q-.25,0-.39.006a.615.615,0,0,1-.282.018c-.05-.022-.105-.041-.155-.059a1.448,1.448,0,0,0-.214.027.593.593,0,0,1-.235,0,1.605,1.605,0,0,1-.6-.217,2.585,2.585,0,0,0-.538-.25,1.505,1.505,0,0,1,.083-.291c.035-.078.076-.174.138-.291a.536.536,0,0,1,.179-.227.2.2,0,0,0,.09-.19c.089-.184.186-.368.285-.552s.2-.368.307-.556a3.266,3.266,0,0,1,.25-.432c.047-.059.095-.112.142-.162.116-.227.2-.383.237-.466s.076-.143.105-.19c.058-.113.105-.209.134-.276a1.5,1.5,0,0,1,.192-.28l.328-.423a2.893,2.893,0,0,1,.26-.5c.078-.108.138-.2.19-.266a2.565,2.565,0,0,0,.3-.438c.084-.151.179-.317.288-.5.1-.117.183-.231.258-.334a2.091,2.091,0,0,0,.206-.366,2.006,2.006,0,0,1,.138-.291,1.127,1.127,0,0,0,.078-.123c.045-.137.072-.223.091-.258a.932.932,0,0,1,.064-.119,4.639,4.639,0,0,0,.351-.63,4.624,4.624,0,0,1,.356-.626,1.121,1.121,0,0,1,.241-.319.69.69,0,0,0,.194-.379.787.787,0,0,0,.253-.3,3.113,3.113,0,0,1,.206-.368,1.482,1.482,0,0,1,.212-.313,3.926,3.926,0,0,0,.241-.319c.055-.117.123-.239.192-.366s.144-.252.223-.368a2.171,2.171,0,0,1,.2-.333.674.674,0,0,1,.295-.239.584.584,0,0,1,.08-.36l.2-.366a1.94,1.94,0,0,1,.185-.266,1.892,1.892,0,0,0,.192-.266l.2-.348a2.261,2.261,0,0,1,.262-.44.907.907,0,0,0,.13-.16.4.4,0,0,0,.081-.207.366.366,0,0,1,.045-.172,1.252,1.252,0,0,0,.317-.358c.083-.141.176-.293.28-.458a4.025,4.025,0,0,0,.252-.44,2.445,2.445,0,0,1,.311-.475.562.562,0,0,1,.084-.293,3.02,3.02,0,0,0,.165-.3,1.747,1.747,0,0,0,.142-.229,2,2,0,0,1,.14-.229,2.14,2.14,0,0,0,.342-.565c.058-.16.119-.311.183-.45a1.3,1.3,0,0,1,.179-.284,1.893,1.893,0,0,0,.171-.246,2.186,2.186,0,0,0,.136-.282.43.43,0,0,1,.182-.215,2.427,2.427,0,0,1,.235-.591c.095-.162.19-.338.283-.524a1.91,1.91,0,0,1,.4-.5,3.443,3.443,0,0,0,.107-.411,1.436,1.436,0,0,1,.124-.381,1.259,1.259,0,0,1,.2-.284,1.251,1.251,0,0,0,.185-.25c.134-.305.241-.552.323-.749s.173-.391.262-.577c.087-.162.179-.358.278-.579s.192-.424.281-.61c.084-.143.161-.278.231-.409s.138-.26.2-.4a1.6,1.6,0,0,0,.515-.516,4.377,4.377,0,0,0,.357-.7.539.539,0,0,1,.252-.074.645.645,0,0,0,.152,0c.183.027.28.1.3.207a.654.654,0,0,0,.113.293,1.847,1.847,0,0,1,.144.342c.031.1.054.192.074.28a1.5,1.5,0,0,1,.169.354,1.461,1.461,0,0,1,.095.466c.021.086.039.186.056.3s.033.225.05.333a2.462,2.462,0,0,1,.084.364c.021.131.043.28.072.432.021.18.043.383.066.618s.035.464.051.687a1.58,1.58,0,0,1,.013.3.77.77,0,0,0,.016.268c.017.113.033.2.05.268a1.415,1.415,0,0,0,.06.2c.037.2.077.415.113.649s.084.469.132.714c.023.065.041.133.06.2s.033.147.053.235a.43.43,0,0,1,.066.166,1.527,1.527,0,0,0,.062.2,1.13,1.13,0,0,1,.054.231.517.517,0,0,0,.082.233c.029.131.058.248.086.348a1.692,1.692,0,0,1,.046.417c.012.135.021.305.029.507a4.794,4.794,0,0,1-.01.577,5.258,5.258,0,0,1,.134.681c.037.258.068.511.1.755.042.066.083.127.118.18a1.339,1.339,0,0,1,.113.211.576.576,0,0,0,.068.233.4.4,0,0,1,.057.129,4.56,4.56,0,0,1,.068.589c.01.194.019.378.023.559a1.751,1.751,0,0,0,.076.334.888.888,0,0,1,0,.407,2.242,2.242,0,0,1,.159.481c.029.143.049.272.068.383.058.178.1.3.122.381s.043.162.062.25a2.163,2.163,0,0,1,.186.632.891.891,0,0,1,.015.288.607.607,0,0,0,.023.254,3.57,3.57,0,0,0,.051.456,2.839,2.839,0,0,1,.045.489.612.612,0,0,1,.152.3,3.154,3.154,0,0,1,.062.335,1.34,1.34,0,0,1,.057.288c.013.123.029.241.043.354a2.471,2.471,0,0,0,.12.536,1.746,1.746,0,0,1,.091.538c.017.115.035.225.062.338s.043.225.06.334a.64.64,0,0,1-.014.293.325.325,0,0,0,0,.221,4.285,4.285,0,0,0,.08.438q.04.681.118,1.426a8.133,8.133,0,0,0,.152.878A3.905,3.905,0,0,1,1075.595,181.782Zm-5.606-9.853a.527.527,0,0,0,.082-.274c0-.092,0-.19,0-.305a2.9,2.9,0,0,1,.016-.307.906.906,0,0,0-.012-.3.76.76,0,0,0-.083-.213.311.311,0,0,1-.066-.18c.027-.319.045-.595.06-.833s.035-.479.043-.728a.7.7,0,0,1-.161-.327,1.182,1.182,0,0,1-.126-.446c-.006-.125-.006-.241,0-.354a4.293,4.293,0,0,0-.027-.452c-.014-.125-.027-.239-.043-.352,0-.178,0-.338,0-.473a3.332,3.332,0,0,0-.008-.4c-.006-.066-.012-.129-.019-.184s-.016-.117-.025-.182c-.01-.135-.02-.282-.027-.438s-.057-.252-.14-.291a.714.714,0,0,0-.392.436,1.7,1.7,0,0,1-.295.526,1.365,1.365,0,0,0-.179.219c-.087.252-.152.432-.2.536s-.1.217-.161.333-.114.223-.159.315a3.192,3.192,0,0,1-.15.282,2.439,2.439,0,0,0-.136.213c-.043.068-.078.127-.1.174-.244.4-.46.751-.643,1.043a9.5,9.5,0,0,0-.5.9c-.058.117-.109.227-.149.333a2.647,2.647,0,0,1-.144.331,1.241,1.241,0,0,1-.188.248,1.3,1.3,0,0,0-.189.284.52.52,0,0,0-.052.188.624.624,0,0,1-.056.223,3.1,3.1,0,0,0-.353.616,3.705,3.705,0,0,1-.169.4,1,1,0,0,0,.6.11c.219-.025.431-.049.639-.065.361-.047.734-.1,1.119-.162a7.168,7.168,0,0,0,.989-.225,1.88,1.88,0,0,1,.707-.051A1.106,1.106,0,0,0,1069.989,171.929Z" transform="translate(-974.708 -152.396)" fill="#fff"/>
          <path id="Path_16104" data-name="Path 16104" d="M1090.455,156.186c-.053.262-.126.608-.221,1.047a3.435,3.435,0,0,1-.348.986,5.292,5.292,0,0,1-.375,1.387,10.9,10.9,0,0,0-.487,1.4,5.431,5.431,0,0,0-.148.675,3.65,3.65,0,0,1-.177.673,5.26,5.26,0,0,0-.2.659c-.06.25-.124.5-.192.765a5.616,5.616,0,0,1-.192.538,5.293,5.293,0,0,0-.19.534c-.062.215-.111.415-.148.6a5.623,5.623,0,0,1-.14.569c-.13.473-.237.915-.317,1.328s-.173.822-.27,1.221c-.076.286-.146.569-.212.853s-.134.556-.2.814c-.081.311-.155.6-.229.872s-.142.538-.212.8c-.043.121-.083.256-.124.409s-.076.313-.109.477a1.2,1.2,0,0,0-.023.262.975.975,0,0,1-.057.3,2.057,2.057,0,0,1-.095.321,3.185,3.185,0,0,1-.147.325c-.092.284-.175.583-.247.888a6.46,6.46,0,0,1-.28.925.281.281,0,0,1-.062.248,1.565,1.565,0,0,0-.155.288c-.105.45-.223.906-.338,1.367s-.227.88-.319,1.258c-.052.258-.1.54-.155.847a6.9,6.9,0,0,1-.223.921,2.379,2.379,0,0,1-.142.288c-.056.1-.115.2-.175.325a2.435,2.435,0,0,0-.152.548c-.029.2-.068.432-.12.689a2.308,2.308,0,0,1-.029.421,1.318,1.318,0,0,1-.194.413c-.074.11-.155.225-.233.344a1.5,1.5,0,0,1-.478.029.9.9,0,0,0-.429.061,1.675,1.675,0,0,0-.276-.209.6.6,0,0,1-.235-.28.814.814,0,0,0-.146-.321.325.325,0,0,1-.094-.155,2.757,2.757,0,0,1-.225-.4.452.452,0,0,1-.029-.276.2.2,0,0,1-.145-.043.45.45,0,0,1-.1-.117.181.181,0,0,0-.1-.184.606.606,0,0,1-.171-.111.354.354,0,0,1-.025-.225c.01-.1-.066-.113-.227-.037.016-.094.01-.157-.021-.188s-.025-.11.017-.229a.706.706,0,0,0-.2-.09.631.631,0,0,1-.2-.092.445.445,0,0,1-.111-.2c-.029-.09-.06-.19-.093-.307a.8.8,0,0,1-.144-.18c-.052-.078-.089-.139-.117-.184-.089-.11-.132-.184-.126-.217a.171.171,0,0,0-.029-.119c-.078-.088-.142-.166-.194-.231a.72.72,0,0,0-.177-.162,1.168,1.168,0,0,0-.076-.307.383.383,0,0,0-.185-.2.844.844,0,0,1-.019-.256.283.283,0,0,0-.033-.188.433.433,0,0,1-.084-.205.829.829,0,0,0-.016-.137,1.923,1.923,0,0,1-.179-.423c-.029-.1-.052-.2-.07-.288a2.66,2.66,0,0,0-.142-.266l-.062-.1a1.063,1.063,0,0,1-.039-.38,1.548,1.548,0,0,0-.029-.413.56.56,0,0,0-.132-.25.725.725,0,0,1-.155-.284c-.023-.066-.047-.145-.076-.237a.369.369,0,0,0-.142-.2c-.087-.133-.152-.2-.2-.213a.153.153,0,0,1-.109-.078,2.23,2.23,0,0,1-.1-.354c-.018-.1-.035-.2-.055-.289a.953.953,0,0,1-.136-.3,2.071,2.071,0,0,0-.064-.239,1.807,1.807,0,0,0-.322-.491.743.743,0,0,1-.167-.575,1.971,1.971,0,0,1-.229-.329c-.064-.108-.126-.231-.194-.364-.051-.2-.117-.313-.2-.331a.246.246,0,0,1-.165-.09c-.006-.158-.058-.26-.147-.3a.274.274,0,0,1-.157-.264.114.114,0,0,1-.15-.023.757.757,0,0,1-.1-.131,1.389,1.389,0,0,1-.251-.151.514.514,0,0,1-.062-.186,1.239,1.239,0,0,0-.053-.221.835.835,0,0,0-.136-.158.412.412,0,0,1-.107-.164c-.054-.2-.093-.36-.118-.473a.3.3,0,0,0-.192-.225,1.2,1.2,0,0,0-.023-.393c-.026-.1-.057-.209-.092-.319-.076-.176-.132-.3-.165-.366a1.659,1.659,0,0,0-.095-.162c-.072-.11-.1-.194-.076-.252s.024-.1.01-.121c-.077-.178-.128-.3-.155-.364s-.045-.133-.072-.2a1.7,1.7,0,0,0-.15-.364c-.045-.067-.08-.121-.109-.164a30.548,30.548,0,0,0-1.033,3.541q-.43,1.848-.88,3.9a5.39,5.39,0,0,0-.087.659,3.826,3.826,0,0,1-.128.73.89.89,0,0,1-.068.209.381.381,0,0,0-.039.209,3.57,3.57,0,0,0-.068.5,5.869,5.869,0,0,1-.093.608c-.037.188-.085.44-.149.765s-.113.647-.159.97a4.832,4.832,0,0,0-.089.747c-.01.239-.021.487-.033.739-.006.229-.006.464,0,.7a2.428,2.428,0,0,1-.083.708,1.532,1.532,0,0,1-.2.511.953.953,0,0,0-.138.507,3.287,3.287,0,0,0-.309.381.761.761,0,0,1-.318.278.47.47,0,0,1-.256-.053.949.949,0,0,0-.245-.09c-.122.057-.206.061-.254.016a.168.168,0,0,1-.07-.063,1.464,1.464,0,0,0-.42.092.3.3,0,0,1-.379-.113,1.02,1.02,0,0,0-.186.082.392.392,0,0,1-.173.045.9.9,0,0,1-.276-.018.457.457,0,0,0-.286.053c-.058,0-.144.01-.268.018a1.068,1.068,0,0,1-.365-.049.934.934,0,0,1-.128-.335c-.023-.274-.039-.475-.052-.612a3.365,3.365,0,0,1-.008-.377.68.68,0,0,1,.06-.172.972.972,0,0,0,.068-.211,2.227,2.227,0,0,0,.033-.241,1.515,1.515,0,0,1,.027-.209,1.856,1.856,0,0,1,.078-.278,1.443,1.443,0,0,0,.089-.315c.035-.184.064-.378.087-.585s.045-.436.078-.689a1.112,1.112,0,0,0,.021-.19,1.133,1.133,0,0,1,.023-.19,8.224,8.224,0,0,1,.322-1.031,4.664,4.664,0,0,0,.268-1.162,1.282,1.282,0,0,0,.021-.344,1.791,1.791,0,0,1,.025-.344,5.263,5.263,0,0,1,.157-.593q.1-.279.179-.557a.323.323,0,0,0,.066-.207.323.323,0,0,1,.033-.174.564.564,0,0,1,.1-.213,1.516,1.516,0,0,0,.124-.209,3.536,3.536,0,0,1,.167-.73c.093-.28.183-.62.278-1.011a3.048,3.048,0,0,1,.214-.82,3.057,3.057,0,0,0,.2-.612,2.912,2.912,0,0,1,.142-.522c.054-.141.1-.27.144-.385l.079-.419a1.4,1.4,0,0,0,.113-.52.871.871,0,0,1,.01-.272,1.1,1.1,0,0,0,.114-.368c.014-.127.023-.245.027-.36a.593.593,0,0,0,.091-.247,1.368,1.368,0,0,0-.019-.27,9.884,9.884,0,0,1,.313-1.256,3.644,3.644,0,0,0,.188-.9.983.983,0,0,0,.021-.256c-.01-.057-.015-.119-.023-.188a2.265,2.265,0,0,1,.124-.556,1.643,1.643,0,0,0,.1-.315.562.562,0,0,0,.039-.276c-.01-.09-.014-.18-.016-.27a1.236,1.236,0,0,1,.109-.282c.06-.117.047-.207-.031-.27a1.494,1.494,0,0,0,.146-.473.858.858,0,0,1,.017-.221.846.846,0,0,0,.091-.333.188.188,0,0,1,0-.117.473.473,0,0,0,.074-.264.624.624,0,0,1,0-.153l.109-.282c.035-.094.076-.2.117-.317a1.36,1.36,0,0,0,.019-.243,1.106,1.106,0,0,1,.019-.239c.047-.16.1-.315.142-.456s.091-.27.13-.385a.886.886,0,0,0,.066-.26.611.611,0,0,1,.056-.227,4.155,4.155,0,0,0,.177-.767,1.665,1.665,0,0,1,.126-.52.928.928,0,0,1,.49-.434.43.43,0,0,1,.555.1,2.436,2.436,0,0,1,.478.061c.134.033.175.176.125.432a.166.166,0,0,1,.188.121.345.345,0,0,0,.144.19c.235.139.365.245.388.309.12.17.2.289.256.352a.654.654,0,0,1,.115.2,1.192,1.192,0,0,1,.1.3.1.1,0,0,0,.05.1,1.912,1.912,0,0,1,.113.213c.045.1.089.194.128.282a2.306,2.306,0,0,0,.237.372,1.846,1.846,0,0,1,.227.409.744.744,0,0,1,.1.215.483.483,0,0,0,.126.211c.1.174.2.366.295.575s.2.423.307.642c.037.113.07.219.107.317a.462.462,0,0,0,.2.241.607.607,0,0,0,.226.565,1.312,1.312,0,0,0,.147.536,1.954,1.954,0,0,1,.181.5,1.853,1.853,0,0,1,.254.411q.1.214.223.446a.584.584,0,0,1,.064.166.511.511,0,0,0,.087.2.47.47,0,0,1,.1.284.285.285,0,0,0,.033.188,1.524,1.524,0,0,0,.074.252,1.757,1.757,0,0,1,.078.252,4.217,4.217,0,0,1,.274.874,6.115,6.115,0,0,0,.169.71,3.848,3.848,0,0,1,.165.434c.035.113.062.213.081.3a3.408,3.408,0,0,1,.251.43c.068.133.128.262.188.383s.125.25.194.383a1.1,1.1,0,0,1,.091.3.626.626,0,0,1-.012.139c.111.106.159.178.152.213a.076.076,0,0,0,.041.082,4.194,4.194,0,0,0,.4.818c.169.278.342.534.517.777a3.974,3.974,0,0,0,.264.36,1.346,1.346,0,0,1,.22.432,1.529,1.529,0,0,0,.089.327.292.292,0,0,1,.047.113,2.8,2.8,0,0,0,.286.589,1.71,1.71,0,0,0,.452.471c.049-.166.091-.325.123-.479s.056-.286.079-.4.043-.225.062-.317a.46.46,0,0,1,.163-.258,5.29,5.29,0,0,1-.006-.53,1.13,1.13,0,0,1,.2-.624,1.3,1.3,0,0,1,.037-.469.733.733,0,0,0,.054-.264.708.708,0,0,0,.014-.229.788.788,0,0,1,.018-.227,2.211,2.211,0,0,1,.142-.579c.076-.2.146-.423.212-.657q.118-.6.245-1.248a7.979,7.979,0,0,1,.309-1.15.8.8,0,0,1,.1-.217c.058-.1.1-.168.126-.217a1.158,1.158,0,0,1,.1-.4,1.2,1.2,0,0,0,.1-.3,4.572,4.572,0,0,0,.066-.489,4.274,4.274,0,0,1,.132-.671,2.307,2.307,0,0,1,.152-.616,4.961,4.961,0,0,0,.186-.518.774.774,0,0,1,.043-.366,2.663,2.663,0,0,0,.1-.372,1.928,1.928,0,0,0,.033-.227,2.629,2.629,0,0,1,.035-.264,1.876,1.876,0,0,1,.146-.442,4.1,4.1,0,0,0,.163-.413c.033-.162.062-.323.082-.473a1.682,1.682,0,0,1,.171-.516,1.49,1.49,0,0,1-.039-.241c0-.068-.015-.158-.029-.274a3.653,3.653,0,0,0,.3-1.045,7.143,7.143,0,0,1,.241-1.144.834.834,0,0,1,.1-.358.482.482,0,0,0,.057-.141.664.664,0,0,0,0-.293.409.409,0,0,1,.025-.262,2.914,2.914,0,0,1,.284-.389.9.9,0,0,1,.353-.29.326.326,0,0,1,.274.029.436.436,0,0,0,.268.063,1.723,1.723,0,0,0,.684-.147c.256-.1.489-.188.709-.256a1.622,1.622,0,0,1,.67-.059,2.124,2.124,0,0,0,.783-.07,4.82,4.82,0,0,1,.65.117,1.055,1.055,0,0,0,.264.082A.188.188,0,0,1,1090.455,156.186Z" transform="translate(-963.224 -153.244)" fill="#fff"/>
          <path id="Path_16105" data-name="Path 16105" d="M1099.4,159.117a2.687,2.687,0,0,1-.231.571,2.929,2.929,0,0,1-.315.473,1.8,1.8,0,0,0-.307.4.626.626,0,0,1-.125.207c-.13.174-.206.289-.237.338a.6.6,0,0,1-.077.113,1.456,1.456,0,0,0-.208.264c-.043.076-.091.1-.144.084a3.383,3.383,0,0,1-.4.728,1.177,1.177,0,0,1-.6.491.536.536,0,0,1-.361-.1.509.509,0,0,1-.183-.391.8.8,0,0,1-.169-.059,1.15,1.15,0,0,1-.163-.092c.006-.119-.025-.182-.087-.188s-.084-.07-.06-.19a.419.419,0,0,1-.227-.178.967.967,0,0,0-.2-.213c-.062-.065-.13-.143-.2-.231a.7.7,0,0,1-.149-.376c-.128-.11-.255-.215-.383-.323s-.262-.215-.408-.321c-.132-.08-.274-.184-.429-.3a.92.92,0,0,0-.534-.186.227.227,0,0,0-.146-.182.547.547,0,0,1-.206-.141,4.352,4.352,0,0,1-.59-.057c-.192-.031-.392-.061-.612-.088a1.653,1.653,0,0,1-.8.156,3.321,3.321,0,0,1-.746-.094.34.34,0,0,0-.186.086.864.864,0,0,1-.22.125,1.242,1.242,0,0,0-.336.063.971.971,0,0,0-.169.086.553.553,0,0,1-.231.035.551.551,0,0,0-.233.039c-.105.057-.2.111-.283.164a.6.6,0,0,1-.272.092.333.333,0,0,0-.212.211.7.7,0,0,1-.13.241,1.633,1.633,0,0,0-.626.333,4.869,4.869,0,0,0-.528.536c-.3.192-.536.331-.715.428a1.143,1.143,0,0,0-.443.477.5.5,0,0,0-.289.111c-.078.065-.15.127-.221.192s-.138.129-.2.194a.414.414,0,0,1-.245.108c-.082.125-.151.235-.208.333a1.282,1.282,0,0,1-.192.26,2.987,2.987,0,0,0-.443.336c-.057.061-.146.145-.26.248-.095.1-.161.17-.194.207a2.055,2.055,0,0,0-.167.205c-.087.147-.194.333-.32.55a1.726,1.726,0,0,1-.391.487,2.745,2.745,0,0,1-.289.6c-.107.158-.221.313-.344.464a.329.329,0,0,0-.07.217.339.339,0,0,1-.072.215,1.189,1.189,0,0,1-.169.293,1.141,1.141,0,0,0-.171.293,1.047,1.047,0,0,0-.068.338,1.527,1.527,0,0,1-.031.3.613.613,0,0,1-.091.235.6.6,0,0,0-.08.2,7.446,7.446,0,0,0-.241.927c-.066.335-.136.63-.206.892-.019.1-.039.207-.056.338a3.355,3.355,0,0,1-.06.372,2.252,2.252,0,0,1-.047.372c-.027.131-.045.231-.06.3a.565.565,0,0,0,.041.225.6.6,0,0,1,.037.225.629.629,0,0,1-.015.282.167.167,0,0,0,.056.207c-.118.213-.14.356-.072.423s.068.205-.014.423c.08.158.152.286.214.389a.737.737,0,0,1,.11.221c.07.2.121.34.155.409a.981.981,0,0,1,.076.239l.183.409c.07.16.138.307.2.444.07.113.124.2.159.252a2.517,2.517,0,0,1,.13.256.322.322,0,0,0,.149.217.613.613,0,0,1,.214.178,1.224,1.224,0,0,1,.082.153.211.211,0,0,0,.174.113.6.6,0,0,0,.3.245c.13.049.192.168.194.356a2.782,2.782,0,0,1,.523.3,2.08,2.08,0,0,0,.606.293c.256.029.46.047.617.049a1.51,1.51,0,0,1,.34.029,2.076,2.076,0,0,0,.375.01,2.852,2.852,0,0,0,.414-.063.764.764,0,0,0,.419-.008.6.6,0,0,1,.208-.07.339.339,0,0,1,.161.027.356.356,0,0,0,.163.024,2.192,2.192,0,0,0,.67-.08,1,1,0,0,1,.647.029,1.009,1.009,0,0,0,.173-.1.825.825,0,0,1,.2-.1.78.78,0,0,0,.581-.059c.194-.094.33-.1.4-.008a.243.243,0,0,0,.2-.086.4.4,0,0,1,.152-.115c.1-.029.163-.027.192,0a.194.194,0,0,0,.159.045.793.793,0,0,0,.28-.16,1.4,1.4,0,0,1,.291-.2.256.256,0,0,1,.2-.066.5.5,0,0,0,.216-.033c.255-.088.462-.158.612-.219a1.345,1.345,0,0,1,.367-.1c.194-.037.379-.066.561-.09a.769.769,0,0,0,.5-.338,5.955,5.955,0,0,0,.734-.192,3.506,3.506,0,0,1,.474-.139.361.361,0,0,1,.029.336c-.043.158,0,.243.126.26a.671.671,0,0,0-.053.272c0,.059.01.121.014.194a1.978,1.978,0,0,0,.076.37,1.245,1.245,0,0,1,.029.479.421.421,0,0,1-.041.2.762.762,0,0,0-.07.2,1.3,1.3,0,0,0-.018.432.246.246,0,0,1,.012.143c-.037.26-.056.452-.064.573a1.629,1.629,0,0,1-.029.288,2.415,2.415,0,0,1-.132.241.758.758,0,0,0-.107.239,4.562,4.562,0,0,1-.544.158c-.2.049-.338,0-.4-.133a1.888,1.888,0,0,0-.419.2c-.119.078-.262.172-.433.278a1.428,1.428,0,0,1-.421.241c-.109.029-.214.061-.311.09a1.546,1.546,0,0,1-.233.123.821.821,0,0,1-.247.049c-.111.1-.225.192-.332.272a1.838,1.838,0,0,1-.375.2,1.348,1.348,0,0,1-.622.2,1.242,1.242,0,0,0-.459.082,2.209,2.209,0,0,0-.289.108,2.1,2.1,0,0,0-.262.141,2.028,2.028,0,0,1-.348,0,.335.335,0,0,0-.188.031.749.749,0,0,1-.282-.039.491.491,0,0,0-.291,0,.6.6,0,0,0-.237.067,1.675,1.675,0,0,1-.272.106.348.348,0,0,1-.161-.027.5.5,0,0,0-.188-.022.719.719,0,0,0-.163.043c-.072.029-.123.033-.154.012a4.612,4.612,0,0,1-.787-.022,2.266,2.266,0,0,0-.8.049.654.654,0,0,0-.373-.137,1.3,1.3,0,0,1-.217.033c-.033-.117-.123-.158-.28-.123a.325.325,0,0,1-.344-.088.161.161,0,0,0-.146-.1c-.056,0-.1.006-.14.01a.656.656,0,0,1-.3-.44.269.269,0,0,1-.183.082l-.2.012a.786.786,0,0,1-.183-.2.492.492,0,0,0-.19-.164,4.381,4.381,0,0,1-.458-.059c-.144-.025-.233-.145-.264-.354a.7.7,0,0,0-.192-.022.334.334,0,0,1-.159-.025,1.067,1.067,0,0,0-.322-.137.292.292,0,0,1-.163-.076c-.078-.09-.134-.139-.179-.149a.452.452,0,0,0-.095-.012,6.794,6.794,0,0,0-.744-.794c-.243-.219-.466-.428-.666-.628-.043-.158-.079-.309-.105-.448a.323.323,0,0,0-.249-.264c.035-.1.025-.153-.035-.174s-.07-.088-.029-.207a1.353,1.353,0,0,1-.155-.2.1.1,0,0,1-.012-.068.847.847,0,0,0-.183-.266.3.3,0,0,1-.111-.205,1.253,1.253,0,0,0-.1-.344c-.053-.112-.1-.225-.154-.338a2.4,2.4,0,0,1-.27-1.031,1.368,1.368,0,0,0-.134-.569.4.4,0,0,1-.01-.368c-.025-.067-.049-.131-.074-.186a.982.982,0,0,1-.068-.223,1.128,1.128,0,0,0,.058-.495,1.558,1.558,0,0,0-.114-.338,1.864,1.864,0,0,1,.111-.272.9.9,0,0,0,.058-.3c-.016-.117-.037-.237-.066-.362a1.926,1.926,0,0,1-.054-.434.551.551,0,0,1,.012-.264,1.475,1.475,0,0,0,.031-.37c0-.115.008-.284.016-.507a2.023,2.023,0,0,1,.089-.581,1.889,1.889,0,0,1,.146-.327c.058-.1.113-.194.171-.291a1.775,1.775,0,0,1,.34-1,4.152,4.152,0,0,1,.451-1.714,2.246,2.246,0,0,0,.2-.5,2.492,2.492,0,0,1,.155-.432.736.736,0,0,1,.115-.215.658.658,0,0,0,.093-.4c.054-.072.1-.141.138-.2s.087-.131.138-.2a4.849,4.849,0,0,1,.379-.851c.157-.28.33-.554.513-.826a6.587,6.587,0,0,0,.6-.906,5.572,5.572,0,0,1,.452-.72,4.508,4.508,0,0,1,.39-.415,2.273,2.273,0,0,0,.377-.487.231.231,0,0,0,.249-.145.294.294,0,0,1,.229-.174,1.378,1.378,0,0,1,.272-.374,6.917,6.917,0,0,1,.474-.548,1.348,1.348,0,0,0,.266-.354.353.353,0,0,0,.27-.162c.068-.1.138-.2.215-.3a.762.762,0,0,0,.33-.256.563.563,0,0,1,.354-.223.4.4,0,0,1,.315-.256.423.423,0,0,0,.324-.291,1.449,1.449,0,0,0,.493-.235,4.7,4.7,0,0,1,.513-.309,2.315,2.315,0,0,1,.251-.141c.084-.045.169-.094.251-.147a1.368,1.368,0,0,0,.34-.153,1.161,1.161,0,0,1,.13-.1,1.207,1.207,0,0,1,.264-.057,1.394,1.394,0,0,0,.295-.061,3.563,3.563,0,0,0,.377-.209,3.32,3.32,0,0,1,.377-.209,1.134,1.134,0,0,1,.225-.072,1.766,1.766,0,0,0,.251-.074c.082-.031.169-.068.264-.111a.373.373,0,0,1,.295-.01l.183-.016a.95.95,0,0,0,.285-.094c.218-.067.5-.151.833-.25s.573-.063.7.113c.13-.084.258-.158.383-.227a.313.313,0,0,1,.381.053.469.469,0,0,0,.2-.072,2.45,2.45,0,0,1,.231-.11.2.2,0,0,1,.146.043.255.255,0,0,0,.173.037.579.579,0,0,0,.241,0,.562.562,0,0,1,.237,0,1.4,1.4,0,0,1,.347.074c.107.037.22.074.342.112a.433.433,0,0,0,.212,0,.257.257,0,0,1,.2.033.322.322,0,0,1,.173.041.3.3,0,0,0,.145.039.53.53,0,0,0,.177-.051.157.157,0,0,1,.144-.014,1.107,1.107,0,0,1,.435.192.592.592,0,0,0,.489.08,1.53,1.53,0,0,0,.622.512.942.942,0,0,1,.507.663.693.693,0,0,1,.152.076.908.908,0,0,0,.15.074c.1.182.2.362.3.542a.892.892,0,0,0,.435.389c.015.117.064.178.144.182a.7.7,0,0,1,.256.067.734.734,0,0,0,.268.245.827.827,0,0,1,.167.074,1.444,1.444,0,0,0,.054.28A2.042,2.042,0,0,1,1099.4,159.117Z" transform="translate(-951.089 -153.855)" fill="#fff"/>
          <path id="Path_16106" data-name="Path 16106" d="M1105.263,154.584a.709.709,0,0,1,.087.264,1.184,1.184,0,0,1,0,.342,1.232,1.232,0,0,1-.1.352.4.4,0,0,1-.256.223.239.239,0,0,1,0,.268.958.958,0,0,0-.123.319,5.7,5.7,0,0,0-.169.81,3.932,3.932,0,0,1-.192.775,1.806,1.806,0,0,1-.149.317c-.057.09-.113.186-.171.288-.068.125-.126.239-.186.34a1.651,1.651,0,0,1-.157.229.568.568,0,0,1-.579.086.72.72,0,0,0-.625.053.361.361,0,0,0-.427-.108.373.373,0,0,1-.445-.143.767.767,0,0,1-.5.08,2.691,2.691,0,0,0-.5-.065.534.534,0,0,0-.179.049.2.2,0,0,1-.169.014.661.661,0,0,1-.26-.1.421.421,0,0,0-.264-.068.356.356,0,0,0-.245.039.8.8,0,0,1-.282.078l-.484.041c-.254-.027-.526-.037-.8-.039s-.6-.008-.944-.025a4.787,4.787,0,0,0-.853,0,6.845,6.845,0,0,0-.938.153,1.85,1.85,0,0,0-.255.753c-.025.254-.053.512-.093.781s-.076.53-.121.794-.087.536-.124.8a1.54,1.54,0,0,1-.074.241,1.206,1.206,0,0,0-.08.239c-.029.145-.058.327-.084.546s-.06.421-.1.614a3.674,3.674,0,0,1-.124.46.789.789,0,0,0-.029.415,1.286,1.286,0,0,0,.542.065,2.05,2.05,0,0,0,.379.006l.352-.029a6.051,6.051,0,0,1,.619-.086l.608-.049.95-.074a9.076,9.076,0,0,0,1.049-.155c.177-.039.349-.084.518-.131a.506.506,0,0,1,.47.086.765.765,0,0,1,.313-.1,1.279,1.279,0,0,0,.305-.061.365.365,0,0,1,.227-.018.523.523,0,0,0,.219.018,3.25,3.25,0,0,1,.709-.057,3.479,3.479,0,0,0,.474,0c.1-.033.2-.065.286-.1a.435.435,0,0,1,.241-.018c.095-.01.138.029.128.115a.535.535,0,0,0,.023.233,1.576,1.576,0,0,1-.014.6c-.046.211-.105.462-.188.757a.919.919,0,0,1-.087.35,1.272,1.272,0,0,0-.1.28,6.465,6.465,0,0,0-.181.865,3.5,3.5,0,0,0-.025.779c-.064.125-.13.256-.194.393a1.466,1.466,0,0,1-.243.362.23.23,0,0,0-.206.053.345.345,0,0,1-.186.086.33.33,0,0,1-.214-.039c-.051-.031-.1-.068-.169-.113-.027-.07-.084-.072-.182-.006s-.122.02-.066-.155a1.381,1.381,0,0,1-.532.274.482.482,0,0,0-.317.186.284.284,0,0,0-.3-.1,1.338,1.338,0,0,0-.373.119.663.663,0,0,0-.28-.07l-.4-.023a.35.35,0,0,0-.334.059,1.53,1.53,0,0,1-.353.17.751.751,0,0,0-.5,0,3.533,3.533,0,0,0-.464.213c-.1.033-.148,0-.15-.078s-.05-.11-.15-.076a.5.5,0,0,1-.342.113.374.374,0,0,0-.324.151c-.072-.113-.2-.135-.389-.063s-.332.045-.415-.092c-.06.1-.115.133-.175.1a.324.324,0,0,0-.237,0,.724.724,0,0,0-.221.053.7.7,0,0,1-.217.053.507.507,0,0,1-.321-.014.344.344,0,0,0-.332.063.384.384,0,0,0-.173.3,1.705,1.705,0,0,1-.083.4c-.035.074-.07.147-.1.225a1.046,1.046,0,0,0-.074.217.815.815,0,0,0-.015.272.526.526,0,0,1-.043.272,3.425,3.425,0,0,1-.2.622c-.093.221-.181.444-.264.663a5.975,5.975,0,0,0-.3.919,1.563,1.563,0,0,1-.264.6,1.007,1.007,0,0,1,0,.393c-.021.192-.054.4-.1.616s-.091.426-.13.62l-.093.454a2.581,2.581,0,0,1-.159.5c-.035.072-.07.149-.1.221a1.163,1.163,0,0,0-.074.221,1.043,1.043,0,0,0-.053.4.919.919,0,0,1-.091.436.629.629,0,0,0,.521.11,5.623,5.623,0,0,1,.695-.08c.324-.049.657-.108,1-.178a6.608,6.608,0,0,1,.9-.131.967.967,0,0,1,.393.045.51.51,0,0,0,.379-.025,3.96,3.96,0,0,1,.493-.157,1.394,1.394,0,0,1,.5-.053,1.816,1.816,0,0,1,.493-.035,1.362,1.362,0,0,0,.344.014q.254-.015.47-.047c.142-.025.291-.051.447-.086.08-.029.155-.057.225-.086a.8.8,0,0,1,.221-.053.756.756,0,0,0,.276,0,.7.7,0,0,1,.146-.029c.1.041.173.051.216.022a.253.253,0,0,1,.095-.043c.062.043.159.033.284-.037a.581.581,0,0,1,.429-.047.269.269,0,0,1,.045.231.255.255,0,0,0,.052.233c-.048.125-.043.2.008.219s.074.08.076.176a12.5,12.5,0,0,1-.4,1.749c-.177.579-.342,1.185-.495,1.827a.667.667,0,0,1-.175.174c-.064.039-.14.088-.223.141s-.14.106-.214.158a.43.43,0,0,1-.439.045,1.385,1.385,0,0,0-.206-.078,1.03,1.03,0,0,0-.276.055,1.339,1.339,0,0,1-.3.055,3.386,3.386,0,0,1-.484-.008c-.171-.014-.35-.023-.532-.039-.2-.01-.388-.018-.565-.018a.577.577,0,0,1-.379-.1.194.194,0,0,0-.21.067.291.291,0,0,1-.214.106,1.363,1.363,0,0,0-.581-.074c-.214.014-.443.016-.682.008a1.342,1.342,0,0,0-.495.049,2.738,2.738,0,0,1-.532.086,1.38,1.38,0,0,1-.464.027,1.7,1.7,0,0,0-.466.029,2.275,2.275,0,0,0-.474.084,1.118,1.118,0,0,1-.437.047.439.439,0,0,1-.229-.039.4.4,0,0,0-.227-.043.4.4,0,0,1-.278,0,.423.423,0,0,0-.214-.041,1.7,1.7,0,0,0-.46-.061.651.651,0,0,1-.437-.17.271.271,0,0,1-.216.051.522.522,0,0,0-.2-.025.538.538,0,0,1-.229.031.7.7,0,0,0-.136-.008,1.76,1.76,0,0,0-.4.149.324.324,0,0,1-.544-.268,2.311,2.311,0,0,0-.016-.323c0-.068-.01-.149-.021-.233a.818.818,0,0,1,.014-.27,1.012,1.012,0,0,1,.062-.307.677.677,0,0,0,.057-.272,2.041,2.041,0,0,0-.012-.34c-.016-.1-.031-.205-.052-.3a2.717,2.717,0,0,0,.159-.761,3.693,3.693,0,0,1,.134-.8,3.051,3.051,0,0,1,.128-.473,2.153,2.153,0,0,0,.081-.256.858.858,0,0,0,.016-.217c-.006-.072-.008-.143-.013-.213.006-.119.021-.184.039-.2s.037-.08.041-.2a3.011,3.011,0,0,0,0-.61,1.245,1.245,0,0,1,.117-.651.608.608,0,0,0,.083-.327.433.433,0,0,1,0-.178,1.967,1.967,0,0,1,.12-.383c.055-.135.115-.276.187-.424a1.735,1.735,0,0,0,.033-.309c0-.08,0-.17,0-.266.072-.172.1-.274.08-.311a.2.2,0,0,1-.01-.158,1.978,1.978,0,0,1,.087-.291,1.637,1.637,0,0,0,.089-.291,2.142,2.142,0,0,1,.121-.528.362.362,0,0,0-.019-.372,1.6,1.6,0,0,0,.225-.749,4.421,4.421,0,0,1,.095-.81,1.052,1.052,0,0,1,.068-.327c.039-.1.08-.207.124-.333a1.265,1.265,0,0,0,.027-.27,1.272,1.272,0,0,1,.029-.268,4.256,4.256,0,0,0,.114-.421c.027-.133.055-.284.091-.454a1.443,1.443,0,0,1,.074-.219.832.832,0,0,0,.074-.221,1.193,1.193,0,0,1-.008-.231,1.723,1.723,0,0,1,.029-.268.735.735,0,0,1,.167-.407,2.711,2.711,0,0,0-.041-.284.443.443,0,0,1,.132-.3.95.95,0,0,1,.026-.466.541.541,0,0,0,.087-.219c.037-.266.066-.5.091-.7s.053-.4.093-.6a1.154,1.154,0,0,1,.078-.239,1.434,1.434,0,0,0,.076-.239,1.284,1.284,0,0,0,.031-.286.574.574,0,0,1,.052-.254,5.891,5.891,0,0,0,.342-.972,1.534,1.534,0,0,1,.264-.612,1.956,1.956,0,0,1,.14-1.1,8.228,8.228,0,0,0,.38-1.3,6.715,6.715,0,0,0,.179-.927,5.939,5.939,0,0,1,.225-1.033,2.35,2.35,0,0,0,.107-.651,1.857,1.857,0,0,1,.031-.43,1.441,1.441,0,0,1,.134-.368c.062-.123.124-.248.187-.372q.087-.15.154-.282a.545.545,0,0,1,.2-.213,6.337,6.337,0,0,0,2.383-.09,10.148,10.148,0,0,1,2.277-.258c.2.029.392.068.579.11a2.825,2.825,0,0,0,.587.072.919.919,0,0,0,.4-.053,4.329,4.329,0,0,1,.532-.139,1,1,0,0,0,.373.022,1.473,1.473,0,0,1,.161-.033.5.5,0,0,1,.245.033.488.488,0,0,0,.245.031,1.237,1.237,0,0,0,.41.037,2.763,2.763,0,0,1,.425-.006,2.276,2.276,0,0,0,.373-.066,1.053,1.053,0,0,1,.4-.037,2.446,2.446,0,0,1,.61.037,4.592,4.592,0,0,0,.686.063.75.75,0,0,1,.328-.029c.06.02.115.037.169.057a2.46,2.46,0,0,0,.732-.029A2.3,2.3,0,0,1,1105.263,154.584Z" transform="translate(-940.613 -154.508)" fill="#fff"/>
        </g>
        <path id="Path_16107" data-name="Path 16107" d="M1282.525,579.445,1001.7,581.893s-17.592-45.122-22.63-131.971c120.1,127.9,281.031,45.847,297.716-1.332,4.471-168.216,37.929-316.821,39.819-324.131C1314.612,133.775,1264.743,368.833,1282.525,579.445Z" transform="translate(-977.732 -110.248)" fill-rule="evenodd" opacity="0.2" fill="url(#linear-gradient-12)" style="mix-blend-mode: multiply;isolation: isolate"/>
        <path id="Path_16108" data-name="Path 16108" d="M1129.245,579.445s-26.408-160.43,34.08-454.987C1163.326,124.458,1112.29,368.9,1129.245,579.445Z" transform="translate(-824.453 -110.248)" fill-rule="evenodd" fill="url(#linear-gradient-12)"/>
        <g id="Group_5644" data-name="Group 5644" transform="translate(17.86 127.692)">
          <g id="Group_5643" data-name="Group 5643" opacity="0.3" style="mix-blend-mode: multiply;isolation: isolate">
            <path id="Path_16109" data-name="Path 16109" d="M1253.6,191.036c-86.139,3.627-172,11-258.044,16.1.66-3.2,1-4.808,1.692-8.016,85.93-5.258,171.668-12.887,257.7-16.648C1254.412,185.921,1254.142,187.632,1253.6,191.036Z" transform="translate(-978.095 -182.472)" fill="#b589b6" fill-rule="evenodd"/>
            <path id="Path_16110" data-name="Path 16110" d="M1227.5,198.894c-69.993,2.8-139.812,7.891-209.694,12.443.588-3.224.886-4.837,1.5-8.069,69.834-4.663,139.6-9.9,209.548-12.754C1228.309,193.884,1228.037,195.559,1227.5,198.894Z" transform="translate(-954.488 -174.783)" fill="#b589b6" fill-rule="evenodd"/>
            <path id="Path_16111" data-name="Path 16111" d="M1231.2,214.279c-73.928,2.924-147.7,8.071-221.544,12.515.482-3.21.732-4.814,1.243-8.024,73.864-4.491,147.662-9.722,221.62-12.629C1231.994,209.407,1231.73,211.032,1231.2,214.279Z" transform="translate(-963.129 -159.841)" fill="#b589b6" fill-rule="evenodd"/>
            <path id="Path_16112" data-name="Path 16112" d="M1093.186,211.034c-33.429,2.187-66.864,4.352-100.322,6.111.542-3.2.82-4.8,1.4-8.006,33.447-1.776,66.87-3.981,100.286-6.209C1093.992,206.177,1093.719,207.8,1093.186,211.034Z" transform="translate(-980.953 -162.912)" fill="#b589b6" fill-rule="evenodd"/>
            <path id="Path_16113" data-name="Path 16113" d="M1039.081,205.226c-17.861,1.129-26.827,1.672-44.937,2.654.6-3.2.911-4.8,1.544-8.008,18.091-1,27.049-1.555,44.9-2.711C1039.969,200.391,1039.668,202,1039.081,205.226Z" transform="translate(-979.595 -168.428)" fill="#b589b6" fill-rule="evenodd"/>
            <path id="Path_16114" data-name="Path 16114" d="M1023.516,220.776c-12.652.734-19,1.09-31.8,1.761.48-3.2.73-4.806,1.243-8.008,12.792-.673,19.144-1.033,31.8-1.774C1024.245,215.964,1024,217.568,1023.516,220.776Z" transform="translate(-982.169 -153.519)" fill="#b589b6" fill-rule="evenodd"/>
            <path id="Path_16115" data-name="Path 16115" d="M1197.4,206.629c-51.246,2.015-102.406,5.117-153.575,8.439.534-3.239.806-4.861,1.36-8.11,51.164-3.384,102.313-6.539,153.559-8.568C1198.2,201.7,1197.933,203.347,1197.4,206.629Z" transform="translate(-926.876 -167.253)" fill="#b589b6" fill-rule="evenodd"/>
            <path id="Path_16116" data-name="Path 16116" d="M1230.133,225.5c-74.315,3.059-148.5,8.085-222.739,12.46.4-3.214.608-4.818,1.039-8.028,74.309-4.4,148.563-9.487,222.956-12.5C1230.881,220.66,1230.63,222.271,1230.133,225.5Z" transform="translate(-965.535 -149.046)" fill="#b589b6" fill-rule="evenodd"/>
            <path id="Path_16117" data-name="Path 16117" d="M1207.316,233.1c-60.223,2.563-120.367,6.273-180.522,9.947.361-3.226.549-4.837.94-8.059,60.239-3.7,120.464-7.435,180.773-9.951C1208.023,228.265,1207.784,229.877,1207.316,233.1Z" transform="translate(-944.946 -141.771)" fill="#b589b6" fill-rule="evenodd"/>
            <path id="Path_16118" data-name="Path 16118" d="M1042.983,238.35c-14.509.876-21.781,1.313-36.422,2.152.344-3.22.524-4.83.9-8.044,14.653-.843,21.933-1.281,36.461-2.165C1043.529,233.515,1043.342,235.125,1042.983,238.35Z" transform="translate(-966.418 -136.75)" fill="#b589b6" fill-rule="evenodd"/>
            <g id="Group_5639" data-name="Group 5639" transform="translate(3.961 79.322)">
              <path id="Path_16119" data-name="Path 16119" d="M989.007,250.258l.1-.947c.989-9.638,1.546-14.354,2.838-24.017l.091-.675.717-.035c11.052-.577,16.543-.88,27.486-1.5l1.037-.059-.132.976c-1.313,9.712-1.878,14.417-2.886,23.98l-.072.691-.734.041c-10.92.614-16.405.913-27.441,1.493Zm4.551-24.084c-1.185,8.881-1.74,13.575-2.647,22.349,10.135-.534,15.6-.831,25.705-1.4.932-8.8,1.5-13.5,2.688-22.354C1009.267,225.339,1003.8,225.64,993.558,226.174Z" transform="translate(-989.007 -223.023)" fill="#b589b6"/>
            </g>
            <path id="Path_16120" data-name="Path 16120" d="M1146.553,246.19q-32.9,1.411-65.773,3.228c.357-3.278.542-4.914.923-8.177q32.94-1.8,65.9-3.208C1147.176,241.286,1146.966,242.917,1146.553,246.19Z" transform="translate(-887.655 -129.35)" fill="#b589b6" fill-rule="evenodd"/>
            <path id="Path_16121" data-name="Path 16121" d="M1155.873,247.986c-50.149,2.817-100.282,5.921-150.43,8.789.243-3.241.373-4.859.649-8.092,50.234-2.9,100.454-6.042,150.694-8.873C1156.409,243.072,1156.228,244.707,1155.873,247.986Z" transform="translate(-967.604 -127.652)" fill="#b589b6" fill-rule="evenodd"/>
            <path id="Path_16122" data-name="Path 16122" d="M1162.621,254.015q-49.358,2.274-98.683,5.084c.28-3.308.427-4.957.734-8.245q49.442-2.8,98.9-5.1C1163.182,249.044,1162.992,250.7,1162.621,254.015Z" transform="translate(-905.528 -121.969)" fill="#b589b6" fill-rule="evenodd"/>
            <path id="Path_16123" data-name="Path 16123" d="M1121.131,256.76q-58.083,3.354-116.166,6.68c.183-3.257.282-4.882.5-8.132q58.2-3.3,116.389-6.79C1121.55,251.805,1121.406,253.454,1121.131,256.76Z" transform="translate(-968.112 -119.324)" fill="#b589b6" fill-rule="evenodd"/>
            <g id="Group_5640" data-name="Group 5640" transform="translate(0.935 119.456)">
              <path id="Path_16124" data-name="Path 16124" d="M987.539,270.924l.043-.9c.491-9.747.8-14.5,1.591-24.193l.06-.712.752-.037c11.015-.575,16.486-.874,27.381-1.483l.987-.057-.078.937c-.833,9.712-1.164,14.46-1.7,24.187l-.039.732-.771.041c-10.852.587-16.3.876-27.28,1.44Zm3.292-24.256c-.719,8.908-1.033,13.636-1.484,22.53,10.094-.518,15.521-.806,25.553-1.35.495-8.951.827-13.7,1.583-22.57C1006.471,245.838,1001.023,246.136,990.831,246.668Z" transform="translate(-987.539 -243.54)" fill="#b589b6"/>
            </g>
            <path id="Path_16125" data-name="Path 16125" d="M1142.329,290.713q-32.068,1.226-64.137,2.519c.049-3.625.084-5.422.171-9q32.155-1.394,64.314-2.7C1142.521,285.173,1142.45,287.008,1142.329,290.713Z" transform="translate(-890.402 -87.761)" fill="#b589b6" fill-rule="evenodd"/>
            <path id="Path_16126" data-name="Path 16126" d="M1085.035,301.683q-40.042,1.212-80.089,2.334c-.157-3.4-.225-5.1-.344-8.488q40.129-1.306,80.256-2.744C1084.911,296.326,1084.946,298.106,1085.035,301.683Z" transform="translate(-968.497 -77.001)" fill="#b589b6" fill-rule="evenodd"/>
            <path id="Path_16127" data-name="Path 16127" d="M1132.466,292q-54.883,2.2-109.77,4.333c-.062-3.435-.082-5.145-.109-8.554q55.022-2.333,110.04-4.761C1132.544,286.588,1132.511,288.384,1132.466,292Z" transform="translate(-949.412 -86.339)" fill="#b589b6" fill-rule="evenodd"/>
            <path id="Path_16128" data-name="Path 16128" d="M1036.555,294.1c-12.72.481-19.1.718-31.965,1.184-.091-3.37-.128-5.053-.185-8.405,12.887-.516,19.283-.779,32.029-1.311C1036.464,288.97,1036.489,290.675,1036.555,294.1Z" transform="translate(-968.707 -83.901)" fill="#b589b6" fill-rule="evenodd"/>
            <path id="Path_16129" data-name="Path 16129" d="M1158.151,299.756q-47.58,1.555-95.16,3.093c-.051-3.664-.066-5.481-.08-9.1q47.707-1.749,95.416-3.49C1158.235,294.025,1158.2,295.922,1158.151,299.756Z" transform="translate(-906.619 -79.412)" fill="#b589b6" fill-rule="evenodd"/>
            <path id="Path_16130" data-name="Path 16130" d="M1074.448,301.229c-11.234.356-16.84.532-28.068.878-.083-3.589-.115-5.375-.163-8.926,11.252-.4,16.873-.606,28.133-1.017C1074.371,295.767,1074.39,297.581,1074.448,301.229Z" transform="translate(-924.334 -77.594)" fill="#b589b6" fill-rule="evenodd"/>
            <g id="Group_5641" data-name="Group 5641" transform="translate(0.19 201.251)">
              <path id="Path_16131" data-name="Path 16131" d="M988.18,312.879l-.043-.794c-.53-9.99-.715-14.859-.94-24.805l-.019-.8.843-.033c10.859-.415,16.247-.628,26.965-1.058l.882-.033.014.837c.171,10.037.328,14.964.81,25.1l.037.827-.874.023c-10.663.291-16.024.434-26.835.714Zm.755-24.833c.21,9.137.394,13.982.88,23.16,9.964-.26,15.3-.4,25.12-.671-.437-9.323-.6-14.246-.756-23.481C1004.311,287.45,998.944,287.663,988.934,288.047Z" transform="translate(-987.178 -285.355)" fill="#b589b6"/>
            </g>
            <path id="Path_16132" data-name="Path 16132" d="M1144.027,267.694q-32.507,1.452-65,3.145c.221-3.409.336-5.105.586-8.482q32.579-1.716,65.172-3.2C1144.464,262.553,1144.313,264.259,1144.027,267.694Z" transform="translate(-889.521 -109.149)" fill="#b589b6" fill-rule="evenodd"/>
            <path id="Path_16133" data-name="Path 16133" d="M1153.347,269.4c-49.63,2.605-99.252,5.354-148.884,7.907.078-3.294.125-4.937.239-8.218,49.743-2.645,99.476-5.491,149.218-8.165C1153.677,264.3,1153.561,265.993,1153.347,269.4Z" transform="translate(-968.644 -107.462)" fill="#b589b6" fill-rule="evenodd"/>
            <path id="Path_16134" data-name="Path 16134" d="M1159.636,276q-48.23,2.148-96.444,4.558c.128-3.451.2-5.166.359-8.583q48.344-2.485,96.7-4.716C1159.988,270.729,1159.867,272.478,1159.636,276Z" transform="translate(-906.321 -101.408)" fill="#b589b6" fill-rule="evenodd"/>
            <path id="Path_16135" data-name="Path 16135" d="M1119.292,278.407q-57.468,2.873-114.938,5.641c.016-3.32.035-4.976.087-8.28q57.6-2.867,115.193-5.931C1119.481,273.248,1119.411,274.962,1119.292,278.407Z" transform="translate(-968.76 -98.941)" fill="#b589b6" fill-rule="evenodd"/>
            <g id="Group_5642" data-name="Group 5642" transform="translate(0 160.008)">
              <path id="Path_16136" data-name="Path 16136" d="M987.091,291.8l0-.851c-.019-9.853.045-14.653.332-24.459l.021-.753.794-.041c10.943-.538,16.374-.816,27.19-1.375l.938-.047-.031.89c-.338,9.818-.429,14.639-.464,24.567l0,.775-.814.039c-10.762.495-16.166.739-27.062,1.219Zm2.026-24.512c-.258,9.006-.323,13.789-.311,22.8,10.034-.44,15.416-.685,25.345-1.142.037-9.133.128-13.953.431-22.949C1004.636,266.511,999.223,266.787,989.117,267.285Z" transform="translate(-987.086 -264.271)" fill="#b589b6"/>
            </g>
          </g>
        </g>
        <g id="Group_5645" data-name="Group 5645" transform="translate(171.585 453.117)">
          <path id="Path_16137" data-name="Path 16137" d="M1061.7,352.643l-.032-1.631,115.652-2.176.032,1.631Z" transform="translate(-1061.666 -348.835)" fill="#b589b6"/>
        </g>
        <path id="Path_16138" data-name="Path 16138" d="M990.887,238.916l3.778-3.179,6.749,8.282s7.117-15.377,17.762-23.376l4.019,1.927s-14.342,11.586-18.856,26.554H998.8S993.89,241.473,990.887,238.916Z" transform="translate(-965.192 -18.284)" fill-rule="evenodd" fill="url(#linear-gradient-14)"/>
        <path id="Path_16139" data-name="Path 16139" d="M988.989,258.755l3.78-3.177,6.746,8.282s7.117-15.379,17.762-23.378l4.021,1.929s-14.344,11.584-18.858,26.552H996.9S991.994,261.312,988.989,258.755Z" transform="translate(-967.206 0.684)" fill-rule="evenodd" fill="url(#linear-gradient-14)"/>
        <path id="Path_16140" data-name="Path 16140" d="M987.72,300.819l3.78-3.179,6.748,8.282s7.116-15.379,17.759-23.377l4.022,1.929s-14.342,11.584-18.856,26.552h-5.541S990.725,303.374,987.72,300.819Z" transform="translate(-968.553 40.9)" fill-rule="evenodd" fill="url(#linear-gradient-14)"/>
        <path id="Path_16141" data-name="Path 16141" d="M1137.883,517.161s-8.4-186.707,18.481-316C1156.364,201.159,1135.488,457.19,1137.883,517.161Z" transform="translate(-810.516 -36.914)" fill-rule="evenodd" opacity="0.5" fill="url(#radial-gradient-8)" style="mix-blend-mode: screen;isolation: isolate"/>
      </g>
      <g id="Group_5647" data-name="Group 5647" transform="translate(888.211 393.052)">
        <path id="Path_16142" data-name="Path 16142" d="M1044.534,238.677l6.66,5.4s31.644,135.034-104.013,211.364l-11.693,1.16S1034.9,328.134,1044.534,238.677Z" transform="translate(-838.041 -196.801)" fill-rule="evenodd" fill="url(#radial-gradient-9)"/>
        <path id="Path_16143" data-name="Path 16143" d="M985.658,477.066S880.171,425.209,888.7,269.454l65.273-52.185s53.956,2.355,140.73,41.876C1094.7,259.145,1126.243,400.737,985.658,477.066Z" transform="translate(-888.211 -217.269)" fill-rule="evenodd" fill="url(#linear-gradient-17)"/>
        <path id="Path_16144" data-name="Path 16144" d="M890.882,270.428s-10.432,123.384,84.9,188.154c0,0,119.468-49.016,107.851-197.061,0,0-58.11-32.313-134.532-40.2C949.1,221.318,908.244,252.635,890.882,270.428Z" transform="translate(-885.733 -213.398)" fill-rule="evenodd" fill="url(#radial-gradient-10)"/>
        <path id="Path_16145" data-name="Path 16145" d="M899.552,288.74A61.727,61.727,0,0,0,906,313.477s17.724-7.1,29.663-9.738c0,0,22.177-4.288,51.46,1.438l4.693-25.57s-27.767-8.722-59.357-6.244C932.461,273.363,911.808,279,899.552,288.74Z" transform="translate(-876.175 -164.061)" fill-rule="evenodd" fill="url(#linear-gradient-18)"/>
        <path id="Path_16146" data-name="Path 16146" d="M909.1,261.65l12.9-7.2,24.265,5.774s-3.949,39.979,1.692,94.776l-14.834,3.852-10.137-1.1S905.621,311,909.1,261.65Z" transform="translate(-866.534 -181.717)" fill-rule="evenodd" fill="url(#linear-gradient-19)"/>
        <path id="Path_16147" data-name="Path 16147" d="M925.426,217.269s-37.927,120.555,31.683,259.8c0,0,133.532-59.947,109.047-217.921C1066.155,259.145,1015.577,231.856,925.426,217.269Z" transform="translate(-859.662 -217.269)" fill-rule="evenodd" opacity="0.86" fill="url(#linear-gradient-20)" style="mix-blend-mode: multiply;isolation: isolate"/>
        <path id="Path_16148" data-name="Path 16148" d="M964.286,233.839s32.025,11.846,42.783,20.091c0,0,7.369,41.346-8.284,87.839l10.018,3.818s15.2-52.516,6.062-96.765c0,0-29.933-14.223-51.419-20.756Z" transform="translate(-808.371 -206.946)" fill-rule="evenodd" fill="url(#linear-gradient-19)" style="mix-blend-mode: soft-light;isolation: isolate"/>
        <path id="Path_16149" data-name="Path 16149" d="M975.3,308.714s6.013-9.826,8.614-19.628l10.574,3.112a174.17,174.17,0,0,1-9.784,24.526Z" transform="translate(-795.79 -148.604)" fill-rule="evenodd" fill="url(#linear-gradient-22)" style="mix-blend-mode: soft-light;isolation: isolate"/>
      </g>
    </g>
  </g>
</svg>
